<?xml version="1.0" standalone="no"?>
<!DOCTYPE svg PUBLIC "-//W3C//DTD SVG 1.1//EN" "http://www.w3.org/Graphics/SVG/1.1/DTD/svg11.dtd" >
<svg xmlns="http://www.w3.org/2000/svg" xmlns:xlink="http://www.w3.org/1999/xlink" version="1.1">
<metadata></metadata>
<defs>
<font id="th_dan_vi_vekregular" horiz-adv-x="0" >
<font-face units-per-em="2048" ascent="1638" descent="-410" />
<missing-glyph horiz-adv-x="520" />
<glyph unicode="&#x3b;&#x3b;For&#x20;Education&#x20;Used&#x20;Only&#x3b;&#x3b;" horiz-adv-x="1296" />
<glyph unicode="&#x3b;&#x3b;Registered&#x3b;&#x3b;" horiz-adv-x="1296" />
<glyph unicode="&#x3b;&#x3b;Trademark&#x3b;&#x3b;" horiz-adv-x="1938" />
<glyph unicode="&#x3b;&#x3b;Multiply&#x3b;&#x3b;" horiz-adv-x="739" d="M103.5 557.5q-5.5 16.5 2.5 28.5q15 11 35 12t37 -12q21 -20 128 -127q2 -3 13 -15.5t16 -17t14.5 -11.5t18 -6.5t16.5 7.5q21 17 22 21q3 6 14 20q21 30 67.5 70.5t61.5 57.5q1 1 3.5 2.5t4.5 3.5q3 3 8 5q0 1 7 3t17.5 0t18.5 -12q11 -24 -21 -61q-34 -36 -71 -75 t-71 -75q-30 -26 -16 -42q20 -24 108 -109q12 -11 43 -38t39 -36q31 -38 14 -52q-1 -1 -2 -3t-2 -3q-28 -22 -77 16q-41 31 -91 80t-76.5 71.5t-37.5 13.5l-12 -12q-91 -114 -145 -158q-43 -34 -65 -6l-4 4q-2 30 6.5 44.5t32.5 33.5q10 8 29 27t49.5 51t47 60t7.5 39l-5 5 q-21 20 -44 43.5t-51.5 52l-43.5 43.5q-26 23 -32 31q-8 9 -13.5 25.5zM605 588z" />
<glyph unicode="&#x3b;&#x3b;Divide&#x3b;&#x3b;" horiz-adv-x="969" d="M101 354q0 24 15 36.5t32.5 14.5t48.5 2q207 -14 553 -14q15 0 43 2.5t41 2.5q8 0 14 -3q21 -11 21 -33q0 -14 -2 -20t-4.5 -7.5t-13.5 -2.5t-20 -3q-36 -9 -145 -9q-36 0 -186.5 3.5t-187.5 3.5q-15 0 -44.5 -1t-43.5 -1q-8 0 -23 0.5t-22 0.5q-3 0 -11 -0.5t-11 -0.5 t-11.5 -0.5t-12.5 0t-10.5 1.5t-10 4t-6.5 9t-3 15zM412 125q0 33 19 54t49 21q53 0 82 -48q10 -16 13 -30q0 -34 -23 -57t-55 -23q-39 0 -62 28t-23 55zM413 596q0 33 19 54t49 21q53 0 82 -48q10 -16 13 -30q0 -34 -23 -57t-55 -23q-39 0 -62 28t-23 55z" />
<glyph unicode="&#x2018;&#x2018;" horiz-adv-x="553" d="M100 706q9 93 34 155q41 91 61 94q11 4 19 -18q3 -6 -8 -45q-23 -52 -26 -115q40 -10 54 -48q7 -8 9 -27q-3 -29 -25.5 -46.5t-49.5 -14.5q-39 5 -57 42q-9 5 -11 23zM310 706q9 93 34 155q41 91 61 94q11 4 19 -18q3 -6 -8 -45q-23 -52 -26 -115q40 -10 54 -48 q7 -8 9 -27q-3 -29 -25.5 -46.5t-49.5 -14.5q-39 5 -57 42q-9 5 -11 23z" />
<glyph unicode="&#x2019;&#x2019;" horiz-adv-x="553" d="M100 892q3 29 25.5 46.5t49.5 14.5q39 -5 57 -42q9 -5 11 -23q-9 -93 -34 -155q-41 -91 -61 -94q-11 -4 -19 18q-3 6 8 45q23 52 26 115q-40 10 -54 48q-7 8 -9 27zM310 892q3 29 25.5 46.5t49.5 14.5q39 -5 57 -42q9 -5 11 -23q-9 -93 -34 -155q-41 -91 -61 -94 q-11 -4 -19 18q-3 6 8 45q23 52 26 115q-40 10 -54 48q-7 8 -9 27z" />
<glyph unicode="&#xe24;&#xe32;" horiz-adv-x="1151" d="M74 619.5q0 7.5 4 14.5t9 12l12 12t11 12q6 8 23 31t25 33t25 28.5t30 27.5t33 19t42 14q19 4 39.5 5t37 0.5t38 -6t35 -8.5t36 -12.5t33 -14t34.5 -17.5t31 -17t32.5 -18.5t30.5 -17.5t8 -8q25 46 75.5 76t99.5 30q46 0 107 -28q78 -36 109 -89t31 -127q0 -35 -7 -121 t-7 -130q0 -32 1 -406.5t1 -405.5q0 -16 -1 -51.5t-1 -50.5v-28q0 -38 -29 -38q-30 0 -30 30q0 7 2 23q3 19 3 44t-1.5 57t-1.5 47v906q0 111 7 177q-3 34 -70 80t-114 46q-8 0 -12 -1q-69 -14 -107.5 -58t-48.5 -126q2 -194 6 -581t6 -581q0 -3 1 -14.5t0.5 -15.5t-2 -13 t-5 -13t-10.5 -7.5t-17 -3.5q-9 0 -15.5 1.5t-10.5 6t-6.5 7.5t-3 12t-0.5 11.5t0.5 13t0.5 11.5q8 212 7.5 325t-5.5 324t-5 324q0 25 3.5 110.5t0.5 132.5q-2 42 -7 50q-16 27 -65 48.5t-104.5 30.5t-108.5 4.5t-76 -24.5q-51 -44 11 -59q30 -6 56 -20q68 -38 2 -72 q-109 -58 -104 -195q1 -21 2.5 -30t6.5 -22t17.5 -20.5t32.5 -11.5q52 -12 64 -71t-24 -129q-5 -10 -16.5 -39.5t-19.5 -45.5t-25.5 -28.5t-39.5 -8.5q-14 3 -22.5 13t-12 28t-4.5 32.5t-1 38.5t-1 34q-2 43 -7 261q0 95 9 130q16 60 65 100q-12 -1 -22.5 -0.5t-23 0 t-22.5 -2.5q-8 -1 -24.5 -10t-28.5 -8.5t-22 16.5q-5 8 -5 15.5zM205 202q-4 -86 12 -135q17 14 27.5 32t14 31.5t7 36t6.5 32.5q8 43 -24 47q-39 5 -43 -44z" />
<glyph unicode="&#xe26;&#xe32;" horiz-adv-x="1171" d="M57.5 129.5q-5.5 101.5 88.5 171.5q35 23 29 63q-9 74 7 130.5t67 101.5q-19 16 -37 12t-36 -3.5t-24 16.5q-8 19 -2.5 35.5t28.5 40t25 26.5q48 64 138 87t181 -0.5t142 -86.5q1 -2 4 -5q27 43 75 70t95 27q46 0 107 -28q78 -36 109 -89t31 -127q0 -35 -7 -121t-7 -130 q0 -32 1 -406.5t1 -405.5q0 -16 -1 -51.5t-1 -50.5v-28q0 -38 -29 -38q-30 0 -30 30q0 7 2 23q3 19 3 44t-1.5 57t-1.5 47v906q0 111 7 177q-3 34 -70 80t-114 46q-8 0 -12 -1q-70 -14 -108.5 -60t-48.5 -133q0 -56 6.5 -191.5t3.5 -209.5q-5 -107 3 -332t-3 -332 q-1 -15 1 -32.5t6 -38.5t5 -33q0 -2 2.5 -15.5t1.5 -18.5t-6.5 -12t-18.5 -9q-19 -3 -28.5 6t-10.5 17.5t-2 27.5q-3 191 -4 353q-5 752 -5 904q1 25 -8.5 38.5t-32.5 25.5q-38 18 -68 28.5t-69.5 18.5t-76.5 1.5t-69 -27.5q-19 -13 -27 -21.5t-5.5 -23.5t25.5 -31t34 -34.5 t5 -39.5t-33 -38q-46 -28 -58 -63.5t-9 -91.5q5 -130 17 -373q1 -24 -16 -37.5t-36 -12.5t-30 5q-99 64 -104.5 165.5zM122 111q1 -3 1 -12t2 -13q23 -43 50 -41q14 2 19 45t-2 54q-5 9 -7.5 23.5t-2.5 28t-1.5 25.5t-7 18.5t-15.5 3.5q-67 -14 -36 -132z" />
<glyph unicode="&#xd;" horiz-adv-x="579" />
<glyph unicode=" "  horiz-adv-x="520" />
<glyph unicode="&#x09;" horiz-adv-x="520" />
<glyph unicode="&#xa0;" horiz-adv-x="520" />
<glyph unicode="!" horiz-adv-x="323" d="M101 23q1 24 14 37t31 15q56 5 59 -43q3 -51 -53 -49q-18 1 -26.5 2.5t-17 10.5t-7.5 27zM128 219q-1 8 0.5 25t1.5 21q2 84 2.5 300.5t4.5 318.5q0 12 0.5 19.5t4 18.5t12 16.5t21.5 5.5q25 -1 36.5 -20t11.5 -42q-2 -37 -8 -103q-16 -155 -28 -515q0 -5 0.5 -17 t0 -19.5t-2.5 -16t-9 -12.5t-19 -4q-14 0 -21 8t-8 16z" />
<glyph unicode="&#x22;" horiz-adv-x="480" d="M102 824q2 17 8.5 54.5t9.5 67t3 64.5q0 21 16.5 46.5t46.5 25.5q31 0 31 -34v-6q-3 0 -33 -267q-7 -36 -35 -36q-27 0 -39 27t-8 58zM285 804q0 32 2.5 69t6.5 81.5t6 68.5q0 47 34 55q16 0 26 -7.5t14 -25t4.5 -31t0.5 -42.5v-10q1 -32 -7.5 -95t-9.5 -75 q0 -18 -10.5 -27.5t-22.5 -11.5q-22 0 -33 15t-11 36z" />
<glyph unicode="#" horiz-adv-x="993" d="M100 335q0 13 10 22.5t23 9.5q95 0 118 -8q19 -7 74 -7q19 0 24 5q10 0 10 187q0 21 -1 27q-6 19 -80 19q-22 0 -41 -6q-7 -2 -26 -16.5t-28 -14.5q-14 0 -35 14t-21 33q2 22 18.5 35.5t50 19t56.5 6.5t66 1q4 0 15 -0.5t15.5 0t11 2.5t9.5 8t3 16q0 29 -1.5 87.5 t-1.5 87.5q0 8 2 17t9 19t18 10q39 0 39 -71q0 -82 3 -163q0 -1 -0.5 -4.5t-0.5 -5.5t1.5 -5t4 -4.5t7.5 -3.5t13 -3q13 -1 70.5 0t69.5 1q3 0 5.5 0.5t4 1t3 1.5t2 2l1.5 3t1.5 3.5l1.5 4.5t2 5q2 39 4 115t4 115q0 20 24 26q21 0 31 -18.5t10 -42.5q0 -37 -3 -104.5 t-4 -84.5q0 -23 7 -26l45 -4h2q6 0 22.5 1t30 1.5t28 -1t24.5 -7t12 -15.5q0 -10 -2.5 -17t-9 -12t-12.5 -8t-17 -5.5t-19 -3.5t-22.5 -3t-22.5 -3q-1 0 -17 2t-24.5 1t-18 -12.5t-9.5 -33.5q0 -15 2 -45t2 -44q0 -16 -2 -46t-2 -46v-6.5v-6t0.5 -4.5t1.5 -4.5t3.5 -3.5 t6.5 -3h26h31.5t30.5 -1t33 -3t27.5 -6t25 -10.5t15.5 -14.5q0 -1 1.5 -4t1.5 -4q0 -18 -19 -22.5t-63 -4.5h-9h-1q-12 0 -34.5 0.5t-30.5 0.5q-3 0 -12 1t-13.5 0t-10.5 -3.5t-8.5 -11t-2.5 -22.5q0 -9 1.5 -42t1.5 -51q0 -5 1 -33t0 -44t-4 -38t-12 -32.5t-23 -10.5 t-23.5 10t-9.5 22q0 28 1.5 87t1.5 83q6 85 -16 85q-3 2 -25 5.5t-58 7t-67 3.5q-19 0 -24.5 -4.5t-5.5 -24.5q-1 -5 0.5 -17.5t1.5 -20.5q0 -32 -3 -90t-3 -89v-2v-4v-5t-1 -5.5t-2.5 -6t-4.5 -6.5t-7 -5.5t-10 -5t-13 -3.5q-17 0 -25 17t-8 33q0 33 4.5 100.5t4.5 101.5 q0 13 -1.5 22t-5.5 14.5t-7.5 9t-12 5t-14.5 2t-18.5 0.5t-21.5 1q-10 1 -39 1t-49.5 1.5t-44 6t-36 14.5t-12.5 26zM101 339zM398 909zM424 368q3 -21 21 -26q4 -1 9 -2q30 -3 145 -8q18 0 22.5 23t4.5 75v15q0 18 -2 53.5t-2 53.5q0 5 -0.5 8.5t-1 6t-2 4t-2 2.5t-3.5 2 t-4 1.5t-5 1.5t-6 1q-24 1 -147 1q-10 0 -16 -7t-8 -22.5t-3 -24t0 -29.5v-21v-108zM658 927z" />
<glyph unicode="$" horiz-adv-x="815" d="M101 217v7.5v10.5t0.5 11.5t3 12t6 9.5t9.5 7.5t14 2.5q35 0 35 -77q0 -5 -0.5 -12t-0.5 -9q0 -60 59.5 -105.5t116.5 -45.5q5 0 8.5 1t6 3.5t4 5t3 7t2 8t0.5 10v10.5v11.5v11.5q0 158 1 158q0 17 -0.5 53t-0.5 53q0 49 2 73q0 28 -9.5 44.5t-33.5 34.5 q-83 49 -121.5 110.5t-38.5 155.5q0 84 50 147t128 91q41 15 41 53q0 6 -1 17t-1 16q0 78 34 78q20 0 26.5 -14t6.5 -43q0 -13 -0.5 -39.5t-0.5 -38.5q0 -14 16.5 -21.5t36.5 -7.5q28 -2 66 -22q1 0 20.5 -9t34.5 -17t29.5 -21.5t14.5 -25.5q-1 -9 0 -28t-1 -44t-5.5 -47.5 t-14 -38t-25.5 -15.5q-12 0 -19 7.5t-7 19.5q0 18 3.5 51.5t3.5 40.5q0 29 -42.5 50t-91.5 30q-6 0 -11.5 -1.5t-9 -6t-6 -8t-4 -11l-2.5 -12.5t-1 -15v-15v-16v-16q0 -323 8 -323q0 -1 22.5 -13t56.5 -31.5t57 -35.5q136 -96 136 -247q0 -90 -73 -151t-184 -83 q-7 -2 -9 -2.5t-6 -2.5t-5 -5t-1 -8q0 -13 4.5 -36t5.5 -32q2 -17 -10 -30.5t-28 -13.5h-1q-40 0 -40 75q0 20 -2 31t-8 15.5t-11 5.5t-18 1t-23 2q-119 35 -162 94.5t-43 159.5zM229 758q0 -125 126 -187q2 -1 5 -1q7 0 9 15t1 46l-2 31q0 39 1 119.5t1 124.5q0 40 -8 40 q-74 -31 -103.5 -76t-29.5 -112zM435 243q0 -122 3 -181v-4v-5t1.5 -4t4.5 -4t8 -2t13 -1q18 -1 52 13q133 57 133 153q0 141 -200 232q0 1 -3 1q-5 0 -7.5 -6t-3 -17.5t-0.5 -22t0.5 -25.5t0.5 -22q0 -5 1.5 -33.5t1 -48t-4.5 -23.5z" />
<glyph unicode="%" horiz-adv-x="1293" d="M100 798q0 89 51 148.5t132 59.5q32 0 68.5 -17.5t69 -48.5t54 -79.5t21.5 -103.5t-32 -106q-26 -40 -66 -64.5t-90 -28.5q-65 0 -81 3q-59 10 -93 84t-34 153zM160 796q0 -16 3 -29q11 -74 39.5 -101t113.5 -33q46 0 79 43t35 88q0 68 -48 122.5t-101 54.5 q-52 0 -86.5 -46.5t-34.5 -98.5zM398 -24q0 16 8 30q82 214 125 304q41 86 144 311.5t163 345.5q5 13 11.5 39t13 39.5t18.5 13.5q13 0 24 -9.5t13 -23.5q0 -43 -40 -130q-79 -168 -235 -506q-6 -12 -61.5 -129t-78.5 -176q-7 -17 -16.5 -57t-16.5 -57q-20 -34 -41 -34 q-15 2 -23 13t-8 26zM815 174q0 45 26 135q15 54 67 92t106 38q64 0 118 -57q61 -74 61 -162q0 -37 -9 -67t-17.5 -43t-26.5 -32.5t-21 -23.5q-49 -64 -130 -64q-9 0 -25 2q-11 -3 -20 -3q-53 0 -91 64.5t-38 120.5zM883 173q0 -38 34.5 -76.5t70.5 -38.5q4 0 16 2 q123 49 123 165q1 50 -28.5 99t-79.5 49q-55 0 -95.5 -63t-40.5 -137z" />
<glyph unicode="&#x26;" horiz-adv-x="1099" d="M100 243q0 91 71 222q8 11 18.5 21t26 21.5t23 17t28.5 19t24 15.5q0 10 -12 22q-50 50 -50 140q0 103 44 164q16 22 35.5 38.5t43 26t43.5 15t49 7.5t48.5 2.5t52.5 0t50 -0.5h-1q32 0 50 -18q10 -9 10 -23q0 -4 -2 -8q-10 -26 -10 -64q0 -1 0.5 -9t0.5 -16v-19 t-1.5 -20.5t-4 -17.5t-7 -13t-11.5 -5q-14 0 -23 7t-12 24.5t-3.5 30t0.5 41.5t1 40q-60 6 -88 6q-108 0 -156 -49.5t-48 -131.5q0 -32 8 -57t17 -39t30.5 -28.5t32.5 -19.5t38 -17q5 -4 19.5 -6t23 -8.5t8.5 -21.5q0 -35 -38 -35q-35 0 -49 2q-92 0 -154 -73.5t-62 -182.5 q0 -116 77.5 -177t197.5 -61q53 0 117.5 18t124.5 49t100.5 81t40.5 107q0 49 -37.5 102t-99.5 53q-28 0 -50.5 -11.5t-29.5 -34.5q-17 -52 -31 -63q-9 -7 -19 -7q-9 0 -14.5 4.5t-7 13.5t-2 16.5t0.5 20t1 16.5q0 60 46 96t112 36q21 0 76 -1.5t75 -1.5q50 0 87.5 37 t37.5 92q0 13 -7 22q-2 3 -16 14t-24 22.5t-10 21.5q0 39 51 39q22 0 43 -13q7 -5 11.5 -11.5t7.5 -15.5t5 -16.5t2.5 -19.5t0.5 -18v-19.5v-17.5q0 -39 -19 -82.5t-63 -59.5q-10 -4 -44.5 -12t-62.5 -15t-28 -9q0 -5 6 -14t15.5 -21t13.5 -18q30 -49 30 -114 q0 -61 -28 -119t-73 -89q-178 -121 -358 -121q-113 0 -208 65q-112 75 -112 236z" />
<glyph unicode="'" horiz-adv-x="317" d="M72 803q10 43 26 133.5t23 126.5q7 37 41 37q9 0 13 -1q36 -10 36 -45q0 -7 -2 -11q-6 -29 -19.5 -83.5t-21.5 -98t-8 -81.5q0 -12 -12 -27t-33 -15q-43 0 -43 65z" />
<glyph unicode="(" horiz-adv-x="442" d="M12 470q0 75 7 130q4 29 20 78.5t20 74.5q14 89 65 175q34 58 81 116t71 58h1q13 0 24.5 -7.5t11.5 -21.5q0 -8 -5.5 -16.5t-19 -22t-14.5 -15.5q-127 -138 -159 -302q-3 -17 -14.5 -67t-17 -84.5t-5.5 -67.5q0 -124 59 -305q34 -96 134 -229q1 -1 6 -7t8.5 -10.5t7 -12 t3.5 -14.5q0 -14 -11.5 -23.5t-25.5 -9.5q-10 0 -16 3t-13.5 12.5t-8.5 10.5q-11 17 -38.5 61t-41 66t-32.5 58.5t-31 69.5t-19 68q-5 27 -18 75t-21 86.5t-8 72.5z" />
<glyph unicode=")" horiz-adv-x="442" d="M7 1076q0 13 6.5 20.5t16.5 7.5q21 0 51 -30q210 -247 219 -587q-26 -284 -118 -443q-33 -58 -68 -121q-1 -1 -4.5 -7.5t-5 -8.5t-5 -7.5t-6.5 -7.5t-7 -5.5t-8.5 -4.5t-9.5 -1q-4 0 -12 2q-3 1 -8 2.5t-13 10.5t-8 21q0 21 19 44q18 18 32 40.5t31 57t24 47.5 q44 80 69.5 194t25.5 218q0 261 -193 516q-1 1 -9 8t-13.5 15.5t-5.5 18.5z" />
<glyph unicode="*" horiz-adv-x="607" d="M88 855q0 43 50 43q52 0 110 -20q16 0 20.5 2.5t4.5 11.5q0 17 -12.5 57t-12.5 58q0 31 34 39h16h17t15 -1t14.5 -2.5t11 -5.5t9.5 -9.5t5.5 -14t2.5 -19.5q1 -19 -1 -19q0 -12 1 -14q0 -13 -5 -34t-5 -27q0 -22 14 -22q13 0 21 8q11 7 25.5 18t23 15t18.5 4q7 0 17 -8 t19 -27t9 -44q0 -9 -4 -16.5t-8 -11.5t-13.5 -7t-13.5 -4t-15.5 -3t-12.5 -2l-11 -2q-12 -1 -19.5 -5t-7.5 -11q0 -2 2 -6q18 -29 35 -29q3 -2 12 -6.5t11.5 -5.5t9 -5t9 -5.5t7 -4.5t6.5 -5.5t4.5 -5.5t4.5 -7q0 -18 -7 -32q-47 -84 -82 -84q-26 0 -45 33q-6 11 -19 38.5 t-23 47.5t-14 20l-4 -2q-7 0 -54 -116q-1 -5 -4 -12.5t-13 -16t-24 -8.5q-23 0 -40.5 24.5t-17.5 44.5q0 28 30 58q45 45 49 69q0 2 -9 6q-55 0 -98 12q-43 5 -43 71z" />
<glyph unicode="+" horiz-adv-x="842" d="M61 393q2 18 16.5 33.5t34.5 16.5q30 1 180 1q5 0 20.5 -1.5t23 -1t18.5 2.5t16.5 8t6.5 17q1 8 2 17q1 11 0 13q-3 7 -5 25q-7 26 -2 92.5t3 88.5q0 1 0.5 4.5t0.5 5.5q0 3 2 9q0 2 3 7.5t12.5 11.5t21.5 5q26 -9 28 -58q1 -49 2.5 -102.5t3.5 -103.5q-4 -40 18 -41 q44 -3 154 -1q16 0 57 3.5t53 2.5t20.5 -3t18 -8.5t8.5 -15.5q1 -2 1 -7q-3 -35 -65 -43q-51 -7 -121 -8t-105 -3.5t-36 -16.5v-17l2 -20q2 -21 3.5 -41t3.5 -51.5t2 -54t-2 -48.5q-3 -23 -11.5 -35t-15 -14t-15.5 -1h-5q-23 19 -27 36t-1 47q2 16 2.5 61t-7 100.5 t-26.5 57.5h-7h-197q-32 -2 -44 -1q-13 1 -30 10t-16 21zM412 747z" />
<glyph unicode="," horiz-adv-x="368" d="M42 -124q-8 16 16 52q14 19 23 37.5t15 39t8.5 33.5t6.5 40t6 38q0 16 13 28.5t31.5 17t37 4t32.5 -11t16 -28.5q-20 -113 -66 -177q-24 -33 -56.5 -66t-51.5 -33t-31 26z" />
<glyph unicode="-" horiz-adv-x="819" d="M101 354q0 24 15 36.5t32.5 14.5t48.5 2q207 -14 403 -14q15 0 43 2.5t41 2.5q8 0 14 -3q21 -11 21 -33q0 -14 -2 -20t-4.5 -7.5t-13.5 -2.5t-20 -3q-36 -9 -145 -9q-36 0 -111.5 3.5t-112.5 3.5q-15 0 -44.5 -1t-43.5 -1q-8 0 -23 0.5t-22 0.5q-3 0 -11 -0.5t-11 -0.5 t-11.5 -0.5t-12.5 0t-10.5 1.5t-10 4t-6.5 9t-3 15z" />
<glyph unicode="." horiz-adv-x="345" d="M92 75q0 33 19 54t49 21q53 0 82 -48q10 -16 13 -30q0 -34 -23 -57t-55 -23q-39 0 -62 28t-23 55z" />
<glyph unicode="/" horiz-adv-x="449" d="M42 -184q0 10 2 16q22 93 166 734q14 61 33.5 128t45 148t38.5 127q17 43 41 43q11 0 18 -11.5t7 -22.5q0 -3 0.5 -4t0.5 -2q-2 -30 -19 -85q-6 -20 -28.5 -94.5t-32.5 -107t-25 -89t-25 -103.5q-12 -51 -32 -151t-38 -179.5t-39 -149.5q-9 -29 -19 -86.5t-14 -73.5 q-1 -4 -3.5 -16.5t-3.5 -18t-4.5 -15t-7.5 -14t-10 -8.5t-14 -4q-20 0 -28.5 13t-8.5 26z" />
<glyph unicode="0" horiz-adv-x="657" d="M56 443q0 305 147 529q0 9 14.5 25.5t24.5 24.5q31 25 67 25q66 0 125.5 -42.5t83.5 -105.5q81 -212 81 -360q0 -19 -1 -28q1 -11 1 -33q0 -44 -6.5 -90t-14 -76t-22.5 -88q-25 -101 -94 -164.5t-141 -63.5q-52 0 -92 23q-173 96 -173 424zM122 445q0 -49 5 -111 q5 -53 27 -112t66.5 -107t96.5 -48q68 0 119 60.5t76 152.5t25 198q0 10 -1.5 28t-1.5 28q2 28 2 40q0 114 -72 298q-20 52 -64.5 82.5t-82.5 30.5q-25 0 -45 -24q-150 -225 -150 -516z" />
<glyph unicode="1" horiz-adv-x="519" d="M41 876q0 3 1 5v1q3 22 33 29q42 11 83 38q15 10 40.5 32.5t46 38t33.5 16.5q14 1 26 -8.5t13 -23.5q2 -25 -1 -42q-11 -127 -14 -257t-1.5 -328.5t1.5 -254.5q1 -31 5 -31q6 -7 40.5 -1.5t76 -2.5t42.5 -37q1 -16 -8.5 -23.5t-28.5 -8.5q-182 -10 -288 -4q-30 0 -40 24 q-3 6 -3 14q-1 18 15 26t37 9q11 1 27 0.5t23 -0.5q15 1 20.5 4t9 22t1.5 59q2 135 0.5 242t0 241.5t9.5 242.5q-3 11 -4 17q-3 -2 -18.5 -13t-27 -18.5t-29 -17t-36 -14.5t-37.5 -6q-46 -4 -48 30z" />
<glyph unicode="2" horiz-adv-x="663" d="M31 47q0 21 23 38q85 67 154 162q17 23 61 75.5t65 84.5q3 4 31.5 46.5t35.5 54t28.5 48.5t29 57t16 50t9.5 56q1 31 -7 63t-17.5 52.5t-27.5 51.5q-13 32 -65.5 48t-103.5 18q-44 2 -88 -3q-3 0 -6.5 -2.5t-5 -5t-4 -7t-3.5 -5.5q-6 -17 -19.5 -56t-20.5 -61 q-9 -35 -40 -34q-28 1 -25 39q0 7 1 11q9 28 25 82t20 67q13 35 50.5 43t116.5 5q96 -4 173 -55.5t94 -137.5q2 -9 14 -51.5t11 -67.5q-2 -51 -25.5 -114.5t-56.5 -114.5q-32 -49 -72.5 -104.5t-66 -89t-83.5 -106.5t-80 -101q286 -12 329 -13q25 -1 35 7t12 23.5t3 17.5 q-1 -2 -1 0q0 10 14 20q10 6 22 6q17 0 25 -12q13 -24 12 -50q-2 -29 -18.5 -51t-43.5 -26q-80 -7 -240 -2.5t-245 -0.5q-18 1 -32 11.5t-13 33.5z" />
<glyph unicode="3" horiz-adv-x="654" d="M44 873q0 72 65 121t131 49q36 0 75 -14q174 -68 174 -202q0 -110 -60 -177q-9 -10 -28 -25t-28 -24q85 -38 140 -102q63 -63 63 -206q0 -110 -47.5 -177.5t-139.5 -104.5q-64 -24 -131 -24q-27 0 -61 6t-68.5 18t-57.5 34t-23 49v15v19v20t1.5 22t3 20.5t5 19.5t7.5 15 t10 10.5t14 3.5q14 0 26 -11.5t12 -28.5q0 -10 -2.5 -30t-2.5 -29q0 -42 44 -62.5t100 -20.5q106 0 175.5 70t69.5 170q0 58 -24 112q-15 33 -37.5 58t-41.5 38t-51.5 23t-48.5 13t-53 9q-7 1 -25.5 2t-29.5 2.5t-20.5 9.5t-9.5 23q0 18 11.5 29.5t22 14t19.5 2.5 q86 7 143 58.5t57 132.5q0 15 -5 37q-11 42 -63.5 81t-103.5 39q-40 0 -82 -33q-13 -10 -30.5 -36.5t-34.5 -44t-37 -17.5q-10 0 -16.5 7.5t-6.5 15.5z" />
<glyph unicode="4" horiz-adv-x="735" d="M68 336v3q10 24 28 68t34 80t32 68q52 103 196 422q13 28 18 37.5t17 19t30 9.5q50 0 75.5 -32.5t25.5 -75.5q0 -88 -8 -258q-1 -28 -8 -123.5t-7 -147.5q0 -1 -1 -4.5t-0.5 -6.5t2.5 -7t9.5 -6t19.5 -2q22 0 65 1.5t66 1.5q36 0 54 -7.5t18 -29.5q0 -11 -8.5 -19.5 t-20.5 -8.5q-142 -14 -183 -14h-4q-3 1 -5.5 1t-6.5 -1t-6.5 -2.5t-4.5 -5.5t-2 -10q0 -10 -0.5 -37t-0.5 -49t0.5 -46t2.5 -40t6 -20q18 -10 39 -12.5t33.5 -0.5t21.5 -5t9 -26q0 -34 -67 -34q-22 0 -63.5 4t-61.5 4q-28 0 -51 -4q-9 0 -14 2l-10 2q-21 10 -21 29 q0 29 46 44q5 2 20.5 2.5t24.5 5t9 17.5q0 26 -0.5 56t-1.5 67t-1 58q-32 4 -72 4q-35 0 -103 -2t-103 -2h-1q-23 0 -42 10l-1 1q-1 0 -2.5 1t-3.5 2t-4 2.5t-3.5 3t-3.5 3t-3 3.5t-2 3.5t-1 3.5zM167 380q12 -6 56 -6q32 0 95 5.5t93 5.5q12 6 14 18q20 213 20 347 q0 28 5 85t5 86q0 9 -1 15.5t-2 10.5t-4 6t-4 3t-4 2h-4q-21 0 -21 -12q-9 -25 -33 -69q-16 -29 -41 -92.5t-42 -94.5q-64 -117 -122 -275q-1 -6 -6 -12q-4 -8 -4 -23z" />
<glyph unicode="5" horiz-adv-x="680" d="M84.5 532.5q0.5 17.5 1.5 33.5q23 205 18 320q-1 28 -0.5 47.5t7 32t20 18.5t38.5 7q29 2 85.5 -3.5t74.5 -6.5q18 0 62.5 -5.5t64.5 -4.5q42 2 62 32q2 2 5 12t9 17t18 7q4 0 7 -1q15 0 20 -5q5 -7 6 -16q3 -63 -33 -87t-106 -27q-50 -2 -80 5q-25 5 -53.5 6.5 t-63.5 1.5t-54 1q-24 0 -22 -18q-6 -160 -7 -311q14 2 27 8q85 38 171 42q102 4 185 -76t88 -187q-2 -102 -19 -175t-40.5 -114.5t-63.5 -66t-75.5 -33t-88.5 -12.5q-41 -1 -103 18.5t-111 45.5q-42 24 -43 59q2 62 7 93q2 18 27 24q19 1 30 -11t12.5 -21t1.5 -17 q1 -11 -2 -40q1 -26 23 -33q8 -3 30.5 -11t32.5 -11.5t29.5 -9.5t32.5 -8.5t29.5 -4.5t31.5 -2q58 3 126 72q33 50 47 91.5t14.5 79.5t-1.5 90q-6 71 -74.5 131.5t-139.5 57.5q-21 -1 -49.5 -9t-49.5 -17t-56.5 -25t-50.5 -22q-12 -5 -20 -5q-19 0 -28.5 13t-9 30.5z" />
<glyph unicode="6" horiz-adv-x="626" d="M45 327v41q8 227 89 411q35 82 140 168.5t197 92.5q27 2 39 -15q29 -33 33 -92q1 -31 -31 -33q-17 0 -26 9q-18 21 -30 40q-6 10 -17 9h-6q-65 -21 -125.5 -76t-101.5 -120q-35 -56 -53 -116.5t-31 -153.5q77 64 109 81q45 24 91 27q102 6 174.5 -62t78.5 -168 q1 -29 -3 -116q-5 -99 -82.5 -174t-174.5 -97q-65 -4 -114 38q-146 128 -156 306zM118 287q3 -64 59 -150q23 -34 56.5 -61.5t64.5 -26.5q75 5 152 86q67 78 60 189q-5 90 -49.5 149t-128.5 54q-72 -4 -145 -82.5t-69 -157.5z" />
<glyph unicode="7" horiz-adv-x="679" d="M47 931q1 11 1 16q1 41 25.5 49.5t111.5 7.5q29 -1 104 -4t116 -4q84 -2 138 18q15 5 36 5q17 -1 30.5 -12t13.5 -28q-2 -15 -7 -22q-47 -72 -93.5 -170t-66.5 -150.5t-68 -182.5q-91 -239 -95 -419q0 -8 -2 -12q0 -26 -32 -26q-1 0 -6 1l-7.5 1.5t-7.5 2.5t-8 4t-7 6 t-6 8.5t-3.5 11t-1.5 14.5q0 4 2 8q9 27 20 102q12 120 91 334q68 180 187 428q3 10 4 17q-18 2 -52 -1.5t-49 -3.5q-50 1 -124 -0.5t-110 -1.5q-2 0 -20.5 2.5t-30 1t-11.5 -8.5q-2 -5 -3 -37.5t-8.5 -58t-25.5 -25.5q-26 1 -31.5 35.5t-3.5 93.5z" />
<glyph unicode="8" horiz-adv-x="647" d="M47 204q0 102 57 190q20 31 33.5 49.5t37.5 41.5t51 36q3 1 5 2.5t3 3.5l1 2q0 5 -1 8q-15 15 -47 49.5t-50 51.5q-59 54 -59 139q0 64 26.5 119t66.5 89t85 53t85 19q77 0 144.5 -81t67.5 -189q0 -37 -7.5 -68.5t-15.5 -51.5t-29 -44t-31.5 -33.5t-39.5 -33.5t-38 -32 q97 -59 143.5 -119.5t46.5 -157.5q0 -123 -82 -196.5t-186 -73.5q-60 0 -108 15t-77 38t-48 54t-26.5 60.5t-7.5 59.5zM107 202q2 -73 62 -117t143 -44q79 0 135 52t65 146q12 47 -27 105t-92 95t-86 37q-12 0 -25 -5l-27 -15l-1 -1q-78 -52 -118 -133q-29 -58 -29 -120z M145 800q-1 -14 3 -42q7 -47 56.5 -97.5t106.5 -83.5q12 -5 14 -5q1 0 7 2q156 84 156 209q0 78 -42.5 144t-105.5 66q-40 0 -83 -27l-14 -7q-92 -65 -98 -159z" />
<glyph unicode="9" horiz-adv-x="751" d="M103 696q-3 57 8 105q4 16 11.5 33t12.5 26t19 33t18 31q21 53 72 86.5t106 35.5q84 3 150 -58q52 -48 86.5 -155t32.5 -201q-7 -245 -49 -365q-17 -50 -39.5 -95t-56 -90.5t-79.5 -73.5t-98 -30q-63 -2 -115.5 40.5t-55.5 116.5q0 36 19 37q8 0 15 -2q8 -2 16.5 -11 t13 -18l12.5 -25l11 -22q24 -48 74 -46q175 8 249 375q3 8 4.5 32t0.5 33q0 12 -5 24q-87 -58 -153 -61q-55 -1 -113 21q-56 22 -91 46.5t-50.5 56t-20 55.5t-5.5 66zM166 681q2 -38 14 -63q19 -39 79 -70t121 -29q62 3 116.5 52t52.5 101q-2 55 -14.5 108t-34.5 100.5 t-59 75.5t-82 26q-29 -1 -50 -7.5t-37 -22.5t-22.5 -25t-20.5 -33q-32 -41 -48.5 -99t-14.5 -114z" />
<glyph unicode=":" horiz-adv-x="344" d="M95 98q0 32 19 54t48 22q30 0 55.5 -21.5t28.5 -50.5l-11 -1l11 1q0 -18 -22 -51t-54 -33q-27 0 -51 24t-24 56zM99 620q0 35 25 59.5t60 24.5q34 0 51 -23.5t17 -60.5l-10 1l10 -1q0 -33 -24 -58t-55 -25q-20 0 -39 16t-28 39q-7 16 -7 28z" />
<glyph unicode=";" horiz-adv-x="368" d="M-33 -141q0 17 28 60q54 85 54 154q0 57 107 57q16 0 25 -1t18.5 -8t12.5 -21q0 -10 -2 -22q-37 -86 -69 -131q-27 -39 -71 -76.5t-77 -37.5q-24 1 -24 17q-2 4 -2 9zM34 611q0 34 21 56.5t48 22.5q21 0 40 -14t30 -33q11 -20 11 -42l-10 -1l10 1q0 -35 -21.5 -56 t-56.5 -21q-25 0 -48.5 23.5t-23.5 63.5z" />
<glyph unicode="&#x3c;" horiz-adv-x="970" d="M100 388q0 21 17.5 32.5t57 21t54.5 15.5q86 34 341 120q118 40 181 87q28 20 50 20q11 0 20.5 -8.5t9.5 -20.5q0 -5 -2.5 -10t-5.5 -7.5t-7 -6t-5 -4.5h-1q-98 -79 -210 -115q-48 -15 -103 -33.5t-120 -41.5t-103 -36q-21 -9 -26 -16q139 -71 166 -83q26 -12 52 -25 t54 -29.5t48 -28.5t51.5 -33l46.5 -31t51 -34.5t47 -32.5q17 -12 51 -31.5t47 -27.5q1 -1 2.5 -2t2.5 -2q3 -7 3 -15q0 -15 -20 -24q-50 1 -85 20q-53 28 -147 92q-216 142 -476 249q-3 2 -16 7t-19.5 12.5t-6.5 21.5z" />
<glyph unicode="=" horiz-adv-x="844" d="M100 245q0 24 32.5 39.5t62.5 15.5h298q40 0 86 -5.5t93 -5.5q24 0 48 -13t24 -35q0 -38 -44 -38h-115.5t-112 0.5t-93 2t-112.5 5t-116 8.5q-18 2 -34 6q-13 7 -17 20zM100 492q0 24 32.5 39.5t62.5 15.5h298q40 0 86 -5.5t93 -5.5q24 0 48 -13t24 -35q0 -38 -44 -38 h-115.5t-112 0.5t-93 2t-112.5 5t-116 8.5q-18 2 -34 6q-13 7 -17 20z" />
<glyph unicode="&#x3e;" horiz-adv-x="1034" d="M100 742q0 29 36 29q17 0 74 -26q225 -107 413 -176q20 -7 64.5 -21.5t67.5 -23.5q27 -11 74.5 -31.5t68.5 -29.5q28 -13 35 -45q1 0 1 -1q0 -27 -22 -34q-170 -94 -653 -354q-17 -11 -29 -11q-22 0 -25 24l-1 9q0 6 2.5 12t5.5 10t9.5 9.5t10 7.5t12 7.5t10.5 6.5 q316 172 542 305l10 11q0 3 -1 4.5t-2.5 1.5t-4 1t-5.5 4q-89 34 -91 35q-200 60 -501 206q-6 3 -29 12t-35.5 15.5t-24.5 18t-12 24.5z" />
<glyph unicode="?" horiz-adv-x="734" d="M100 684q0 69 42.5 130t121.5 99q63 31 125 31q111 0 183 -99q62 -89 62 -186q-2 -102 -63 -165q-17 -17 -55 -50.5t-58.5 -54.5t-39 -59t-18.5 -81q0 -19 -11 -47.5t-27 -28.5q-25 0 -25 25v13q0 6 -1 30.5t-1 29.5q0 86 75 161q80 74 119 129.5t39 111.5q0 37 -20.5 83 t-65 84t-100.5 38q-81 0 -152.5 -69t-71.5 -135q0 -63 63 -132q23 122 111 122q45 0 68 -28.5t23 -80.5q0 -47 -27.5 -80.5t-89.5 -33.5q-48 0 -96 38q-110 88 -110 205zM286 543q0 -14 13 -26t36 -12q13 0 26.5 13.5t13.5 37.5q0 15 -13.5 31.5t-35.5 16.5q-18 0 -32 -33 q-8 -16 -8 -28zM311 23q1 24 14 37t31 15q56 5 59 -43q3 -51 -53 -49q-18 1 -26.5 2.5t-17 10.5t-7.5 27z" />
<glyph unicode="@" horiz-adv-x="1376" d="M100 463q0 125 68 236q7 12 22.5 41.5t30 51.5t31.5 39q195 192 460 192q54 0 110 -16.5t88.5 -32.5t108.5 -57q117 -63 178.5 -174t61.5 -251q0 -107 -44.5 -206t-111 -157t-131.5 -58q-49 0 -86 20.5t-87 64.5q-107 -102 -213 -102q-52 0 -100 23q-72 34 -97 103.5 t-25 170.5q0 118 47 226q27 62 94 98t140 38q53 -2 87 -18.5t79 -53.5q21 24 55.5 39.5t67.5 15.5q5 0 11.5 -1t18 -9t11.5 -21t-16 -29q-38 0 -53.5 -17t-21.5 -44q-7 -43 -16 -129.5t-16 -129.5q0 -2 -0.5 -5.5t-0.5 -5.5q0 -9 3.5 -29.5t3.5 -31.5q0 -15 -4 -27 q17 -38 47 -57.5t65 -19.5q36 0 71 23q72 49 112.5 140t40.5 183q0 89 -42 186.5t-122 150.5q-196 120 -337 120q-109 0 -207 -42.5t-167 -112.5t-109.5 -162.5t-40.5 -191.5q0 -286 91 -402q113 -110 216 -166t242 -62q113 0 224 64.5t190 175.5q20 27 39 27q16 0 27.5 -12 t11.5 -26q0 -17 -16 -35q-98 -109 -203 -182q-117 -83 -256 -83q-61 0 -127 17q-161 40 -254 103.5t-186 198.5q-64 93 -64 411zM425 360q0 -64 18 -132t52 -89q29 -20 86 -20q56 0 103 28q34 20 63 52t33 65q3 27 6 57t6.5 66.5t5.5 57.5q0 16 -0.5 47.5t-0.5 47.5 q-6 37 -58 72t-105 35q-54 0 -96.5 -28.5t-66 -73.5t-35 -92.5t-11.5 -92.5z" />
<glyph unicode="A" horiz-adv-x="879" d="M-40 11q0 39 39 39q7 0 19 -1.5t18 -1.5q32 0 73 27q26 19 49.5 42t44 52t35.5 51.5t33.5 59.5t28 57.5t28.5 63t26 58.5q27 61 101.5 189.5t102.5 201.5q26 67 61 67q14 0 23 -7t11 -13t5 -19q3 -26 26.5 -192.5t26.5 -255.5q3 -70 18 -161q5 -26 9.5 -80t10 -89 t14.5 -41q18 -12 38 -16.5t32 -3.5t20 -4.5t8 -19.5q0 -3 -2 -11h1q0 -2 -4 -7t-12 -10.5t-17 -5.5q-3 0 -5 1q-40 7 -57.5 10t-38 11t-26.5 14.5t-13 24t-8 34.5t-2 51q0 34 -7.5 90t-21.5 56q-3 1 -10 1q-45 0 -135.5 2.5t-134.5 2.5q-19 0 -37 -23q-6 -12 -24.5 -40 t-25.5 -44q-38 -73 -104 -129.5t-135 -56.5q-29 0 -58 10q-6 0 -10 2t-6.5 4.5t-4.5 5.5t-3 4zM387 362q0 -3 232 -10h10h7q2 -1 3 0q8 0 8 24q0 166 -44 374l-1 2q-1 1 -1.5 3t-1.5 4l-3 6q-119 -196 -208 -397q-1 -3 -1 -6z" />
<glyph unicode="B" horiz-adv-x="775" d="M37 864q0 16 29 40.5t67 43.5q36 18 92 31.5t73 13.5l18 -3q26 -9 77 -22t73 -20q82 -27 140.5 -84t58.5 -128q0 -55 -26.5 -118t-78.5 -96q10 -14 32 -27q62 -50 93 -96.5t31 -116.5q0 -27 -9.5 -54t-19 -45t-35 -46t-36 -38.5t-43.5 -41.5q-27 -25 -81 -47 q-130 -50 -244 -50q-14 0 -39 1t-37 1q-45 0 -73 -12q-8 -3 -16 -3q-16 0 -25.5 9t-11.5 16t-2 10q0 28 30 41q190 81 190 537q0 102 -18 306q0 38 -23 38q-20 0 -64 -23q-6 -4 -27 -17t-37 -21.5t-27 -8.5q-15 0 -22 10q-9 5 -9 20zM196 37q0 -3 6 -6q16 -7 66 -7 q131 0 258 76q20 12 38 29t42.5 45t33.5 38q10 23 10 66q0 39 -12 66q-17 49 -74 88.5t-111 39.5q-90 0 -106 -7q-7 -3 -12 -8q-3 -3 -6.5 -13t-8 -33.5t-4.5 -50.5q-1 -51 -23 -122q-14 -47 -22 -69.5t-26.5 -57.5t-41.5 -61q-7 -7 -7 -13zM316 885q18 -323 18 -329 q0 -9 8 -17q48 0 103.5 11.5t85.5 32.5q30 20 47 59t17 81q0 38 -17 69q-26 47 -104.5 81t-151.5 34q-1 0 -3.5 -10t-2.5 -12z" />
<glyph unicode="C" horiz-adv-x="783" d="M35 522q0 148 88 258q159 199 364 199q111 0 170 -61q7 -8 33 -29.5t37 -38.5t11 -40q0 -21 -4 -34q-4 -15 -7.5 -45t-5.5 -42q0 -5 -3.5 -8.5t-10 -5.5t-7.5 -3q-38 0 -38 61q0 5 1.5 16t1.5 17q0 66 -58 104t-133 38q-89 0 -157 -45q-110 -72 -162.5 -158t-52.5 -203 q0 -207 43 -294q23 -46 83 -98t124 -52q15 0 32 3q145 33 224 101q2 2 15 13.5t19 16t16.5 10t18.5 5.5q4 0 16 -2l13 -5q9 -6 9 -14q0 -22 -15 -34q-135 -112 -269 -160q-33 -12 -66 -12q-24 0 -61 10q-268 78 -268 442q-1 8 0 23t1 20q0 8 -1 24t-1 23z" />
<glyph unicode="D" horiz-adv-x="938" d="M8 -35q0 17 25.5 36t55.5 30q68 31 101 114q44 110 56.5 224t12.5 277q0 142 -7 265q0 10 -5.5 14t-10.5 4q-40 0 -99 -62q-3 -3 -18 -21.5t-26 -27.5t-21 -9q-11 0 -21.5 9.5t-10.5 25.5q0 13 7 26q81 136 240 136q15 0 76 -5q131 -2 261 -71q112 -60 180 -181.5 t68 -252.5q0 -183 -88 -329q-60 -106 -171 -155.5t-248 -49.5q-64 0 -119 11q-20 4 -30 4q-30 0 -91 -22.5t-84 -22.5q-16 0 -27 12q-6 9 -6 21zM223 47q10 -1 30 -1q14 -2 38 -6.5t43 -7.5t37 -3q103 0 192.5 37t143.5 105q44 56 71 145t27 167q0 132 -102 280 q-53 77 -141.5 118t-190.5 49h-8h-8t-7 -0.5t-6.5 -1.5t-5.5 -2.5t-5 -4t-3.5 -6t-3.5 -8.5t-1.5 -11.5t-0.5 -14.5q0 -20 2 -62t2 -64v-39q0 -120 -1.5 -185t-12.5 -163.5t-33 -178.5q-8 -29 -29 -76.5t-27 -65.5z" />
<glyph unicode="E" horiz-adv-x="878" d="M-23 877q0 12 15.5 28t32.5 24q85 43 186 55q13 0 30 8t31 8q8 0 16 -3q16 -17 47 -17q6 -1 19 1t19 2q71 0 141 -14t120.5 -43.5t50.5 -67.5q0 -6 -2 -16q-26 -61 -26 -65q-22 -22 -42 -22l-2 1h-3q-12 0 -16 14q-1 4 -1 9q0 11 6.5 33.5t6.5 28.5q0 8 -6 13l-3 3 q-72 48 -195 51q-16 0 -33.5 -2t-38.5 -5.5t-34 -4.5q-9 -18 -9 -40q0 -10 2 -30.5t2 -31.5q0 -51 3 -144.5t3 -134.5q3 -18 9 -24q40 -20 121 -20q14 0 42 0.5t42 0.5q6 0 10.5 0.5t8 3.5t5 4.5t6 7t6.5 8.5l3 5q2 5 5 10t7.5 10.5t11.5 9t14 3.5q13 0 21 -11t8 -21 q0 -37 -35 -68t-77 -31q-136 0 -190 11q-5 2 -12 2q-1 0 -3.5 1t-3.5 0.5t-3 -6t-4 -17.5q-15 -124 -17 -146q-6 -75 -57 -204q47 -14 88 -14q17 0 25 1q66 11 239 15q63 3 121 20.5t58 41.5q0 5 -3 11l-25 22q-24 22 -24 38q0 7 2 11q2 5 11 13.5t21 8.5q36 0 63.5 -34 t27.5 -71q0 -56 -78.5 -91t-180.5 -35q-2 0 -6 0.5t-6 0.5q-23 0 -81 -6q-64 -8 -194 -8q-9 0 -37.5 -1t-45 -0.5t-37.5 3t-31.5 11t-10.5 23.5q0 14 11 28q52 73 72 175q30 155 30 358q0 40 -2 121t-2 121q0 6 1 22t0.5 26.5t-2 23t-7 19t-15.5 6.5q-74 0 -144 -38 q-20 -11 -39 -17q-20 0 -32 12q-5 8 -5 16z" />
<glyph unicode="F" horiz-adv-x="895" d="M32 709q0 103 59.5 172.5t153.5 81.5q8 1 30.5 1t36 3.5t20.5 12.5q6 4 11.5 8.5t9 6.5t8.5 2q11 0 25 -18q5 -10 12 -16.5t20.5 -9t20 -3t29 0.5t30.5 0q45 0 65.5 1t52.5 10t58 27q2 2 10.5 9.5t17.5 12t20 4.5q22 0 28 -11q2 -2 2 -4q0 -12 -2 -14q-6 -30 -24.5 -51.5 t-42.5 -31.5t-54.5 -16t-60.5 -6.5t-60.5 -1t-54.5 -0.5q-8 0 -22.5 0.5t-20.5 0.5q-10 0 -13.5 -0.5t-8 -5t-4.5 -13.5q0 -24 1 -52t2.5 -62t2.5 -53q3 -3 3 -6q1 -19 2 -54t2 -64t2 -54l-1 -4q0 -4 0.5 -6t1.5 -5.5t3.5 -6t7.5 -4t12 -1.5q1 0 22 -0.5t38.5 -0.5t45 1.5 t48.5 4t41.5 8t31.5 13.5q4 2 15.5 11t22 15t19.5 6t20 -10t11 -28q0 -7 -3 -13q-36 -63 -161 -73q-18 -1 -58.5 -1t-68 -1.5t-33.5 -7.5q-7 -3 -11 -16.5t-5 -34t-1 -38.5t1 -41.5t1 -32.5q0 -12 1 -37t1 -38q0 -75 -37 -188q-42 -116 -89.5 -166.5t-109.5 -50.5 q-15 0 -51 6l-17 3q-23 11 -24 37q0 2 0.5 4t0.5 3q12 25 58 25q7 0 17 -1t13 -1q78 0 145 183q6 16 10.5 34.5t8 33.5t5.5 37.5t3 35t1.5 38.5t0.5 36v39v37q0 289 -13 476q0 2 0.5 5t0.5 5q0 20 -0.5 29.5t-3 27.5t-9.5 26.5t-19 8.5q-5 0 -27 -4q-163 -28 -163 -204 q-1 -13 3.5 -34.5t4.5 -30.5q0 -16 -8 -25t-19 -9q-26 0 -38.5 41.5t-12.5 76.5z" />
<glyph unicode="G" horiz-adv-x="861" d="M50 556q0 10 4 32q43 119 85 183q61 92 164.5 148t214.5 56q25 0 53 -3.5t61.5 -13t59 -24t43 -39.5t17.5 -57q0 -7 -1 -21t-1 -21q0 -10 1 -30t1 -31q0 -17 -9.5 -34t-24.5 -17q-12 0 -20.5 12.5t-8.5 27.5q-2 14 -4.5 37t-3.5 35t-5.5 30t-11.5 27t-20 20.5t-31 17 t-45 9.5t-63 4q-83 0 -151 -32q-93 -42 -165.5 -147.5t-72.5 -219.5q0 -27 6 -56q11 -46 17 -140q6 -95 85 -222q55 -89 211 -89q27 0 52 6.5t42 13.5t37.5 24t30 26t30.5 31.5t28 30.5h1l2 4q0 12 -2.5 39t-2.5 40q0 25 8.5 46t22.5 41.5t19 32.5q-34 2 -50 2 q-36 0 -167 -7q-17 0 -35 10t-18 24q0 17 19.5 28t41.5 11q47 0 140.5 1.5t139.5 1.5q13 0 23 -12.5t10 -25.5q0 -4 -2 -12q-4 -8 -43.5 -63.5t-39.5 -87.5q0 -12 6 -41t6 -44q0 -29 -8 -82.5t-9 -65.5q-7 -78 -44.5 -178t-97.5 -137q-54 -34 -149 -34q-39 0 -46 38 q-1 17 17.5 27t38.5 10q47 0 88 16q51 21 90.5 115.5t39.5 174.5q0 10 -7 10q-1 0 -3.5 -1.5t-6.5 -4t-7 -3.5q-55 -43 -96 -59.5t-96 -16.5q-125 0 -193.5 41t-113.5 132q-49 98 -65 207t-16 249z" />
<glyph unicode="H" horiz-adv-x="957" d="M-53 19q0 18 18 26t38 8q3 0 10.5 -0.5t11.5 -0.5q94 0 145 90q55 97 72.5 191t17.5 243q0 27 -5 94.5t-5 102.5q0 45 20 127q3 10 3 17l1 5q-2 5 -16 5q-72 0 -119 -17q-6 -2 -23 -12t-25 -10q-11 0 -18.5 7t-7.5 18q0 22 25.5 39.5t51.5 20.5q22 3 61.5 8.5t72 10 t61.5 8.5q1 1 4 1q14 0 23 -10t9 -23q0 -8 -4 -15q-2 -3 -9.5 -17.5t-9 -18.5t-8 -17t-8.5 -18t-6.5 -16.5t-6 -18.5t-3.5 -17.5t-3 -20t-1 -19.5q0 -31 10 -181v-5q-1 -4 -0.5 -7.5t2 -7.5t7 -6.5t14.5 -2.5q30 -2 86.5 -8t101 -9t84.5 -3q9 0 30 1t28 1q5 1 9 3.5t6.5 7.5 t4.5 9.5t3 12t2 13t1 15v15v16v15.5q0 44 4.5 87t15.5 108.5t13 82.5q9 60 46 118.5t85 58.5q11 0 22 -8.5t11 -20.5q0 -9 -15 -24q-36 -24 -54 -61.5t-29 -92.5q-34 -171 -34 -364q0 -47 1 -141t1 -141q0 -127 -17 -181q-2 -6 -2 -14q0 -5 3.5 -8.5t9.5 -6t11 -3.5t12.5 -2 t9.5 -2q85 -8 85 -46q0 -15 -9.5 -25.5t-28.5 -10.5q-128 20 -178 28q-27 10 -27 38q0 18 14 33q12 13 21 27.5t14 33.5t8.5 33.5t4.5 39.5l1.5 37.5t0 42t-0.5 39.5q0 22 -0.5 65.5t-0.5 64.5q0 9 -2.5 15.5t-8.5 11t-11.5 7t-16 3.5t-17 1.5t-19.5 1t-18 0.5 q-154 2 -223 14q-8 2 -17 2q-7 0 -12.5 -1t-9.5 -3.5t-7 -4.5t-5 -7.5t-3 -9t-2 -12t-1.5 -13.5t-1 -16.5t-1.5 -18.5q-8 -65 -20.5 -123t-37 -120t-56.5 -106t-81.5 -72.5t-109.5 -28.5q-59 0 -72 37q0 1 -0.5 4t-0.5 4z" />
<glyph unicode="I" horiz-adv-x="448" d="M79 5q0 39 37 50q43 0 54.5 7.5t17.5 29.5q7 40 11 80.5t5 92.5q2 53 2 79v36v58v84v70v42v29q0 21 3 61t9 83q2 20 2 32v7v7.5t-1 6.5t-4 6.5t-7 4t-11 3.5t-17 1q-4 0 -15.5 -0.5t-19 -0.5t-18.5 1t-18 3t-14.5 6t-11 11t-3.5 16q0 17 17.5 25t32.5 8q71 0 215 -6 q53 0 53 -31q0 -8 -3 -11q-3 -7 -10.5 -11.5t-19.5 -7t-22 -3.5l-25 -2.5t-23 -2.5q-5 -17 -5 -24q-2 -32 -9 -103.5t-7 -128.5q0 -31 2.5 -93t2.5 -93q0 -54 -5 -161.5t-5 -160.5q0 -1 -0.5 -7.5t0.5 -10.5t8 -9t20 -7q94 0 94 -47q0 -3 -1 -7t-6 -9t-13 -5 q-103 0 -223 -23q-3 -1 -9 -1q-7 0 -19 2q-41 6 -41 24z" />
<glyph unicode="J" horiz-adv-x="611" d="M18 -160q0 17 16 29.5t33 14.5q9 0 21 -4q46 -18 90 -18q50 0 84 23q29 18 52 48t38 62t26 76.5t16.5 82t8.5 89t3.5 86.5t0.5 85q0 80 -9 204q-3 32 -4 67.5t-1 79t-1 67.5q0 21 -12 21q-3 0 -11 -2q-27 -5 -77.5 -16.5t-66.5 -14.5q-65 -17 -65 -79q0 -10 -7.5 -23 t-24.5 -13q-11 0 -22 13t-11 38q0 37 22 70t56 46q50 22 153.5 45.5t151.5 44.5q8 2 11 2q14 0 23 -11t9 -24q0 -12 -5 -22q-28 -28 -39 -66t-11 -99q0 -52 8 -156.5t8 -158.5q0 -28 -2 -86q-1 -21 -3 -68t-3.5 -73.5t-5.5 -65.5t-11 -72q-11 -52 -34 -102t-58.5 -94 t-87.5 -70.5t-111 -26.5q-52 0 -120 34q2 0 -2 2q-21 12 -25 28q-1 2 -1 7z" />
<glyph unicode="K" horiz-adv-x="835" d="M-24 -37q0 7 3 11q19 28 44 33q73 22 126 91.5t78 155.5t29 182q3 67 5 402v3q0 3 0.5 5.5t-0.5 6.5t-2.5 6t-5.5 4t-9 2q-8 0 -18 -3q-20 -5 -60 -17.5t-72 -20.5t-54 -8q-7 0 -16.5 7t-9.5 21q0 20 19.5 33.5t40.5 18.5q213 56 229 60q4 2 13 2q17 0 26.5 -10.5 t9.5 -25.5q0 -6 -2 -16q-19 -67 -19 -160q0 -26 2 -78.5t2 -79.5q0 -21 -1 -31q0 -12 7 -12q2 0 4 1q11 12 36.5 32t35.5 30q41 38 121 116.5t121 117.5q29 28 69 49.5t73 21.5q23 0 30 -24q0 -30 -19 -38q-26 -11 -53 -30.5t-41 -32t-45.5 -44.5t-39.5 -40 q-37 -36 -105.5 -100.5t-91.5 -86.5q-15 -14 -19 -26q45 -37 80 -102q20 -38 61 -112t71.5 -132.5t55.5 -113.5q39 -89 118.5 -157t176.5 -68q14 0 39 12t36 12q21 0 30 -16.5t9 -29.5q0 -32 -36 -49.5t-69 -17.5q-18 0 -31 4q-235 47 -320 243q-29 68 -99 189.5t-97 179.5 q-18 37 -43.5 71t-48.5 34q-13 0 -16 -18q-1 -5 -7 -44t-8 -49t-9 -46.5t-11 -51t-13.5 -47.5t-18 -49.5t-21.5 -43.5t-27 -44t-32 -36t-39 -33q-84 -57 -122 -57q-25 0 -45 28q-5 12 -5 16z" />
<glyph unicode="L" horiz-adv-x="827" d="M63 26q0 24 22 40q34 23 55.5 67t23.5 88q2 51 9 214.5t10 253.5q3 110 46 194q26 51 73 89.5t98 38.5q11 0 23 -9.5t12 -23.5q0 -27 -56 -45q-51 -23 -84.5 -81.5t-33.5 -128.5q0 -6 0.5 -16.5t0.5 -15.5q0 -72 -12 -212q-3 -37 -3.5 -133.5t-12.5 -160t-46 -120.5 q37 -17 98 -17q27 -1 100 -5t113 -4q70 0 121 12.5t82 52.5q6 7 14.5 24t17.5 25.5t24 8.5q16 0 28 -13t12 -30q0 -10 -4 -17q-24 -68 -92.5 -102t-153.5 -34q-32 0 -435 17q-50 0 -50 43z" />
<glyph unicode="M" horiz-adv-x="1136" d="M-60 826q13 38 34.5 62t53.5 34.5t59.5 14.5t72.5 7t73 8q14 1 42 9t39 8q16 0 25.5 -7.5t26.5 -36.5q49 -86 79 -200q23 -92 80 -257.5t73 -217.5q0 -1 4 -1t25 53q31 82 89 241t87 235q27 71 42 107t48.5 90t69.5 82q77 58 102 58q45 0 45 -33q0 -10 -6 -19 q-27 -31 -44.5 -77.5t-23 -79t-12.5 -90.5q-21 -170 -22 -318q0 -6 1 -20t1 -21q0 -203 -30 -337q-2 -14 -3 -23q0 -14 5 -23l24 -6q24 -7 47 -20t23 -29q0 -11 -7.5 -23.5t-22.5 -12.5q-32 0 -65 5.5t-62 21.5t-29 40q0 25 13 81q30 133 30 285q0 12 -1 35.5t-1 35.5 q-1 16 -1 33q0 48 5 92q3 25 9 101.5t12.5 129t16.5 102.5l-4 -4q-54 -89 -109 -246q-68 -188 -184 -492q-25 -65 -29 -100q-2 -17 -12.5 -32t-30.5 -15q-35 0 -44 68q-5 32 -15 71t-16.5 60t-24.5 73t-22 62q-1 2 -97 312q-1 4 -3 11l-3 10.5t-3 7t-5 4.5 q-4 -30 -16 -124.5t-19 -145.5q-7 -46 -21.5 -130t-19.5 -113q-6 -37 -45 -117q-19 -39 -63.5 -75t-77.5 -36q-49 0 -49 38q0 27 39 44q22 9 40.5 24.5t31 30.5t24 41t18 42.5t14 51t10 50.5t9 55.5t8.5 53.5q4 27 13 92t14 101t10.5 89.5t8.5 98.5v7q0 31 -1.5 42.5 t-10.5 19.5t-30 8q-186 0 -227 -43q-4 -4 -11.5 -18.5t-17 -25t-22.5 -10.5q-18 0 -26 12t-8 28z" />
<glyph unicode="N" horiz-adv-x="1050" d="M-20 861q0 25 45 56q48 32 211 32h7h9.5t9.5 -0.5t10.5 -1l10.5 -1.5t10.5 -2.5t9 -4t9 -5.5t7 -7.5t5.5 -9.5q17 -30 34.5 -70t28.5 -69.5t29 -79l26 -71.5q18 -47 43 -101t43.5 -90t52.5 -99.5t49 -92.5q28 -58 46 -92.5t46.5 -77t54.5 -65.5q2 2 2 17q-10 96 -10 258 q0 189 11 482q7 98 33 172q20 56 68 102t107 46q15 0 26 -9t11 -26q0 -9 -7.5 -22.5t-24.5 -13.5q-139 -37 -142 -307q-2 -94 -2 -281q0 -168 15 -449q2 -36 7 -53q13 -48 65 -79t107 -31q37 0 96 26q6 3 19 10t23 11t19 4q34 0 34 -37q0 -21 -20 -33q-46 -20 -63.5 -27 t-49.5 -15t-63 -8q-27 0 -54 6q-53 11 -122 60.5t-103 104.5q-24 37 -43 56q-47 46 -84 116q-175 336 -218 421q-20 41 -51.5 124.5t-51.5 123.5q-6 2 -6 4l-1 -1q-1 -1 -1 -7q-3 -30 -18 -156t-16 -194q-1 -55 -18 -181q-7 -47 -19 -86.5t-33 -77t-55.5 -58.5t-79.5 -21 q-52 0 -52 28q0 25 40 34q53 11 71 31.5t33 67.5q3 8 4 12q9 27 14.5 63.5t7 64.5t4 73t3.5 65q16 233 46 401q3 16 3 30q0 32 -30 32q-13 0 -29 -4q-7 -1 -54.5 -8t-71.5 -14q-6 -2 -17 -7t-18.5 -8.5t-9.5 -3.5q-13 0 -24 11q-4 2 -4 13zM12 10z" />
<glyph unicode="O" horiz-adv-x="904" d="M58 450q0 103 25 201.5t73 166.5q55 71 144.5 116.5t169.5 45.5q59 0 114 -23q132 -57 198.5 -176t66.5 -266q0 -278 -153 -466q-43 -53 -111 -82.5t-139 -29.5q-13 0 -28 3t-33 8.5t-27 7.5q-145 39 -222 151t-77 265q0 15 -0.5 40.5t-0.5 37.5zM129 467q0 -30 2 -45 q1 -15 3.5 -55.5t5 -62t11 -51t22.5 -49.5q132 -186 286 -186q47 0 91 20q75 33 127 108t74.5 162t22.5 182q0 179 -72 280q-39 53 -97.5 93t-117.5 40q-4 0 -10 -0.5t-9 -0.5q-91 -10 -158.5 -50.5t-105.5 -102t-56.5 -132t-18.5 -150.5z" />
<glyph unicode="P" horiz-adv-x="766" d="M-70 812q0 22 25.5 45.5t52.5 34.5q150 64 257 64q137 0 197 -14q17 -4 33 -10q79 -25 137 -102.5t58 -162.5q0 -23 -4 -42q-18 -88 -77 -147.5t-135 -86.5t-170 -32q-24 -3 -33.5 -13.5t-9.5 -43.5v-28.5v-32.5t-0.5 -30t-1.5 -33.5t-3 -30t-4.5 -33t-6.5 -29t-9 -31.5 q15 -6 50 -6q10 0 22.5 -2t27.5 -13t15 -29q0 -8 -2 -11q-10 -20 -26 -20q-73 -11 -121 -11q-80 0 -90 33q0 18 13 37q19 14 30.5 36.5t15 40t6.5 47.5q5 52 13.5 219t22.5 256q6 33 8.5 70t3 85t1.5 73q0 18 -10 18q-2 0 -6.5 -0.5t-6.5 -0.5q-11 -3 -43.5 -10.5t-48 -11.5 t-39 -12.5t-41.5 -18.5q-8 -5 -22 -17t-25.5 -20.5t-18.5 -8.5q-15 0 -24 11q-11 15 -11 24zM272 471q0 -7 2 -15t8.5 -13t16.5 -5q50 0 104 15.5t102.5 44t79.5 76.5t31 106q0 70 -43.5 117.5t-103 66.5t-126.5 19q-18 0 -24.5 -0.5t-11 -4t-7.5 -11.5q-6 -45 -9 -156 t-13 -171q-2 -8 -2 -23q0 -4 -1 -11t-1 -11q0 -1 -1 -9t-1 -15z" />
<glyph unicode="Q" horiz-adv-x="878" d="M69 486q0 229 101.5 358.5t276.5 129.5q119 0 206 -66.5t128.5 -169.5t41.5 -226q0 -87 -23 -177t-75.5 -174t-125.5 -125q-19 -10 -19 -14q-6 -3 9 -24q51 -89 74 -114q40 -44 87 -45q12 0 33.5 6.5t38.5 6.5q22 0 34 -13t12 -28q0 -27 -30.5 -39.5t-72.5 -12.5 q-67 0 -133 52.5t-97 129.5q-9 34 -41 34q-9 0 -29 -3.5t-31 -3.5q-59 0 -117.5 24t-98.5 62q-80 75 -111 170t-37 225q-1 12 -1 37zM142 450q0 -18 2 -51t5 -54.5t9.5 -48.5t16.5 -49q33 -77 92 -136t126 -59q16 0 39 5q0 2 -11 9q-23 0 -67 13.5t-44 36.5v1q0 26 27 33 q24 2 36 2q52 0 89 -26q48 -35 58 -35q5 0 8 3q8 6 29.5 20t32 22t26 20.5t26 25t18.5 26.5q85 153 85 293q0 45 -7 111q-7 71 -41 136t-98.5 111t-145.5 46q-127 0 -218.5 -98.5t-91.5 -247.5q0 -14 -0.5 -52.5t-0.5 -56.5z" />
<glyph unicode="R" horiz-adv-x="835" d="M3 760q0 134 113 172q146 40 255 40q176 0 268.5 -77.5t92.5 -218.5q0 -79 -39.5 -143.5t-107.5 -95.5q-7 -3 -19.5 -8t-20.5 -9t-13 -9q0 -4 2 -6q36 -60 71 -178.5t46 -146.5q41 -102 116.5 -183t159.5 -81q16 0 36 3.5t34 7.5t38 11.5t37 10.5q15 0 27 -8.5t12 -23.5 q0 -5 -1 -9t-3.5 -7.5t-4.5 -5.5t-7 -6.5t-8 -7.5q-41 -33 -149 -33q-63 0 -120 26t-98.5 67.5t-77.5 98.5t-59 112.5t-40 115.5q-28 98 -41 132q-40 106 -103 106q-26 0 -30 -2q-8 0 -10 -10l-3 -23q-6 -67 -24 -163q-10 -53 -29.5 -88t-65.5 -87q31 -12 43.5 -21.5 t12.5 -25.5q0 -15 -10 -24.5t-25 -9.5h-1h-15h-23t-26 0.5t-29 2t-27.5 5t-26 8t-19 12t-11.5 16.5q0 14 5.5 24t8.5 12t13 7q146 67 167 252q7 65 12 143.5t7.5 135t5.5 148t5 138.5q0 26 -4 32q-4 8 -13 8q-1 0 -3 -0.5t-4 -0.5q-67 -12 -128 -27q-44 -13 -58 -32.5 t-23 -64.5q-8 -40 -27 -46q-3 -1 -7 -1q-13 0 -21 8q-13 9 -13 28zM360 513q5 -24 26 -26q8 0 25.5 3.5t28.5 3.5q7 0 23.5 -4.5t23.5 -4.5q12 0 30 6q66 24 104 72.5t38 116.5q0 98 -67.5 159.5t-182.5 61.5q-34 0 -34 -17q-1 -38 -1 -115.5t-2.5 -137.5t-11.5 -115v-3z " />
<glyph unicode="S" horiz-adv-x="728" d="M39 177q0 20 1.5 31t10 25.5t25.5 25.5q4 2 12 2q22 0 30 -24t5 -51t1 -45q14 -56 86 -86t155 -30q236 0 264 219q2 13 -6.5 27.5t-30 30t-37 26t-50.5 27t-48 22.5t-49 22q-81 35 -195 124q-44 35 -70.5 97t-26.5 137q0 47 21 83q29 51 106.5 89t151.5 38q3 0 29.5 0.5 t42.5 0.5t44 -3.5t46.5 -10t36.5 -20t26 -32.5q5 -12 7.5 -32.5t3.5 -54.5t2 -43v-1l1 -13q1 -12 1 -23t-2 -23.5t-8 -20.5t-16 -8q-17 0 -25 8q-4 1 -7 4.5t-5.5 10t-4.5 13t-3.5 16.5t-2.5 17.5t-2 19t-1.5 18t-1.5 17.5t-1 15v5q0 17 -2 25.5t-12.5 20.5t-38 17.5 t-72.5 5.5q-94 0 -191 -50q-51 -27 -51 -105q0 -59 18 -99q21 -48 81 -92.5t130 -75.5q25 -12 69 -29.5t69 -28t57 -29.5t49 -37.5t29.5 -47.5t12.5 -65q0 -61 -20.5 -110t-54 -80t-79.5 -51.5t-94.5 -29t-101.5 -8.5q-93 0 -175 34q-139 58 -139 185z" />
<glyph unicode="T" horiz-adv-x="831" d="M18 801q0 7 4 25q20 66 72 110t123 44q23 0 43 -4q135 -25 375 -25q42 0 68.5 13t43.5 46q1 2 6 11.5t7.5 14.5t8 13.5t10.5 13t11.5 8t13.5 3.5q15 0 25.5 -13t10.5 -27q0 -10 -2 -14q-60 -129 -125 -140q-32 -5 -93.5 -6.5t-76.5 -2.5q-3 0 -13 -4q0 -63 -14.5 -174.5 t-17.5 -159.5q-4 -71 -11 -210t-11 -205q0 -3 -0.5 -11t-0.5 -12q0 -14 2.5 -21t4 -7.5l10.5 -3.5q8 0 26 0.5t27 0.5q16 0 24 -1t16.5 -9t8.5 -23q0 -19 -17 -30q-43 -18 -142 -18l-13 -1h-22t-24 2.5t-24.5 7t-16.5 14.5t-7 24q0 5 2.5 12.5t13 17t27.5 9.5q7 0 11.5 1 t7.5 1.5t4.5 4t2 5t1.5 8.5t2 11q3 39 12 211t17 265q2 31 15.5 112.5t13.5 125.5q0 1 1 14.5t0.5 21t-6 15.5t-17.5 8q-17 3 -69.5 12t-88 13.5t-63.5 4.5q-68 0 -95.5 -35t-38.5 -115l1 -1q0 -17 -15 -23q-4 -2 -10 -2q-8 0 -14 6h1q-26 42 -26 68z" />
<glyph unicode="U" horiz-adv-x="925" d="M-91 832q0 46 37 75q103 93 275 93q27 0 44 -1t38.5 -5.5t32 -15t10.5 -26.5q0 -13 -7 -24q-20 -41 -38.5 -87t-43 -111t-34.5 -90q-78 -196 -78 -348q0 -123 40 -177.5t124 -54.5q49 0 109.5 21t100 42.5t102.5 59.5q33 21 33 51q0 4 -0.5 11.5t-0.5 11.5q0 25 7.5 72.5 t8.5 66.5q1 26 12 170t11 220v17q0 52 -3 73.5t-16 32.5q-1 1 -12 7t-21 12.5t-19 17t-9 21.5q0 6 2 10.5t4.5 7.5t5 4.5t4.5 2.5l3 1q57 0 92 -32.5t35 -88.5q0 -14 -1 -41.5t-1 -39.5q0 -20 0.5 -57.5t0.5 -56.5q-12 -270 -28 -388q-3 -17 -3 -34q0 -11 5.5 -31t5.5 -30 q0 -11 -6 -30t-6 -26q0 -27 29 -57t65 -30q15 0 47 15t49 15q13 0 24 -12t11 -25q0 -28 -42.5 -48t-84.5 -20q-73 0 -122 60q-5 7 -15.5 26t-20 29.5t-22.5 10.5q-9 0 -52 -24q-174 -97 -296 -97q-216 0 -216 321q0 45 7 95t13.5 84t26 93.5t27 81t34.5 92t32 82.5 q3 7 11.5 25.5t13.5 33.5t5 25t-43 10q-135 0 -209 -67q-20 -20 -26 -36q-1 -4 -3 -20.5t-7 -25.5t-17 -9q-35 0 -35 66z" />
<glyph unicode="V" horiz-adv-x="924" d="M36 828q0 46 41.5 79t94 46t106.5 13q25 0 43.5 -2t41 -8.5t34.5 -22t12 -39.5q0 -340 -16 -722q0 -38 2 -42q114 143 116 146q110 157 237 344q92 136 92 202q0 48 -28 76q-6 5 -22.5 14.5t-27 20t-10.5 24.5q0 12 8 26t26 14q9 0 33 -11q34 -8 65.5 -59t31.5 -99 q0 -67 -56 -171q-19 -33 -44 -72t-40.5 -61.5t-50 -70.5t-44.5 -62q-65 -93 -241 -332q-60 -79 -82 -79q-21 0 -33 19.5t-12 41.5q0 5 2 15q5 37 8 81t4 75.5t1.5 83.5t1.5 79q1 39 6 134.5t5 147.5q0 81 -5 184q0 29 -8 37.5t-43 8.5q-39 0 -61 -1.5t-53 -10.5t-49 -27 q-1 -1 -20 -27t-36 -26q-8 0 -19 11t-11 22z" />
<glyph unicode="W" horiz-adv-x="1335" d="M-7 734q14 111 100.5 158.5t244.5 47.5q40 0 48 -48q45 -292 46 -463q0 -107 18 -194q6 3 15 24q78 220 88 247q17 44 49 126.5t57.5 150t44.5 128.5q3 14 8 23t12 14t11.5 7t14 4t12.5 3q25 0 34 -24q14 -53 45 -212q18 -94 49.5 -290.5t51.5 -297.5q0 -4 8 8 q13 19 22 37q28 64 98 235.5t112 263.5q28 62 28 133q0 29 -5 62q0 2 -0.5 7.5t-1.5 8t-3.5 6.5t-7.5 6t-13 2q-3 0 -15.5 -1.5t-21.5 -1.5q-17 0 -33 10.5t-16 31.5q0 24 27.5 38t53.5 14q59 0 87.5 -58t28.5 -133q0 -54 -17 -99q-30 -81 -67 -169t-87 -201t-73 -167 q-16 -39 -58.5 -105.5t-49.5 -78.5q-4 -13 -26 -13q-20 0 -29 18t-9 39q-26 264 -78 525q-4 20 -13.5 74.5t-18 92.5t-20.5 73q-3 0 -5 -4.5t-4.5 -11.5t-5.5 -11q-132 -360 -201 -538q-8 -22 -28 -68.5t-33.5 -82.5t-20.5 -70q-1 -13 -11.5 -21t-23.5 -8q-43 0 -43 71 q0 18 1 52t1 51q0 94 -14 284q-2 31 -4.5 87.5t-6 103t-10.5 86.5l-1 16q-4 14 -10.5 58.5t-17.5 66.5q-102 -5 -132 -8q-29 -4 -50 -15.5t-34.5 -32t-20 -36t-15.5 -42.5l-8 -16q-9 -14 -23 -14q-9 0 -19.5 12.5t-10.5 28.5z" />
<glyph unicode="X" horiz-adv-x="878" d="M31 66q-1 3 1 8.5t14.5 12.5t34.5 7q4 0 13 -3q26 -12 46 -12q46 0 94 67q18 26 35.5 53.5t36.5 60.5t31 54.5t33.5 62.5t30.5 57q18 32 18 67q0 16 -5 38q-41 158 -104 291q-6 12 -9.5 18t-4.5 7.5t-2.5 2t-2.5 1.5q-17 0 -58 -16.5t-65 -16.5q-37 0 -37 29q0 3 1 5 q4 15 12 15q6 3 28.5 14t34 16.5t30.5 13t33 11t26 3.5q44 0 67 -53l96 -237q9 -33 17 -36q30 59 56 118q35 80 88 144.5t109 64.5q61 0 95 -68l1 -2q1 -2 1 -3q0 -31 -29 -31q-20 6 -36.5 15t-25 14t-13.5 5q-1 0 -7 -2q-5 -3 -17.5 -13.5t-32 -32t-27.5 -40.5 q-82 -178 -122 -268q-2 -4 -3 -8.5t-2 -9.5t-2 -7q0 -5 1 -13.5t1 -11.5q8 -25 29.5 -90.5t32.5 -99t31.5 -84.5t40.5 -93q26 -55 81 -55q11 0 35.5 6.5t33.5 6.5q22 0 43 -15t21 -29q0 -23 -28 -35t-60 -12q-145 0 -199 114q-68 156 -93 238q-3 6 -5 19q-6 18 -8 21.5 t-9 6.5q-5 1 -9 -1.5t-8 -8.5t-6.5 -10.5t-6 -13t-5.5 -11.5q-12 -19 -38 -68t-48 -84.5t-53 -74.5t-70 -60.5t-82 -21.5q-32 0 -66 16.5t-34 46.5z" />
<glyph unicode="Y" horiz-adv-x="932" d="M-4 691q13 50 26.5 85.5t36.5 71t59 54t83 18.5q113 0 217 -160q17 -26 31 -60t23 -58.5t20 -71.5t14.5 -64.5t13.5 -75t12 -66.5q10 8 21 40q41 121 115 272q53 109 64 141q12 39 54 77t75 38q37 0 58.5 -16t21.5 -33q0 -28 -28 -28q-5 0 -13.5 1t-11.5 1q-44 0 -76 -50 q-4 -6 -17 -32q-45 -90 -88 -192t-95.5 -237.5t-77.5 -197.5q-10 -25 -19.5 -54.5t-20 -67t-16.5 -57.5q-29 -93 -92 -212q-19 -50 -65.5 -79t-89.5 -29q-19 0 -50 8t-62 30.5t-31 52.5q0 44 32 44q12 0 22 -7q33 -28 49.5 -37t34.5 -9q31 0 59.5 24.5t44.5 56.5 q142 290 142 447q0 33 -8 95.5t-28.5 148t-50.5 159.5t-80.5 126t-110.5 52q-66 0 -96 -54q-1 -1 -8 -22t-16 -43.5t-21.5 -41.5t-23.5 -19q-33 0 -33 31z" />
<glyph unicode="Z" horiz-adv-x="897" d="M58 19q0 22 14 41q71 97 145 222q68 114 205 312.5t166 242.5q12 19 17 34l-2 3q-10 -1 -27 -1.5t-22 -0.5q-15 -2 -64 -10.5t-77 -8.5q-34 0 -95.5 7.5t-75.5 7.5q-12 0 -17.5 -4.5t-8.5 -21.5q0 -2 -1.5 -18t-3.5 -28.5t-10.5 -23.5t-22.5 -11t-24.5 10t-10.5 28 q0 21 10 103q6 45 78 45q12 0 39 -6t40 -6q7 0 45 -3.5t57 -3.5q29 0 64 3.5t60 8t66.5 12t62.5 10.5q3 1 11 1q23 0 38 -11t15 -30q0 -16 -25 -52q-44 -65 -144.5 -208t-172.5 -250.5t-134 -214.5q-5 -10 -19 -31.5t-22.5 -38t-14.5 -33.5q125 17 163 17q93 0 257 -39 q14 -3 38 -9t43.5 -10t37.5 -4t42 8q0 -1 1 0.5t2 5t2 8.5t2 14t1 19v56q0 15 9 26t25 11q46 0 46 -65q0 -14 -2 -37.5t-2 -24.5q-2 -19 -3 -27t-6.5 -23.5t-14 -22.5t-26 -13t-42.5 -6q-69 0 -203 28.5t-200 28.5q-114 0 -222 -43q-34 -13 -47 -13q-17 0 -28.5 11.5 t-11.5 28.5z" />
<glyph unicode="[" horiz-adv-x="437" d="M100 -161q0 31 4.5 86t4.5 82t-4.5 79t-4.5 79q0 62 5 129t15 156.5t13 128.5q2 28 9 130t13 157q3 26 3 52q0 7 -0.5 21.5t-0.5 22.5q0 81 3.5 115.5t9 43t22.5 20.5q3 2 22.5 6.5t50 9.5t53.5 5q3 0 11 -6t8 -13q0 -23 -14.5 -33t-44 -14t-33.5 -5l-5 -1q-5 0 -6.5 -1 t-5.5 -4t-6 -8t-4 -14.5t-2 -22.5q-3 -60 -7.5 -167.5t-8.5 -196.5t-8 -168q-2 -47 -15.5 -159.5t-13.5 -173.5q0 -17 0.5 -51t0.5 -51q0 -15 -1.5 -61.5t-1.5 -71.5q0 -66 8 -85q11 -16 30.5 -24.5t35.5 -10.5t28 -9.5t12 -24.5q0 -18 -10.5 -26.5t-22.5 -8.5 q-11 0 -33 5.5t-47 15t-43.5 27.5t-18.5 40z" />
<glyph unicode="\" horiz-adv-x="825" d="M100 988l74 37l551 -1123l-74 -36z" />
<glyph unicode="]" horiz-adv-x="400" d="M100 1124q0 30 25 37q82 21 114 21q21 0 34.5 -14t18.5 -44.5t6 -51.5t1 -62v-13q0 -53 -6 -93q1 -11 1 -34q0 -78 -15 -246.5t-15 -250.5q0 -53 7 -101q0 -17 -3 -52.5t-3 -53.5q0 -48 6.5 -144t6.5 -145q0 -58 -5.5 -84.5t-28.5 -34.5q-41 -11 -102 -13h-1 q-16 0 -27 14t-11 31q0 6 1 13.5t9.5 18.5t22.5 11q8 0 20 -3.5t16 -3.5q19 0 26.5 7t7.5 24q0 22 -4 66t-4 67q0 50 -1 148.5t-1 150.5q0 65 8 187t9 177q0 58 16 170.5t16 166.5q0 118 -32 118q-5 0 -27 -3t-35 -3q-39 0 -51 22z" />
<glyph unicode="^" horiz-adv-x="558" d="M100 591q0 22 14 50q43 83 74 222q7 28 10.5 41t16 28t30.5 15q15 0 26 -21q42 -74 117 -230q7 -15 36 -65t34 -71q0 -18 -10.5 -29.5t-25.5 -11.5q-16 0 -27 17q-13 28 -40.5 88t-51 106.5t-50.5 89.5q-5 -12 -10 -26l-2 -8q-2 -7 -6 -20.5t-9.5 -31t-12.5 -37 t-14.5 -39t-16 -37t-17.5 -31t-18 -21.5t-18 -8q-29 0 -29 30z" />
<glyph unicode="_" horiz-adv-x="680" d="M38 -46q0 24 15 36.5t32.5 14.5t48.5 2q207 -14 403 -14q15 0 43 2.5t41 2.5q8 0 14 -3q21 -11 21 -33q0 -14 -2 -20t-4.5 -7.5t-13.5 -2.5t-20 -3q-36 -9 -145 -9q-36 0 -111.5 3.5t-112.5 3.5q-15 0 -44.5 -1t-43.5 -1q-7 0 -22 0.5t-23 0.5q-4 0 -11 -0.5t-11 -0.5 q-3 0 -11.5 -0.5t-12.5 0t-10.5 1.5t-10 4t-6.5 9t-3 15z" />
<glyph unicode="`" horiz-adv-x="339" d="M100 1054q0 35 36 45q4 1 13 1q34 0 41 -37q7 -36 23 -126.5t26 -133.5q0 -65 -43 -65q-21 0 -33 15t-12 27q0 38 -8 81.5t-21.5 98t-19.5 83.5q-2 4 -2 11z" />
<glyph unicode="a" horiz-adv-x="644" d="M20 200q0 183 51 336q28 82 97.5 149.5t152.5 67.5q46 0 92 -20q4 -2 11 -2q4 0 7 2t5.5 6t3.5 5q1 5 9 12.5t17 7.5q15 0 23 -11.5t9.5 -24t1.5 -32.5q0 -71 -3.5 -152.5t-8.5 -177.5t-7 -151q0 -6 -0.5 -18t-0.5 -17q0 -107 44 -107q22 0 43 12q5 3 28.5 32.5 t44.5 29.5q3 0 9 -1.5t13 -7.5t7 -14q0 -7 -1 -9q-22 -49 -58 -83.5t-84 -34.5q-38 0 -62 23q-11 9 -17.5 18.5t-12 24t-8 24.5t-7.5 35.5t-9 40.5q-110 -175 -242 -175h-1q-147 0 -147 212zM86 215q0 -29 0.5 -45t4.5 -39.5t11 -36.5t21.5 -22.5t34.5 -9.5q65 0 110 45 q77 79 117.5 153t40.5 166q0 2 -1 15.5t-1 26t1 24.5t4 15q0 14 0.5 33.5t-0.5 43.5q-1 49 -1 63q0 20 -31.5 29.5t-63.5 9.5q-40 0 -81 -26t-72 -63q-49 -56 -71.5 -164t-22.5 -218z" />
<glyph unicode="b" horiz-adv-x="655" d="M14 1186q0 33 80 44q6 1 30 4q35 0 47 -19.5t12 -55.5q0 -332 -16 -472q-2 -18 -2 -27q0 -6 0.5 -15t0.5 -15q-3 -20 9 -20q2 0 4 1.5t7.5 7t13.5 11.5q106 95 220 95q44 0 80 -33q77 -72 77 -221q0 -143 -15 -242q-14 -129 -105 -186q-2 -1 -7.5 -6.5t-11 -8.5t-11.5 -5 q-7 -2 -33.5 -9.5t-38.5 -10.5t-32.5 -6.5t-37.5 -3.5q-43 0 -80 17q-24 12 -39 12q-12 0 -22.5 -18t-24.5 -18q-6 0 -11 1.5t-8.5 5t-6 6.5t-4 9.5t-2.5 11t-1 13v13v14.5v15q0 25 1 37q7 56 10.5 123t4 115t1 126.5t1.5 118.5q1 61 8 196.5t7 206.5q0 29 -2 83t-2 69 q-9 5 -20 5q-7 0 -22.5 -3t-21.5 -3q-14 0 -25.5 10t-11.5 27zM153 150q0 -49 37 -59q64 -23 114 -23q55 0 94.5 19.5t62.5 51.5t35.5 86t16.5 109t4 136q0 8 -0.5 18.5t-1.5 23.5t-1 21q-2 39 -30.5 76.5t-64.5 37.5q-76 0 -148 -56q-8 -7 -26.5 -23.5t-34 -28t-32.5 -19.5 q-12 -1 -12 -26q-8 -233 -13 -344z" />
<glyph unicode="c" horiz-adv-x="551" d="M17 418q4 85 37 176q33 80 104 138q64 53 135 52h15q46 -2 110 -30q36 -11 36 -77q0 -10 -1 -20v-6.5t-0.5 -7.5t-1 -7t-1 -7t-1.5 -6.5t-2 -6.5t-3 -5.5t-4.5 -5t-5.5 -3.5t-7 -3q-25 0 -31 29q-2 44 -20.5 62t-69.5 22h-9q-49 0 -105 -41q-47 -34 -76.5 -109 t-33.5 -143q-1 -14 -1 -27q0 -62 19 -122q23 -73 66.5 -120.5t93.5 -50.5h10q62 0 120 56q11 8 24 29t26.5 33.5t33.5 11.5q15 -2 13 -27q0 -20 -12 -35q-80 -145 -209 -145h-15q-68 5 -113 56q-122 131 -122 304q0 18 1 36z" />
<glyph unicode="d" horiz-adv-x="703" d="M52 293q0 223 74 341q38 56 95.5 97t118.5 41q20 0 40.5 -4t47 -12t37.5 -10l2 -1q2 -3 4 3l5 25q3 49 8.5 147.5t8.5 147.5v15v27.5t-2 18.5t-6 13.5t-11 3.5q-6 0 -35 -10.5t-42 -10.5q-31 0 -31 31q0 25 29 36q66 33 98 33q24 0 46.5 -31t22.5 -85q0 -21 -2 -69 q-10 -153 -28 -459q-1 -24 -5.5 -77.5t-6.5 -94.5t-2 -78q0 -22 7 -65.5t7 -65.5q0 -34 -4 -50q0 -32 16 -57t36 -25q18 -2 48 18q6 4 21.5 19.5t31 26t28.5 10.5q11 0 18.5 -8t7.5 -14t-1 -8q0 -4 -4 -12.5t-9 -11.5q-2 -2 -23.5 -24t-28.5 -28t-25 -20t-33 -19t-31 -5 q-36 0 -58.5 17t-30 38t-15.5 44.5t-15 31.5q-5 -2 -9.5 -7.5t-12.5 -17t-11 -15.5q-37 -49 -97 -80.5t-111 -31.5q-36 0 -58 18q-33 27 -55.5 63.5t-33.5 80.5t-15 79t-6 81zM117 349q0 -75 15 -170q6 -58 34 -94.5t48 -36.5q88 0 168 96l16 20t14.5 18.5t11 15t10 15 t7.5 12.5t6.5 13.5t4 13.5t3.5 16t1 16.5t1 20.5q-2 20 -2 61q0 4 -0.5 21.5t0 28.5t1 25.5t3 22t6.5 7.5q0 141 1 170q0 20 -22.5 34t-48 19t-46.5 5q-83 0 -140 -69q-92 -113 -92 -281z" />
<glyph unicode="e" horiz-adv-x="543" d="M21 280q0 20 2 30q10 130 21 173q10 37 29 71q40 74 93.5 126.5t112.5 52.5q67 0 128 -56q24 -23 24 -84q0 -52 -12 -91q-20 -63 -82.5 -135t-132.5 -106q-103 -49 -103 -82q0 -18 20 -43q56 -71 127 -71q54 0 156 60q5 3 21 14t28 17t20 6q12 0 20 -10t8 -22 q0 -27 -9 -36q-5 -6 -11 -10q-17 -10 -53 -32.5t-55 -32.5t-49.5 -20t-59.5 -10q-112 0 -177.5 85.5t-65.5 205.5zM86 324q0 -4 0.5 -11.5t1.5 -11.5q0 -4 1 -7t3 -4l1 -2q7 0 13 3q100 59 118 72q58 44 100 104t42 121q0 21 -12 42q-22 30 -64 30q-45 0 -64 -18 q-78 -72 -102 -133t-36 -165q-1 -13 -2 -20z" />
<glyph unicode="f" horiz-adv-x="463" d="M-162 -365q0 7 5 17q4 5 7 8t5.5 4.5t5.5 2.5t4 1h4.5h4.5q14 -7 23.5 -17t13.5 -17.5t9.5 -13t12.5 -5.5q8 1 26 3t24.5 3.5t17 6.5t17.5 14q42 52 61.5 77.5t43 73t27.5 91.5q3 30 12 114t12 130q8 122 8 368q0 44 -1 53t-9 17q-43 14 -131 14q-5 0 -25.5 -1 t-32.5 -0.5t-27.5 3.5t-23.5 12t-8 24q0 38 127 38q15 0 45.5 -4t44.5 -4q15 0 30 3q11 84 11 219q0 72 30 237q12 63 63 106t115 43q13 0 22 -8.5t9 -20.5t-12 -20.5t-35.5 -17.5t-27.5 -11q-62 -31 -74 -101q-25 -139 -25 -320q0 -7 -0.5 -25t-0.5 -29.5t1 -25.5t4.5 -21 t8.5 -7q14 -3 64.5 -4t87 -9t47.5 -30q3 -8 3 -15q1 -17 -12 -23t-31 -6q-26 0 -70 2.5t-55 2.5q-32 0 -38.5 -6t-6.5 -34q0 -22 0.5 -97.5t0.5 -111.5q0 -87 -5 -197q0 -9 -2.5 -55t-3.5 -62.5t-4 -52t-8 -63t-12 -54.5q-18 -69 -56.5 -128.5t-98.5 -125.5q0 -2 -3 -2 q-74 -35 -120 -35q-12 0 -18 1q-9 4 -22.5 10.5t-36 30.5t-22.5 50z" />
<glyph unicode="g" horiz-adv-x="623" d="M-65 -323q0 143 255 210q8 2 35.5 8.5t45.5 11.5t46.5 12.5t47 14t37.5 14.5t28.5 15.5t9.5 14.5q1 14 4 68t3 83q0 43 -5 63q-5 0 -4 -1q-20 -20 -68.5 -74t-77.5 -79q-23 -20 -46 -27t-58 -11h-3q-44 0 -79 27q-13 10 -23 23t-15.5 31t-9.5 31.5t-5 37.5l-1.5 36t0 39 t0.5 35q0 115 8 157q3 16 14.5 44t15.5 42q35 86 50.5 113.5t48.5 53.5q72 59 119 59q84 0 116 -14q8 -2 9 -2q7 0 17.5 12t19.5 12q10 0 17.5 -6t7.5 -14q0 -2 -0.5 -7t-0.5 -6q0 -30 11.5 -94t11.5 -99q0 -17 -2 -52t-2 -53q0 -21 1 -64.5t1 -65.5q0 -4 -3 -8 q0 -11 -1 -51t-1 -75q-1 -11 -1 -23q0 -23 1 -49q1 -37 5.5 -59t12.5 -22q24 0 58.5 18t57.5 40q15 10 25 10q12 0 20 -9.5t8 -26.5q0 -25 -12 -31q-80 -60 -125 -72q-39 -13 -50 -26.5t-15 -48.5q-12 -99 -16 -119q-11 -54 -53.5 -113t-95.5 -64q-32 -3 -99.5 -9.5 t-103.5 -9.5q-63 0 -116 28t-70 80q-6 39 -6 41zM3 -321q0 -32 31 -57.5t77 -25.5q23 0 69 6.5t69 6.5q57 0 89 20.5t56 71.5q36 86 36 138q0 16 -4 31q-240 -67 -275 -78q-59 -18 -103.5 -48t-44.5 -65zM116 252q0 -87 12.5 -133t47.5 -46q68 0 161 118q10 12 36 42.5 t39.5 48t26 46t12.5 55.5q0 14 -2 21q0 9 -1 25.5t-1 24.5q0 10 1.5 31.5t1.5 32.5q0 123 -25 123q-52 21 -86 21q-19 0 -41 -8q-52 -20 -89.5 -63.5t-56.5 -101.5t-27.5 -116t-8.5 -121z" />
<glyph unicode="h" horiz-adv-x="801" d="M-15 1166q0 10 15 25q2 3 10 7q120 48 145 56q16 4 23 4q24 0 37.5 -19.5t13.5 -45.5q0 -10 -1 -27.5t-1 -26.5q0 -10 0.5 -31.5t0.5 -32.5q0 -22 -5 -62t-6 -53q-6 -132 -20 -418q0 -2 0.5 -8.5t0.5 -11.5q43 52 54 65q1 1 16.5 19t20.5 23.5t21 22t26 24t27 20t31 18 t32 10t36 4.5q12 0 36 -8q75 -28 97 -75.5t22 -135.5q0 -17 -1 -25q-22 -224 -32 -335q0 -2 -2 -19.5t-2 -28.5q0 -37 28 -37q23 0 64 43q2 2 9.5 11.5t12.5 15t15.5 11t21.5 5.5q24 0 24 -21q0 -38 -60 -90t-102 -52q-26 0 -55 17.5t-29 48.5q2 68 14.5 192.5t14.5 143.5 q4 54 4 164q0 42 -25.5 69t-60.5 27q-38 0 -76 -36q-124 -121 -175 -239q-22 -52 -22 -74q0 -38 -8.5 -111t-8.5 -110q0 -11 2 -30.5t2 -30.5q0 -43 -31 -43q-11 0 -26 14t-15 38q0 57 3 76q14 89 16 269q0 36 5.5 102t6.5 86q18 347 23 401q11 132 11 180q0 33 -15 33 q-6 0 -13 -3q-10 -3 -51.5 -19.5t-66.5 -19.5q-11 -2 -21.5 9.5t-10.5 24.5z" />
<glyph unicode="i" horiz-adv-x="428" d="M52 654q0 26 46.5 64t83.5 38q31 0 44.5 -30t13.5 -60q0 -10 -2 -14q-5 -32 -15 -86.5t-15 -83t-9 -70t-4 -78.5q0 -26 -8 -76t-8 -77q0 -56 13 -75.5t38 -19.5q21 0 47 13l19 11q19 12 40 21.5t34 9.5q12 0 19.5 -8.5t7.5 -18.5q0 -32 -70.5 -68.5t-117.5 -36.5 q-14 0 -22 6q-49 37 -62.5 66t-13.5 80q0 17 2 26q9 100 34 319q2 16 7.5 46.5t8.5 54t3 44.5q0 26 -5 32q-9 -6 -26.5 -21t-31.5 -23t-30 -8q-10 0 -21 23zM152 1010q0 31 21.5 54t52.5 29q31 0 51 -17t20 -47q0 -50 -36 -72q-12 -8 -25 -9v10v-10q-24 0 -54 16.5t-30 45.5 z" />
<glyph unicode="j" horiz-adv-x="392" d="M-168 -275q0 7 1 11l1 3q1 3 3 6.5t4.5 7t8 6t11.5 2.5q16 0 28.5 -15.5t19 -33.5t18.5 -33.5t28 -15.5q7 0 10 1q84 17 140.5 85t73.5 162q32 180 32 439q0 43 -0.5 90.5t-1.5 106t-1 91.5q0 25 -9 25q-8 0 -42.5 -19t-47.5 -19q-25 0 -25 31q0 8 9 17.5t31 22.5 t33.5 19.5t41.5 21t31 15.5q4 3 11 3q13 0 21.5 -9t11.5 -29.5t4 -34t0 -42t-1 -33.5q0 -31 -0.5 -93.5t-0.5 -93.5q0 -23 1.5 -88t1.5 -104q0 -363 -124 -520q-38 -49 -99.5 -84.5t-118.5 -35.5q-27 0 -36 19q-27 40 -66 103q-2 6 -2 8q-1 2 -1 7zM178 1016q0 12 3 17 q0 25 22 44.5t47 19.5q27 0 44 -19.5t17 -45.5q0 -30 -23.5 -53t-53.5 -23q-28 0 -42 18t-14 42z" />
<glyph unicode="k" horiz-adv-x="663" d="M-36 1230q0 12 8 28q6 12 65 34t91 22q17 0 26 -10t9 -25v-184q0 -106 -15.5 -313t-16.5 -232q0 -3 -0.5 -7.5t-0.5 -6.5q0 -13 9 -16q8 0 21 13q41 29 83 64t94 81t80 69q60 50 106 50q33 0 64.5 -20t31.5 -53q0 -11 -9 -21.5t-22 -10.5q-12 0 -20 6q-49 28 -55 28 q-12 -1 -49 -31q-7 -6 -68.5 -55t-92.5 -77.5t-31 -39.5q0 -8 6 -18q18 -32 52 -95t55.5 -103t56.5 -98.5t62.5 -97t65.5 -83t72.5 -72t76.5 -48.5t85 -27q49 -7 49 -37q0 -16 -15.5 -28.5t-35.5 -12.5q-6 0 -15 3q-166 33 -288 199q-121 163 -245 399q-2 2 -3.5 6t-2.5 5 l-3 5q-3 5 -7.5 13.5t-10 17t-11 14.5t-8.5 6q-16 0 -41 -16t-30 -32q-7 -13 -8 -30q-13 -189 -13 -308q0 -2 0.5 -8t0.5 -9q0 -6 -1.5 -14t-12.5 -20t-29 -12q-11 0 -18 9t-7 20q2 24 2 146q0 32 6 99t6 101q0 10 -0.5 28.5t-0.5 27.5q0 68 4 141.5t11 170t10 140.5 q3 52 8 311q0 3 -1.5 10.5t-1.5 11.5q-17 0 -47.5 -12.5t-50.5 -12.5q-5 0 -7 1h1q-24 0 -24 16z" />
<glyph unicode="l" horiz-adv-x="426" d="M97 1206h15q62 -2 90 -34q25 -29 25 -85v-12q-6 -144 -34.5 -447t-34.5 -446q-1 -18 -1 -33q0 -95 42 -98q22 -1 55 26t42 51q18 46 53 46h3q17 -1 26 -9.5t8 -20.5q0 -8 -6 -18q-37 -58 -88 -102q-48 -42 -104 -41h-8q-91 5 -91 119v10q27 619 67 924q5 30 5 36v8 q0 39 -19 52q-4 0 -9.5 3t-11.5 4h-34q-66 3 -66 30q0 37 76 37z" />
<glyph unicode="m" horiz-adv-x="1092" d="M38 647q0 13 11.5 22t41.5 19.5t39 14.5q7 3 35.5 23.5t44.5 20.5q20 0 27 -18q1 -1 2.5 -25.5t4 -46.5t6.5 -22q7 0 20.5 10.5t32.5 30t20 20.5q57 56 151 56q24 0 41.5 -4t31.5 -16t20.5 -19.5t21 -30.5t20.5 -32q30 20 32 22l19.5 19.5t20.5 20t19 17t22 16l22 11 t26 9t28 2.5q39 0 63 -16q88 -59 88 -155q0 -144 -10 -348q0 -37 12 -195q3 -6 9 -7q44 6 82 44l5 7q5 7 10.5 13.5t18 12.5t26.5 6q9 0 18.5 -10t9.5 -25q0 -12 -7 -19q-31 -42 -81.5 -74.5t-90.5 -32.5q-27 0 -46 18t-24 48q-13 69 -13 163q0 102 7 157q6 43 7.5 124.5 t2.5 96.5q0 53 -30 86.5t-56 33.5q-11 0 -21.5 -5t-23.5 -14t-22 -13q-17 -17 -35.5 -35t-28 -25t-20.5 -21t-15 -16.5t-10 -18.5t-7.5 -21.5t-4.5 -30t-3.5 -38.5t-3.5 -53q-1 -22 -2.5 -83.5t-4.5 -111t-8.5 -103.5t-17 -85t-27.5 -31q-33 0 -33 45q6 72 18 236t18 237 q0 6 0.5 19t0.5 20q0 52 -22.5 98.5t-57.5 46.5q-49 0 -132 -75q-97 -88 -97 -160q0 -5 0.5 -13t0.5 -13q0 -54 -2 -183t-2 -184q0 -67 -42 -67q-12 0 -22 8t-10 21v-1q1 19 7.5 227t11.5 305q0 5 0.5 15.5t0.5 15.5q0 63 -18 63q-4 -1 -39.5 -14.5t-55.5 -15.5q-13 0 -22 8 t-9 18z" />
<glyph unicode="n" horiz-adv-x="689" d="M40 622q2 16 9 22q69 58 141 87q4 2 12 2q21 -1 30.5 -19t9 -42.5t-1.5 -51.5q0 -3 -0.5 -5t-0.5 -4.5v-4.5q-1 -11 -3 -31t-2 -29l2 -8q35 32 99 100q33 32 81 60q47 27 81 26h2q30 -2 50.5 -25.5t29 -58.5t11.5 -67t1 -62q-3 -52 -24 -162t-24 -166q0 -4 -1.5 -21 t-2 -24.5t-0.5 -22.5t2.5 -23t6.5 -17.5t11.5 -14t18.5 -5.5q12 0 37.5 17t43.5 16q15 -1 26.5 -14.5t10.5 -29.5q0 -7 -5 -15t-5 -10q-41 -41 -97 -41h-8q-42 2 -68 23t-33.5 50.5t-11 62.5t0.5 61q3 54 12 108q3 20 15.5 104.5t20.5 129.5q2 16 2 22q1 10 1 21q0 27 -6 52 q-8 35 -28 36q-9 2 -22 -5q-104 -48 -169 -143q-6 -9 -28 -39t-30 -44.5t-22 -43t-20.5 -60.5t-8.5 -72q-2 -32 -13 -88.5t-12 -78.5q0 -23 -1 -34l-4 -11q-4 -11 -10.5 -15.5t-18.5 -3.5h-1q-16 1 -23.5 12.5t-9 26.5t-0.5 40q0 8 2 18q1 10 36 215q1 6 3.5 18.5t3.5 18.5 q4 82 29 232q0 4 2 14t2 14q1 10 -2 18q-9 1 -33 -13q-46 -23 -66 -23h-2q-15 1 -28 21zM238 539h1h-1z" />
<glyph unicode="o" horiz-adv-x="612" d="M43 315q0 12 1 18q-1 3 -1 11q0 65 17.5 137t50.5 140.5t92.5 113t133.5 44.5q64 0 113.5 -28.5t77.5 -74t41.5 -95.5t13.5 -101q0 -82 -17.5 -165t-52 -159.5t-97 -124.5t-142.5 -48q-33 0 -65 5q-105 19 -147 182q-19 73 -19 145zM111 334q0 -116 44 -211q1 -1 2.5 -5 t2.5 -6q0 -20 42.5 -39t64.5 -19q45 0 88 24.5t65 61.5q92 139 92 331q0 39 -3 79q-6 68 -56.5 114.5t-109.5 46.5q-53 0 -99 -35t-72 -86q-61 -122 -61 -256z" />
<glyph unicode="p" horiz-adv-x="618" d="M8 634q0 11 11 26q6 9 61 44t68 35q23 0 32 -16.5t10.5 -42t4.5 -31.5q2 0 4 1q12 12 38 41.5t41 43.5t42.5 27.5t57.5 13.5q26 0 52 -10q30 -11 52.5 -27t37.5 -31t25 -39.5t15 -41t7.5 -47t3 -47t0.5 -50.5q0 -218 -84 -364q-32 -52 -75.5 -89.5t-91.5 -37.5t-132 42 q0 -19 -0.5 -52.5t-0.5 -48.5q0 -47 2 -184.5t2 -183.5q0 -30 -24.5 -49.5t-55.5 -19.5q-46 0 -46 41q0 5 0.5 8.5t1.5 5.5t2 3.5t3 4t3 4.5q13 6 24 9t15 3.5t6 3.5t2 12q0 45 -7.5 179t-7.5 179q0 73 9 185q6 74 6 191v34v87q0 81 1 138q0 4 -0.5 10.5t-1.5 16.5t-3.5 16 t-5.5 5h-1q-7 -3 -23.5 -11.5t-29 -13.5t-20.5 -5q-13 0 -21.5 10.5t-8.5 21.5zM190 483q0 -48 0.5 -145t0.5 -145q0 -37 20 -57q26 -27 38 -38t30 -20.5t37 -9.5q38 0 67 30q122 129 122 379q0 38 -4 116q-2 36 -33 76t-88 40q-18 0 -35.5 -8t-37 -28t-30.5 -33t-34 -44.5 t-31 -41.5q-22 -28 -22 -71z" />
<glyph unicode="q" horiz-adv-x="588" d="M35 145q0 36 10 69l3 15t2 15q0 40 6.5 79.5t22.5 102.5t19 77q15 71 36 103q67 123 163 123q56 0 158 -51q4 3 15 12t18.5 14.5t17.5 10.5t18 5q13 0 22 -10t9 -21q0 -10 -9 -19q-24 -18 -32.5 -46.5t-11.5 -71.5q-32 -408 -32 -614q0 -219 -3 -328q0 -60 -27 -88 q-36 -40 -72 -40q-13 0 -25 12.5t-12 27.5l1 3q0 3 0.5 5.5t1.5 6.5t2.5 6.5t4.5 4.5t6 2q30 14 39.5 39.5t9.5 67.5v416v6v4q0 9 -4 13q-1 0 -9 -6q-8 -8 -33 -35t-42.5 -44t-42.5 -37.5t-50 -31t-49 -10.5q-54 0 -92.5 69.5t-38.5 143.5zM107 139q0 -47 16 -91t46 -44 q12 0 26 8q50 26 98.5 81.5t83.5 118.5q16 26 25.5 61t12.5 58t6.5 73t5.5 67q-3 1 -3 5q0 12 8 100q2 20 2 24q0 13 -7 17q-15 15 -54 27t-67 12q-113 0 -158 -227q-2 -8 -8 -38.5t-8.5 -43t-7.5 -39.5t-7 -44t-5 -40t-4 -44t-1 -41z" />
<glyph unicode="r" horiz-adv-x="518" d="M-22 633q0 11 13 19.5t39 20.5t40 20q5 3 18.5 11.5t22 14t20.5 11.5t21.5 9.5t16.5 3.5q17 0 25.5 -13t9.5 -27t1 -44q0 -7 -0.5 -23t-0.5 -25q4 5 23 32t27.5 35.5t26 25t36 22.5t41.5 6q30 0 56 -15q20 -12 27 -16.5t27 -19t29 -25.5t18 -28t9 -34q0 -11 -7.5 -22.5 t-25.5 -11.5q-29 0 -53 50q-5 11 -30 31t-54 20q-11 0 -23 -6q-11 -7 -18 -17q-43 -61 -67 -111t-29 -107q-5 -58 -15.5 -176t-15.5 -176q0 -60 -34 -60q-19 0 -31 15t-12 34q0 7 2 21q15 158 15 318q0 42 4 124t4 122q-22 0 -59 -19t-63 -19q-6 -2 -20 7t-14 22z" />
<glyph unicode="s" horiz-adv-x="538" d="M61 189q0 94 41 94q14 0 24 -10t10 -22q0 -8 -1 -25.5t-1 -24.5q0 -126 107 -126q67 0 106 41.5t39 98.5q0 33 -13 57t-26 34t-44.5 28.5t-44.5 27.5q-43 30 -64 46.5t-41.5 39t-27.5 46t-7 56.5q0 100 50 158.5t127 58.5q31 0 68.5 -15t69.5 -51t32 -84 q0 -29 -11.5 -56.5t-33.5 -27.5q-21 0 -30 18q-2 6 -2 9q0 5 1.5 15.5t1.5 16.5q0 50 -25 78t-67 28q-57 0 -85.5 -50t-28.5 -104q0 -35 19 -58t62 -48.5t53 -33.5l34 -25.5t32.5 -25t26 -24.5t22.5 -31t12.5 -37.5t5.5 -50.5q0 -83 -59.5 -145.5t-153.5 -62.5 q-46 0 -79 13.5t-50.5 30t-28.5 47t-13.5 47.5t-6.5 49z" />
<glyph unicode="t" horiz-adv-x="472" d="M18 605q0 25 29 46q10 5 77.5 17.5t73.5 18.5q8 0 16.5 96.5t8.5 130.5q0 17 -3.5 21.5t-20.5 4.5q-10 0 -31 -1t-32 -1q-12 0 -21.5 7t-9.5 21q0 9 9.5 16.5t29 13.5t34 10t39.5 10t31 7q3 1 10 1q12 0 19.5 -5t10 -16t3.5 -19.5t1 -22.5q0 -22 -6.5 -131t-6.5 -131 q0 -14 11 -14q8 0 27.5 3.5t29.5 3.5q101 0 101 -37q0 -6 -1.5 -11t-5 -9t-7 -6.5t-10 -4.5t-11.5 -3t-13 -2t-13 -1.5t-14 -1t-14 -0.5q-32 -2 -49.5 -5.5t-22 -6t-11.5 -9.5q-30 -61 -30 -402q0 -134 48 -134q16 0 33 16t29.5 35.5t30.5 39t34 25.5q28 0 28 -31 q0 -24 -45 -82q-18 -24 -29.5 -36.5t-34 -25.5t-47.5 -13q-32 0 -60 16.5t-36 47.5q-19 69 -19 195v69l1 1q2 21 4.5 100t9.5 122q2 12 2 20q0 25 -5 31.5t-20 6.5q-18 0 -58 -8t-60 -8q-34 0 -34 25z" />
<glyph unicode="u" horiz-adv-x="707" d="M-2 615q2 23 81 83q76 58 112 58h2q23 -1 29 -27q4 -16 4 -44q0 -19 -2 -43q-1 -25 -8 -53q-18 -88 -29 -247q-10 -118 -10 -182q0 -20 1 -35q4 -63 42 -65q21 -1 45 14q118 71 191 182q9 11 11 39q6 93 36 280l3 33q1 17 2.5 51.5t2.5 51.5q1 18 10 30.5t28 11.5 q30 -2 30 -85q0 -16 -1 -36q-5 -60 -6 -66q-10 -65 -18.5 -186t-12.5 -156q-1 -14 -1 -28q0 -36 8 -70q10 -46 44 -51q21 -2 45 23t41 24q15 -1 25.5 -14.5t9.5 -28.5q-3 -37 -42 -60q-36 -21 -72 -21h-6q-21 1 -37.5 5.5t-28.5 14t-19.5 16.5t-14.5 24.5t-9.5 25t-9 30.5 t-8.5 31q-24 -15 -72 -60t-91 -71q-38 -23 -79 -22h-9q-51 3 -78 41q-26 37 -26 94q1 7 7 129q4 84 7 128q3 39 11 116t10 115q1 9 -3 32q-4 -17 -55 -40q-39 -18 -61 -18q-16 0 -24 9q-6 6 -5 17z" />
<glyph unicode="v" horiz-adv-x="672" d="M-2 648q2 20 15 22q38 12 113.5 35.5t113.5 35.5q3 1 11.5 0.5t9.5 1.5q21 0 34.5 -12t13.5 -29q0 -11 -4 -20q-9 -29 -38 -115t-42 -129.5t-26.5 -114t-13.5 -129.5t18.5 -99.5t57.5 -40.5q34 0 76.5 28t76.5 63q71 75 110 207.5t41 263.5q0 88 -30 129q-3 4 -24.5 23 t-21.5 31q0 15 12 26t25 11q9 0 17 -4q33 -14 54 -37.5t30 -56t11.5 -59.5t2.5 -67q0 -107 -28.5 -221t-81.5 -210q-38 -70 -114.5 -134.5t-143.5 -64.5q-56 0 -92 26t-51.5 66t-17.5 97v25q0 43 5 84q7 52 21.5 113t25.5 98t24 74q2 5 7 18.5t7.5 21.5t5 21t2.5 26 q-26 -5 -77 -15.5t-76 -15.5q-10 -3 -22 -3q-10 0 -23.5 8t-13.5 22z" />
<glyph unicode="w" horiz-adv-x="911" d="M46 680q1 20 34 18q8 0 21 -1.5t20 -1.5q22 -1 61 9.5t56 10.5t27.5 -10.5t10.5 -25.5q0 -12 -9 -25q-25 -48 -47.5 -109.5t-33.5 -98.5t-33.5 -120t-28.5 -105q-10 -36 -10 -64q0 -29 12 -63q14 -36 33 -37q6 0 18 5q54 19 100.5 86.5t80.5 155.5q53 142 69 225 q8 46 38 136q0 8 7.5 14.5t17.5 6.5q11 0 22 -7q25 -8 25 -30q-5 -31 -35 -154.5t-32 -192.5v-11q0 -26 4 -58q4 -39 13 -78t26 -66t38 -28h2q31 0 69 31q40 32 58 67q101 200 105 407v24q0 137 -43 138q-2 0 -4.5 -0.5t-3.5 -0.5q-3 0 -12 4t-18 15t-9 25q1 13 13.5 26 t23.5 12l15 -1q15 -2 22 -5q33 -11 59 -55q25 -42 25 -89q0 -67 -5 -143q-1 -34 -10 -91.5t-31.5 -135.5t-54.5 -144q-32 -65 -85 -111q-52 -45 -113 -45h-3q-28 2 -43 13q-32 22 -47 39q-21 22 -38 95.5t-21 78.5q-8 -3 -15 -19q-22 -42 -41.5 -71.5t-49.5 -65.5t-66 -55 q-35 -18 -72 -18h-4q-48 1 -78 53q-28 49 -28 104v7q1 25 4 50t10 55.5t11 46t15.5 54.5t13.5 47q16 53 63 202q1 3 3 10.5t2 11.5q-18 -12 -38 -12q-25 0 -53 20q-33 22 -33 45z" />
<glyph unicode="x" horiz-adv-x="732" d="M31 677q0 25 61 54t95 29q18 0 33 -5.5t27 -19.5t20 -24t17 -33.5t12.5 -32t11 -35.5t8.5 -30q3 -9 5.5 -26t5.5 -27t9 -14q19 0 34 36q61 105 93 142q56 62 111 63q38 0 69.5 -23.5t40.5 -66.5q1 -3 7.5 -22t6.5 -30q0 -15 -10.5 -23t-24.5 -8q-9 0 -18.5 5.5t-9.5 15.5 q-11 30 -16.5 43t-15.5 26.5t-23 17.5q-27 0 -58 -41q-45 -59 -135 -214q-17 -29 -17 -61q0 -22 8 -49q21 -67 32.5 -101.5t34 -88.5t47.5 -96q35 -59 93 -109.5t116 -50.5q16 0 57.5 16t61.5 16q7 0 10 -2l4 -2q4 -1 10 -5t12 -8.5t10.5 -12.5t4.5 -16q0 -13 -13 -19.5 t-45 -14.5q-16 -4 -35.5 -11t-34 -11t-29.5 -4q-89 0 -193 90q-62 53 -115 152.5t-81 203.5q-6 19 -13 28q-13 -25 -36 -71.5t-34 -68.5l-11 -22t-13 -25t-12.5 -22t-14.5 -21.5t-15 -15.5t-18.5 -12.5t-19.5 -3.5q-12 0 -35 7q-63 19 -63 53q0 18 23 26q12 -1 27 -4l25 -5 t13 -2q6 0 11 5q100 200 139 286q5 8 5 21q0 2 -0.5 6t-0.5 5q-40 171 -53 215q-11 38 -22 51t-26 13q-8 0 -17.5 -3.5t-24.5 -10t-26 -10.5l-27 -15q-17 -8 -27 -8t-19 9.5t-9 21.5z" />
<glyph unicode="y" horiz-adv-x="607" d="M-40 622q0 12 8 20q19 12 54.5 34t64.5 40t55 34q7 4 16 4q17 0 25 -14.5t8.5 -25.5t0.5 -34q0 -57 -12 -111q-10 -45 -16 -96t-11.5 -115t-9.5 -97q-1 -9 -1 -25q0 -36 13 -120q0 -28 23 -46.5t41 -18.5q31 0 53 18q98 82 183 229q6 12 6 24q0 17 -3.5 50t-3.5 49 q0 22 6 136q4 68 4 155q0 31 27 31q16 0 26 -14t12.5 -27.5t2.5 -27.5v-166q0 -40 1 -142t1 -160.5t-4.5 -143t-13.5 -151.5q-20 -140 -111 -284q-21 -33 -61 -55t-79 -22q-29 0 -74.5 29t-45.5 67q0 32 30 32q23 0 32 -8q17 -17 24 -23.5t18.5 -13t22.5 -6.5q21 0 50 27.5 t49 61.5q56 97 74 203t18 247q-2 3 -6 3q-12 -13 -48 -53.5t-50.5 -54.5t-42.5 -38t-52 -32.5t-50 -8.5q-66 0 -100 62t-34 136q0 52 5 115q0 18 4 52t4 51q0 5 1 15t1 14q5 92 21 164q6 25 6 56q0 7 -1.5 7.5t-8.5 0.5q-84 -57 -114 -57q-38 0 -38 24z" />
<glyph unicode="z" horiz-adv-x="694" d="M42 47q2 30 22 52q77 76 152 189q105 161 204 320q0 9 -9 12q-19 -1 -55 1q-72 3 -134 27q-3 1 -7 1q-11 1 -18.5 -16t-17.5 -33.5t-25 -15.5q-30 0 -30 34q1 4 8 23.5t11 29t11 23t15.5 20t18.5 5.5q29 -2 84 -16.5t78 -15.5h13q79 0 150 43q4 2 16.5 11.5t23.5 15 t22 4.5q14 -1 22 -11t7 -21q0 -31 -42 -65l-4 -3q-40 -34 -80 -84t-60 -81t-61 -99q-21 -36 -44.5 -72t-60 -90t-47.5 -71q-3 -6 -8 -12.5t-8 -11t-3 -11.5q26 -2 39 -2q44 -3 131 -26t131 -26q15 -1 28 -1q39 0 57 10q24 12 26 48q2 14 0 24q1 20 2 28.5t7.5 17.5t20.5 8 q27 -1 38 -25t9 -53q-1 -36 -21.5 -67.5t-51.5 -48.5q-28 -12 -81 -12q-20 0 -42 2q-39 2 -114 25t-111 25h-16q-65 0 -136 -28q-17 -8 -34 -7q-22 0 -26 26z" />
<glyph unicode="{" horiz-adv-x="485" d="M100 473q0 12 10 22.5t33.5 25t29.5 19.5q49 31 49 184q0 16 -1 49.5t-1 50.5q0 230 53 293q15 18 39 34.5t42 16.5q8 0 15 -3q16 -10 16 -24q0 -17 -17 -23q-37 -15 -56.5 -61t-23 -90t-3.5 -119q0 -22 1 -33q0 -125 -10 -214q-6 -50 -23 -76.5t-65 -60.5 q70 -78 70 -188q0 -37 -9 -91q-8 -45 -10.5 -95.5t-3 -110.5t-2.5 -96q2 -44 5 -50q4 -9 20.5 -28.5t16.5 -32.5q0 -17 -9 -25.5t-18 -8.5q-6 0 -11 3q-36 16 -54 58t-18 88q0 48 7 209q1 31 9 95t9 101q0 75 -55 133q-1 1 -8 7t-12 11t-10 13.5t-5 16.5z" />
<glyph unicode="|" horiz-adv-x="281" d="M100 -155v1280h81v-1280h-81z" />
<glyph unicode="}" horiz-adv-x="487" d="M100 -232q0 8 3 12q9 17 38 29q37 21 54 47t17 67q0 10 -0.5 28t-0.5 27q0 49 1 145.5t1 146.5q0 72 17.5 124t62.5 97q-41 45 -61 86.5t-20 92.5q0 23 5 51q9 49 11.5 139t3.5 105q-2 55 -16 89q-9 20 -40.5 56t-31.5 45q4 25 29 27q36 -19 60 -43.5t36.5 -46.5 t18.5 -57t7 -57t1 -66q0 -36 -5.5 -108t-5.5 -108q0 -78 17 -112q10 -19 47.5 -52.5t37.5 -48.5q0 -9 -7.5 -20t-17.5 -15q-81 -33 -81 -153l-3 -288v-38t-0.5 -42t-3 -35t-6.5 -38.5t-11.5 -29.5t-18.5 -29q-20 -22 -49 -43.5t-46 -21.5q-19 0 -31 13t-12 25z" />
<glyph unicode="~" horiz-adv-x="923" d="M100 378q0 7 2 17q42 121 194 121q53 0 96 -20q20 -8 46.5 -19t39.5 -16.5t32 -9.5t39 -4q33 0 145 21q7 1 14.5 6t18.5 13.5t18 13.5l8 11q8 10 16 15.5t17 5.5q6 0 22 -8q15 -9 15 -27q0 -36 -41 -64t-88.5 -40t-85.5 -12q-20 0 -29 2q-23 -6 -43 -6q-52 0 -129.5 35.5 t-119.5 35.5q-59 0 -93 -35q-3 -3 -14.5 -23t-25.5 -36t-27 -16q-27 0 -27 39z" />
<glyph unicode="&#xa4;" horiz-adv-x="983" d="M102 166l76 80q-69 96 -69 217t69 217l-76 80l88 94l80 -84q90 72 219 72q134 0 224 -72l80 84l88 -94l-76 -80q69 -96 69 -217t-69 -217l76 -80l-88 -94l-80 84q-90 -72 -224 -72q-129 0 -219 72l-80 -84zM236 463q0 -110 73 -183t183 -73q104 0 180 73t76 183 q0 104 -76 180t-180 76q-110 0 -183 -76t-73 -180z" />
<glyph unicode="&#xad;" horiz-adv-x="819" d="M101 354q0 24 15 36.5t32.5 14.5t48.5 2q207 -14 403 -14q15 0 43 2.5t41 2.5q8 0 14 -3q21 -11 21 -33q0 -14 -2 -20t-4.5 -7.5t-13.5 -2.5t-20 -3q-36 -9 -145 -9q-36 0 -111.5 3.5t-112.5 3.5q-15 0 -44.5 -1t-43.5 -1q-8 0 -23 0.5t-22 0.5q-3 0 -11 -0.5t-11 -0.5 t-11.5 -0.5t-12.5 0t-10.5 1.5t-10 4t-6.5 9t-3 15z" />
<glyph unicode="&#xb6;" horiz-adv-x="778" d="M98 657q0 316 406 316q110 0 160 -10v-1092h-70v1036h-98v-1036h-72v498h-8q-124 0 -221 76t-97 212z" />
<glyph unicode="&#xb7;" horiz-adv-x="352" d="M78 373q0 41 28.5 69.5t69.5 28.5t69.5 -28.5t28.5 -69.5t-28.5 -70t-69.5 -29t-69.5 29t-28.5 70z" />
<glyph unicode="&#xde;" horiz-adv-x="1071" d="M48.5 606.5q-1.5 7.5 5 16t9.5 11.5t14 13q43 35 68 66q49 60 86.5 84t82 22t115.5 -30q4 -2 8 -3.5t8.5 -3l7.5 -2.5q86 -31 124.5 -84.5t29.5 -146.5q-6 -70 -7 -148t1.5 -184.5t2.5 -160.5q39 33 70.5 46t64.5 5.5t66 -39.5q20 -21 29.5 -14t11.5 20t0 29 q-8 54 -9.5 123.5t1 124.5t-0.5 124q-10 186 6 286q1 4 1.5 16t1.5 18t8 12t19 5q36 -2 29 -53q-11 -75 -6.5 -212t-2.5 -211q-4 -47 4 -132.5t8 -117.5q-2 -68 -35 -103q-16 -16 -27.5 -22t-25.5 -0.5t-29 26.5q-46 61 -74.5 59.5t-74.5 -63.5q-3 -4 -9 -14t-10 -15 t-12 -8.5t-19 -1.5q-8 2 -14 6t-9 8t-5 12t-2.5 12t-0.5 13.5v11.5q-2 90 -3 269.5t-3 269.5q-1 85 -31.5 118.5t-141.5 69.5q-69 23 -103 10t-87 -83q8 -4 23 -9.5t26 -11t20 -11.5q38 -25 37 -62t-40 -55q-27 -12 -44.5 -29t-24.5 -40t-9 -40t-2.5 -47.5t-1.5 -43.5 q-3 -22 21 -32q52 -26 74.5 -83.5t7 -118t-63.5 -94.5q-50 -36 -76 23q-21 48 -19 109q5 112 2 252q0 36 3 62.5t13.5 54.5t33 48.5t56.5 34.5q-48 50 -115 17q-36 -20 -54 5q-6 9 -7.5 16.5zM170.5 109q0.5 -9 5 -24.5t13.5 -28.5q18 12 28 31t12.5 32t5.5 38q2 19 -5.5 36 t-24.5 18q-19 1 -25.5 -14t-6.5 -36q0 -5 -1.5 -24t-1 -28zM606 -198q9 58 85 90q34 13 67 -24.5t34 -89.5q0 -6 -4.5 -18.5t-5 -20.5t6.5 -23q34 29 66 67t69 88.5t57 75.5q-6 -58 -72.5 -170.5t-109.5 -136.5q-73 -39 -123 3q-83 71 -70 159zM663 -217q-3 -26 12.5 -39 t39.5 -15q16 -1 21.5 12.5t4.5 34.5q-3 6 -5 22.5t-7.5 26.5t-20.5 11q-20 1 -31.5 -14t-13.5 -39z" />
<glyph unicode="&#xe0d;" horiz-adv-x="1071" d="M48.5 606.5q-1.5 7.5 5 16t9.5 11.5t14 13q43 35 68 66q49 60 86.5 84t82 22t115.5 -30q4 -2 8 -3.5t8.5 -3l7.5 -2.5q86 -31 124.5 -84.5t29.5 -146.5q-6 -70 -7 -148t1.5 -184.5t2.5 -160.5q39 33 70.5 46t64.5 5.5t66 -39.5q20 -21 29.5 -14t11.5 20t0 29 q-8 54 -9.5 123.5t1 124.5t-0.5 124q-10 186 6 286q1 4 1.5 16t1.5 18t8 12t19 5q36 -2 29 -53q-11 -75 -6.5 -212t-2.5 -211q-4 -47 4 -132.5t8 -117.5q-2 -68 -35 -103q-16 -16 -27.5 -22t-25.5 -0.5t-29 26.5q-46 61 -74.5 59.5t-74.5 -63.5q-3 -4 -9 -14t-10 -15 t-12 -8.5t-19 -1.5q-8 2 -14 6t-9 8t-5 12t-2.5 12t-0.5 13.5v11.5q-2 90 -3 269.5t-3 269.5q-1 85 -31.5 118.5t-141.5 69.5q-69 23 -103 10t-87 -83q8 -4 23 -9.5t26 -11t20 -11.5q38 -25 37 -62t-40 -55q-27 -12 -44.5 -29t-24.5 -40t-9 -40t-2.5 -47.5t-1.5 -43.5 q-3 -22 21 -32q52 -26 74.5 -83.5t7 -118t-63.5 -94.5q-50 -36 -76 23q-21 48 -19 109q5 112 2 252q0 36 3 62.5t13.5 54.5t33 48.5t56.5 34.5q-48 50 -115 17q-36 -20 -54 5q-6 9 -7.5 16.5zM170.5 109q0.5 -9 5 -24.5t13.5 -28.5q18 12 28 31t12.5 32t5.5 38q2 19 -5.5 36 t-24.5 18q-19 1 -25.5 -14t-6.5 -36q0 -5 -1.5 -24t-1 -28zM606 -198q9 58 85 90q34 13 67 -24.5t34 -89.5q0 -6 -4.5 -18.5t-5 -20.5t6.5 -23q34 29 66 67t69 88.5t57 75.5q-6 -58 -72.5 -170.5t-109.5 -136.5q-73 -39 -123 3q-83 71 -70 159zM663 -217q-3 -26 12.5 -39 t39.5 -15q16 -1 21.5 12.5t4.5 34.5q-3 6 -5 22.5t-7.5 26.5t-20.5 11q-20 1 -31.5 -14t-13.5 -39z" />
<glyph unicode="&#x152;" d="M-435 1041q-4 23 11 34.5t40.5 19t35.5 16.5q7 6 43 28q-57 67 -54 132t66 106q77 51 136 1q26 -23 25.5 -88.5t-24.5 -98.5q-16 -22 -40.5 -43t-61 -49t-52.5 -41q62 -10 113.5 -9t87.5 6t71 27.5t53.5 36t46 53.5t37.5 57t37 69q6 10 9 16t8 15t9 17q18 -45 3 -86 q-71 -180 -178.5 -238.5t-311.5 -24.5q-9 1 -31 1.5t-35.5 2t-27 11.5t-16.5 29zM-298 1258q-3 -26 10.5 -41t36.5 -13q13 1 22.5 4.5t14.5 7t9.5 13.5t6 13.5t4 17t3.5 16.5q5 22 -5.5 42t-34.5 17q-59 -6 -67 -77z" />
<glyph unicode="&#xf70b;" d="M-435 1041q-4 23 11 34.5t40.5 19t35.5 16.5q7 6 43 28q-57 67 -54 132t66 106q77 51 136 1q26 -23 25.5 -88.5t-24.5 -98.5q-16 -22 -40.5 -43t-61 -49t-52.5 -41q62 -10 113.5 -9t87.5 6t71 27.5t53.5 36t46 53.5t37.5 57t37 69q6 10 9 16t8 15t9 17q18 -45 3 -86 q-71 -180 -178.5 -238.5t-311.5 -24.5q-9 1 -31 1.5t-35.5 2t-27 11.5t-16.5 29zM-298 1258q-3 -26 10.5 -41t36.5 -13q13 1 22.5 4.5t14.5 7t9.5 13.5t6 13.5t4 17t3.5 16.5q5 22 -5.5 42t-34.5 17q-59 -6 -67 -77z" />
<glyph unicode="&#x153;" d="M-489 1511q-4 23 11 34.5t40.5 19t35.5 16.5q7 6 43 28q-57 67 -54 132t66 106q77 51 136 1q26 -23 25.5 -88.5t-24.5 -98.5q-16 -22 -40.5 -43t-61 -49t-52.5 -41q62 -10 113.5 -9t87.5 6t71 27.5t53.5 36t46 53.5t37.5 57t37 69q6 10 9 16t8 15t9 17q18 -45 3 -86 q-71 -180 -178.5 -238.5t-311.5 -24.5q-9 1 -31 1.5t-35.5 2t-27 11.5t-16.5 29zM-352 1728q-3 -26 10.5 -41t36.5 -13q13 1 22.5 4.5t14.5 7t9.5 13.5t6 13.5t4 17t3.5 16.5q5 22 -5.5 42t-34.5 17q-59 -6 -67 -77z" />
<glyph unicode="&#xf714;" d="M-489 1511q-4 23 11 34.5t40.5 19t35.5 16.5q7 6 43 28q-57 67 -54 132t66 106q77 51 136 1q26 -23 25.5 -88.5t-24.5 -98.5q-16 -22 -40.5 -43t-61 -49t-52.5 -41q62 -10 113.5 -9t87.5 6t71 27.5t53.5 36t46 53.5t37.5 57t37 69q6 10 9 16t8 15t9 17q18 -45 3 -86 q-71 -180 -178.5 -238.5t-311.5 -24.5q-9 1 -31 1.5t-35.5 2t-27 11.5t-16.5 29zM-352 1728q-3 -26 10.5 -41t36.5 -13q13 1 22.5 4.5t14.5 7t9.5 13.5t6 13.5t4 17t3.5 16.5q5 22 -5.5 42t-34.5 17q-59 -6 -67 -77z" />
<glyph unicode="&#x160;" d="M-541 1113q-16 62 12.5 113t88.5 102q74 63 162 8q27 -17 46 -17t30 12.5t23 39.5q73 164 213 251q3 2 14.5 9.5t16.5 9.5t14.5 5.5t18.5 2t19 -6.5q-1 -11 -7 -20.5t-9.5 -13t-16.5 -12.5l-14 -10q-165 -126 -219 -278q-9 -27 -15 -42.5t-15.5 -25t-15 -12t-21 3 t-27 12.5t-37.5 24q-76 50 -123 6q-14 -12 -20 -18l-18 -18t-17.5 -20t-12.5 -20.5t-9 -23.5t-2.5 -25.5t3.5 -29.5q8 -35 36 -43q10 -2 16.5 1t9.5 7t6.5 13t5.5 13q43 86 122 47q42 -20 55.5 -56.5t-2.5 -77.5q-15 -40 -49 -57t-74 -2q-33 12 -48.5 18t-43.5 20.5 t-43.5 27.5t-31 35t-21.5 48zM-372 1052q1 -16 12 -28t30 -11q54 11 52 53q-2 48 -48 42q-23 -2 -35 -17.5t-11 -38.5z" />
<glyph unicode="&#xf709;" d="M-541 1113q-16 62 12.5 113t88.5 102q74 63 162 8q27 -17 46 -17t30 12.5t23 39.5q73 164 213 251q3 2 14.5 9.5t16.5 9.5t14.5 5.5t18.5 2t19 -6.5q-1 -11 -7 -20.5t-9.5 -13t-16.5 -12.5l-14 -10q-165 -126 -219 -278q-9 -27 -15 -42.5t-15.5 -25t-15 -12t-21 3 t-27 12.5t-37.5 24q-76 50 -123 6q-14 -12 -20 -18l-18 -18t-17.5 -20t-12.5 -20.5t-9 -23.5t-2.5 -25.5t3.5 -29.5q8 -35 36 -43q10 -2 16.5 1t9.5 7t6.5 13t5.5 13q43 86 122 47q42 -20 55.5 -56.5t-2.5 -77.5q-15 -40 -49 -57t-74 -2q-33 12 -48.5 18t-43.5 20.5 t-43.5 27.5t-31 35t-21.5 48zM-372 1052q1 -16 12 -28t30 -11q54 11 52 53q-2 48 -48 42q-23 -2 -35 -17.5t-11 -38.5z" />
<glyph unicode="&#x161;" d="M-686 1232q54 142 192 134q107 -3 128 -4q36 -2 49 -2.5t31.5 3.5t23 8t13 20.5t11 31.5t9.5 50q6 32 12.5 53t19.5 44.5t36 38t56 20.5q-48 -57 -65 -123.5t-24 -161.5q-6 -68 -69 -54q-36 7 -104 6.5t-101 5.5q-114 19 -168 -100q-8 -18 -8.5 -34.5t3.5 -28t14.5 -25 t19.5 -21.5t23.5 -20.5t22.5 -20.5q30 46 43 59q20 20 31.5 29t28 14.5t30.5 -7.5t27 -43q33 -69 97 -76q21 -3 38.5 8t23.5 32q4 17 -3 22t-18 2t-20 0q-25 7 -39 13t-26 22t-12 40q2 78 63 103q61 24 108 -47q32 -50 15 -137t-69 -113q-11 -6 -22.5 -8t-20.5 -2.5t-21 3 t-18.5 6t-19.5 10.5t-17.5 11t-18.5 13.5t-17 12.5q-6 5 -13 17.5t-10 16.5q-2 2 -7.5 9t-9 10t-9 7t-12 3.5t-13.5 -4.5q-36 -20 -17 -63q14 -27 9 -38q-3 -6 -9 -11q-7 -5 -15 -5t-11.5 1t-13.5 7t-12 7q-59 41 -94 71q-93 84 -51 185zM-307 1168q1 -30 39 -26 q12 3 18.5 5t12 10t4.5 22q-9 27 -37 28q-19 0 -29 -10.5t-8 -28.5z" />
<glyph unicode="&#xf712;" d="M-686 1232q54 142 192 134q107 -3 128 -4q36 -2 49 -2.5t31.5 3.5t23 8t13 20.5t11 31.5t9.5 50q6 32 12.5 53t19.5 44.5t36 38t56 20.5q-48 -57 -65 -123.5t-24 -161.5q-6 -68 -69 -54q-36 7 -104 6.5t-101 5.5q-114 19 -168 -100q-8 -18 -8.5 -34.5t3.5 -28t14.5 -25 t19.5 -21.5t23.5 -20.5t22.5 -20.5q30 46 43 59q20 20 31.5 29t28 14.5t30.5 -7.5t27 -43q33 -69 97 -76q21 -3 38.5 8t23.5 32q4 17 -3 22t-18 2t-20 0q-25 7 -39 13t-26 22t-12 40q2 78 63 103q61 24 108 -47q32 -50 15 -137t-69 -113q-11 -6 -22.5 -8t-20.5 -2.5t-21 3 t-18.5 6t-19.5 10.5t-17.5 11t-18.5 13.5t-17 12.5q-6 5 -13 17.5t-10 16.5q-2 2 -7.5 9t-9 10t-9 7t-12 3.5t-13.5 -4.5q-36 -20 -17 -63q14 -27 9 -38q-3 -6 -9 -11q-7 -5 -15 -5t-11.5 1t-13.5 7t-12 7q-59 41 -94 71q-93 84 -51 185zM-307 1168q1 -30 39 -26 q12 3 18.5 5t12 10t4.5 22q-9 27 -37 28q-19 0 -29 -10.5t-8 -28.5z" />
<glyph unicode="&#x178;" d="M-462 1543q-16 62 12.5 113t88.5 102q74 63 162 8q27 -17 46 -17t30 12.5t23 39.5q73 164 213 251q3 2 14.5 9.5t16.5 9.5t14.5 5.5t18.5 2t19 -6.5q-1 -11 -7 -20.5t-9.5 -13t-17.5 -12.5l-13 -10q-165 -126 -219 -278q-9 -27 -15 -42.5t-15.5 -25t-15 -12t-21 3 t-27 12.5t-37.5 24q-76 50 -123 6q-14 -12 -20 -18l-18 -18t-17.5 -20t-12.5 -20.5t-9 -23.5t-2.5 -25.5t3.5 -29.5q8 -35 36 -43q10 -2 16.5 1t9.5 7t6.5 13t5.5 13q43 86 122 47q42 -20 55.5 -56.5t-2.5 -77.5q-15 -40 -49 -57t-74 -2q-33 12 -48.5 18t-43.5 20.5 t-43.5 27.5t-31 35t-21.5 48zM-293 1482q1 -16 12 -28t30 -11q54 11 52 53q-2 48 -48 42q-23 -2 -35 -17.5t-11 -38.5z" />
<glyph unicode="&#xf717;" d="M-462 1543q-16 62 12.5 113t88.5 102q74 63 162 8q27 -17 46 -17t30 12.5t23 39.5q73 164 213 251q3 2 14.5 9.5t16.5 9.5t14.5 5.5t18.5 2t19 -6.5q-1 -11 -7 -20.5t-9.5 -13t-17.5 -12.5l-13 -10q-165 -126 -219 -278q-9 -27 -15 -42.5t-15.5 -25t-15 -12t-21 3 t-27 12.5t-37.5 24q-76 50 -123 6q-14 -12 -20 -18l-18 -18t-17.5 -20t-12.5 -20.5t-9 -23.5t-2.5 -25.5t3.5 -29.5q8 -35 36 -43q10 -2 16.5 1t9.5 7t6.5 13t5.5 13q43 86 122 47q42 -20 55.5 -56.5t-2.5 -77.5q-15 -40 -49 -57t-74 -2q-33 12 -48.5 18t-43.5 20.5 t-43.5 27.5t-31 35t-21.5 48zM-293 1482q1 -16 12 -28t30 -11q54 11 52 53q-2 48 -48 42q-23 -2 -35 -17.5t-11 -38.5z" />
<glyph unicode="&#x17d;" d="M-405 1211q1 17 10.5 25.5t18.5 9.5t29 -0.5t25 -1.5q30 -5 44 -6t31 0t22.5 8.5t10 22.5t2 38t-9.5 59q-8 45 25 47q21 1 31 -12.5t8 -32.5q-5 -37 -6 -62.5t3.5 -40t10.5 -23t17.5 -10.5t21.5 -1.5t25.5 2t26.5 0.5q46 -2 56 -15q8 -10 6 -26q-5 -36 -65 -24 q-56 15 -74.5 2t-25.5 -78q-1 -9 1 -26t3 -31t0.5 -27.5t-7 -21.5t-19.5 -8q-17 1 -26.5 8t-11 20.5t-0.5 25t4 28.5t4 24q5 37 5 59.5t-21 30t-75 1.5q-9 -2 -17 1q-16 5 -34.5 1t-33.5 3t-15 31z" />
<glyph unicode="&#xf70d;" d="M-405 1211q1 17 10.5 25.5t18.5 9.5t29 -0.5t25 -1.5q30 -5 44 -6t31 0t22.5 8.5t10 22.5t2 38t-9.5 59q-8 45 25 47q21 1 31 -12.5t8 -32.5q-5 -37 -6 -62.5t3.5 -40t10.5 -23t17.5 -10.5t21.5 -1.5t25.5 2t26.5 0.5q46 -2 56 -15q8 -10 6 -26q-5 -36 -65 -24 q-56 15 -74.5 2t-25.5 -78q-1 -9 1 -26t3 -31t0.5 -27.5t-7 -21.5t-19.5 -8q-17 1 -26.5 8t-11 20.5t-0.5 25t4 28.5t4 24q5 37 5 59.5t-21 30t-75 1.5q-9 -2 -17 1q-16 5 -34.5 1t-33.5 3t-15 31z" />
<glyph unicode="&#x17e;" d="M-485 1691q1 17 10.5 25.5t18.5 9.5t29 -0.5t25 -1.5q30 -5 44 -6t31 0t22.5 8.5t10 22.5t2 38t-9.5 59q-8 45 25 47q21 1 31 -12.5t8 -32.5q-5 -37 -6 -62.5t3.5 -40t10.5 -23t17.5 -10.5t21.5 -1.5t25.5 2t26.5 0.5q46 -2 56 -15q8 -10 6 -26q-5 -36 -65 -24 q-56 15 -74.5 2t-25.5 -78q-1 -9 1 -26t3 -31t0.5 -27.5t-7 -21.5t-19.5 -8q-17 1 -26.5 8t-11 20.5t-0.5 25t4 28.5t4 24q5 37 5 59.5t-21 30t-75 1.5q-9 -2 -17 1q-16 5 -34.5 1t-33.5 3t-15 31z" />
<glyph unicode="&#xf716;" d="M-485 1691q1 17 10.5 25.5t18.5 9.5t29 -0.5t25 -1.5q30 -5 44 -6t31 0t22.5 8.5t10 22.5t2 38t-9.5 59q-8 45 25 47q21 1 31 -12.5t8 -32.5q-5 -37 -6 -62.5t3.5 -40t10.5 -23t17.5 -10.5t21.5 -1.5t25.5 2t26.5 0.5q46 -2 56 -15q8 -10 6 -26q-5 -36 -65 -24 q-56 15 -74.5 2t-25.5 -78q-1 -9 1 -26t3 -31t0.5 -27.5t-7 -21.5t-19.5 -8q-17 1 -26.5 8t-11 20.5t-0.5 25t4 28.5t4 24q5 37 5 59.5t-21 30t-75 1.5q-9 -2 -17 1q-16 5 -34.5 1t-33.5 3t-15 31z" />
<glyph unicode="&#x192;" d="M-906 1123q-24 29 6 54t85 82t94 85q44 32 109 -2q26 -12 95 -57q4 -2 19 -12t18 -11.5t15.5 -8t15.5 -6t13 -2t14.5 1t12.5 7.5t14 12t13.5 19t14.5 26q14 27 46 31t55 -12q101 -57 104 -172q4 -36 -37 -82q-9 -10 -28 -28.5t-29.5 -30t-22 -31t-15.5 -40.5 q-3 -14 -16.5 -22.5t-30.5 -10.5q-10 -1 -16.5 0t-10.5 5.5t-6 6.5t-4.5 9.5t-3.5 9.5q-21 55 -70.5 104.5t-111 79.5t-128.5 38.5t-122 -18.5q-8 -4 -23 -12.5t-23 -12.5q-33 -18 -46 0zM-725 1238q114 -11 193.5 -63.5t186.5 -166.5q-37 89 -144 184t-172 93 q-54 -4 -64 -47zM-370 1223q-5 -27 16 -58q20 -31 30 -41q7 -5 16 -20t17.5 -23t20.5 -4q11 4 18.5 13.5t9.5 17.5t5 24.5t4 20.5q5 44 -16 70q-3 5 -11.5 18.5t-13.5 19t-14.5 12.5t-20.5 5.5t-25 -10.5q-31 -18 -36 -45z" />
<glyph unicode="&#xf703;" d="M-906 1123q-24 29 6 54t85 82t94 85q44 32 109 -2q26 -12 95 -57q4 -2 19 -12t18 -11.5t15.5 -8t15.5 -6t13 -2t14.5 1t12.5 7.5t14 12t13.5 19t14.5 26q14 27 46 31t55 -12q101 -57 104 -172q4 -36 -37 -82q-9 -10 -28 -28.5t-29.5 -30t-22 -31t-15.5 -40.5 q-3 -14 -16.5 -22.5t-30.5 -10.5q-10 -1 -16.5 0t-10.5 5.5t-6 6.5t-4.5 9.5t-3.5 9.5q-21 55 -70.5 104.5t-111 79.5t-128.5 38.5t-122 -18.5q-8 -4 -23 -12.5t-23 -12.5q-33 -18 -46 0zM-725 1238q114 -11 193.5 -63.5t186.5 -166.5q-37 89 -144 184t-172 93 q-54 -4 -64 -47zM-370 1223q-5 -27 16 -58q20 -31 30 -41q7 -5 16 -20t17.5 -23t20.5 -4q11 4 18.5 13.5t9.5 17.5t5 24.5t4 20.5q5 44 -16 70q-3 5 -11.5 18.5t-13.5 19t-14.5 12.5t-20.5 5.5t-25 -10.5q-31 -18 -36 -45z" />
<glyph unicode="&#x2c6;" d="M-727.5 1155.5q-4.5 100.5 87.5 163.5q74 53 139 -12q3 -3 9 -11t10.5 -12t11.5 -4t15 7q16 15 26 22.5t25 15t31.5 5.5t34.5 -12q27 -17 45 -103t18 -154l4 204q2 192 23 282q30 -18 26 -99q2 -48 3.5 -137t4.5 -158q4 -94 -11.5 -127.5t-80.5 -42.5q-4 -1 -16.5 -3.5 t-18 -2.5t-13.5 3t-13 11q-6 7 -4 15.5t4.5 12t9.5 11t10 11.5q14 19 21 37t5 40t-4.5 33.5t-12.5 41.5t-13 41q-6 25 -31 22q-22 -2 -59 -57.5t-26 -75.5q41 -79 -19 -122q-67 -50 -141 -5q-96 59 -100.5 159.5zM-657 1125q2 3 15 21t18.5 23t17.5 15t24 12t28 0 q4 -1 12.5 -5t14 -6t12 1.5t10.5 14.5q3 10 0 18.5t-11.5 20t-10.5 14.5q-19 37 -55 28q-37 -11 -61.5 -61t-13.5 -96zM-606 1100q1 -24 16.5 -41.5t40.5 -24.5q17 -4 30 7t18 33q-10 58 -52 64q-22 4 -37.5 -6t-15.5 -32z" />
<glyph unicode="&#xf707;" d="M-727.5 1155.5q-4.5 100.5 87.5 163.5q74 53 139 -12q3 -3 9 -11t10.5 -12t11.5 -4t15 7q16 15 26 22.5t25 15t31.5 5.5t34.5 -12q27 -17 45 -103t18 -154l4 204q2 192 23 282q30 -18 26 -99q2 -48 3.5 -137t4.5 -158q4 -94 -11.5 -127.5t-80.5 -42.5q-4 -1 -16.5 -3.5 t-18 -2.5t-13.5 3t-13 11q-6 7 -4 15.5t4.5 12t9.5 11t10 11.5q14 19 21 37t5 40t-4.5 33.5t-12.5 41.5t-13 41q-6 25 -31 22q-22 -2 -59 -57.5t-26 -75.5q41 -79 -19 -122q-67 -50 -141 -5q-96 59 -100.5 159.5zM-657 1125q2 3 15 21t18.5 23t17.5 15t24 12t28 0 q4 -1 12.5 -5t14 -6t12 1.5t10.5 14.5q3 10 0 18.5t-11.5 20t-10.5 14.5q-19 37 -55 28q-37 -11 -61.5 -61t-13.5 -96zM-606 1100q1 -24 16.5 -41.5t40.5 -24.5q17 -4 30 7t18 33q-10 58 -52 64q-22 4 -37.5 -6t-15.5 -32z" />
<glyph unicode="&#x2dc;" d="M-457 1144q-24 84 35 131q65 51 117 8q38 -29 51.5 -67t-2.5 -81q-13 -29 -12.5 -47.5t11.5 -25t28 -9t37 0.5q137 16 219 163q6 12 18 35t20 37.5t21 33.5t28 34q-3 -84 -30.5 -153.5t-73 -115.5t-103 -71.5t-124 -24t-132.5 30.5q-84 35 -108 121zM-394 1168 q2 -22 15.5 -36.5t36.5 -13.5q30 1 35 53q0 22 -12.5 39.5t-32.5 18.5q-19 2 -31.5 -18.5t-10.5 -42.5z" />
<glyph unicode="&#xf710;" d="M-457 1144q-24 84 35 131q65 51 117 8q38 -29 51.5 -67t-2.5 -81q-13 -29 -12.5 -47.5t11.5 -25t28 -9t37 0.5q137 16 219 163q6 12 18 35t20 37.5t21 33.5t28 34q-3 -84 -30.5 -153.5t-73 -115.5t-103 -71.5t-124 -24t-132.5 30.5q-84 35 -108 121zM-394 1168 q2 -22 15.5 -36.5t36.5 -13.5q30 1 35 53q0 22 -12.5 39.5t-32.5 18.5q-19 2 -31.5 -18.5t-10.5 -42.5z" />
<glyph unicode="&#xe01;" horiz-adv-x="719" d="M54.5 603q4.5 11 8 16.5t13 15t13.5 14.5q30 42 50 67.5t43.5 48t39 33.5t40 16t43 2.5t51 -12.5t62 -23.5t77.5 -36.5q63 -29 92 -66t35 -105q9 -107 3.5 -277.5t0.5 -276.5q2 -21 -7.5 -35t-29.5 -13q-13 1 -18.5 7.5t-4.5 13.5t3 18t2 17q2 265 6 459q3 154 -136 207 q-19 7 -56.5 22.5t-56.5 22.5q-43 16 -95.5 -10.5t-62.5 -69.5q-4 -19 3 -27t25 -11.5t22 -5.5q59 -32 60.5 -46.5t-50.5 -50.5q-47 -33 -55 -84q-21 -133 2 -365q0 -5 1.5 -15.5t2 -17.5t1 -17t-1 -16.5t-5 -13t-9.5 -10t-15 -4.5q-18 -2 -26 8t-7.5 22t3.5 31.5t2 27.5 q-19 187 -6 328q0 3 1.5 19t2 20t2.5 18t3.5 18.5t4.5 17t6.5 18t9 15t12 15.5t15.5 13t19 13q-24 22 -59 20q-7 -1 -25.5 -8t-31 -5t-20.5 19q-7 8 -2.5 19z" />
<glyph unicode="&#xe02;" horiz-adv-x="672" d="M38 497q-20 39 3 112t69.5 131t89.5 60q93 5 179 -95q40 -48 50 -74t-1 -51t-54 -71q-57 -61 -74.5 -120.5t-6.5 -142.5q14 -91 15 -94q2 -9 7 -31t8 -31t10 -21t15.5 -11.5t23 8.5t34.5 28q9 9 25 3q22 -10 38.5 -13.5t25.5 1t14.5 8.5t6.5 19t1 21t-2.5 26.5t-2.5 25.5 q-7 140 -7 194.5t5 188t6 194.5q0 16 1 25t8.5 17.5t21.5 8.5q19 -1 27.5 -16.5t6.5 -35.5q-25 -377 -9 -698q2 -27 -21 -74q-13 -30 -32.5 -35t-34.5 26q-8 19 -16 31.5t-18.5 15t-17 3.5t-20.5 -7.5t-19 -11.5t-21 -16q-58 -47 -73.5 -41t-26.5 79q-5 29 -13 70.5 t-13.5 70t-9.5 64t-2.5 71t8.5 72.5q21 113 84 167q24 21 33 39t0 35.5t-18 28t-30 29.5q-24 21 -37 30.5t-35 18t-42 0t-40 -33.5q-8 -10 -16 -22t-16.5 -26.5t-13.5 -22.5q6 -8 14 -10.5t14.5 -1.5t13.5 -1t26 -6t28.5 -7.5t22 -11t18 -19.5t4.5 -30q-2 -91 -75 -104 q-100 -16 -139 64zM91 525q3 -36 50 -38q43 -2 50 38q-6 31 -51 33q-14 0 -24 -1.5t-18 -9.5t-7 -22z" />
<glyph unicode="&#xe03;" horiz-adv-x="700" d="M35 576q-39 78 35 147q118 115 216 61q4 -2 12.5 -9t13 -10t13 -1t16.5 13q53 68 93 23q1 -1 12 -12.5t12.5 -13.5t11 -13t11.5 -15t8.5 -14.5t8 -16t4.5 -16t2.5 -18.5t-2 -18.5t-5.5 -20.5q-20 -54 -54 -77q-65 -44 -92.5 -93.5t-26.5 -102.5t3 -124q2 -30 4 -81 q3 -79 13 -89q15 -15 73 43l3 3q9 10 20.5 11.5t25.5 -5t24.5 -13.5t28.5 -21t27 -20v664q0 5 -2 23t-1.5 27t8.5 17.5t25 7.5t25 -10.5t8.5 -17.5t-1.5 -28t-2 -25q-8 -204 -9 -307t10 -307q5 -65 -44 -114q-61 -63 -81 12q-10 40 -31 40t-43 -23q-30 -28 -45 -41 q-38 -30 -57.5 -18t-21.5 53q-15 232 -17 361q-2 113 83 172q14 9 50 48q73 80 14 117q-12 7 -21.5 8t-15.5 -3.5t-12 -13t-9 -17t-8 -19.5t-8 -17q-18 -30 -37 -30q-27 0 -34 35q-7 50 -31 65t-60 -3t-81 -64q50 6 87 5t60.5 -18.5t31.5 -53.5q9 -46 -5 -68t-57 -28 q-130 -19 -179 74zM127 592q3 -41 46 -38q1 0 7.5 0.5t8 0.5t7 0.5t7.5 1.5t5.5 3t5 4.5t3 6.5t1.5 9q1 23 -13.5 33.5t-38.5 10.5q-13 -1 -20.5 -2.5t-13.5 -9t-5 -20.5z" />
<glyph unicode="&#xe04;" horiz-adv-x="678" d="M51 348q-54 134 48 288q17 26 39 50.5t56 56t46 44.5q32 32 61 29q22 -3 104 -16t127 -16q35 -3 46 -20.5t9 -48.5q-10 -103 -3.5 -333t1.5 -335q-1 -9 -1 -26q0 -3 -1 -17t-2.5 -19.5t-5 -14.5t-10.5 -12.5t-18 -2.5q-12 1 -17 8.5t-5 15.5t1.5 22.5t1.5 19.5 q0 74 -1 200.5t-1.5 231t-0.5 200.5q0 41 -15.5 60.5t-57.5 12.5q-22 -3 -59.5 8t-70 10.5t-59.5 -26.5q-35 -33 -53 -50.5t-46 -51t-41 -59t-21.5 -61.5t-4.5 -72q8 -64 21.5 -100t48.5 -96q32 99 61 192q15 52 43.5 76.5t79.5 12.5q11 -3 20 -7.5t15.5 -9t11 -12.5 t7.5 -13t4.5 -16t2.5 -15t0.5 -16.5t-1 -15.5t-2 -16t-1.5 -14q-7 -49 -41.5 -80t-80.5 -15q-20 7 -33 7t-19 -6t-9 -15.5t-5 -23.5q-1 -5 -1 -8q-8 -45 -25 -120.5t-25 -120.5q-1 -2 -2 -7.5t-1.5 -8t-2 -7.5t-3 -7t-4 -5.5t-5 -4.5t-6.5 -2t-9 0q-32 1 -21 47q7 25 10 50 t3.5 44.5t-4 45t-7.5 40t-13.5 42.5l-15 40t-18.5 44.5t-19 44.5zM273 386q-5 -18 2.5 -31t26.5 -10q19 4 28 17t14.5 34.5t9.5 29.5q2 41 -27 32q-25 -5 -35.5 -23t-18.5 -49z" />
<glyph unicode="&#xe05;" horiz-adv-x="726" d="M43 363q-26 107 25 241.5t142 195.5q22 14 37.5 19.5t32.5 -0.5t33 -27q39 -57 88 3q25 32 57 38t66 -16q11 -8 35.5 -21t37.5 -22.5t24 -29.5t10 -47q-12 -270 4 -673q1 -17 0 -27t-9.5 -20t-26.5 -9q-11 1 -17.5 4.5t-9 12t-3 13t0 17.5t0.5 15q0 72 2 264t2 305 q0 6 0.5 16.5t1 19t1.5 16.5q3 27 -8 48t-25 32t-40 27q-13 7 -23.5 8.5t-20 -4t-15 -11t-14.5 -16t-13 -14.5l-8 -8q-16 -17 -24.5 -24t-22 -14.5t-23.5 -4.5t-23 15t-26 37q-11 20 -28 22t-32 -7t-28 -24q-118 -133 -111 -284q9 -119 73 -254q31 114 51 177q25 82 39 105 q4 7 11.5 19.5t12 20.5t12.5 19t14.5 17.5t16 13.5t19 9.5t22 2.5t26.5 -5q23 -7 35.5 -22.5t13.5 -39.5t-1 -39t-7 -43q-6 -29 -11.5 -47.5t-18 -39.5t-34 -30t-52.5 -5q-34 4 -49.5 -7.5t-23.5 -42.5q-11 -45 -34 -121.5t-32 -110.5q-1 -3 -3 -12t-3.5 -12.5t-6.5 -7 t-14 -3.5q-38 0 -30 42q9 58 -3 115t-37.5 126.5t-34.5 108.5zM291 397q0 -20 9 -37t26 -16q8 1 15.5 4t12 6t9 10t7 11t5.5 13.5t4 13t3 14.5t3 13q9 38 -31 43q-60 -24 -63 -75z" />
<glyph unicode="&#xe06;" horiz-adv-x="909" d="M14.5 649q-6.5 46 37.5 111q78 113 173 21q30 -27 50.5 -27t47.5 28q79 84 146 6q21 -24 31 -39.5t17 -36.5t-3 -41.5t-35 -43.5q-32 -29 -38 -55t-8 -129q24 24 42.5 31.5t34 -2t25 -22.5t22.5 -37q67 -123 184 -276q14 25 10 95.5t-2 87.5q3 29 3 84q0 20 -1.5 42.5 t-1.5 38.5q-2 169 0 254q1 24 11 40t32 15q23 0 26 -19.5t-2 -34.5q-7 -52 -7.5 -112t2 -128t0.5 -116q-6 -156 1 -335q0 -13 -5 -23t-19 -24.5t-16 -17.5q-10 -13 -16 -15.5t-20 1.5q-12 5 -16.5 16.5t1.5 20.5q17 23 1.5 52.5t-52 70.5t-50.5 69q-13 25 -44.5 70.5 t-43.5 67.5q-2 3 -6 11.5t-6 12.5t-7 11.5t-9 9t-11 5t-14 -1.5q-22 -8 -37 -28t-16 -46q-3 -163 -2 -294q-2 -25 -18 -36t-37.5 -7t-43.5 19q-111 74 -116.5 143t92.5 162q74 69 68 157q-4 70 9 123t58 96q30 28 -6 67q-12 13 -23.5 15t-19.5 -2.5t-22 -16.5 q-6 -5 -28 -25.5t-33.5 -29t-33.5 -18.5t-45 -11q4 -6 18 -23.5t20 -27.5t11 -25.5t-2 -28.5t-25 -26q-87 -61 -164 18q-62 63 -68.5 109zM84 701q-23 -69 18 -86q8 -3 13.5 -4t9 -1t6 5l3.5 7t3.5 11t3.5 12q5 22 37 31q4 1 15.5 1t16.5 1t9.5 8t-4.5 22q-21 45 -65 53 q-29 -11 -43.5 -23t-22.5 -37zM165 557q9 -9 26 -9.5t28 10.5q5 6 2.5 20t-10.5 24q-14 17 -34 -1q-31 -26 -12 -44zM266 131q5 -14 9.5 -20t16 -17.5t15.5 -17.5q24 -31 44 -17q10 7 12.5 17.5t0.5 26.5t-2 21v148q-56 -41 -93 -116q-8 -11 -3 -25z" />
<glyph unicode="&#xe07;" horiz-adv-x="592" d="M35 549q-7 33 21 34q27 1 53 -25q45 -44 100.5 -140.5t112 -191t108.5 -139.5q11 28 11.5 59t-3.5 66.5t-3 55.5q1 29 -2.5 52t-1.5 52q3 34 1 66t-10 58.5t-32 48.5t-63 34q-63 19 -33 112q17 49 72.5 95t78.5 29q67 -49 55 -165q-11 -92 -11.5 -180.5t3.5 -194.5 t3 -180v-27t-2 -34q0 -2 -1.5 -11t-2.5 -12t-3 -10t-5 -10t-8 -7t-12 -6q-13 -3 -24 1.5t-17 11t-15 19.5q-24 36 -69.5 101.5t-81.5 120t-64 104.5q-72 127 -155 213zM344 663q-4 -33 17 -52t51 -19q25 0 31 14.5t1.5 32.5t5.5 32q-6 14 -3 30.5t-4 28.5t-30 10 q-28 -1 -46.5 -23.5t-22.5 -53.5z" />
<glyph unicode="&#xe08;" horiz-adv-x="653" d="M34 479q-7 105 41.5 197.5t120.5 122.5q59 25 184 -5.5t166 -79.5q21 -24 15 -56q-17 -87 -21 -170.5t-1 -193.5t1 -171q-3 -93 -92 -145q-24 -14 -39 -5.5t-10 35.5q9 44 -0.5 90t-29.5 99t-26 83q-5 25 -22.5 28.5t-37.5 -2.5q-61 -5 -99 20t-43 73q-5 49 30 97t84 59 q45 10 67 -10.5t34 -66.5q48 -189 88 -331q2 -7 17 -27q12 2 16 4q0 68 3.5 206.5t3.5 206.5l1 12q1 10 4.5 33.5t4.5 35t-1 30.5t-10 30t-25 23t-44 20q-107 33 -179.5 16.5t-121.5 -89.5q-23 -35 -31.5 -48.5t-24 -48.5t-23.5 -72zM204 419.5q0 -12.5 6 -27.5 q8 -19 28 -27t37 3q12 9 18.5 20t8.5 19t-1 22.5t-5.5 21t-10 24t-9.5 22.5q-7 -5 -20 -13t-20.5 -13t-16.5 -14t-12 -17t-3 -20.5z" />
<glyph unicode="&#xe09;" horiz-adv-x="725" d="M33 653q86 134 165.5 167t221.5 -6q50 -14 71 -19t51.5 -18.5t39.5 -17.5t24.5 -24t17.5 -29.5t8 -42.5t6 -55t2 -74q1 -22 0.5 -73.5t1.5 -79.5t7.5 -70t20.5 -76.5t38 -66.5q30 -40 12 -84q-1 -2 -8 -19t-9 -22t-9 -18.5t-12 -19t-13 -14t-17 -13t-19 -6.5 q-24 -5 -38.5 7.5t-28 41t-19.5 36.5q-77 100 -11 202q5 8 7 25q0 1 -13 24q-66 -58 -122 -164q-35 -68 -80 -144q-22 -37 -50 -29q-11 3 -17 13t-7 15t-3 22q-15 109 -8 279q2 21 0 41.5t-7.5 37t-22.5 29.5t-44 19q-39 10 -62.5 40t-16.5 71q8 46 40.5 75t78.5 37 q40 6 64.5 -9t30.5 -62q7 -53 -1.5 -150t-7.5 -130q1 -21 -1.5 -65t-1 -80.5t10.5 -68.5q21 30 38.5 60.5t25.5 43.5q56 85 77 127q54 102 141 38q0 116 -2 131q-6 43 0 83.5t-4.5 79.5t-46.5 55q-112 50 -150 61q-126 35 -227 -44q-18 -14 -60 -34t-62 -33zM147 523 q-1 -28 17.5 -42.5t45.5 -15.5q18 -1 24.5 7.5t6.5 26t1 22.5q0 17 -1 25t-4.5 19t-13 15.5t-24.5 3.5q-24 -2 -37.5 -19.5t-14.5 -41.5zM559 155q-1 -36 14.5 -66t46.5 -38q10 -3 17 0t11 11t5.5 15.5l4 20t3.5 18.5q-2 7 -6 30t-7.5 34t-14.5 24.5t-28 17.5q-18 5 -29 -8 t-13.5 -27t-3.5 -32z" />
<glyph unicode="&#xe0a;" horiz-adv-x="594" d="M22 646q0 50 47 107t98 67q25 5 45 5q92 0 142 -90q42 -76 42 -118q0 -49 -44 -92q-38 -37 -51 -76.5t-13 -90.5q0 -17 1 -54.5t1 -56.5v-14q0 -38 5 -68q0 -95 13 -107q5 -1 23.5 17t26.5 18q10 0 34.5 -19.5t27.5 -19.5q11 0 15 17.5t5 61.5t4 67v-1q3 41 3 66 q0 15 -1 49.5t-1 57.5q7 229 7 290q0 69 -39 69q-3 0 -9 -1t-9 -1q-19 0 -19 17q0 12 10 28t24 25q56 33 90.5 56.5t78 66.5t63.5 88q11 22 27 22q6 0 13 -4q17 -10 17 -28q0 -10 -5 -22q-43 -95 -128 -144h1q-44 -26 -59.5 -43t-15.5 -35q0 -8 4 -30q11 -62 11 -259 q0 -119 -7 -292q-1 -14 -1.5 -50t-2 -55t-5.5 -43t-13 -35t-24 -11q-10 0 -42 20t-46 20q-18 0 -37 -19h1q-32 -32 -52 -32q-37 0 -37 56v423q0 48 62 110v-1q30 34 30 70q0 50 -41 92.5t-88 42.5t-75.5 -27.5t-52.5 -75.5q-4 -8 -4 -17q0 -11 7.5 -22.5t18.5 -11.5 q8 0 23 17q27 36 64 36q42 0 60.5 -29.5t18.5 -63.5q0 -28 -24 -46t-62 -18q-57 0 -106.5 43t-49.5 98zM149 580q0 -12 10.5 -21.5t22.5 -9.5q13 0 23 9.5t10 21.5t-10 22t-23 10q-12 0 -22.5 -10t-10.5 -22z" />
<glyph unicode="&#xe0b;" horiz-adv-x="666" d="M25 661q0 25 8 47q24 59 61.5 95.5t74.5 36.5q29 0 53 -20q36 -32 51 -32q17 0 39 29q13 17 34 17q19 0 41 -10l144 -51q2 3 16 21.5t28 36.5t32 40t30 35q11 12 42 82q11 27 20 41t16 10q19 -12 19 -39q0 -37 -54 -129q-12 -17 -36 -43q-18 -18 -27 -28.5t-18 -28 t-9 -35.5q0 -29 17 -63q-6 -214 -6 -349q0 -108 3 -249q0 -44 -67 -89q-19 -14 -36 -14q-28 0 -25 42q0 37 -23 38q-12 1 -23 -17v1q-6 -12 -7 -13v1q-7 -9 -10 -18q-5 -10 -7.5 -14t-8.5 -11t-12.5 -5.5t-18.5 2.5h1q-33 11 -35 68q-12 160 -12 300q0 94 6 206q3 52 69 114 q21 21 21 37q0 19 -23 40q-24 21 -42 21q-19 0 -34 -25v1q-32 -56 -58 -56q-27 0 -51 59q-14 35 -41 35q-18 0 -43 -23v1q-15 -16 -23 -26t-14.5 -28.5t-5.5 -40.5q41 36 73 36q29 0 57 -25q32 -30 32 -65q0 -24 -9 -45q-23 -57 -95 -47q-49 9 -81.5 52t-32.5 94zM120 608 q0 -31 40 -35q15 -1 22.5 8t9.5 28q-2 30 -36 35q-16 2 -26 -9t-10 -27zM372 354q0 -25 12 -291q40 51 68 51q44 0 80 -48q11 -14 13 -8q2 5 2 164v14q0 282 -1 441q0 36 -48 46q-11 2 -16 -1t-5 -9v-12q1 -5 1 -17q-3 -28 -43 -60q-54 -39 -58 -92q-5 -79 -5 -178z" />
<glyph unicode="&#xe0c;" horiz-adv-x="1083" d="M77 556q-23 22 4 55q12 15 36 44.5t39 47.5t36.5 42t40.5 43q52 54 129 28q101 -32 197 -88q30 -17 44.5 -43.5t15 -53t1 -57t0.5 -56.5q0 -8 -0.5 -21.5t0 -20t4.5 -15.5t15 -15.5t30 -12.5q18 -6 35 -18.5t28.5 -25t25 -36t20.5 -36.5t20 -41.5t18 -38.5 q36 -80 102 -168q0 219 -1 237q-10 170 19 467q0 3 0.5 17t1.5 19.5t7.5 11.5t18.5 5q14 -1 20.5 -8t7.5 -13.5t-0.5 -21.5t-1.5 -19q0 -66 -5 -161t-9 -165.5t-2.5 -159.5t12.5 -164q9 -74 -42 -138q-28 -34 -49 -31q-8 1 -13.5 6.5t-7.5 11t-4.5 15.5t-4.5 14 q-19 56 -50 118t-56 103t-69 108q-2 3 -6 9.5t-6.5 9.5t-7.5 8.5t-8.5 6.5t-11 2.5t-13.5 -2.5q-14 -6 -20 -17t-5.5 -23.5t1.5 -26.5q4 -39 8.5 -82.5t10 -95t8.5 -81.5q0 -4 2 -17t2 -19.5t-3 -15t-10 -13.5q-28 -20 -71 15q-68 55 -99 69q-45 19 -31 81q18 76 61 123 q45 51 64.5 114.5t17 120.5t-18.5 126q-8 33 -31.5 56t-45.5 33t-63 23.5t-58 20.5q-36 16 -63 2.5t-54 -47.5q-8 -9 -26.5 -30.5t-30.5 -35.5q32 -15 47 -22t27.5 -18.5t14 -17.5t-4.5 -21t-16 -28t-32 -39q-38 -45 -29.5 -112.5t57.5 -103.5q45 -35 46 -107t-44 -147 q-1 -2 -8 -14.5t-10 -17t-10 -14t-12.5 -13.5t-13.5 -8t-17 -4q-20 0 -29 12t-14 36t-8 32q-45 96 -7 193q11 28 15.5 62t3.5 63.5t-1 63.5v37.5t6 36t19 33.5q2 2 10.5 9.5t12 12t3.5 12t-7 15.5q-33 35 -60 1q-22 -30 -44 -11zM173 80.5q0 -6.5 0.5 -9.5t1.5 -8t3 -7.5 t5.5 -5t8.5 -3.5q4 -2 7.5 -0.5t5.5 1t4.5 2.5t4 3.5t3 4.5t2 5t1.5 5.5t1.5 6t1.5 6t1 6.5q1 3 3.5 15t4.5 18q21 51 -14 105q-5 8 -13.5 10.5t-15.5 -4.5q-10 -12 -13 -28.5t-1 -30.5t0 -31v-9h-2v-43v-8.5zM484 110.5q1 -11.5 13 -23t30 -18t52 -15.5q-10 160 -13 211 q-31 -45 -47 -70t-26 -49t-9 -35.5z" />
<glyph unicode="&#xe0e;" horiz-adv-x="762" d="M67 166q5 40 15.5 66.5t36.5 37.5q28 11 40 29t10.5 38.5t-1.5 44.5q-1 10 -5 47.5t-3 52t14 41.5t41 50q-82 12 -90.5 27t34.5 69q7 8 33 54t54 63q121 73 334 -41q48 -26 69 -66t21 -102q-1 -158 6 -473t3 -517q0 -10 0.5 -30.5t0.5 -29.5q1 -8 9.5 -35.5t5 -43 t-23.5 -23.5q-18 -7 -31.5 1.5t-30.5 33t-21 28.5q-120 132 -175 175q-5 -9 -29.5 -49.5t-35.5 -63.5q-40 -87 -109 -82q-55 4 -84 78q-6 16 -6.5 31.5t3 27.5t11.5 26.5t15 23t19 22.5q37 48 118 67q13 3 30 6.5t22 3.5t14.5 5t10.5 6t7 11.5t7 15.5t7.5 25.5t11.5 34.5 q9 26 22 19q15 -8 7 -48l-1 -5q-11 -30 -5 -58.5t18 -48t33.5 -42t41 -40t41 -42.5t33.5 -49q8 61 11.5 107.5t4 66.5t-1.5 77.5t-2 86.5q-4 350 -12 704q-1 34 -40 69.5t-91.5 57.5t-106.5 32t-86 -7q-49 -25 -55.5 -58t31.5 -68q14 -13 21 -24t8.5 -22.5t-6.5 -21.5 t-27 -19q-33 -16 -43 -42t-5 -66q3 -28 7 -102.5t14 -119.5q6 -26 7.5 -57t0.5 -53t-4 -59.5t-4 -54.5q-2 -42 -40 -26q-49 22 -91.5 97.5t-37.5 129.5zM134 204q-58 -83 53 -151q9 31 8.5 48.5t-4.5 48.5t-3 49q2 12 -4 21.5t-18 8.5q-19 -5 -32 -25zM210.5 -437 q2.5 -14 16.5 -24q33 -23 64 24q14 22 39.5 62.5t36.5 56.5q-106 -7 -141 -68q-10 -16 -14 -26.5t-1.5 -24.5z" />
<glyph unicode="&#xe0f;" horiz-adv-x="755" d="M53 -329q21 44 59 71.5t69 7.5q21 -13 38 -19.5t30.5 -4t22.5 6t18.5 17.5t14 22t13.5 27t13 27q11 -24 6 -44t-13 -43t-15 -42.5t-0.5 -41.5t30.5 -42q9 17 24 45.5t27.5 50.5t24.5 42q42 65 76 -3q48 -101 107 -158q8 28 10 55t0.5 67t-1.5 49v825q1 88 -85 113 q-14 4 -52 20t-64 24.5t-61 5t-62 -26.5q-19 -16 -28.5 -28t-11.5 -24t9 -23t36 -22q31 -14 36.5 -31.5t-22.5 -38.5q-109 -74 -82 -231q8 -49 11 -140t7 -128q1 -9 7 -23t11.5 -25.5t7.5 -22.5t-4.5 -17t-24.5 -6q-165 3 -176 80q-24 145 75 207q25 15 31 32t3 45 q-21 165 65 259q-8 6 -15.5 9.5t-15 3t-12 -0.5t-12.5 -4.5t-10.5 -6t-12 -8.5t-10.5 -8q-25 -22 -47 -3q-24 22 5 53q7 7 29 23t30 27q6 9 25 36t29 39.5t28 31t37 28t42 12.5q74 11 165 -22.5t149 -86.5q23 -21 23 -56q2 -373 2 -1108q0 -4 1.5 -20t0.5 -24t-7 -18 t-19 -14q-14 -4 -26 1t-17.5 11t-15 21t-12.5 19q-21 31 -60.5 89.5t-54.5 80.5q-22 -21 -34 -47t-21.5 -63.5t-14.5 -51.5q-1 -3 -4 -14t-5.5 -15t-8.5 -9t-15 -6q-7 -1 -12 1t-8.5 4t-6.5 7.5t-4 8.5t-3 10t-3 9q-14 53 -39 60.5t-67 -30.5q-68 -60 -126 -10 q-61 55 -27 127zM107 -376q-4 -13 6.5 -20t26.5 -9q21 6 34.5 11t27 17t16.5 29q4 18 -10.5 29t-34.5 10q-48 -2 -66 -67zM110 86q-1 -28 10.5 -45.5t35.5 -15.5q23 3 27.5 17t-1 29.5t1.5 29.5q-9 17 -4 37t0 36t-29 15q-38 -1 -41 -103z" />
<glyph unicode="&#xe10;" horiz-adv-x="713" d="M36.5 -393.5q-8.5 31.5 7.5 66.5q18 30 48.5 43t59.5 8.5t49 -21.5q12 -10 20.5 -11.5t11.5 0.5t7 10l3 7q20 34 66 123q11 0 14.5 -5t3 -16t-0.5 -13q-5 -19 -19.5 -59t-20.5 -64t0 -59.5t33 -66.5q7 30 33 65.5t46.5 71.5t19.5 75q-1 18 27 37.5t63 29t53 4.5 q11 -4 14.5 -9.5t2 -16.5t-1.5 -13q2 -62 0.5 -111t1 -110t11.5 -110q1 -8 -16 -25q-6 -7 -13 -6.5t-10.5 3.5t-10.5 10q-51 51 -85 98q-19 29 -42 26.5t-38 -36.5q0 -1 -6.5 -11.5t-6.5 -16.5q0 -5 -0.5 -16.5t-1 -18.5t-2.5 -16t-7 -13t-13 -5q-12 0 -23 11.5t-17 22 t-15 30.5q-20 50 -25 56q-1 2 -6.5 10t-8.5 10.5t-9 4.5t-13 -3.5t-16 -17.5q-24 -31 -63.5 -35.5t-71.5 26.5q-24 25 -32.5 56.5zM53 583.5q1 15.5 12 25.5q22 21 54 62.5t62.5 73t65.5 50.5q44 24 98 2q42 -18 70 -28q32 -12 57.5 -16t51 0t45.5 23.5t35 53.5q3 8 8.5 15 t15 18t14.5 17q2 -147 -60.5 -183.5t-216.5 14.5q-68 23 -91 16t-73 -71q176 -8 298 -56q46 -16 66 -41t19 -73q-8 -254 9 -381q3 -18 -1 -33t-14.5 -27.5t-19 -20t-25.5 -19t-23 -16.5q-19 -14 -33.5 -3t-4.5 39q12 33 12 66.5t-9 65t-20.5 59.5t-24 62t-18.5 61 q-2 8 -5.5 13t-6.5 7t-9 1.5t-9.5 -1.5t-11 -3.5t-11.5 -3.5q-59 -17 -99.5 1t-48.5 64q-10 46 9 79.5t62 49.5q116 42 155 -79q20 -67 76 -239q6 1 16 3v45.5v53v44.5q-2 30 0.5 52t-1.5 40.5t-5.5 31t-11.5 23t-18.5 17.5t-27.5 13.5t-38 11.5t-49 11q-6 1 -30.5 6 t-32 6.5t-30 5t-32.5 3t-29.5 0t-32 -3t-29.5 -8t-31.5 -13.5t-28.5 -20q-20 -14 -38 4q-12 14 -11 29.5zM95 -367q-5 -14 12.5 -32t26.5 -15l22 8q21 7 28 15.5t7 23.5q-3 32 -49 32q-2 -1 -15.5 -6.5t-21.5 -11.5t-10 -14zM262 449q-1 -25 12 -32t38 -7q55 -2 52 48 q-2 24 -15 34t-43 8q-41 -6 -44 -51zM432 -359q12 -12 95 -102v35t-2.5 25t-3 19.5t-7.5 11.5t-11 8t-17 3t-22.5 1.5t-31.5 -1.5zM459 -273v-12.5t4.5 -10t14.5 -7.5q20 -5 30 14.5t16 22.5q-1 13 -10 21.5t-20 8.5q-14 0 -23.5 -10t-11.5 -27z" />
<glyph unicode="&#xe11;" horiz-adv-x="928" d="M14 599q-17 52 2.5 95.5t64.5 91.5q62 65 151 2q26 -18 43 -16.5t38 22.5q49 51 92 26q68 -39 114 -116q3 -4 -3 -17.5t-14 -18.5q-37 -26 -58.5 -55.5t-28.5 -66.5t-7.5 -63t3 -73.5t3.5 -70.5q5 -1 13 -3.5t13 -4.5q9 25 26.5 73.5t31 87.5t23.5 74q42 139 80 213 q15 30 31.5 36.5t49.5 -12.5q36 -24 123 -63q21 -9 27 -23.5t6 -40.5l-3 -645q0 -5 1 -21t0.5 -24t-7.5 -16t-22 -8q-10 0 -16.5 3.5t-9.5 8t-4.5 12.5t-1.5 14t0.5 16.5t0.5 14.5q1 59 1 177.5t1 212t5 177.5q2 51 -20.5 79.5t-69.5 52.5t-66 -27q-144 -376 -187 -599 q-1 -6 -1.5 -21t-3.5 -22q-2 -7 -7 -36t-14.5 -41.5t-31.5 -10.5q-20 2 -27.5 13t-6.5 23t4.5 31t3.5 27q-2 87 -3.5 243t-1.5 192q0 109 65 165q24 21 25 39t-21 39q-45 42 -84 0q-28 -30 -41 -45q-53 -55 -79 8q-27 62 -73 48q-54 -15 -74 -91q-5 -19 3.5 -28t29.5 0 q54 19 112 3q72 -19 59 -83q-7 -36 -28.5 -55t-56.5 -13t-55.5 11.5t-47.5 17t-44.5 32t-26.5 49.5zM118 571q-1 -16 14 -27.5t38 -13.5q22 -1 38 9.5t18 25.5q0 16 -15.5 27.5t-37.5 12.5t-38 -9t-17 -25z" />
<glyph unicode="&#xe12;" horiz-adv-x="1096" d="M52 481q14 123 95 225q25 31 39.5 47.5t32.5 33.5t30.5 20t28 3t30.5 -13t33.5 -32.5t41.5 -50.5q28 26 31 29q5 7 15.5 22.5t16.5 23.5t17.5 18.5t21.5 14.5t24.5 3.5t31.5 -8.5q59 -27 92 -58.5t43 -91.5q7 -44 -4.5 -140t0.5 -144q22 12 41.5 14t34.5 -4.5t29 -20.5 t23.5 -28.5t19.5 -34.5l27.5 -55t32.5 -64.5t30.5 -57t34.5 -57.5q-11 97 -10.5 317.5t-5.5 317.5q-1 20 -1 61q-1 17 1 27.5t11 19t26 7.5q8 0 13.5 -3t8.5 -5.5t5 -9.5t2 -10t0.5 -13t0.5 -11q0 -39 2 -136t2 -135q0 -40 -1 -133t-0.5 -153.5t5.5 -121.5q7 -63 -21 -99 q-3 -4 -11 -15t-13 -16.5t-14 -10.5t-20 -4q-17 1 -23 10.5t-7 27t-3 23.5q-48 138 -127 268q-19 29 -30 34q-14 5 -31 0q-43 -15 -35 -60q10 -49 9 -126t1 -125q3 -44 -13.5 -52.5t-51.5 8.5q-97 39 -118.5 119t47.5 159q41 46 53 91t12 119q0 21 3.5 57.5t3.5 66.5t-7 58 q-2 10 -5.5 32.5t-8.5 36t-17 25.5q-20 18 -34.5 27t-29.5 10t-27 -12.5t-23 -41.5q-4 -9 -18 -24.5t-18 -23.5q-30 -44 -53 -41t-47 46q-25 43 -43.5 56t-38 1.5t-50.5 -52.5q-114 -153 -56 -390q8 -30 34 -86.5t37 -99.5q16 38 41 90t35 75q3 7 4.5 13.5t1 13.5t-1.5 11.5 t-4.5 11.5l-5 10t-7 11.5t-6.5 10.5q-42 67 -16.5 129t102.5 83q40 11 63 -5.5t25 -48.5q0 -5 3 -34.5t2.5 -40.5t-2 -33t-8.5 -37.5t-20 -28.5q-28 -29 -49 -56.5t-41.5 -66.5t-28 -55t-30 -71.5t-26.5 -66.5q-2 -4 -6 -20.5t-11 -23t-21 -5.5q-9 1 -15.5 4.5t-9 10.5 t-3.5 11.5t-1.5 15t-0.5 13.5q-5 32 -14 63.5t-17 50.5t-25 55t-26 57q-53 121 -39 244zM301 396q-5 -32 31 -35q35 13 47 74q3 17 -4.5 31t-23.5 11q-14 -3 -23 -10t-14.5 -23t-7 -21.5t-5.5 -26.5zM545.5 105.5q1.5 -39.5 68.5 -86.5q10 46 13 65t0 55t-19 64 q-64 -58 -62.5 -97.5z" />
<glyph unicode="&#xe13;" horiz-adv-x="1041" d="M50 576q2 6 4 9.5t8 10.5t7 9q45 70 73 107q47 64 129.5 85.5t164.5 -6t127 -95.5q12 -17 5 -48q-15 -68 -15.5 -146.5t5 -170t3.5 -146.5q0 -4 1 -8.5t3 -10.5t3 -11q20 18 33.5 38t29.5 58t19 43q27 56 62.5 68.5t87.5 -20.5q20 -13 31.5 -15.5t16 7t5.5 18t1 29.5 q-1 120 3 356v12.5v13.5t1 12t3 11.5t5.5 8.5t10 6.5t14.5 0.5q12 -1 17.5 -9t5.5 -16t-1.5 -22t-1.5 -19q2 -237 -1 -426q0 -73 31 -123q13 -31 5.5 -80t-33 -99t-52.5 -62q-39 -17 -64 11q-101 113 -20 245q2 3 11.5 17t10.5 18.5t2.5 15t-5.5 18t-22 15.5q-33 16 -53 7.5 t-35 -42.5q-10 -20 -30 -60.5t-32.5 -65t-27 -60t-23.5 -67.5q-11 -39 -24 -46q-10 -6 -24 -3q-22 5 -25.5 26t1.5 40q7 85 8 184t-0.5 213t-0.5 184q0 15 -1.5 28.5t-7.5 24.5t-10 19.5t-14.5 17t-16 13t-19.5 11.5t-19 9t-21.5 9t-19.5 8q-109 47 -163 -29 q-17 -21 -16 -33.5t30 -18.5q62 -12 71 -68q4 -23 -7 -31t-31.5 -10.5t-28.5 -7.5q-31 -23 -52.5 -137.5t0.5 -146.5q4 -7 19 -11q153 -61 79 -205q-23 -44 -57 -69t-72 -14q-31 8 -38 50.5t2 72.5q7 43 9.5 92.5t2 131t-0.5 92.5q1 66 20 116t71 90q-16 4 -29.5 4t-23 -2.5 t-19.5 -9.5t-15 -11.5t-14 -13.5l-4 -4q-30 -30 -53 -10q-6 6 -8.5 11.5t-0.5 11.5zM177 81q-3 -24 1 -38.5t22 -15.5q14 -1 23.5 6t14.5 23t7 25t4 27q1 23 -0.5 36.5t-10 25t-25.5 11.5q-25 0 -33 -20t-2 -46q2 -10 -1 -34zM804 99q-1 -34 37 -64q53 45 52 96 q-2 23 -13.5 41t-30.5 13q-43 -12 -45 -86z" />
<glyph unicode="&#xe14;" horiz-adv-x="688" d="M42 486q-4 101 47.5 183t139.5 120.5t187 20.5q17 -3 56 -4.5t66 -7.5t43 -20q13 -12 15.5 -33t-2 -41t-10 -46.5t-4.5 -43.5q4 -211 4 -592q0 -4 1.5 -18.5t1 -21.5t-7 -14.5t-20.5 -8.5q-13 -1 -21 2.5t-11 12t-3.5 13.5t0 19t0.5 17q2 275 4 661q0 4 0.5 13t0 13 t-2.5 10t-8 10t-16 7q-178 48 -273 -16.5t-124 -234.5q-4 -23 -5 -46t3.5 -50t7 -44t13 -49t14.5 -43.5t18 -49.5t17 -45q4 -9 16.5 -35.5t21.5 -52.5q7 18 85 208q2 5 3 9.5t0 9t-1.5 6.5t-4.5 6t-5 5.5t-6.5 6t-7.5 5.5q-37 31 -43.5 82.5t18.5 97t71 60.5q54 17 79 -18 q9 -13 14.5 -21t13 -22t9 -23.5t3.5 -25t-4 -27.5q-11 -39 -47.5 -100t-46.5 -85q-41 -96 -94 -246q0 -1 -3 -9t-4.5 -10.5l-4.5 -7.5t-7.5 -7t-10.5 -3q-15 -3 -22 5.5t-13 25.5q-39 93 -52.5 127.5t-39 108t-35.5 133t-13 124.5zM286 416q-1 -25 6.5 -40.5t26.5 -13.5 q15 2 25 7.5t15.5 17.5t8 20t4.5 25t3 23q4 20 -5 34t-31 11q-13 -3 -22 -9t-14 -16.5t-7.5 -17.5t-5.5 -21.5t-4 -19.5z" />
<glyph unicode="&#xe15;" horiz-adv-x="757" d="M68.5 537q32.5 144 140.5 243q26 24 47 33t41.5 0.5t38.5 -37.5q21 -29 34 -28.5t37 24.5q46 43 127.5 43.5t116.5 -44.5q22 -28 13 -100q-12 -97 -14 -214t1.5 -209t-0.5 -214q0 -6 1.5 -19t1.5 -20.5t-6 -15t-20 -8.5q-15 -1 -24 5t-11.5 15.5t-3 21t0.5 22.5 q4 369 9 586q1 51 -12 81.5t-55 42.5q-79 23 -120 -74q-14 -33 -29 -41.5t-28.5 2t-30.5 37.5q-16 25 -23 36t-17 20.5t-15 10t-15.5 -6.5t-18.5 -17.5t-25 -32.5q-125 -169 -76 -344q9 -34 22.5 -72t33 -89.5t30.5 -82.5q11 25 26 60.5t26 60.5t21 47q7 14 5 27.5t-17 13.5 q-29 0 -46 7.5t-22 23t-5 28t3.5 34.5t3.5 31q2 44 26 78.5t65 47.5q24 7 46.5 -4t34 -24t31.5 -39q18 -24 20.5 -48.5t-5.5 -45.5t-26 -48q-60 -91 -94 -158.5t-52 -147.5q-1 -4 -3 -18t-4 -21t-9 -14.5t-19 -8.5q-13 -1 -21 5t-11 12.5t-6.5 19.5t-5.5 18q-17 47 -89 228 q-57 137 -24.5 281zM267 397q0 -20 11 -33.5t30 -11.5q29 5 45 24t15 49q0 36 -47 54q-57 -33 -54 -82z" />
<glyph unicode="&#xe16;" horiz-adv-x="717" d="M66.5 635q0.5 4 3 8.5t5 7.5t7.5 7t8 6l9 6t8 5q40 26 63 70q64 114 211 71q97 -30 212 -117q30 -24 30 -66q2 -406 1 -608q0 -4 1.5 -14.5t1 -16.5t-2.5 -13.5t-9 -10.5t-20 -2q-9 1 -14.5 4t-7.5 10.5t-2.5 12.5t0 15.5t0.5 13.5q1 81 5 243h-2q5 203 4 234q0 13 1 40 t1 44t-6.5 36.5t-20.5 28.5q-4 2 -35.5 23.5t-39.5 26.5t-35.5 20t-43.5 20t-40.5 11t-48.5 6q-65 1 -97 -58q-12 -17 -7 -28t13 -15t22 -9.5t19 -10.5q77 -75 -17 -106q-69 -24 -69 -108q0 -13 -1 -43t0.5 -42t8.5 -31.5t24.5 -33.5t46.5 -28q36 -17 45.5 -56.5t-9.5 -74.5 q-14 -29 -23.5 -45t-25.5 -39t-35 -38t-43 -24q-46 -18 -61 60q-10 48 0 119q2 17 7.5 51.5t7.5 49.5t2 42t-4 55q-10 73 2 126.5t63 93.5q32 26 15 44q-26 26 -56 9q-16 -9 -25 -13t-22 -3t-20 14q-3 5 -4 10.5t-0.5 9.5zM160 28q31 29 43 40.5t25 33.5t15 45 q2 26 -9.5 43.5t-34.5 21.5q-12 2 -19.5 -0.5t-10.5 -9.5t-4 -13t-1 -16.5t-1 -14.5q-1 -8 -3 -130z" />
<glyph unicode="&#xe17;" horiz-adv-x="805" d="M65.5 710.5q18.5 57.5 68.5 92.5q22 15 37.5 21.5t37 3t41.5 -24.5q7 -8 21 -21.5t22 -21.5t18 -21.5t13.5 -25t3 -27.5t-7.5 -34q-39 -98 -49 -185.5t8 -217.5q5 18 21.5 75t23 78.5t20.5 69t23.5 74t23.5 64.5t28 70.5t30 63.5q22 44 49.5 56.5t73.5 -0.5 q29 -9 40 -11.5t31 -10.5t25.5 -9.5t17.5 -11.5t13.5 -12t7.5 -17t5.5 -19.5t1 -26.5t1 -32t-1.5 -41q-3 -111 -10 -592v-4q0 -13 -1 -20t-6.5 -14t-17.5 -8q-18 -1 -27 10t-9 29q-3 65 -2 99q14 382 21 510q1 25 -4.5 42.5t-20.5 30t-27 19t-37 16.5q-10 4 -19 6t-16.5 1 t-13 -2t-11.5 -6.5t-9 -8.5t-8 -11t-6.5 -11.5t-6.5 -13.5l-6 -12q-40 -89 -60.5 -139t-44 -129.5t-30.5 -149.5q-5 -52 -29.5 -125t-31.5 -105q-1 -4 -2.5 -12t-3 -12t-4 -10t-5.5 -9.5t-8.5 -5.5t-12.5 -2q-17 0 -25 11t-8.5 19.5t-0.5 28.5q1 69 1.5 173.5t0.5 173.5 q1 52 -11.5 83t-59.5 55q-54 28 -74 83.5t-1.5 113zM121 680q-10 -45 9 -78t58 -44q22 -6 29.5 6.5t9.5 35.5t8 32q16 20 22 46q3 11 3 20.5t-1.5 16.5t-7.5 14t-10.5 11t-14.5 9.5t-16 8l-18 7.5q-59 -21 -71 -85z" />
<glyph unicode="&#xe18;" horiz-adv-x="644" d="M46 565q4 12 9 17.5t16.5 15.5t15.5 15q68 80 92 116q23 32 44 49t52 21.5t64 -18.5q76 -50 140.5 -31.5t110.5 115.5q0 -122 -57 -168.5t-148 -5.5q-37 17 -53 24t-38 9t-29.5 -0.5t-24 -20t-26 -34.5t-32.5 -58q184 -13 275 -58q41 -20 58 -48t16 -74q-6 -182 2 -322 q2 -25 -4 -44t-19.5 -32t-26 -21.5t-33 -19t-30.5 -17.5q-13 -9 -18.5 -1.5t-11.5 27.5q-19 57 -59 67t-83 -31q-26 -26 -39 -46q-1 -2 -5.5 -8t-6.5 -8.5t-6.5 -6.5t-8 -5t-9 -1t-11.5 3q-12 5 -15 12.5t-1.5 22.5t1.5 18q0 250 1 401v9.5v11v10.5t1 11t2.5 9.5t3.5 8.5 t5 6t7.5 4.5t9.5 1.5q44 0 33 -76q-7 -57 -9 -114.5t-1 -107.5t-1 -128q64 59 120 62t109 -47q25 -21 37.5 -12.5t12.5 40.5q0 47 -1 153.5t0 178.5q0 17 -8 29.5t-16 18t-26 13.5q-131 67 -294 38q-4 -1 -16.5 -4.5t-19 -4.5t-17 -1t-17.5 3.5t-12 11.5q-9 9 -5 21z" />
<glyph unicode="&#xe19;" horiz-adv-x="785" d="M41.5 667q-4.5 79 66.5 125q69 43 139 -3q57 -37 30 -109q-33 -85 -37.5 -168.5t3.5 -188.5t4 -175q16 27 64.5 105.5t75.5 124.5q30 50 67 54t76 -44q34 -42 73 -53q-1 56 4 136t6.5 125.5t-7.5 132.5q-9 61 33 65q8 1 14 -0.5t9.5 -6t6 -8t3 -10.5t0.5 -10.5v-12v-10.5 q-4 -224 -12 -412q-1 -41 20 -81q29 -52 3 -150.5t-77 -127.5q-48 -25 -87 48q-24 63 -23 132.5t39 131.5q6 5 2.5 13.5t-6 13.5t-12 13.5t-15 13t-16 11.5t-14.5 10q-7 5 -13 5.5t-12 -4.5t-9.5 -9t-9 -13.5t-7.5 -11.5q-36 -49 -68 -104.5t-51 -95t-52 -112.5 q-2 -4 -5.5 -14.5t-6.5 -16.5t-8 -13t-12 -9t-16 0q-16 3 -21 12t-3 30.5t2 23.5q-4 328 -4 428q-2 36 -12.5 56.5t-41.5 38.5q-78 45 -82.5 124zM112 684q-2 -38 11 -59t46 -20q30 2 36.5 11.5t1 24.5t4.5 35q12 29 2.5 51t-32.5 29q-34 1 -51 -20.5t-18 -51.5zM551 150 q1 -5 1.5 -19t1.5 -21t3.5 -16.5t8 -13.5t14.5 -4q23 0 33.5 13t15.5 43t7 37q7 19 -5 39.5t-30 18.5q-41 -5 -50 -77z" />
<glyph unicode="&#xe1a;" horiz-adv-x="731" d="M83 715q86 182 196 -23q29 -53 0 -97q-50 -80 -45 -192q3 -27 1 -127t-2 -128q0 -2 -0.5 -13.5t0 -18t2 -17t6 -18.5t11.5 -14q24 31 52.5 44.5t61 9.5t60 -13.5t64.5 -28.5q80 -41 80 50q-1 122 0 298t1 256v44q1 7 2 26t2.5 29.5t9 20t21.5 9.5q16 -1 24 -6.5 t9.5 -15.5t0 -19t-4.5 -22t-3 -19q-6 -83 -8 -165t-1.5 -134.5t3.5 -151t4 -155.5q1 -54 -23 -87.5t-72 -62.5q-11 -7 -20 -6.5t-13.5 3.5t-14 14.5t-12.5 15.5q-34 36 -59 50t-52 9.5t-59 -31.5q-3 -3 -6.5 -7t-5.5 -6q-4 -5 -9.5 -14.5t-9.5 -16t-10 -13.5t-12.5 -10.5 t-15.5 -3.5t-19 5q-17 6 -25 24.5t-8.5 30t-0.5 37.5q-1 58 -3 307v31.5t-0.5 33.5t-3 28.5t-7.5 31t-14 25.5t-23.5 26t-33.5 21q-73 36 -15 156zM125 663q-8 -81 57 -84q18 -1 29 12t13.5 26t3.5 31q4 29 -14 54t-45 29q-17 1 -25 -9t-13 -32.5t-6 -26.5z" />
<glyph unicode="&#xe1b;" horiz-adv-x="735" d="M43 640q-12 52 13 100t79 73q6 3 12.5 3t9.5 -0.5t10.5 -4t8.5 -3.5q63 -26 92.5 -95t4.5 -132q-27 -68 -39.5 -124t-11.5 -118.5t6.5 -106t20.5 -132.5q9 -58 52 -16q86 81 208 1q43 -26 56.5 -15.5t13.5 54.5v604q1 72 11.5 274t9.5 311q0 37 2 43q2 5 5 19t5.5 22 t9.5 14t18 5q9 -1 14 -5t6.5 -12t1.5 -14t-1 -18t-1 -17q-8 -216 -18 -697q-8 -384 -11 -587q0 -61 -58 -88q-8 -4 -15 -5.5t-14 0.5t-11 3t-10.5 8t-8 8.5t-9 11.5t-8.5 11q-69 90 -166 16q-5 -4 -24 -19.5t-30 -23.5q-35 -22 -55.5 -11.5t-23.5 48.5q-4 42 -13 99t-12 83 t-5.5 83t5.5 99q7 55 -10 92.5t-60 70.5q-48 36 -60 88zM87 658q-1 -42 28.5 -66.5t67.5 -27.5q19 -2 28 11.5t13.5 39.5t9.5 35q-3 8 -12 33t-14.5 36.5t-19 22.5t-32.5 11q-31 0 -49.5 -29.5t-19.5 -65.5z" />
<glyph unicode="&#xe1c;" horiz-adv-x="720" d="M104 590q37 113 98 172q52 52 110 28q10 -4 17 -8.5t11.5 -12.5t7.5 -12.5t5 -16t2.5 -14.5t1 -16.5t0.5 -14.5q5 -70 -47.5 -112.5t-118.5 -20.5q-13 5 -23 5.5t-15 -2t-8 -9t-4 -11.5t-2 -15t-2 -14q-41 -231 85 -452q3 10 107 296q2 5 7.5 19t7.5 22q0 1 1 5.5t1.5 6 t1.5 5.5t2 5.5t2.5 5t3 4.5t4 3t5 3t6.5 1.5t8 0.5q11 0 19 -6.5t11 -13t8 -20.5q1 -4 12 -33t13.5 -35.5l12.5 -32.5t14.5 -36t14.5 -33t18 -36.5t19.5 -33t23.5 -36.5t25 -34q0 179 -1 194q-4 111 -4 153t4 153t5 153q0 3 -1 14.5t-0.5 17t3 13.5t9 11.5t17.5 2.5 q23 -1 27 -22.5t-1 -39.5q-11 -167 -2 -609q0 -4 0.5 -22t0 -26t-5 -20.5t-13.5 -21.5q-8 -8 -18.5 -30.5t-23.5 -34.5t-35 -8q-19 3 -24 18t-2 31.5t-3 31.5q-48 100 -124 267q-35 -51 -65.5 -148t-33.5 -104q-3 -8 -11.5 -40.5t-19.5 -48.5t-31 -17q-23 -1 -34 14 t-18.5 45.5t-11.5 40.5q-125 286 -49 531zM209 653q1 -24 12 -39t33 -11q19 3 28.5 16.5t11.5 26t2 33.5v7q-4 10 -1 22t-3 20.5t-23 5.5q-30 -4 -45.5 -26.5t-14.5 -54.5z" />
<glyph unicode="&#xe1d;" horiz-adv-x="693" d="M81.5 524.5q4.5 87.5 30.5 173.5q27 94 115 105q76 7 99 -68q22 -71 -30 -135.5t-127 -60.5q-21 1 -29.5 -6.5t-7.5 -25.5q13 -232 103 -420q32 62 54.5 172.5t38.5 150.5q1 2 1 9q4 8 8.5 32t13 36.5t26.5 10.5q18 -1 25 -13.5t8 -39.5t2 -33q33 -168 128 -305 q9 30 13 63t3 55t-3.5 58t-2.5 52q-1 342 -14 1001q-1 10 0 28t1 24q0 2 0.5 8.5t0.5 9.5t1.5 8t3.5 7.5t6 5t10 2.5q18 1 25 -10t8 -31q1 -16 3.5 -54.5t2.5 -55.5t-1 -55q-11 -149 -1.5 -556.5t5.5 -557.5q-1 -6 -1 -22t-1.5 -26.5t-6.5 -18.5q-6 -8 -14.5 -29.5 t-19.5 -33.5t-30 -11q-21 1 -27.5 15t-4 30.5t-1.5 31.5q-10 30 -36.5 78.5t-45 96.5t-22.5 101q-28 -46 -43 -94t-24.5 -101.5t-17.5 -79.5q-1 -3 -4 -16.5t-5 -18t-7 -13t-12 -12.5t-17 -5q-33 -2 -58 47q-41 85 -68 162.5t-42.5 162t-11 172zM162 642q-4 -20 8 -33.5 t32 -8.5q64 12 67 92q-1 3 -1.5 12.5t-1.5 15t-3.5 12t-8 9.5t-14.5 2q-36 -4 -52.5 -31t-25.5 -70z" />
<glyph unicode="&#xe1e;" horiz-adv-x="795" d="M47 692q29 115 145 119q41 2 58.5 -15.5t14.5 -56.5q-2 -30 -11 -118t-12 -148.5t-1 -118.5q0 -10 -1 -39t-0.5 -54t4.5 -41q22 48 47 148.5t41 151.5q11 35 30.5 118.5t36.5 126.5q4 10 6.5 14.5t7.5 11t11 9t15 1.5q25 -3 30 -35q15 -113 93 -350.5t94 -301.5 q0 61 -8.5 229.5t-7.5 233.5q0 30 5 160q0 4 -1 14.5t-0.5 16t3 12.5t8.5 10t17 3q6 0 11 -1.5t8 -3.5t5.5 -7t3.5 -7.5t1.5 -9t0.5 -9v-10.5v-9q0 -48 0.5 -199t1.5 -233q0 -35 3.5 -101t3.5 -79q0 -7 2 -22.5t2.5 -24.5t-2.5 -21t-10 -20t-16.5 -30t-21.5 -33.5t-33 -7.5 q-14 3 -22 13t-9.5 19.5t-2.5 26.5t-2 24q-20 144 -63 286.5t-113 317.5q-21 -78 -59.5 -217.5t-56.5 -210.5q-9 -33 -23 -100.5t-23 -100.5q-1 -3 -3 -21.5t-9 -26.5t-23 -7q-39 1 -39 62q-2 259 3 388q2 41 -8 62.5t-49 35.5q-52 17 -75 69t-8 107zM103 659 q1 -37 16.5 -66t45.5 -22q23 5 31.5 21.5t6 35t-2 40.5t9.5 34q-1 11 -1 21.5t-0.5 19t-7.5 13t-20 2.5q-39 -7 -59 -33.5t-19 -65.5z" />
<glyph unicode="&#xe1f;" horiz-adv-x="768" d="M47 709q17 59 53.5 91.5t74.5 21.5q52 -13 82 -64.5t16 -103.5q-83 -282 -44 -527q41 109 99 394q17 84 53 208q1 3 4.5 14.5t6 16.5t7.5 13t12.5 11t18.5 2q13 -2 20 -9.5t8.5 -15t2.5 -21.5t2 -20q5 -27 21.5 -109t26 -126.5t26.5 -113t36 -124t41 -103.5q0 24 -1 126 t0 171.5t4 125.5q6 138 1 244t-5 245t14 245q1 2 1 7.5v8.5q1 5 2.5 23.5t3.5 27.5t6 21.5t12 17.5t19 4q14 -2 21 -9t8 -19t-0.5 -22.5t-5 -25.5t-4.5 -22q-14 -107 -15.5 -229t1.5 -266.5t1 -229.5q-3 -36 -0.5 -231t2.5 -232q2 -55 -8 -90q-7 -25 -28 -42.5t-44 -19.5 q-11 0 -18 4t-10.5 13t-5 16.5t-2.5 20t-2 17.5q-15 82 -67.5 281t-70.5 313q-14 -18 -24 -36.5t-16 -39t-8.5 -33.5t-6 -36t-4.5 -31q-10 -67 -26.5 -139.5t-41 -165t-35.5 -136.5q-1 -3 -2.5 -13t-2.5 -14.5t-4.5 -12.5t-7 -11.5t-10.5 -6.5t-16 -2q-13 1 -20.5 6.5 t-10.5 17.5t-3.5 19t-0.5 22q-2 34 -7.5 103.5t-8 112t-1.5 102t8 109.5q1 6 5 21t5.5 23.5t0.5 20.5t-7.5 18.5t-21.5 10.5t-39 3q-42 -1 -63.5 51.5t-6.5 107.5zM96 676q-3 -25 9.5 -46t34.5 -17q77 15 81 89q-2 24 -18.5 39t-42.5 15q-55 0 -64 -80z" />
<glyph unicode="&#xe20;" horiz-adv-x="744" d="M52 96.5q-23 52.5 6 120.5q15 33 23 35q24 7 40 19t23 24t9.5 31t1.5 32t-3 36t-3 34q-2 56 4 76q2 7 10 20.5t15.5 24.5t10.5 22t-1.5 16.5t-23.5 5t-52 -10.5q-16 -4 -22 7.5t3 25.5q5 10 21.5 27t21.5 27q150 274 497 44q11 -7 16 -18t4.5 -21.5t-0.5 -22.5 q-9 -76 -5 -312t2 -312q0 -4 1.5 -21t0.5 -24.5t-7.5 -15.5t-20.5 -9q-13 -1 -21 5.5t-10 16.5t-3 22t0 23v278q0 27 -1.5 79t-1 94.5t5.5 78.5q9 63 -17 99.5t-82 68.5q-50 28 -113 31t-116 -23q-54 -29 -58 -72q-2 -14 5.5 -21.5t28.5 -13t23 -6.5q33 -15 37 -33 q2 -12 -16 -17l-5 -1q-54 -12 -70 -85t-4 -151q6 -42 7 -144.5t14 -156.5q7 -28 -16.5 -42t-51.5 4q-84 53 -107 105.5zM94 157q-2 -29 11.5 -53.5t39.5 -25.5q25 -1 28.5 12t-3 29t1.5 28q-1 9 1.5 24.5t4 26.5t-6.5 20t-28 10q-25 1 -36 -20t-13 -51z" />
<glyph unicode="&#xe21;" horiz-adv-x="747" d="M58.5 160q-0.5 13 7 23t19 26.5t27.5 36.5q38 46 62 79q21 29 31.5 44t18 32.5t6.5 27.5t-10 24t-24 25.5t-42 29.5q-73 49 -92.5 100.5t4.5 98.5t86 101q46 40 78 -8q5 -6 18 -23.5t18.5 -25t15 -23.5t12.5 -27.5t5.5 -27t-1 -32.5t-10.5 -35q-9 -21 -9.5 -42.5t3 -54 t3.5 -55.5q30 25 42 35.5t31.5 22t25 15t19.5 0t17.5 -8.5t16.5 -24t19.5 -33.5t22.5 -49.5t35 -73.5t43 -85.5t38 -75q22 18 24.5 53.5t-1.5 59.5q-1 37 -11 441q0 6 -0.5 18t-0.5 18q1 14 2 21t4.5 18.5t11 16.5t18.5 5q17 0 23.5 -12t6 -21.5t-2.5 -28.5q-8 -72 -5 -162 q3 -81 8 -488q0 -59 -4 -79q-14 -77 -56 -80q-22 -2 -29.5 8.5t-7.5 35t-1 29.5q-34 164 -156 376q-17 29 -27 32q-9 2 -18 -5q-8 -6 -31 -21t-34 -24t-21.5 -27.5t-10.5 -41.5q1 -37 4 -132t4 -147q0 -5 1 -21.5t1 -25t-5 -18.5t-15 -14q-8 -4 -16 -3.5t-14.5 2.5t-14 8 t-12 10.5t-11.5 12.5t-11 12q-19 19 -50 49q-27 26 -38 37t-24.5 27.5t-14.5 23.5t-1.5 20zM115 655q-5 -40 18 -64t56 -23q23 1 34 9.5t13 18t3.5 29t4.5 31.5q8 28 -13.5 57t-40.5 30q-36 1 -50.5 -19.5t-24.5 -68.5zM131 124q16 -19 91 -66q8 48 8 70.5t-4.5 72.5 t-4.5 80q-77 -84 -86 -97q-25 -35 -4 -60z" />
<glyph unicode="&#xe22;" horiz-adv-x="689" d="M57.5 594q-2.5 72 44.5 151q56 94 161 60q19 -6 30 -14.5t13.5 -24t2.5 -23t-4.5 -29t-5.5 -25.5q-7 -53 -39.5 -84t-86.5 -35q-6 0 -12.5 1.5t-16.5 4.5t-17 5q5 -53 51 -102q46 -48 83 -45t78 57q12 17 25 48.5t28.5 56t39.5 38.5q4 -110 -43.5 -180t-128.5 -81 q-17 -3 -32.5 -12.5t-14.5 -19.5q11 -51 7.5 -140.5t11.5 -138.5q11 -1 16 -3t12.5 2.5t10 6.5t9 8.5l8.5 8.5q82 75 167 -3q2 -2 5.5 -6.5t6 -6.5t6.5 -5.5t7 -5.5t7 -3.5t8.5 -1t9.5 2.5q10 4 14.5 12t5 14.5t-0.5 19t-1 16.5q1 105 2.5 293t2.5 294q0 41 4 61 q3 12 5.5 19t10.5 14t20 7q34 -1 30 -44q-11 -131 -6.5 -344.5t-2.5 -344.5q-2 -35 -23.5 -55t-58.5 -36q-35 -17 -70 35q-22 32 -46.5 39t-45.5 -4.5t-46 -38.5q-5 -5 -14 -15.5t-14 -15.5t-15.5 -13t-18.5 -6t-22 5q-39 18 -43 89q-10 152 -13 273q-1 68 -41 119 q-58 73 -60.5 145zM150 693q-5 -17 10.5 -29.5t31.5 -12.5q17 -1 29 9.5t15 19t9 29.5q1 4 2 6q10 40 -28 44q-57 -18 -69 -66z" />
<glyph unicode="&#xe23;" horiz-adv-x="652" d="M45 505q-18 21 3 47q18 22 49.5 64.5t59 75.5t56.5 60q32 29 61 33.5t70 -16.5q37 -20 53 -28.5t37.5 -13.5t29 -4t25.5 14.5t27.5 25.5t35.5 44q5 7 6.5 8.5l7.5 7.5t8.5 5t10.5 2t14 -2q0 -83 -77 -163q-14 -15 -27.5 -21.5t-29.5 -3t-25 7t-29.5 15.5t-27.5 16 q-124 71 -206 -56q-15 -20 -8 -34t43 -14q8 0 26 -2q143 -22 174 -32q49 -17 64 -61q13 -38 14 -152q0 -4 -6 -298q0 -15 -1 -23.5t-7 -18.5t-19 -15q-25 -9 -62 20q-98 73 -113 117t33 120q25 44 48 44q36 1 52.5 15.5t16.5 36.5t-3 49q-1 8 -2 29t-2 28t-6.5 21t-15 19.5 t-27 11.5t-42.5 9q-21 2 -74.5 15t-92 12t-75.5 -23q-27 -16 -47 8zM344 144q-4 -30 17 -52t47 -21q20 1 23 15t-2 29.5t3 28.5q-2 8 2.5 28.5t-0.5 32t-27 13.5q-23 2 -37.5 -11t-18.5 -26.5t-7 -36.5z" />
<glyph unicode="&#xe24;" horiz-adv-x="753" d="M74 619.5q0 7.5 4 14.5t9 12l12 12t11 12q6 8 23 31t25 33t25 28.5t30 27.5t33 19t42 14q19 4 39.5 5t37 0.5t38 -6t35 -8.5t36 -12.5t33 -14t34.5 -17.5t31 -17t32.5 -18.5t30.5 -17.5q8 -5 12 -14.5t3.5 -18t-1.5 -22.5t-1 -20q5 -413 13 -1239q0 -3 1 -14.5t0.5 -15.5 t-2 -13t-5 -13t-10.5 -7.5t-17 -3.5q-9 0 -15.5 1.5t-10.5 6t-6.5 7.5t-3 12t-0.5 11.5t0.5 13t0.5 11.5q8 212 7.5 325t-5.5 324t-5 324q0 25 3.5 110.5t0.5 132.5q-2 42 -7 50q-16 27 -65 48.5t-104.5 30.5t-108.5 4.5t-76 -24.5q-51 -44 11 -59q30 -6 56 -20 q68 -38 2 -72q-109 -58 -104 -195q1 -21 2.5 -30t6.5 -22t17.5 -20.5t32.5 -11.5q52 -12 64 -71t-24 -129q-5 -10 -16.5 -39.5t-19.5 -45.5t-25.5 -28.5t-39.5 -8.5q-14 3 -22.5 13t-12 28t-4.5 32.5t-1 38.5t-1 34q-2 43 -7 261q0 95 9 130q16 60 65 100q-12 -1 -22.5 -0.5 t-23 0t-22.5 -2.5q-8 -1 -24.5 -10t-28.5 -8.5t-22 16.5q-5 8 -5 15.5zM205 202q-4 -86 12 -135q17 14 27.5 32t14 31.5t7 36t6.5 32.5q8 43 -24 47q-39 5 -43 -44z" />
<glyph unicode="&#xe25;" horiz-adv-x="660" d="M58 182q47 175 188 379q26 34 43 31.5t41 -36.5q104 -161 182 -300q0 71 2 205.5t1 208.5q0 26 -19.5 43t-46.5 23q-62 13 -104.5 17.5t-92.5 -1t-91.5 -32.5t-76.5 -76q-1 -1 -15 -4q20 97 90.5 148t164.5 36q32 -5 95 -20.5t96 -20.5q37 -4 49.5 -22.5t10.5 -54.5 q-1 -20 -4 -86t-4 -93t-3 -85.5t-2 -94t1 -85t3.5 -93t7.5 -86.5q4 -38 -10 -55q-7 -8 -14.5 -29t-17 -32t-27.5 -6q-17 4 -22.5 14t-2.5 20t9 25t7 23q9 55 -17 121q-16 48 -42 98t-63 112.5t-54 93.5q-13 25 -26 31t-24.5 -3t-24.5 -30q-31 -55 -42 -70q-23 -33 -32 -56 t1 -50.5t47 -52.5q27 -19 40 -73.5t7.5 -110t-27.5 -78.5q-24 -23 -77 -5q-54 20 -87 86t-17 126zM115 130q-4 -42 12 -66.5t50 -25.5q18 0 25.5 6.5t7.5 13.5t-2.5 24t-2.5 26q0 48 -9 68t-40 21q-14 1 -22.5 -1.5t-12 -11t-5 -13.5t-1.5 -20.5v-20.5z" />
<glyph unicode="&#xe26;" horiz-adv-x="761" d="M57.5 129.5q-5.5 101.5 88.5 171.5q35 23 29 63q-9 74 7 130.5t67 101.5q-19 16 -37 12t-36 -3.5t-24 16.5q-8 19 -2.5 35.5t28.5 40t25 26.5q48 64 138 87t181 -0.5t142 -86.5q16 -18 12 -39q-14 -70 -4.5 -264.5t6.5 -264.5q-5 -107 3 -332t-3 -332q-1 -15 1 -32.5 t6 -38.5t5 -33q0 -2 2.5 -15.5t1.5 -18.5t-6.5 -12t-18.5 -9q-19 -3 -28.5 6t-10.5 17.5t-2 27.5q-3 191 -4 353q-5 752 -5 904q1 25 -8.5 38.5t-32.5 25.5q-38 18 -68 28.5t-69.5 18.5t-76.5 1.5t-69 -27.5q-19 -13 -27 -21.5t-5.5 -23.5t25.5 -31t34 -34.5t5 -39.5 t-33 -38q-46 -28 -58 -63.5t-9 -91.5q5 -130 17 -373q1 -24 -16 -37.5t-36 -12.5t-30 5q-99 64 -104.5 165.5zM122 111q1 -3 1 -12t2 -13q23 -43 50 -41q14 2 19 45t-2 54q-5 9 -7.5 23.5t-2.5 28t-1.5 25.5t-7 18.5t-15.5 3.5q-67 -14 -36 -132z" />
<glyph unicode="&#xe27;" horiz-adv-x="640" d="M26 588q27 79 83 141q99 111 223 64q17 -7 61 -20.5t70.5 -26.5t46.5 -33q17 -16 25 -42.5t9.5 -43t0 -59t-1.5 -50.5q0 -75 -4.5 -177t-3.5 -173.5t13 -147.5q6 -36 -15 -45q-4 -2 -7.5 -3t-7.5 -0.5t-6 1t-6.5 3t-6 3.5t-6.5 4.5t-6 4.5q-70 54 -82 63q-44 32 -57.5 80 t8 91.5t71.5 62.5q44 16 55 40t7 71q-7 57 -1 205q1 60 -70 96q-61 32 -114 38t-98 -13.5t-81.5 -51.5t-76.5 -84q-4 -7 -10 -8.5t-9.5 2t-2.5 8.5zM398.5 155.5q-0.5 -16.5 10.5 -30.5q29 -38 70 -43q7 12 8 26.5t-0.5 32t-0.5 26.5q0 3 2 18t2 21t-4.5 15.5t-14.5 14.5 q-21 10 -46 -24q-1 0 -1.5 -0.5t-0.5 -1.5q-12 -16 -18 -27t-6.5 -27.5z" />
<glyph unicode="&#xe28;" horiz-adv-x="650" d="M46 310q0 83 28 177t77 171q3 5 15 24t15.5 24t14.5 21t16 21.5t16 17.5t18 16.5t18 12t21 10.5t22.5 5.5t25.5 2.5q19 0 69 -12t77 -12q15 0 23.5 3t16.5 14.5t13 24t17.5 41t26.5 55.5q28 54 41 86q33 63 58 63q11 0 17 -8.5t6 -16.5t-4 -15t-10 -15t-9 -14 q-12 -25 -37 -72.5t-30.5 -60.5t-18.5 -45.5t-15 -56t-5 -61.5t-3 -91v-33q4 -112 4 -254q0 -49 -1 -147.5t-1 -147.5v-25q0 -42 -31 -42q-30 0 -30 29q0 5 2 17t2 18q-1 68 -1 222q3 288 3 411q0 46 -47 56q-77 17 -116 17q-49 0 -79.5 -28t-74.5 -107q-90 -164 -90 -301 q0 -54 15 -117.5t36 -63.5q17 0 17 20q0 2 -0.5 7.5t-0.5 8.5v-1q-1 3 -1 12q0 4 9 70q5 39 8.5 64.5t11.5 66.5t18 68t24.5 54.5t35.5 41.5t46 14q37 0 54 -20.5t17 -45.5q0 -28 -15 -75v1q-8 -27 -13.5 -40.5t-18 -33t-31.5 -29t-46 -10.5q-37 -3 -37 -67q-4 -32 -11 -172 v-16q0 -16 -1 -25.5t-10.5 -20t-27.5 -10.5q-13 0 -20.5 7.5t-14.5 21t-13 19.5q-91 132 -91 276zM267 388q0 -27 19 -27q42 0 58 88q0 32 -20 32q-29 0 -43 -33.5t-14 -59.5z" />
<glyph unicode="&#xe29;" horiz-adv-x="762" d="M68 691.5q12 78.5 98 123.5q66 34 83 -33q3 -10 13 -36.5t13.5 -40.5t6 -36t-4.5 -42t-22 -41q-6 -7 -10 -18t-6 -19t-3 -23.5t-1 -22v-25v-21.5q1 -78 6 -225t6 -177q37 22 40 26q31 31 48 43.5t37.5 13.5t38 -9.5t51.5 -37.5q4 -3 13 -12t13.5 -12.5t16 -7t20.5 3.5 q32 13 32 71q3 73 2 126q-2 60 -7 73q-14 43 -87 36q-60 -6 -92.5 49.5t-8.5 111.5q33 85 120 66q20 -4 31.5 -17.5t13.5 -24t2.5 -36.5t1.5 -32q1 -12 -7 -55q-1 -5 6 0q22 13 26 13q6 270 6 281q0 5 -0.5 19.5t0.5 21t3.5 16t9.5 14t18 4.5q8 0 14 -1t10.5 -4.5t7 -7 t4 -9.5t2.5 -10.5t0.5 -12t-1 -11.5l-1.5 -12t-1 -10q-15 -142 -12 -223q23 15 55.5 57.5t59.5 56.5q2 -55 -47 -106q-27 -29 -43.5 -63t-23.5 -59.5t-8 -69.5t0.5 -65t6.5 -72q13 -141 -93 -197q-18 -10 -29 -13.5t-24.5 4.5t-22.5 33q-42 107 -128 21q-7 -6 -21 -19 t-22 -19q-1 -1 -5.5 -4.5t-6 -4t-5.5 -3.5t-5.5 -3.5t-5.5 -2.5t-6.5 -2.5t-6 -1.5t-6.5 -0.5t-6.5 1.5t-7.5 2q-8 3 -13 7t-7 11.5t-2.5 11t0 14t0.5 12.5q-2 41 -6.5 127t-7 150.5t-2.5 125.5q0 41 -10.5 69t-39.5 52q-73 64 -61 142.5zM124 671q1 -33 14 -56.5t42 -21.5 q14 1 23 12t17.5 36t11.5 30q-2 5 -8.5 24.5t-10.5 27t-14 16t-23 8.5q-23 -1 -38 -24t-14 -52zM408 486q-2 -19 5 -33.5t22 -16.5q9 -1 17 3.5t15 17t9.5 17.5t8.5 20q4 13 -7.5 25.5t-24.5 14.5q-20 1 -32 -12t-13 -36z" />
<glyph unicode="&#xe2a;" horiz-adv-x="626" d="M56 582q36 129 102 195.5t153 66.5q33 0 78.5 -14t76.5 -28l32 -14q14 17 65 102.5t71 136.5q22 55 34 55q16 0 16 -28q0 -40 -32.5 -115t-69.5 -124q-23 -30 -23 -67q0 -19 1 -55.5t1 -53.5q0 -50 -1.5 -147t-1.5 -145q0 -158 13 -271q0 -10 -3 -20t-7.5 -22t-6.5 -20 q-12 -46 -42 -46q-31 4 -31 34q0 12 2.5 30.5t2.5 22.5q0 15 -2.5 30.5t-9.5 34.5t-10.5 29t-14 32.5t-12.5 27.5q-10 23 -48.5 120.5t-65 155t-38.5 57.5q-14 0 -34 -33q-99 -147 -122 -305q54 45 82 45q35 0 59 -51t24 -110q0 -87 -40 -111h1q-16 -10 -32 -10 q-56 0 -104 76.5t-48 158.5q0 20 5 42q46 189 156 351q34 50 57 50q12 0 26 -16t31.5 -52t28 -60t30.5 -73.5t24 -60.5q11 -28 26 -60.5t25 -52.5l9 -20q16 7 16 26q0 2 -0.5 7.5t-0.5 8.5v358q0 37 -15 59t-52 35q-75 25 -121 25q-69 0 -122.5 -39t-113.5 -127 q-2 -3 -7.5 -11.5t-8.5 -12.5zM172 121q0 -27 13.5 -47t39.5 -20q14 0 20 37q-1 2 -4 17t-7 29t-12.5 26t-18.5 12q-31 0 -31 -54z" />
<glyph unicode="&#xe2b;" horiz-adv-x="740" d="M35 635q0 49 34 110.5t80 61.5q35 0 72.5 -40t37.5 -87q0 -8 -2 -22q-23 -101 -23 -230q0 -41 2.5 -124t2.5 -125v-8q1 -6 1 -32q36 75 122.5 216.5t94.5 155.5q5 7 5 16q0 13 -25 46q-23 42 -23 93q0 65 40.5 108t95.5 43q41 0 71.5 -31.5t30.5 -71.5q0 -61 -40 -101 q-24 -22 -24 -41q14 1 38 -7q20 -6 32.5 -34t12.5 -60q0 -53 -9 -154t-9 -165q0 -22 3.5 -64t3.5 -65q0 -46 -36 -46q-29 0 -29 37q0 58 2.5 122t6 145t5.5 130v25q0 73 -57 73q-23 0 -42.5 -24t-43.5 -67q-5 -8 -26 -41.5t-27 -43.5t-24.5 -40t-26 -43.5l-22.5 -40.5 t-23 -45t-19.5 -43t-20.5 -48.5t-17 -47.5q-5 -15 -7.5 -21.5t-11 -13.5t-20.5 -7q-16 0 -24 9.5t-9 18.5t-1 25v11q-7 162 -7 346q0 36 -10 57.5t-40 38.5q-95 53 -95 146zM98 648q1 -38 16.5 -68.5t40.5 -30.5q23 5 30.5 25t7.5 51.5t4 43.5q2 10 2 16q0 22 -11.5 37 t-32.5 15q-15 0 -25 -6t-15.5 -19t-8 -21t-5.5 -25zM484 662q0 -52 25 -52q30 0 49 28t29 65q-6 43 -37 44q-66 -10 -66 -85z" />
<glyph unicode="&#xe2c;" horiz-adv-x="745" d="M26 687q0 40 24.5 78t66.5 65q14 7 28 7q26 0 59 -40t33 -76q0 -6 -2 -20q-15 -62 -19 -132.5t-4 -156t-3 -133.5q0 -26 7 -91q43 127 111 421q2 7 9 43t11 49q3 10 6 36t10.5 38.5t26.5 12.5q34 0 34 -33q0 -7 -2 -23v1q-1 -6 -1 -18q0 -8 1 -11q71 -314 153 -580 q2 -5 4.5 -11.5t3.5 -7.5q0 66 5.5 229.5t5.5 231.5v42q0 10 -0.5 28t-0.5 27t1 -1v-14l2 -19v3q0 33 -14 54t-54 33q-27 10 -42 35t-15 55q0 59 27.5 88t74.5 29q73 0 82 -62q5 -39 21 -39q12 0 40 26h-1q67 67 88 67q2 0 6 -2l-1 1q6 -3 6 -11q0 -19 -29 -59t-54 -60 q-29 -24 -46.5 -50.5t-24.5 -64.5t-8 -58.5t-2 -69.5l-7 -434q0 -20 -2.5 -40.5t-9 -44.5t-21.5 -39.5t-37 -15.5q-23 0 -30.5 12t-8 38.5t-4.5 38.5q-21 71 -63 241t-77 272q-28 -28 -38 -78q-14 -70 -32 -148.5t-41.5 -173t-35.5 -146.5q-1 -3 -3 -16.5t-4 -20t-9 -13 t-19 -6.5q-15 0 -23 6.5t-9.5 13.5t-1.5 22.5t-1 21.5q-19 124 -19 378v38q0 65 -55 106q-73 54 -73 131zM80 681q0 -29 14 -51.5t39 -22.5q24 0 31.5 16.5t7 43t3.5 35.5v-1q2 16 2 23q0 48 -37 48q-31 0 -45.5 -28.5t-14.5 -62.5zM526 820q0 -20 12.5 -34t29.5 -14 q18 0 31 14t13 34q0 19 -13 33t-31 14q-17 0 -29.5 -14t-12.5 -33z" />
<glyph unicode="&#xe2d;" horiz-adv-x="672" d="M35 586q13 24 31.5 59t32.5 60t28 46q17 25 43 41t53 12q179 -19 327 -86q7 -3 12 -9t8 -11t4.5 -14.5t2 -14t0.5 -16v-14.5q12 -401 13 -538q1 -61 -73 -112q-22 -16 -38.5 -12.5t-31.5 29.5q-45 78 -80 83.5t-94 -57.5q-4 -5 -15 -18.5t-17.5 -19.5t-18.5 -10.5 t-25 -1.5q-12 3 -20 9.5t-12 18t-5 19t-2 23t-1 19.5q-11 104 -13.5 135.5t-6.5 117.5t1 136q2 46 16 76q18 41 50 63.5t73 17.5q16 -2 28 -10.5t18.5 -17t11.5 -26.5t6 -26.5t4 -28.5q20 -140 -104 -159q-32 -5 -43.5 -22.5t-9.5 -50.5q3 -37 7.5 -68.5t7.5 -67.5 q3 -37 17.5 -47t47.5 17q88 84 186 -6q32 -32 52 -29t20 54q0 59 1 153t-0.5 157.5t-7.5 150.5q-1 17 -13.5 41.5t-27.5 37.5q-49 39 -123 56.5t-145 -1.5t-98 -77q-19 -38 -77 -61zM197 463q-5 -26 7.5 -43.5t37.5 -16.5q21 1 33.5 14.5t16 27t7.5 39.5q3 25 -5.5 44.5 t-30.5 20.5q-15 1 -26.5 -5t-17.5 -11.5t-11 -22.5t-6 -22z" />
<glyph unicode="&#xe2e;" horiz-adv-x="673" d="M51 678q-13 71 65 112q92 50 176 23q41 -14 64 -1t48 50q7 10 17 26t20 31.5t21 32.5t20.5 31.5t17 25.5t12.5 17t6 5q13 -25 13 -44t-12.5 -44t-27 -43t-30.5 -41.5t-23 -40.5q-13 -28 -9 -45t33 -24q68 -18 92.5 -59.5t24.5 -121.5q0 -55 2 -155t2 -173.5t-4 -155.5 q-1 -23 -7.5 -39t-21.5 -28t-25 -17.5t-34 -16.5q-14 -7 -24 -7.5t-17.5 5t-12.5 11.5t-12 16t-12 16q-29 31 -70 33t-71 -39q-34 -56 -77 -46q-10 2 -17 7t-11.5 9.5t-7.5 13.5t-3.5 14t-2 16t-2.5 15q-13 69 -14.5 128t2.5 140t4 128q0 55 48 100q48 44 113 22 q28 -10 36 -31.5t7 -54.5q0 -38 -4 -63.5t-16 -52t-37.5 -41.5t-65.5 -19q-33 -4 -32 -33q4 -47 0.5 -73.5t0.5 -60.5t22 -75q106 114 220 23q33 -26 50.5 -26.5t24 14.5t12.5 53q11 66 12 134t-4 119t-10 123t-5 132q0 28 -37.5 49.5t-78 22t-66.5 -18.5 q-48 -49 -90.5 -71.5t-98.5 -11.5q-83 16 -93 75zM121 686q14 -31 59 -24q73 10 123 75q-11 8 -21.5 13t-22.5 6t-20 1t-22 -3.5t-19.5 -5t-21 -7.5t-19.5 -7q-50 -17 -36 -48zM194 424q-2 -21 9 -34t30 -9q10 2 17.5 5.5t13.5 10.5t10 11.5t7.5 15.5t5 15t4.5 17.5t4 16.5 q-1 3 -2.5 10t-2 10t-3 9t-5.5 6.5t-8 3.5t-12 -1q-61 -14 -68 -87z" />
<glyph unicode="&#xe2f;" horiz-adv-x="719" d="M62 648q3 86 81 124h-1q38 16 65 15q42 -1 67 -30t24 -65q0 -13 -7 -43.5t-8 -52.5q-2 -30 11 -48q127 39 148 164v-1q1 3 3 24t7 29.5t17 8.5q43 0 85 -20t45 -58q1 -77 -2 -436l-1 -216q-1 -50 -26.5 -83.5t-71.5 -59.5q-7 -4 -19 -7q-5 0 -9 9t0 13q66 87 71 213 q2 57 0.5 168t-0.5 167q5 55 1 140.5t-25 100.5q-38 -94 -114 -161t-168 -64q-69 2 -121.5 53.5t-51.5 115.5zM128 662q-1 -21 14.5 -43t30 -34t17.5 -12l22 12l18 69q8 26 -1.5 47t-37.5 22q-26 1 -44 -17t-19 -44z" />
<glyph unicode="&#xe30;" horiz-adv-x="538" d="M60 206q5 46 24 71.5t62 19.5q56 -7 91.5 -50.5t23.5 -86.5q-3 -9 -8 -19.5t-14.5 -26t-14.5 -25.5q40 7 72.5 23.5t58.5 43t43 48t42.5 58t38.5 54.5q-17 -102 -61 -171.5t-131 -103.5q-61 -19 -113.5 -3.5t-86 63t-27.5 105.5zM60 606q5 46 24 71.5t62 19.5 q56 -7 91.5 -50.5t23.5 -86.5q-3 -9 -8 -19.5t-14.5 -26t-14.5 -25.5q40 7 72.5 23.5t58.5 43t43 48t42.5 58t38.5 54.5q-17 -102 -61 -171.5t-131 -103.5q-61 -19 -113.5 -3.5t-86 63t-27.5 105.5zM120 186q1 -15 3.5 -24t11 -15.5t23.5 -5.5q33 5 37 44q0 43 -36 45 q-20 1 -29.5 -11t-9.5 -33zM120 586q1 -15 3.5 -24t11 -15.5t23.5 -5.5q33 5 37 44q0 43 -36 45q-20 1 -29.5 -11t-9.5 -33z" />
<glyph unicode="&#xe31;" d="M-397 1144q-24 84 35 131q65 51 117 8q38 -29 51.5 -67t-2.5 -81q-13 -29 -12.5 -47.5t11.5 -25t28 -9t37 0.5q137 16 219 163q6 12 18 35t20 37.5t21 33.5t28 34q-3 -84 -30.5 -153.5t-73 -115.5t-103 -71.5t-124 -24t-132.5 30.5q-84 35 -108 121zM-334 1168 q2 -22 15.5 -36.5t36.5 -13.5q30 1 35 53q0 22 -12.5 39.5t-32.5 18.5q-19 2 -31.5 -18.5t-10.5 -42.5z" />
<glyph unicode="&#xe32;" horiz-adv-x="601" d="M76 642q0 70 62 121.5t130 51.5q46 0 107 -28q78 -36 109 -89t31 -127q0 -35 -7 -121t-7 -130q0 -32 1 -96.5t1 -95.5q0 -16 -1 -51.5t-1 -50.5v-17v-11q0 -38 -29 -38q-30 0 -30 30q0 7 2 23q3 19 3 44t-1.5 57t-1.5 47v286q0 111 7 177q-3 34 -70 80t-114 46 q-8 0 -12 -1q-70 -14 -108.5 -60t-48.5 -133l-4 -1q-18 48 -18 87z" />
<glyph unicode="&#xe33;" horiz-adv-x="587" d="M-299 1147q0 62 36 99.5t95 39.5q84 0 117 -30t34 -110q1 -59 -33 -99t-85 -41q-73 0 -118 39t-46 102zM-241 1149q5 -78 94 -82q38 -1 57.5 22t20.5 66q-4 36 -20 57t-51 16q-4 -1 -22 -3t-25 -3.5t-20.5 -7t-19 -13t-10.5 -21t-4 -31.5zM76 642q0 70 62 121.5t130 51.5 q46 0 107 -28q78 -36 109 -89t31 -127q0 -35 -7 -121t-7 -130q0 -32 1 -96.5t1 -95.5q0 -16 -1 -51.5t-1 -50.5v-17v-11q0 -38 -29 -38q-30 0 -30 30q0 7 2 23q3 19 3 44t-1.5 57t-1.5 47v286q0 111 7 177q-3 34 -70 80t-114 46q-8 0 -12 -1q-70 -14 -108.5 -60t-48.5 -133 l-4 -1q-18 48 -18 87z" />
<glyph unicode="&#xe34;" d="M-707 1124.5q0 10.5 4 16.5t12.5 17t11.5 15q5 8 17 20q48 50 80 79t66.5 48t61 21.5t64.5 -8.5t75 -32.5t95 -60.5q8 -5 63 -47q35 -26 50 -37t34 -30t24 -25.5t8.5 -26t0.5 -27.5t-15 -34.5t-22.5 -43t-34.5 -56.5q-2 3 -4 5t-3 3.5t-2 2.5t-1 2q-22 54 -84.5 103 t-137.5 75.5t-152.5 33t-128.5 -23.5q-3 -2 -18 -11.5t-20.5 -11.5t-16.5 0t-20 14q-7 9 -7 19.5zM-524 1216q31 -1 59.5 -6t58.5 -16.5t50 -20t51.5 -28t44.5 -27.5t48.5 -33t44.5 -31q4 -3 11 -10t12 -10.5t12 -3.5t14 7q24 27 -17 57q-150 118 -235 163 q-41 23 -79.5 14.5t-74.5 -55.5z" />
<glyph unicode="&#xe35;" d="M-705 1077q-17 20 13 55q128 138 167 175q45 44 112 15q20 -9 42.5 -21.5t38.5 -22t41 -26t36 -24.5t39.5 -28.5t36.5 -25.5q4 -2 11 -8t10.5 -8.5t11 -5t12.5 1.5q11 5 14 12.5t0 23.5t-3 18q-2 19 -5 56.5t-4 56.5q-2 15 5 26t21 11q25 0 29 -36q17 -194 23 -277 q8 -63 -73 -106q-15 -10 -24.5 -5t-13 12.5t-8 20t-9.5 17.5q-18 18 -58 34q-126 58 -191 82q-51 24 -109 24t-105 -39q-12 -10 -19.5 -14.5t-19 -4.5t-21.5 11zM-539 1183q82 -7 223 -72t179 -76q24 19 -5 43q-124 108 -284 179q-43 18 -68 -3.5t-45 -70.5z" />
<glyph unicode="&#xe36;" d="M-726 1123q-24 29 6 54t85 82t94 85q44 32 109 -2q76 -36 107 -56q25 -15 40.5 -23t37 -14t36.5 -2t32 19.5t32 44.5q14 27 46 31t55 -12q101 -57 104 -172q4 -36 -37 -82q-9 -10 -28 -28.5t-29.5 -30t-22 -31t-15.5 -40.5q-3 -14 -16.5 -22.5t-30.5 -10.5 q-10 -1 -16.5 0t-10.5 5.5t-6 6.5t-4.5 9.5t-3.5 9.5q-20 54 -76.5 104t-125 79.5t-142 39t-128.5 -18.5q-8 -4 -23 -12.5t-23 -12.5q-33 -18 -46 0zM-545 1238q119 -12 221 -69t199 -161q-35 85 -162 182t-194 95q-54 -4 -64 -47zM-150 1223q-5 -27 16 -58q20 -31 30 -41 q7 -5 16 -20t17.5 -23t20.5 -4q11 4 18.5 13.5t9.5 17.5t5 24.5t4 20.5q5 44 -16 70q-3 5 -11.5 18.5t-13.5 19t-14.5 12.5t-20.5 5.5t-25 -10.5q-31 -18 -36 -45z" />
<glyph unicode="&#xe37;" d="M-828 1141q1 5 1.5 8t5 8t5.5 7t7.5 7.5t7.5 6.5q26 24 38 36l49 49q26 27 37 38t30 25.5t26.5 18t26 4.5t29 -4t34.5 -17.5t43.5 -26t55.5 -39.5q29 -21 84 -60t81 -58q16 30 18.5 61.5t-1.5 50.5t-15 51q-9 17 -9 32t24 20q45 10 50 -33q2 -13 10 -121q1 -12 1 -41 t1.5 -49.5t6.5 -38.5q20 -83 -40 -123q-15 -10 -30.5 -11.5t-32 7.5t-26 16t-26.5 21q-14 12 -41 35.5t-38 32t-32.5 22.5t-44 21.5t-53.5 13.5q-45 9 -76 13t-71.5 2t-75.5 -13q-39 -15 -53 8q-4 5 -6 10t-1 10zM-678 1191q133 -7 216.5 -50t191.5 -148q24 53 -20 85 q-34 25 -75.5 61t-77.5 62.5t-83 50.5q-37 21 -65.5 17t-47.5 -22.5t-39 -55.5zM-108 1323q0 15 1 23.5t9.5 17t24.5 6.5q7 -1 12 -3.5t7 -5.5t3 -9t1.5 -9.5t0 -10.5t-0.5 -10v-148q5 -48 3 -156l-1 -8v-9.5t-1 -8t-3 -8.5t-4.5 -6t-7 -5t-10.5 -1q-26 1 -28 40 q-1 35 -2.5 98t-2.5 115t-1 98z" />
<glyph unicode="&#xe38;" d="M-333 -302q16 55 43.5 83.5t81.5 24.5q26 -3 39 -18.5t21 -44.5q9 -34 8.5 -94.5t4.5 -90.5v-162q0 -14 -1 -21t-8 -14.5t-20 -6.5q-5 0 -9.5 2t-7 3t-4.5 5l-3 6t-1.5 7.5t-0.5 7v8.5v7v70q2 21 0.5 38.5t-7.5 31t-23 22t-46 10.5q-46 4 -64 41t-3 85zM-277 -322 q-1 -22 6.5 -34t29.5 -11q18 1 26 10t8 22.5t-1 30.5q-6 8 -2.5 20.5t-0.5 23.5t-20 10q-42 -1 -46 -72z" />
<glyph unicode="&#xe39;" d="M-424 -309q10 50 37 83.5t71 37.5q30 3 47.5 -12.5t22 -37t3.5 -51.5q0 -115 -9 -181q-10 -69 77 -88q14 -3 21.5 2.5t9 17.5t0.5 23t-3.5 23t-2.5 14q1 41 -4.5 119t-5.5 89q0 16 -0.5 32.5t9 28.5t29.5 11q14 -1 21 -9t7 -16.5t-1.5 -24.5t-1.5 -21v-41v-48.5v-40.5 q0 -38 7 -157q3 -49 -52 -82q-23 -11 -35.5 -4.5t-24.5 29.5q-4 8 -7.5 10.5t-7.5 1t-7 -4.5t-8 -8.5t-7 -7.5q-60 -56 -69 30q-4 58 -1 87q4 32 -5 47.5t-43 24.5q-42 9 -59 43.5t-8 80.5zM-371 -325q-2 -23 6 -37.5t27 -10.5q13 3 20.5 12t10 17.5t4.5 24.5t3 22 q-2 10 0 21.5t-3 19t-19 4.5q-43 -9 -49 -73z" />
<glyph unicode="&#xe3a;" d="M-280 -249q-1 18 2 32t7.5 23.5t14 17t17.5 11.5t21.5 7t22 4.5t23.5 3t21 2.5q44 8 65.5 -19.5t25.5 -72.5q-2 -56 -27 -85.5t-73 -28.5q-113 5 -120 105z" />
<glyph unicode="&#xe3b;" />
<glyph unicode="&#xe3c;" />
<glyph unicode="&#xe3d;" />
<glyph unicode="&#xe3e;" />
<glyph unicode="&#xe3f;" horiz-adv-x="894" d="M96 96q0 82 8 719q0 33 12.5 47t41.5 14q19 0 47 -1.5t37 -1.5q57 0 67.5 22.5t10.5 117.5q0 2 -1 20t-1.5 34.5t1 35t8 30t16.5 11.5q28 0 28 -41q0 -20 0.5 -58t0.5 -57q0 -13 -1.5 -40t-1.5 -39q0 -29 17 -39.5t62 -10.5q66 0 66 55q0 8 -4 34q-11 66 -11 147 q0 42 29 42q27 0 27 -39q0 -10 -0.5 -31t-0.5 -32q0 -22 2 -33q1 -10 3 -43t5 -47.5t11 -39t24.5 -42.5t42.5 -34q84 -53 84 -149q0 -83 -65 -150q-20 -20 -20 -33q0 -12 26 -32q67 -52 102.5 -115.5t35.5 -122.5q0 -64 -41 -117.5t-120 -89.5q-36 -16 -50.5 -37.5 t-14.5 -56.5q0 -71 -9 -174q-5 -42 -32 -42q-28 0 -28 31q0 35 9 105t9 105q0 33 -30 33q-4 0 -15.5 -1t-18.5 -1q-6 0 -20 0.5t-21 0.5q-37 0 -52.5 -19.5t-15.5 -83.5q0 -20 1 -59.5t1 -64.5q0 -44 -26 -44q-11 0 -18 4t-9.5 12.5t-3 15t0.5 19.5t1 18q0 27 6 76t6 64 q0 31 -19.5 45.5t-62.5 18.5q-39 4 -56.5 5.5t-36.5 8.5t-24.5 13.5t-11.5 25t-6.5 36.5t-0.5 55zM143 84q0 -22 7.5 -37.5t17 -23t29 -11.5t32 -4.5t37.5 -0.5q49 0 49 42q0 9 -1.5 26t-1.5 26q0 11 4 53.5t5 42.5q0 115 -1 138q-1 31 -15 46.5t-30.5 17.5t-41.5 3t-37 4 q-12 2 -16 2q-12 0 -20 -5.5t-11 -18t-3.5 -21.5t-0.5 -25q0 -25 1.5 -75t1.5 -75q0 -18 -2.5 -52.5t-2.5 -51.5zM146 522q0 -28 11 -38t40 -13q63 -9 77 -9q29 0 36.5 18t7.5 76v84q0 8 2.5 48t2.5 63q0 57 -49 57q-8 0 -23 -1.5t-22 -1.5q-8 0 -21 2.5t-19 2.5 q-43 0 -43 -51q0 -19 0.5 -59.5t0.5 -60.5q0 -19 -0.5 -58t-0.5 -59zM355 72q0 -36 15.5 -49t58.5 -13q55 0 78.5 13.5t23.5 62.5q-1 8 -1 25q0 16 1 33.5t2.5 38.5t2.5 33q-3 49 -3 147q0 13 -0.5 18.5t-4.5 13.5t-14.5 11t-27.5 3q-47 0 -80 -32.5t-35 -81.5 q-1 -25 -8.5 -103.5t-7.5 -119.5zM368 509q0 -13 1.5 -20t7 -14.5t19 -11t35.5 -3.5q47 0 71.5 28.5t24.5 82.5q0 32 -3 76.5t-3 63.5q0 52 -21 68t-74 16q-16 0 -27.5 -5.5t-16.5 -10t-8 -19t-3.5 -19.5t-0.5 -24q-2 -70 -2 -208zM566 734q0 -6 4 -20.5t4 -21.5 q0 -8 -6 -16q1 -10 2 -36t2.5 -42.5t4 -35.5t8 -29t13.5 -10q20 0 44.5 43.5t24.5 74.5q0 28 -22 70.5t-52 42.5q-27 0 -27 -20zM579 59q0 -30 28 -30q7 0 14 3.5t16 10t13 8.5q84 56 84 157q0 53 -27 99.5t-78 74.5q-17 9 -26 9q-11 0 -14 -11t-3 -36t1.5 -73t1.5 -71 q0 -60 -10 -103q1 -4 1 -12q0 -5 -0.5 -13.5t-0.5 -12.5z" />
<glyph unicode="&#xe40;" horiz-adv-x="323" d="M73 125q0 9 1 14q13 95 13 212q0 31 -1 94t-1 96q0 112 13 196q1 5 1.5 22t2.5 25.5t9.5 17t21.5 8.5q31 0 31 -23q0 -34 -11 -60q0 -31 -5 -168t-4 -180v-7q0 -19 1 -28.5t6 -22t17.5 -19.5t32.5 -10q38 -5 55.5 -37.5t17.5 -72.5q0 -126 -83 -191q-22 -18 -47 -18 q-41 0 -53 56q-1 7 -7 29.5t-8.5 37.5t-2.5 29zM144 203q0 -13 11 -160q0 -10 1 -15q59 82 59 139q0 27 -9.5 49.5t-29.5 22.5q-32 0 -32 -36zM153 24q1 0 2 2l1 2q0 -4 1 -5z" />
<glyph unicode="&#xe41;" horiz-adv-x="624" d="M73 125q0 9 1 14q13 95 13 212q0 31 -1 94t-1 96q0 112 13 196q1 5 1.5 22t2.5 25.5t9.5 17t21.5 8.5q31 0 31 -23q0 -34 -11 -60q0 -31 -5 -168t-4 -180v-7q0 -19 1 -28.5t6 -22t17.5 -19.5t32.5 -10q38 -5 55.5 -37.5t17.5 -72.5q0 -126 -83 -191q-22 -18 -47 -18 q-41 0 -53 56q-1 7 -7 29.5t-8.5 37.5t-2.5 29zM144 203q0 -13 11 -160q0 -10 1 -15q59 82 59 139q0 27 -9.5 49.5t-29.5 22.5q-32 0 -32 -36zM153 24q1 0 2 2l1 2q0 -4 1 -5zM373 125q0 9 1 14q13 95 13 212q0 31 -1 94t-1 96q0 112 13 196q1 5 1.5 22t2.5 25.5t9.5 17 t21.5 8.5q31 0 31 -23q0 -34 -11 -60q0 -31 -5 -168t-4 -180v-7q0 -19 1 -28.5t6 -22t17.5 -19.5t32.5 -10q38 -5 55.5 -37.5t17.5 -72.5q0 -126 -83 -191q-22 -18 -47 -18q-41 0 -53 56q-1 7 -7 29.5t-8.5 37.5t-2.5 29zM444 203q0 -13 11 -160q0 -10 1 -15q59 82 59 139 q0 27 -9.5 49.5t-29.5 22.5q-32 0 -32 -36zM453 24q1 0 2 2l1 2q0 -4 1 -5z" />
<glyph unicode="&#xe42;" horiz-adv-x="705" d="M-45.5 1311q-1.5 5 0.5 10.5t4 9t6.5 9.5t6.5 8q4 6 15.5 14.5t14.5 12.5q46 64 99.5 100.5t104.5 47.5t112 1t113.5 -29.5t118.5 -52.5q50 -24 73 -32.5t48.5 -2.5t42.5 22.5t53 58.5q3 3 17.5 22t26 28t27.5 12q-12 -57 -36 -102t-62.5 -76.5t-88.5 -31.5t-114 34 q-29 18 -65 32t-83 29t-70 24q-111 41 -172 -57q12 -1 50.5 -4t52.5 -4.5t48.5 -5t51 -6.5t46.5 -8t49.5 -11.5l45 -15t47.5 -19t44 -23.5q68 -43 12 -70q-50 -24 -72.5 -63t-22.5 -81.5v-94.5q8 -324 -3 -644q-1 -22 -1.5 -39t8 -32.5t27.5 -29.5q70 -53 68 -137.5 t-73 -138.5q-24 -22 -45 -20t-38 35q-44 90 -33 146q22 95 27.5 212.5t1 212.5t0.5 213q6 170 -3 296q-6 65 13.5 114t71.5 90q-30 8 -97 28t-105 28t-94 14t-106 -6t-99 -40q-37 -23 -58 2q-5 6 -6.5 11zM486 184q0 -43 2 -129q0 -10 5.5 -17t12.5 -5q39 14 41 71 q2 66 -37 98q-24 0 -24 -18z" />
<glyph unicode="&#xe43;" horiz-adv-x="717" d="M-24 1351q13 71 54 120q102 124 294 197q96 38 173 -40q55 -55 212 -188q19 -17 27 -30.5t2 -29t-31 -29.5q-69 -40 -104 -97.5t-39.5 -122.5t0.5 -144q5 -74 5.5 -163t-1 -155.5t-5 -166t-4.5 -157.5q-2 -18 -1 -35t5.5 -31t18.5 -26t38 -20q37 -14 48.5 -64 t-5.5 -102.5t-55 -75.5q-70 -41 -86.5 -32t-16.5 88q0 147 1 441.5t1 441.5q0 84 -6 126q-15 100 7.5 173.5t102.5 123.5q38 24 38 47.5t-36 50.5q-78 65 -122 114q-87 91 -203 23q-109 -67 -187 -138q-40 -36 -54 -93q-27 -97 69 -163q73 -50 152 34q-9 7 -36 20t-37 27 q-43 62 -19 108q25 47 87 39q66 -8 84 -68q14 -56 -4.5 -117t-61.5 -93q-88 -68 -195 -7q-62 35 -92.5 95.5t-17.5 118.5zM226 1339q4 -36 38 -36q15 -1 22 6.5t4 23.5q-3 36 -34 36q-33 0 -30 -30zM553 117q12 -11 6 -28t-3 -31.5t25 -13.5q14 0 23 7t12.5 24.5t4 25 t1.5 29.5q4 73 -42 68q-19 -2 -23 -16t-0.5 -31t-3.5 -34z" />
<glyph unicode="&#xe44;" horiz-adv-x="589" d="M-229 1394q4 122 65.5 190t143.5 44q125 -40 203 -137q19 -23 28.5 -35t22.5 -24t18.5 -16t15.5 -3.5t15.5 5t16.5 17t19 25.5t23 38q18 31 34 43t35.5 6.5t44.5 -32.5q42 -46 84 -60q35 -12 46 -29t4 -34.5t-28 -42.5q-7 -8 -18 -24.5t-21.5 -28.5t-21.5 -20 q-60 -48 -76.5 -110.5t-16.5 -159.5q1 -84 -7 -635q0 -6 -1 -22t-0.5 -22.5t2 -19.5t6 -20t11.5 -15.5t20 -14t30 -9.5q41 -9 55.5 -71.5t-10.5 -102.5q-18 -31 -35 -44q-9 -6 -20.5 -19.5t-19.5 -23.5t-19.5 -20t-20.5 -10t-23 8q-25 21 -41 64t-10 83q23 131 27.5 279 t0 331t-1.5 280q2 61 6 98t15.5 85t37 85.5t66.5 69.5q10 7 16.5 12t14.5 15t8.5 18t-6.5 19t-25 21q-9 5 -24 17t-25 18.5t-23.5 9.5t-26 -7.5t-25.5 -34.5q-2 -5 -4 -7q-18 -29 -26 -42.5t-20.5 -28.5t-17.5 -19.5t-16.5 -5.5t-17.5 3t-20.5 17.5t-25 26t-32.5 39.5 q-28 34 -46 54t-47.5 44t-60.5 39q-69 34 -115 21t-87 -78q-1 -1 -53 -97zM403 32q55 34 71 65.5t-4 80.5q-5 11 -6.5 13.5t-6.5 9.5t-10.5 8.5t-14.5 -0.5q-25 -4 -29 -41v-136z" />
<glyph unicode="&#xe45;" horiz-adv-x="601" d="M76 642q0 70 62 121.5t130 51.5q46 0 107 -28q78 -36 109 -89t31 -127q0 -35 -7 -121t-7 -130q0 -32 1 -406.5t1 -405.5q0 -16 -1 -51.5t-1 -50.5v-17v-11q0 -38 -29 -38q-30 0 -30 30q0 7 2 23q3 19 3 44t-1.5 57t-1.5 47v906q0 111 7 177q-3 34 -70 80t-114 46 q-8 0 -12 -1q-70 -14 -108.5 -60t-48.5 -133l-4 -1q-18 48 -18 87z" />
<glyph unicode="&#xe46;" horiz-adv-x="757" d="M75 575q5 36 29 77t56 70t66.5 39.5t61.5 -13.5q28 -24 40 -33t28.5 -17t29 -2.5t28.5 17.5t39 37q27 29 79.5 -9.5t86 -104t14.5 -105.5q-26 -52 -38.5 -117t-14.5 -107.5t-2 -120.5q-1 -134 0 -243t-0.5 -243t-7.5 -243q-1 -23 -8 -47.5t-14 -40.5t-19.5 -42.5 t-18.5 -39.5q0 -1 -4 -15.5t-9.5 -19.5t-17.5 -1q-10 3 -14 9.5t-3 13t4 16.5t3 15q2 30 21.5 90t21.5 93q6 126 6.5 358t1.5 294q0 33 -2 97t-2 100.5t11 89.5t35 99q21 45 8 82.5t-50 58.5q-46 37 -92 -25q-4 -5 -8 -11.5t-7.5 -11t-9.5 -8.5q-28 -18 -49.5 -10t-33.5 35 q-13 30 -37 43t-47 9.5t-38 -18.5q-64 -40 -55 -116q52 74 91 74t93 -72q2 -2 7.5 -9t8.5 -11q-3 -71 -28 -94.5t-89 -16.5q-67 7 -112.5 52t-38.5 98zM196 535q8 -53 54 -56q17 -1 25 8.5t6 26.5q-3 44 -51 57q-19 0 -28 -10.5t-6 -25.5z" />
<glyph unicode="&#xe47;" d="M-586 1232q54 142 192 134q107 -3 128 -4q36 -2 49 -2.5t31.5 3.5t23 8t13 20.5t11 31.5t9.5 50q6 32 12.5 53t19.5 44.5t36 38t56 20.5q-48 -57 -65 -123.5t-24 -161.5q-6 -68 -69 -54q-36 7 -104 6.5t-101 5.5q-114 19 -168 -100q-8 -18 -8.5 -34.5t3.5 -28t14.5 -25 t19.5 -21.5t23.5 -20.5t22.5 -20.5q30 46 43 59q20 20 31.5 29t28 14.5t30.5 -7.5t27 -43q33 -69 97 -76q21 -3 38.5 8t23.5 32q4 17 -3 22t-18 2t-20 0q-25 7 -39 13t-26 22t-12 40q2 78 63 103q61 24 108 -47q32 -50 15 -137t-69 -113q-11 -6 -22.5 -8t-20.5 -2.5t-21 3 t-18.5 6t-19.5 10.5t-17.5 11t-18.5 13.5t-17 12.5q-6 5 -13 17.5t-10 16.5q-2 2 -7.5 9t-9 10t-9 7t-12 3.5t-13.5 -4.5q-36 -20 -17 -63q14 -27 9 -38q-3 -6 -9 -11q-7 -5 -15 -5t-11.5 1t-13.5 7t-12 7q-59 41 -94 71q-93 84 -51 185zM-207 1168q1 -30 39 -26 q12 3 18.5 5t12 10t4.5 22q-9 27 -37 28q-19 0 -29 -10.5t-8 -28.5z" />
<glyph unicode="&#xe48;" d="M-139 1801q0 16 1 24.5t9.5 17t25.5 6.5q12 -1 18 -8.5t6.5 -13.5t-0.5 -18v-156q4 -36 4 -91q0 -11 -0.5 -33t-0.5 -32v-6q-1 -13 -2 -19.5t-7.5 -14t-18.5 -7.5q-27 1 -29 41q-1 17 -1 52t-1 53q-2 55 -4 205z" />
<glyph unicode="&#xe49;" d="M-435 1511q-4 23 11 34.5t40.5 19t35.5 16.5q7 6 43 28q-57 67 -54 132t66 106q77 51 136 1q26 -23 25.5 -88.5t-24.5 -98.5q-16 -22 -40.5 -43t-61 -49t-52.5 -41q62 -10 113.5 -9t87.5 6t71 27.5t53.5 36t46 53.5t37.5 57t37 69q6 10 9 16t8 15t9 17q18 -45 3 -86 q-71 -180 -178.5 -238.5t-311.5 -24.5q-9 1 -31 1.5t-35.5 2t-27 11.5t-16.5 29zM-298 1728q-3 -26 10.5 -41t36.5 -13q13 1 22.5 4.5t14.5 7t9.5 13.5t6 13.5t4 17t3.5 16.5q5 22 -5.5 42t-34.5 17q-59 -6 -67 -77z" />
<glyph unicode="&#xe4a;" d="M-567.5 1635.5q-4.5 100.5 87.5 163.5q74 53 139 -12q3 -3 9 -11t10.5 -12t11.5 -4t15 7q16 15 26 22.5t25 15t31.5 5.5t34.5 -12q27 -17 45 -103t18 -154l4 204q2 192 23 282q30 -18 26 -99q2 -48 3.5 -137t4.5 -158q4 -94 -11.5 -127.5t-80.5 -42.5q-4 -1 -16.5 -3.5 t-18 -2.5t-13.5 3t-13 11q-6 7 -4 15.5t4.5 12t9.5 11t10 11.5q14 19 21 37t5 40t-4.5 33.5t-12.5 41.5t-13 41q-6 25 -31 22q-22 -2 -59 -57.5t-26 -75.5q41 -79 -19 -122q-67 -50 -141 -5q-96 59 -100.5 159.5zM-497 1605q2 3 15 21t18.5 23t17.5 15t24 12t28 0 q4 -1 12.5 -5t14 -6t12 1.5t10.5 14.5q3 10 0 18.5t-11.5 20t-10.5 14.5q-19 37 -55 28q-37 -11 -61.5 -61t-13.5 -96zM-446 1580q1 -24 16.5 -41.5t40.5 -24.5q17 -4 30 7t18 33q-10 58 -52 64q-22 4 -37.5 -6t-15.5 -32z" />
<glyph unicode="&#xe4b;" d="M-325 1691q1 17 10.5 25.5t18.5 9.5t29 -0.5t25 -1.5q30 -5 44 -6t31 0t22.5 8.5t10 22.5t2 38t-9.5 59q-8 45 25 47q21 1 31 -12.5t8 -32.5q-5 -37 -6 -62.5t3.5 -40t10.5 -23t17.5 -10.5t21.5 -1.5t25.5 2t26.5 0.5q46 -2 56 -15q8 -10 6 -26q-5 -36 -65 -24 q-56 15 -74.5 2t-25.5 -78q-1 -9 1 -26t3 -31t0.5 -27.5t-7 -21.5t-19.5 -8q-17 1 -26.5 8t-11 20.5t-0.5 25t4 28.5t4 24q5 37 5 59.5t-21 30t-75 1.5q-9 -2 -17 1q-16 5 -34.5 1t-33.5 3t-15 31z" />
<glyph unicode="&#xe4c;" d="M-371 1543q-16 62 12.5 113t88.5 102q74 63 162 8q27 -17 46 -17t30 12.5t23 39.5q73 164 213 251q3 2 14.5 9.5t16.5 9.5t14.5 5.5t18.5 2t19 -6.5q-1 -11 -7 -20.5t-9.5 -13t-16.5 -12.5l-14 -10q-165 -126 -219 -278q-9 -27 -15 -42.5t-15.5 -25t-15 -12t-21 3 t-27 12.5t-37.5 24q-76 50 -123 6q-14 -12 -20 -18l-18 -18t-17.5 -20t-12.5 -20.5t-9 -23.5t-2.5 -25.5t3.5 -29.5q8 -35 36 -43q10 -2 16.5 1t9.5 7t6.5 13t5.5 13q43 86 122 47q42 -20 55.5 -56.5t-2.5 -77.5q-15 -40 -49 -57t-74 -2q-33 12 -48.5 18t-43.5 20.5 t-43.5 27.5t-31 35t-21.5 48zM-202 1482q1 -16 12 -28t30 -11q54 11 52 53q-2 48 -48 42q-23 -2 -35 -17.5t-11 -38.5z" />
<glyph unicode="&#xe4d;" d="M-309 1147q0 62 36 99.5t95 39.5q84 0 117 -30t34 -110q1 -59 -33 -99t-85 -41q-73 0 -118 39t-46 102zM-251 1149q5 -78 94 -82q38 -1 57.5 22t20.5 66q-4 36 -20 57t-51 16q-4 -1 -22 -3t-25 -3.5t-20.5 -7t-19 -13t-10.5 -21t-4 -31.5z" />
<glyph unicode="&#xe4e;" d="M-389.5 1190q18.5 39 80.5 78q7 4 12.5 10.5t7.5 10t5.5 14t4.5 12.5q18 47 41.5 72t69.5 20q42 -4 56 -5.5t33.5 5.5t29 17.5t35.5 40.5q10 -94 -15 -119.5t-105 -1.5q-28 11 -52 6t-36 -34q-4 -15 -5.5 -23t5.5 -14t13.5 -9t16.5 -7t16 -8q7 -5 21.5 -11.5t23.5 -11.5 t19.5 -13.5t10 -17.5t-5.5 -24q-6 -11 -14 -14.5t-20.5 0.5t-20.5 7.5t-23.5 13.5t-19.5 12q-31 18 -56 22q-43 7 -74 -42q-3 -5 -5.5 -10t-2.5 -10v-8.5t2.5 -8.5t3.5 -7.5t5.5 -7.5t5.5 -6.5t7 -7t7 -6.5q44 -45 124 -42q15 5 32.5 1t14.5 -30q-3 -44 -47 -49t-112.5 35.5 t-86.5 83.5q-21 48 -2.5 87z" />
<glyph unicode="&#xe4f;" horiz-adv-x="801" d="M64 428q0 140 99 238t237 98q137 0 237.5 -97t100.5 -239q0 -141 -98.5 -238.5t-239.5 -97.5q-140 0 -238 98t-98 238zM113 428q0 -118 83 -202.5t204 -84.5t204 84.5t83 202.5t-85 202.5t-202 84.5q-118 0 -202.5 -84.5t-84.5 -202.5zM195 428q0 86 59.5 145.5 t145.5 59.5q87 0 147 -59.5t60 -145.5t-60 -145.5t-147 -59.5q-86 0 -145.5 59.5t-59.5 145.5z" />
<glyph unicode="&#xe50;" horiz-adv-x="722" d="M39 266q0 53 30 136q41 78 142 137t195 59q118 0 195.5 -87.5t77.5 -203.5q0 -85 -45 -152q-94 -143 -223 -143q-47 0 -95 17q-123 17 -200 85t-77 152zM106 304q0 -86 56 -137t182 -79q6 0 32 -5.5t44 -5.5q86 0 137.5 72t51.5 183q0 100 -58 153.5t-155 53.5 q-95 0 -191.5 -80t-98.5 -155z" />
<glyph unicode="&#xe51;" horiz-adv-x="707" d="M42 336q0 105 92 181t198 76q136 0 257 -146q62 -75 62 -155q0 -91 -80 -164q-1 -1 -9 -8.5t-18 -17.5q-142 -140 -246 -150q109 78 183 157q8 7 19.5 19t21.5 23q57 62 57 127q0 52 -45 113t-106.5 101.5t-107.5 40.5q-57 0 -137 -66t-80 -119q0 -10 5.5 -20.5t12 -19.5 t21 -27t25.5 -33q13 56 55.5 100t82.5 44q49 0 92 -43.5t43 -91.5q0 -59 -41.5 -99.5t-95.5 -31.5q-37 7 -99 29q-48 17 -105 78.5t-57 102.5zM237 250q0 -54 69 -57q63 17 63 59q0 29 -18.5 47t-46.5 18h-5q-30 0 -46 -18.5t-16 -48.5z" />
<glyph unicode="&#xe52;" horiz-adv-x="847" d="M64 416q0 64 14 152q14 78 31 139q36 140 40 227q4 108 -45 230l11 10q82 -43 88 -130q3 -39 3 -78q0 -155 -49 -319q-30 -101 -30 -202q0 -97 30 -188v1q29 -85 78 -132h-1q28 -26 49 -26q18 0 37 15q45 38 96 38q45 0 91 -27q31 -17 61 -17t99 27q27 10 43.5 24 t21.5 30t7 35t0 37q0 5 -0.5 15t-0.5 14q1 16 -2 78q-2 40 -2 63q0 26 -13.5 46.5t-27.5 30t-40 24.5q-15 9 -17 10q-18 8 -27 8t-18.5 -7t-13 -12t-13.5 -20q-2 -2 -5 -6.5t-4 -6.5h1q-26 -35 -48 -35q-23 0 -52 37q-2 3 -5 8t-4 7q-25 39 -44 39q-11 0 -31 -14 q-85 -69 -85 -131q0 -14 4 -29q6 -23 20 -23q12 0 24 21q37 60 80 60q27 0 53 -22q39 -30 39 -77q0 -38 -23 -77q-21 -39 -52 -36q-100 3 -168 89q-40 54 -40 96q0 34 21 67q26 41 73 92q52 60 82 60t83 -50q26 -24 35 -24q8 0 21 24q23 40 63 40q23 0 48 -11v1 q84 -29 110.5 -67t26.5 -129q0 -73 5 -161q0 -11 1 -32t2 -32q1 -43 -18 -68.5t-65 -55.5q-59 -40 -119 -40q-63 0 -147 49q-16 9 -32 9q-29 0 -74 -35q-38 -29 -72 -29q-46 0 -88 54q-116 144 -116 342zM364 330q0 -20 14 -31t34 -11q43 0 46 52q-2 22 -12 34t-31 9 q-49 -7 -51 -53z" />
<glyph unicode="&#xe53;" horiz-adv-x="765" d="M58 312q13 55 55 102q19 21 64.5 79.5t80.5 89.5q32 28 61 -9q15 -20 40 -66q14 -25 21 -36t16 -20.5t14 -9t14 7t16 18l21 34.5q34 54 67.5 64t82.5 -10q53 -19 77.5 -54t16.5 -97q-7 -49 -7.5 -110.5t3 -143.5t3.5 -113q0 -4 1 -14.5t0.5 -16.5t-2.5 -13t-9.5 -10 t-19.5 -2q-10 1 -16 4.5t-8 11t-2.5 13t0 17t0.5 15.5q-2 48 -4.5 180.5t-5.5 195.5q-1 36 -39.5 62t-64.5 15q-48 -20 -76 -129q-13 -42 -33 -42t-44 34q-16 27 -19 29q-12 6 -21.5 24t-16 34.5t-16 30t-25.5 12t-39 -21.5q-45 -39 -72.5 -73t-41 -71t-7.5 -75t32 -81 q68 106 156 43q32 -22 45 -88.5t-6 -104.5q-15 -32 -56 -26q-84 10 -133.5 62.5t-91.5 142.5q-24 61 -11 116zM204 124q0 -49 64 -71q22 -7 29.5 5.5t7.5 36.5q3 63 -51 77q-53 -2 -50 -48z" />
<glyph unicode="&#xe54;" horiz-adv-x="713" d="M5.5 394.5q17.5 104.5 95.5 165.5q64 50 122 48q136 -6 203 -6q82 -1 101 20.5t9 102.5q-1 9 -8 59t-8.5 68t-3.5 56t1 68t10 60q14 59 53.5 90.5t116.5 38.5q-32 -26 -55 -55.5t-36.5 -55.5t-20.5 -60t-9.5 -58t0.5 -62t6 -59.5t9.5 -63t9.5 -60.5q14 -93 -8 -120.5 t-114 -32.5q-43 -2 -62 -1.5t-62 2t-62 1.5q-119 1 -181.5 -77t-39.5 -197q19 -102 93.5 -153t173.5 -31q31 6 46 18q53 43 40 78q-4 13 -15.5 14t-28.5 -5t-24 -6q-56 -3 -96 11.5t-63 58.5q-39 74 12 144q58 82 140 49q38 -15 47.5 -69t-14.5 -119q29 3 33 5 q95 41 179 -11t107 -159q6 -17 2.5 -33.5t-22.5 -22.5q-29 -7 -43 32q-1 3 -12 41q-12 37 -38.5 69.5t-56.5 34.5q-15 1 -26.5 -7.5t-16 -18.5t-11 -28.5t-9.5 -25.5q-40 -88 -125 -113.5t-176 23.5q-90 49 -135 148.5t-27.5 204zM246 307q-1 -14 15.5 -32.5t29.5 -18.5 q20 0 34.5 25t16.5 50q-2 16 -11 28.5t-24 11.5q-23 -3 -41.5 -22t-19.5 -42z" />
<glyph unicode="&#xe55;" horiz-adv-x="728" d="M50 418q46 114 111.5 155t187.5 32q5 0 143 -15q65 -6 93 41q-83 26 -92 30q-45 20 -62 57t-2 82q10 31 34 43t47.5 8.5t47.5 -15.5q29 -15 47.5 -16.5t26 12.5t9.5 27t2 39q0 35 -9 134q-6 56 29 103q1 1 4 5t4 6t4 5.5t5 4.5t5 3.5t5.5 3t6 1t7 -0.5t7.5 -3 q6 -3 9.5 -6t4 -7t1 -6.5t-2 -8t-3 -7t-4.5 -7.5l-4 -7q-14 -24 -17.5 -49.5t-0.5 -67t3 -50.5q0 -197 -25 -294q-18 -69 -55.5 -99t-105.5 -27q-32 1 -99.5 8t-102.5 8q-54 1 -103 -30.5t-76 -80.5t-34 -106t23 -106q73 -130 215 -135q26 -1 42.5 5.5t37.5 24.5 q51 46 62 69q-24 -5 -72 -3q-98 5 -133 50t-11 136q29 109 131 87q109 -24 76 -134q-1 -5 -15 -64q144 23 214 -17t85 -152q6 -16 4.5 -33.5t-21.5 -23.5q-7 -2 -12.5 -2t-9 1t-7 4.5t-5.5 6t-4.5 8.5t-3.5 8.5t-2.5 9.5t-2.5 9q-2 7 -5 21t-6 24.5t-7 19.5q-33 63 -81 67 q-9 0 -17 -2.5t-13 -5.5t-11.5 -10.5t-9 -11t-9.5 -14t-8 -12.5q-64 -101 -136 -127t-161 18q-115 58 -164.5 166.5t-8.5 212.5zM310 314q10 -52 52 -51q25 6 38 29t15 50q2 24 -12.5 38.5t-36.5 11.5q-27 -4 -43.5 -27t-12.5 -51zM481 759q11 -51 68 -51q1 0 10.5 -0.5 t12.5 0.5l9 3t9 7t4 14q-20 52 -76 57q-18 2 -29.5 -4.5t-7.5 -25.5z" />
<glyph unicode="&#xe56;" horiz-adv-x="653" d="M-155 1148q9 13 41 9q28 -4 52.5 -18t38.5 -26t31.5 -40.5t23.5 -40t22 -46.5q81 -162 98 -285q5 -43 26.5 -59.5t68.5 -14.5q154 11 242 -60.5t96 -187.5q22 -142 -43 -260q-35 -65 -118.5 -97.5t-160.5 -12.5q-65 18 -117 85t-51 134q1 54 26 91.5t75 49.5 q45 10 75 -14.5t44 -69.5q25 -82 -70 -140q-3 -3 -12 -5.5t-14 -7t-5 -13.5q2 -20 38 -33q71 -32 144.5 -1.5t105.5 103.5q37 78 27 184q-11 118 -115 173t-225 5q-21 -8 -34 -12.5t-23 -2.5t-14.5 4t-8.5 15.5t-5 23t-4 33.5q-8 84 -20 145.5t-37 131.5t-70.5 126 t-111.5 98q-27 18 -16 36zM157 243q11 -48 70 -45q55 27 45 77q-4 23 -21 32t-40 4q-65 -11 -54 -68z" />
<glyph unicode="&#xe57;" horiz-adv-x="887" d="M43 303q0 74 88 200q43 61 66 85t46 24q21 0 48 -22t78 -74q17 -15 25 -15t13 5.5t12 20t9 18.5v-1q17 34 34.5 52.5t47.5 18.5q19 0 37 -7q140 -51 140 -175q0 -25 -1 -111t0 -136v-89q48 29 48 78q0 28 -0.5 85t-0.5 86v72q0 226 -25 364q-7 42 -7 92q0 60 6 119 q2 31 8.5 51.5t30 43t64.5 32.5q-43 -118 -43 -216q0 -26 1 -37q23 -303 23 -694q0 -87 -33 -122t-121 -35q-32 0 -32 28q0 11 5 31q23 78 23 181q1 25 -7 150l-3 50q-2 39 -35 63t-73 24q-22 0 -35 -16t-21.5 -41t-13.5 -32q-6 -9 -12 -34.5t-16 -42t-31 -17.5 q-27 0 -40.5 23.5t-16.5 53t-18.5 58.5t-45.5 37q-4 1 -11 1q-11 0 -21 -6.5t-14.5 -12t-12.5 -18.5l1 1q-2 -3 -7.5 -10t-7.5 -10q-84 -95 -84 -194q0 -33 17 -64.5t42 -31.5q8 0 12.5 3.5t8.5 9t9 8.5q28 17 49 17q35 0 60.5 -52t25.5 -99q0 -26 -18 -48t-47 -22 q-44 0 -92 50q-62 64 -97 131t-35 118zM198 116q3 -11 6 -17.5t9 -11t8.5 -6t13.5 -5t15 -5.5h-1q3 -1 9 -1q20 0 20 19q0 64 -41 73q-17 0 -30 -15.5t-9 -30.5z" />
<glyph unicode="&#xe58;" horiz-adv-x="803" d="M58.5 272.5q-14.5 95.5 21.5 170.5q33 71 96.5 109t139.5 31q24 -2 109 -13t132 -10q58 1 80.5 27.5t14.5 80.5q-20 150 23 371q14 68 48 92t102 16q-31 -25 -53.5 -54t-36.5 -56t-21.5 -62.5t-10 -62t-1 -66.5t4.5 -65.5t8 -67.5q7 -51 8.5 -83t-4.5 -58t-17.5 -39 t-37.5 -22t-56.5 -12t-82.5 -4q-42 -1 -119 9.5t-96 12.5q-61 5 -111 -31.5t-74 -101.5q-22 -61 2.5 -133.5t73.5 -110.5q59 -46 59 25q0 41 22 66t62 43q6 2 23.5 10.5t26 11.5t22.5 3t26 -8q16 -11 18.5 -30.5t-0.5 -46.5t-1 -40q10 -30 33 -58t53 -40q38 -13 60 -7.5 t44 31.5q-27 10 -34 11l-25 5t-23 6.5t-19.5 9.5t-15 13t-9.5 18.5t-3.5 25t3.5 32.5q11 59 34.5 86.5t78.5 24.5q96 -4 114 -119q12 -82 -31.5 -141.5t-116.5 -64.5q-81 -5 -141.5 41t-67.5 123q0 2 2.5 29.5t0.5 36.5q-113 -89 -49 -164q1 -1 8.5 -9.5t9 -11l6 -10 t4.5 -12t-2 -11t-7 -12.5q-17 -19 -63 8q-18 11 -55 29.5t-65 36t-50 38.5q-60 58 -74.5 153.5zM588 210q-1 -19 11.5 -30.5t31.5 -13.5q43 -7 50 43q0 17 -1 25.5t-9 16.5t-24 8q-55 0 -59 -49z" />
<glyph unicode="&#xe59;" horiz-adv-x="806" d="M34 316v13q3 102 36.5 147.5t104.5 45.5q12 0 42 -5.5t46 -5.5q26 0 32 39q3 27 27 72q44 82 98 82q26 0 62.5 -21t67.5 -54q45 -48 74 -48q24 0 40 17.5t16 39.5q0 15 -8 51t-8 52q0 22 -1.5 85.5t-1.5 93.5v30.5v33t1 30.5t3 33.5t5.5 30t9 31.5l13.5 27t18.5 27.5 t24.5 22.5q18 14 32 14q11 0 21 -9.5t10 -18.5q0 -11 -14 -25h1q-71 -87 -71 -223q0 -32 5 -99t5 -100q0 -23 6.5 -67.5t6.5 -65.5q0 -34 -27.5 -56t-71.5 -22q-38 0 -67.5 16.5t-75.5 55.5l-19 19q-30 30 -46 30q-23 0 -52 -36t-29 -67q0 -50 58 -112q60 -64 109.5 -138 t108.5 -178q17 -29 18 -41q0 -10 -10.5 -22t-30.5 -12q-12 0 -23 12.5t-16 28.5l1 -1q-35 71 -73 132t-87.5 122t-108.5 96t-118 35q-86 0 -86 -124q0 -85 76 -150v1q22 -20 36 -20q11 0 27.5 18.5t37 37.5t41.5 19q35 0 70.5 -42.5t35.5 -81.5q0 -37 -24 -67.5t-52 -30.5 q-11 0 -23 4t-20 8t-23 12t-22 12q-54 32 -82.5 52t-65.5 54t-53.5 73t-16.5 87zM269 139q0 -25 19.5 -43t46.5 -18q21 0 21 37q0 20 -12.5 38.5t-36.5 18.5q-16 0 -27 -9t-11 -24z" />
<glyph unicode="&#xe5a;" horiz-adv-x="975" d="M62 648q3 86 81 124h-1q38 16 65 15q42 -1 67 -30t24 -65q0 -13 -7 -43.5t-8 -52.5q-2 -30 11 -48q127 39 148 164v-1q1 3 3 24t7 29.5t17 8.5q43 0 85 -20t45 -58v-131q80 41 99 148v-1q1 3 3 24t7 29.5t17 8.5q43 0 85 -20t45 -58q1 -77 -2 -436l-1 -216 q-1 -50 -26.5 -83.5t-71.5 -59.5q-7 -4 -19 -7q-5 0 -9 9t0 13q66 87 71 213q2 57 0.5 168t-0.5 167q5 55 1 140.5t-25 100.5q-69 -170 -174 -215q-2 -156 -2 -230l-1 -216q-1 -50 -26.5 -83.5t-71.5 -59.5q-7 -4 -19 -7q-5 0 -9 9t0 13q66 87 71 213q2 57 0.5 168t-0.5 167 q5 55 1 140.5t-25 100.5q-38 -94 -114 -161t-168 -64q-69 2 -121.5 53.5t-51.5 115.5zM128 662q-1 -21 14.5 -43t30 -34t17.5 -12l22 12l18 69q8 26 -1.5 47t-37.5 22q-26 1 -44 -17t-19 -44z" />
<glyph unicode="&#xe5b;" horiz-adv-x="1567" d="M81 405q0 98 90 163t206 65q38 0 71.5 -5.5t67.5 -19t54 -42.5t20 -70q0 -51 -28 -113.5t-63 -87.5q-40 -28 -88 -28q-57 0 -111.5 39.5t-54.5 93.5q0 32 29 65t56 33q31 0 67.5 -24t36.5 -61q0 -6 -3 -21t-3 -24q0 -19 15 -30q45 16 60 45t15 72q0 9 -0.5 27.5 t-0.5 28.5q0 24 -13.5 40t-35 22.5t-37.5 9t-32 2.5q-87 0 -165.5 -56.5t-78.5 -132.5q0 -74 48.5 -152.5t105.5 -95.5q59 -18 110 -18q98 0 167.5 60.5t102.5 167.5q27 90 27 164q5 42 32 62.5t45 20.5t18 -22q0 -14 -8 -38q-11 -34 -11 -70q0 -95 100 -141q26 -12 46 -12 q38 0 50 32t12 102q0 9 -1.5 27.5t-1.5 26.5q0 25 14 44t31 19q26 0 26 -42q0 -19 -1 -55.5t-1 -59.5q0 -78 62 -78q38 0 57.5 29.5t19.5 70.5q0 4 -1 14t-1 14q0 16 12.5 30.5t31.5 14.5q28 0 28 -22q0 -9 -1 -27.5t-1 -28.5q0 -36 14.5 -54.5t57.5 -18.5q96 0 118 79 q3 19 15 19q7 0 11.5 -3t5.5 -5.5t2 -10t1 -8.5q2 -14 2 -21q0 -52 -47.5 -81.5t-100.5 -29.5q-21 0 -57.5 15t-46.5 15q-22 0 -44 -32q-23 -34 -64 -34q-30 0 -80 23q-1 1 -10.5 8.5t-16.5 7.5q-6 0 -15 -6q-61 -44 -107 -44q-57 0 -118 69q-24 27 -32 27q-9 0 -20 -40 q-37 -119 -125.5 -182t-199.5 -63q-71 0 -137 25q-74 27 -136 128.5t-62 188.5zM305 390q0 -13 12 -27t29 -14t23.5 7.5t9.5 22.5q0 1 0.5 3.5t0.5 3.5q0 20 -15 33t-27 13q-14 0 -23.5 -13.5t-9.5 -28.5z" />
<glyph unicode="&#x2000;" horiz-adv-x="1039" />
<glyph unicode="&#x2001;" horiz-adv-x="2078" />
<glyph unicode="&#x2002;" horiz-adv-x="1039" />
<glyph unicode="&#x2003;" horiz-adv-x="2078" />
<glyph unicode="&#x2004;" horiz-adv-x="692" />
<glyph unicode="&#x2005;" horiz-adv-x="519" />
<glyph unicode="&#x2006;" horiz-adv-x="346" />
<glyph unicode="&#x2007;" horiz-adv-x="346" />
<glyph unicode="&#x2008;" horiz-adv-x="259" />
<glyph unicode="&#x2009;" horiz-adv-x="415" />
<glyph unicode="&#x200a;" horiz-adv-x="115" />
<glyph unicode="&#x2010;" horiz-adv-x="819" d="M101 354q0 24 15 36.5t32.5 14.5t48.5 2q207 -14 403 -14q15 0 43 2.5t41 2.5q8 0 14 -3q21 -11 21 -33q0 -14 -2 -20t-4.5 -7.5t-13.5 -2.5t-20 -3q-36 -9 -145 -9q-36 0 -111.5 3.5t-112.5 3.5q-15 0 -44.5 -1t-43.5 -1q-8 0 -23 0.5t-22 0.5q-3 0 -11 -0.5t-11 -0.5 t-11.5 -0.5t-12.5 0t-10.5 1.5t-10 4t-6.5 9t-3 15z" />
<glyph unicode="&#x2011;" horiz-adv-x="819" d="M101 354q0 24 15 36.5t32.5 14.5t48.5 2q207 -14 403 -14q15 0 43 2.5t41 2.5q8 0 14 -3q21 -11 21 -33q0 -14 -2 -20t-4.5 -7.5t-13.5 -2.5t-20 -3q-36 -9 -145 -9q-36 0 -111.5 3.5t-112.5 3.5q-15 0 -44.5 -1t-43.5 -1q-8 0 -23 0.5t-22 0.5q-3 0 -11 -0.5t-11 -0.5 t-11.5 -0.5t-12.5 0t-10.5 1.5t-10 4t-6.5 9t-3 15z" />
<glyph unicode="&#x2012;" horiz-adv-x="819" d="M101 354q0 24 15 36.5t32.5 14.5t48.5 2q207 -14 403 -14q15 0 43 2.5t41 2.5q8 0 14 -3q21 -11 21 -33q0 -14 -2 -20t-4.5 -7.5t-13.5 -2.5t-20 -3q-36 -9 -145 -9q-36 0 -111.5 3.5t-112.5 3.5q-15 0 -44.5 -1t-43.5 -1q-8 0 -23 0.5t-22 0.5q-3 0 -11 -0.5t-11 -0.5 t-11.5 -0.5t-12.5 0t-10.5 1.5t-10 4t-6.5 9t-3 15z" />
<glyph unicode="&#x2013;" horiz-adv-x="826" d="M101 354q0 24 15 36.5t32.5 14.5t48.5 2q207 -14 403 -14q15 0 43 2.5t41 2.5q8 0 14 -3q21 -11 21 -33q0 -14 -2 -20t-4.5 -7.5t-13.5 -2.5t-20 -3q-36 -9 -145 -9q-36 0 -111.5 3.5t-112.5 3.5q-15 0 -44.5 -1t-43.5 -1q-8 0 -23 0.5t-22 0.5q-3 0 -11 -0.5t-11 -0.5 t-11.5 -0.5t-12.5 0t-10.5 1.5t-10 4t-6.5 9t-3 15z" />
<glyph unicode="&#x2014;" horiz-adv-x="989" d="M101 354q0 24 15 36.5t32.5 14.5t48.5 2q207 -14 553 -14q15 0 43 2.5t41 2.5q8 0 14 -3q21 -11 21 -33q0 -14 -2 -20t-4.5 -7.5t-13.5 -2.5t-20 -3q-36 -9 -145 -9q-36 0 -186.5 3.5t-187.5 3.5q-15 0 -44.5 -1t-43.5 -1q-8 0 -23 0.5t-22 0.5q-3 0 -11 -0.5t-11 -0.5 t-11.5 -0.5t-12.5 0t-10.5 1.5t-10 4t-6.5 9t-3 15z" />
<glyph unicode="&#x2018;" horiz-adv-x="343" d="M100 706q9 93 34 155q41 91 61 94q11 4 19 -18q3 -6 -8 -45q-23 -52 -26 -115q40 -10 54 -48q7 -8 9 -27q-3 -29 -25.5 -46.5t-49.5 -14.5q-39 5 -57 42q-9 5 -11 23z" />
<glyph unicode="&#x2019;" horiz-adv-x="343" d="M100 892q3 29 25.5 46.5t49.5 14.5q39 -5 57 -42q9 -5 11 -23q-9 -93 -34 -155q-41 -91 -61 -94q-11 -4 -19 18q-3 6 8 45q23 52 26 115q-40 10 -54 48q-7 8 -9 27z" />
<glyph unicode="&#x201a;" d="M-865 1077q-17 20 13 55q128 138 167 175q45 44 112 15q20 -9 42.5 -21.5t38.5 -22t41 -26t36 -24.5t39.5 -28.5t36.5 -25.5q4 -2 11 -8t10.5 -8.5t11 -5t12.5 1.5q11 5 14 12.5t0 23.5t-3 18q-2 19 -5 56.5t-4 56.5q-2 15 5 26t21 11q25 0 29 -36q17 -194 23 -277 q8 -63 -73 -106q-15 -10 -24.5 -5t-13 12.5t-8 20t-9.5 17.5q-18 18 -58 34q-126 58 -191 82q-51 24 -109 24t-105 -39q-12 -10 -19.5 -14.5t-19 -4.5t-21.5 11zM-699 1183q82 -7 223 -72t179 -76q24 19 -5 43q-124 108 -284 179q-43 18 -68 -3.5t-45 -70.5z" />
<glyph unicode="&#xf702;" d="M-865 1077q-17 20 13 55q128 138 167 175q45 44 112 15q20 -9 42.5 -21.5t38.5 -22t41 -26t36 -24.5t39.5 -28.5t36.5 -25.5q4 -2 11 -8t10.5 -8.5t11 -5t12.5 1.5q11 5 14 12.5t0 23.5t-3 18q-2 19 -5 56.5t-4 56.5q-2 15 5 26t21 11q25 0 29 -36q17 -194 23 -277 q8 -63 -73 -106q-15 -10 -24.5 -5t-13 12.5t-8 20t-9.5 17.5q-18 18 -58 34q-126 58 -191 82q-51 24 -109 24t-105 -39q-12 -10 -19.5 -14.5t-19 -4.5t-21.5 11zM-699 1183q82 -7 223 -72t179 -76q24 19 -5 43q-124 108 -284 179q-43 18 -68 -3.5t-45 -70.5z" />
<glyph unicode="&#x201e;" d="M-978 1141q1 5 1.5 8t5 8t5.5 7t7.5 7.5t7.5 6.5q26 24 38 36l49 49q26 27 37 38t30 25.5t26.5 18t26 4.5t29 -4t34.5 -17.5t43.5 -26t55.5 -39.5q29 -21 84 -60t81 -58q16 30 18.5 61.5t-1.5 50.5t-15 51q-9 17 -9 32t24 20q45 10 50 -33q2 -13 10 -121q1 -12 1 -41 t1.5 -49.5t6.5 -38.5q20 -83 -40 -123q-15 -10 -30.5 -11.5t-32 7.5t-26 16t-26.5 21q-14 12 -41 35.5t-38 32t-32.5 22.5t-44 21.5t-53.5 13.5q-45 9 -76 13t-71.5 2t-75.5 -13q-39 -15 -53 8q-4 5 -6 10t-1 10zM-828 1191q133 -7 216.5 -50t191.5 -148q24 53 -20 85 q-34 25 -75.5 61t-77.5 62.5t-83 50.5q-37 21 -65.5 17t-47.5 -22.5t-39 -55.5zM-268 1323q0 15 1 23.5t9.5 17t24.5 6.5q7 -1 12 -3.5t7 -5.5t3 -9t1.5 -9.5t0 -10.5t-0.5 -10v-148q5 -48 3 -156l-1 -8v-9.5t-1 -8t-3 -8.5t-4.5 -6t-7 -5t-10.5 -1q-26 1 -28 40 q-1 35 -2.5 98t-2.5 115t-1 98z" />
<glyph unicode="&#xf704;" d="M-978 1141q1 5 1.5 8t5 8t5.5 7t7.5 7.5t7.5 6.5q26 24 38 36l49 49q26 27 37 38t30 25.5t26.5 18t26 4.5t29 -4t34.5 -17.5t43.5 -26t55.5 -39.5q29 -21 84 -60t81 -58q16 30 18.5 61.5t-1.5 50.5t-15 51q-9 17 -9 32t24 20q45 10 50 -33q2 -13 10 -121q1 -12 1 -41 t1.5 -49.5t6.5 -38.5q20 -83 -40 -123q-15 -10 -30.5 -11.5t-32 7.5t-26 16t-26.5 21q-14 12 -41 35.5t-38 32t-32.5 22.5t-44 21.5t-53.5 13.5q-45 9 -76 13t-71.5 2t-75.5 -13q-39 -15 -53 8q-4 5 -6 10t-1 10zM-828 1191q133 -7 216.5 -50t191.5 -148q24 53 -20 85 q-34 25 -75.5 61t-77.5 62.5t-83 50.5q-37 21 -65.5 17t-47.5 -22.5t-39 -55.5zM-268 1323q0 15 1 23.5t9.5 17t24.5 6.5q7 -1 12 -3.5t7 -5.5t3 -9t1.5 -9.5t0 -10.5t-0.5 -10v-148q5 -48 3 -156l-1 -8v-9.5t-1 -8t-3 -8.5t-4.5 -6t-7 -5t-10.5 -1q-26 1 -28 40 q-1 35 -2.5 98t-2.5 115t-1 98z" />
<glyph unicode="&#x2020;" d="M-369 1361q0 16 1 24.5t9.5 17t25.5 6.5q12 -1 18 -8.5t6.5 -13.5t-0.5 -18v-156q4 -36 4 -91q0 -11 -0.5 -33t-0.5 -32v-6q-1 -13 -2 -19.5t-7.5 -14t-18.5 -7.5q-27 1 -29 41q-1 17 -1 52t-1 53q-2 55 -4 205z" />
<glyph unicode="&#xf705;" d="M-369 1361q0 16 1 24.5t9.5 17t25.5 6.5q12 -1 18 -8.5t6.5 -13.5t-0.5 -18v-156q4 -36 4 -91q0 -11 -0.5 -33t-0.5 -32v-6q-1 -13 -2 -19.5t-7.5 -14t-18.5 -7.5q-27 1 -29 41q-1 17 -1 52t-1 53q-2 55 -4 205z" />
<glyph unicode="&#x2021;" d="M-535 1041q-4 23 11 34.5t40.5 19t35.5 16.5q7 6 43 28q-57 67 -54 132t66 106q77 51 136 1q26 -23 25.5 -88.5t-24.5 -98.5q-16 -22 -40.5 -43t-61 -49t-52.5 -41q62 -10 113.5 -9t87.5 6t71 27.5t53.5 36t46 53.5t37.5 57t37 69q6 10 9 16t8 15t9 17q18 -45 3 -86 q-71 -180 -178.5 -238.5t-311.5 -24.5q-9 1 -31 1.5t-35.5 2t-27 11.5t-16.5 29zM-398 1258q-3 -26 10.5 -41t36.5 -13q13 1 22.5 4.5t14.5 7t9.5 13.5t6 13.5t4 17t3.5 16.5q5 22 -5.5 42t-34.5 17q-59 -6 -67 -77z" />
<glyph unicode="&#xf706;" d="M-535 1041q-4 23 11 34.5t40.5 19t35.5 16.5q7 6 43 28q-57 67 -54 132t66 106q77 51 136 1q26 -23 25.5 -88.5t-24.5 -98.5q-16 -22 -40.5 -43t-61 -49t-52.5 -41q62 -10 113.5 -9t87.5 6t71 27.5t53.5 36t46 53.5t37.5 57t37 69q6 10 9 16t8 15t9 17q18 -45 3 -86 q-71 -180 -178.5 -238.5t-311.5 -24.5q-9 1 -31 1.5t-35.5 2t-27 11.5t-16.5 29zM-398 1258q-3 -26 10.5 -41t36.5 -13q13 1 22.5 4.5t14.5 7t9.5 13.5t6 13.5t4 17t3.5 16.5q5 22 -5.5 42t-34.5 17q-59 -6 -67 -77z" />
<glyph unicode="&#x2022;" horiz-adv-x="614" d="M80 379q0 93 67.5 160t159.5 67q93 0 160 -67t67 -160q0 -91 -67.5 -159t-159.5 -68q-93 0 -160 67t-67 160z" />
<glyph unicode="&#x2026;" horiz-adv-x="1035" d="M92 75q0 33 19 54t49 21q53 0 82 -48q10 -16 13 -30q0 -34 -23 -57t-55 -23q-39 0 -62 28t-23 55zM437 75q0 33 19 54t49 21q53 0 82 -48q10 -16 13 -30q0 -34 -23 -57t-55 -23q-39 0 -62 28t-23 55zM782 75q0 33 19 54t49 21q53 0 82 -48q10 -16 13 -30q0 -34 -23 -57 t-55 -23q-39 0 -62 28t-23 55z" />
<glyph unicode="&#x202f;" horiz-adv-x="415" />
<glyph unicode="&#x2030;" d="M-605 1211q1 17 10.5 25.5t18.5 9.5t29 -0.5t25 -1.5q30 -5 44 -6t31 0t22.5 8.5t10 22.5t2 38t-9.5 59q-8 45 25 47q21 1 31 -12.5t8 -32.5q-5 -37 -6 -62.5t3.5 -40t10.5 -23t17.5 -10.5t21.5 -1.5t25.5 2t26.5 0.5q46 -2 56 -15q8 -10 6 -26q-5 -36 -65 -24 q-56 15 -74.5 2t-25.5 -78q-1 -9 1 -26t3 -31t0.5 -27.5t-7 -21.5t-19.5 -8q-17 1 -26.5 8t-11 20.5t-0.5 25t4 28.5t4 24q5 37 5 59.5t-21 30t-75 1.5q-9 -2 -17 1q-16 5 -34.5 1t-33.5 3t-15 31z" />
<glyph unicode="&#xf708;" d="M-605 1211q1 17 10.5 25.5t18.5 9.5t29 -0.5t25 -1.5q30 -5 44 -6t31 0t22.5 8.5t10 22.5t2 38t-9.5 59q-8 45 25 47q21 1 31 -12.5t8 -32.5q-5 -37 -6 -62.5t3.5 -40t10.5 -23t17.5 -10.5t21.5 -1.5t25.5 2t26.5 0.5q46 -2 56 -15q8 -10 6 -26q-5 -36 -65 -24 q-56 15 -74.5 2t-25.5 -78q-1 -9 1 -26t3 -31t0.5 -27.5t-7 -21.5t-19.5 -8q-17 1 -26.5 8t-11 20.5t-0.5 25t4 28.5t4 24q5 37 5 59.5t-21 30t-75 1.5q-9 -2 -17 1q-16 5 -34.5 1t-33.5 3t-15 31z" />
<glyph unicode="&#x2039;" d="M-169 1361q0 16 1 24.5t9.5 17t25.5 6.5q12 -1 18 -8.5t6.5 -13.5t-0.5 -18v-156q4 -36 4 -91q0 -11 -0.5 -33t-0.5 -32v-6q-1 -13 -2 -19.5t-7.5 -14t-18.5 -7.5q-27 1 -29 41q-1 18 -1 52.5t-1 52.5q-2 55 -4 205z" />
<glyph unicode="&#xf70a;" d="M-169 1361q0 16 1 24.5t9.5 17t25.5 6.5q12 -1 18 -8.5t6.5 -13.5t-0.5 -18v-156q4 -36 4 -91q0 -11 -0.5 -33t-0.5 -32v-6q-1 -13 -2 -19.5t-7.5 -14t-18.5 -7.5q-27 1 -29 41q-1 18 -1 52.5t-1 52.5q-2 55 -4 205z" />
<glyph unicode="&#x203a;" d="M-301 1801q0 16 1 24.5t9.5 17t25.5 6.5q12 -1 18 -8.5t6.5 -13.5t-0.5 -18v-156q4 -36 4 -91q0 -11 -0.5 -33t-0.5 -32v-6q-1 -13 -2 -19.5t-7.5 -14t-18.5 -7.5q-27 1 -29 41q-1 17 -1 52t-1 53q-2 55 -4 205z" />
<glyph unicode="&#xf713;" d="M-301 1801q0 16 1 24.5t9.5 17t25.5 6.5q12 -1 18 -8.5t6.5 -13.5t-0.5 -18v-156q4 -36 4 -91q0 -11 -0.5 -33t-0.5 -32v-6q-1 -13 -2 -19.5t-7.5 -14t-18.5 -7.5q-27 1 -29 41q-1 17 -1 52t-1 53q-2 55 -4 205z" />
<glyph unicode="&#x205f;" horiz-adv-x="519" />
<glyph unicode="&#x20ac;" horiz-adv-x="713" d="M53 583.5q1 15.5 12 25.5q22 21 54 62.5t62.5 73t65.5 50.5q44 24 98 2q42 -18 70 -28q32 -12 57.5 -16t51 0t45.5 23.5t35 53.5q3 8 8.5 15t15 18t14.5 17q2 -147 -60.5 -183.5t-216.5 14.5q-68 23 -91 16t-73 -71q176 -8 298 -56q46 -16 66 -41t19 -73q-8 -254 9 -381 q3 -18 -1 -33t-14.5 -27.5t-19 -20t-25.5 -19t-23 -16.5q-19 -14 -33.5 -3t-4.5 39q12 33 12 66.5t-9 65t-20.5 59.5t-24 62t-18.5 61q-2 8 -5.5 13t-6.5 7t-9 1.5t-9.5 -1.5t-11 -3.5t-11.5 -3.5q-59 -17 -99.5 1t-48.5 64q-10 46 9 79.5t62 49.5q116 42 155 -79 q20 -67 76 -239q6 1 16 3v45.5v53v44.5q-2 30 0.5 52t-1.5 40.5t-5.5 31t-11.5 23t-18.5 17.5t-27.5 13.5t-38 11.5t-49 11q-6 1 -30.5 6t-32 6.5t-30 5t-32.5 3t-29.5 0t-32 -3t-29.5 -8t-31.5 -13.5t-28.5 -20q-20 -14 -38 4q-12 14 -11 29.5zM262 449q-1 -25 12 -32 t38 -7q55 -2 52 48q-2 24 -15 34t-43 8q-41 -6 -44 -51z" />
<glyph unicode="&#xf700;" horiz-adv-x="713" d="M53 583.5q1 15.5 12 25.5q22 21 54 62.5t62.5 73t65.5 50.5q44 24 98 2q42 -18 70 -28q32 -12 57.5 -16t51 0t45.5 23.5t35 53.5q3 8 8.5 15t15 18t14.5 17q2 -147 -60.5 -183.5t-216.5 14.5q-68 23 -91 16t-73 -71q176 -8 298 -56q46 -16 66 -41t19 -73q-8 -254 9 -381 q3 -18 -1 -33t-14.5 -27.5t-19 -20t-25.5 -19t-23 -16.5q-19 -14 -33.5 -3t-4.5 39q12 33 12 66.5t-9 65t-20.5 59.5t-24 62t-18.5 61q-2 8 -5.5 13t-6.5 7t-9 1.5t-9.5 -1.5t-11 -3.5t-11.5 -3.5q-59 -17 -99.5 1t-48.5 64q-10 46 9 79.5t62 49.5q116 42 155 -79 q20 -67 76 -239q6 1 16 3v45.5v53v44.5q-2 30 0.5 52t-1.5 40.5t-5.5 31t-11.5 23t-18.5 17.5t-27.5 13.5t-38 11.5t-49 11q-6 1 -30.5 6t-32 6.5t-30 5t-32.5 3t-29.5 0t-32 -3t-29.5 -8t-31.5 -13.5t-28.5 -20q-20 -14 -38 4q-12 14 -11 29.5zM262 449q-1 -25 12 -32 t38 -7q55 -2 52 48q-2 24 -15 34t-43 8q-41 -6 -44 -51z" />
<glyph unicode="&#x2122;" d="M-509 1147q0 62 36 99.5t95 39.5q84 0 117 -30t34 -110q1 -59 -33 -99t-85 -41q-73 0 -118 39t-46 102zM-451 1149q5 -78 94 -82q38 -1 57.5 22t20.5 66q-4 36 -20 57t-51 16q-4 -1 -22 -3t-25 -3.5t-20.5 -7t-19 -13t-10.5 -21t-4 -31.5z" />
<glyph unicode="&#xf711;" d="M-509 1147q0 62 36 99.5t95 39.5q84 0 117 -30t34 -110q1 -59 -33 -99t-85 -41q-73 0 -118 39t-46 102zM-451 1149q5 -78 94 -82q38 -1 57.5 22t20.5 66q-4 36 -20 57t-51 16q-4 -1 -22 -3t-25 -3.5t-20.5 -7t-19 -13t-10.5 -21t-4 -31.5z" />
<glyph unicode="&#x25cc;" horiz-adv-x="1049" d="M96 430q0 19 14.5 33t34.5 14q18 0 32.5 -14.5t14.5 -32.5q0 -21 -14 -35.5t-33 -14.5q-20 0 -34.5 14.5t-14.5 35.5zM211 162q0 20 14 33.5t33 13.5q21 0 35 -13.5t14 -33.5t-14 -33.5t-35 -13.5q-19 0 -33 13.5t-14 33.5zM211 695q0 22 13.5 35.5t33.5 13.5 q22 0 35.5 -13t13.5 -36q0 -20 -14 -33.5t-35 -13.5q-19 0 -33 13.5t-14 33.5zM479 47q0 20 13.5 34t33.5 14q19 0 34 -14t15 -34q0 -19 -15 -33t-34 -14q-20 0 -33.5 14t-13.5 33zM479 810q0 20 13.5 33.5t33.5 13.5q19 0 34 -13.5t15 -33.5q0 -18 -15 -32t-34 -14 q-20 0 -33.5 13.5t-13.5 32.5zM744 162q0 20 14.5 33.5t34.5 13.5q19 0 33 -13.5t14 -33.5t-13.5 -33.5t-33.5 -13.5t-34.5 13.5t-14.5 33.5zM744 695q0 23 14 36t35 13q19 0 33 -13.5t14 -35.5q0 -20 -13.5 -33.5t-33.5 -13.5t-34.5 13.5t-14.5 33.5zM858 430q0 19 13.5 33 t32.5 14q21 0 35 -14t14 -33q0 -22 -13 -36t-36 -14q-19 0 -32.5 14.5t-13.5 35.5z" />
<glyph unicode="&#x25fc;" horiz-adv-x="760" d="M0 0v760h760v-760h-760z" />
<glyph unicode="&#xf701;" d="M-867 1124.5q0 10.5 4 16.5t12.5 17t11.5 15q5 8 17 20q48 50 80 79t66.5 48t61 21.5t64.5 -8.5t75 -32.5t95 -60.5q8 -5 63 -47q35 -26 50 -37t34 -30t24 -25.5t8.5 -26t0.5 -27.5t-15 -34.5t-22.5 -43t-34.5 -56.5q-2 3 -4 5t-3 3.5t-2 2.5t-1 2q-22 54 -84.5 103 t-137.5 75.5t-152.5 33t-128.5 -23.5q-3 -2 -18 -11.5t-20.5 -11.5t-16.5 0t-20 14q-7 9 -7 19.5zM-684 1216q31 -1 59.5 -6t58.5 -16.5t50 -20t51.5 -28t44.5 -27.5t48.5 -33t44.5 -31q4 -3 11 -10t12 -10.5t12 -3.5t14 7q24 27 -17 57q-150 118 -235 163 q-41 23 -79.5 14.5t-74.5 -55.5z" />
<glyph unicode="&#xf70c;" d="M-567.5 1155.5q-4.5 100.5 87.5 163.5q74 53 139 -12q3 -3 9 -11t10.5 -12t11.5 -4t15 7q16 15 26 22.5t25 15t31.5 5.5t34.5 -12q27 -17 45 -103t18 -154l4 204q2 192 23 282q30 -18 26 -99q2 -48 3.5 -137t4.5 -158q4 -94 -11.5 -127.5t-80.5 -42.5q-4 -1 -16.5 -3.5 t-18 -2.5t-13.5 3t-13 11q-6 7 -4 15.5t4.5 12t9.5 11t10 11.5q14 19 21 37t5 40t-4.5 33.5t-12.5 41.5t-13 41q-6 25 -31 22q-22 -2 -59 -57.5t-26 -75.5q41 -79 -19 -122q-67 -50 -141 -5q-96 59 -100.5 159.5zM-497 1125q2 3 15 21t18.5 23t17.5 15t24 12t28 0 q4 -1 12.5 -5t14 -6t12 1.5t10.5 14.5q3 10 0 18.5t-11.5 20t-10.5 14.5q-19 37 -55 28q-37 -11 -61.5 -61t-13.5 -96zM-446 1100q1 -24 16.5 -41.5t40.5 -24.5q17 -4 30 7t18 33q-10 58 -52 64q-22 4 -37.5 -6t-15.5 -32z" />
<glyph unicode="&#xf70e;" d="M-421 1113q-16 62 12.5 113t88.5 102q74 63 162 8q27 -17 46 -17t30 12.5t23 39.5q73 164 213 251q3 2 14.5 9.5t16.5 9.5t14.5 5.5t18.5 2t19 -6.5q-1 -11 -7 -20.5t-9.5 -13t-16.5 -12.5l-14 -10q-165 -126 -219 -278q-9 -27 -15 -42.5t-15.5 -25t-15 -12t-21 3 t-27 12.5t-37.5 24q-76 50 -123 6q-14 -12 -20 -18l-18 -18t-17.5 -20t-12.5 -20.5t-9 -23.5t-2.5 -25.5t3.5 -29.5q8 -35 36 -43q10 -2 16.5 1t9.5 7t6.5 13t5.5 13q43 86 122 47q42 -20 55.5 -56.5t-2.5 -77.5q-15 -40 -49 -57t-74 -2q-33 12 -48.5 18t-43.5 20.5 t-43.5 27.5t-31 35t-21.5 48zM-252 1052q1 -16 12 -28t30 -11q54 11 52 53q-2 48 -48 42q-23 -2 -35 -17.5t-11 -38.5z" />
<glyph unicode="&#xf70f;" horiz-adv-x="995" d="M48.5 606.5q-1.5 7.5 5 16t9.5 11.5t14 13q43 35 68 66q49 60 86.5 84t82 22t115.5 -30q4 -2 8 -3.5t8.5 -3l7.5 -2.5q86 -31 124.5 -84.5t29.5 -146.5q-6 -70 -7 -148t1.5 -184.5t2.5 -160.5q39 33 70.5 46t64.5 5.5t66 -39.5q20 -21 29.5 -14t11.5 20t0 29 q-8 54 -9.5 123.5t1 124.5t-0.5 124q-10 186 6 286q1 4 1.5 16t1.5 18t8 12t19 5q36 -2 29 -53q-11 -75 -6.5 -212t-2.5 -211q-4 -47 4 -132.5t8 -117.5q-2 -68 -35 -103q-16 -16 -27.5 -22t-25.5 -0.5t-29 26.5q-46 61 -74.5 59.5t-74.5 -63.5q-3 -4 -9 -14t-10 -15 t-12 -8.5t-19 -1.5q-8 2 -14 6t-9 8t-5 12t-2.5 12t-0.5 13.5v11.5q-2 90 -3 269.5t-3 269.5q-1 85 -31.5 118.5t-141.5 69.5q-69 23 -103 10t-87 -83q8 -4 23 -9.5t26 -11t20 -11.5q38 -25 37 -62t-40 -55q-27 -12 -44.5 -29t-24.5 -40t-9 -40t-2.5 -47.5t-1.5 -43.5 q-3 -22 21 -32q52 -26 74.5 -83.5t7 -118t-63.5 -94.5q-50 -36 -76 23q-21 48 -19 109q5 112 2 252q0 36 3 62.5t13.5 54.5t33 48.5t56.5 34.5q-48 50 -115 17q-36 -20 -54 5q-6 9 -7.5 16.5zM170.5 109q0.5 -9 5 -24.5t13.5 -28.5q18 12 28 31t12.5 32t5.5 38q2 19 -5.5 36 t-24.5 18q-19 1 -25.5 -14t-6.5 -36q0 -5 -1.5 -24t-1 -28z" />
<glyph unicode="&#xf715;" d="M-607.5 1635.5q-4.5 100.5 87.5 163.5q74 53 139 -12q3 -3 9 -11t10.5 -12t11.5 -4t15 7q16 15 26 22.5t25 15t31.5 5.5t34.5 -12q27 -17 45 -103t18 -154l4 204q2 192 23 282q30 -18 26 -99q2 -48 3.5 -137t4.5 -158q4 -94 -11.5 -127.5t-80.5 -42.5q-4 -1 -16.5 -3.5 t-18 -2.5t-13.5 3t-13 11q-6 7 -4 15.5t4.5 12t9.5 11t10 11.5q14 19 21 37t5 40t-4.5 33.5t-12.5 41.5t-13 41q-6 25 -31 22q-22 -2 -59 -57.5t-26 -75.5q41 -79 -19 -122q-67 -50 -141 -5q-96 59 -100.5 159.5zM-537 1605q2 3 15 21t18.5 23t17.5 15t24 12t28 0 q4 -1 12.5 -5t14 -6t12 1.5t10.5 14.5q3 10 0 18.5t-11.5 20t-10.5 14.5q-19 37 -55 28q-37 -11 -61.5 -61t-13.5 -96zM-486 1580q1 -24 16.5 -41.5t40.5 -24.5q17 -4 30 7t18 33q-10 58 -52 64q-22 4 -37.5 -6t-15.5 -32z" />
<glyph unicode="&#xf718;" d="M-283 -632q16 55 43.5 83.5t81.5 24.5q26 -3 39 -18.5t21 -44.5q9 -34 8.5 -94.5t4.5 -90.5v-162q0 -14 -1 -21t-8 -14.5t-20 -6.5q-5 0 -9.5 2t-7 3t-4.5 5l-3 6t-1.5 7.5t-0.5 7v8.5v7v70q2 21 0.5 38.5t-7.5 31t-23 22t-46 10.5q-46 4 -64 41t-3 85zM-227 -652 q-1 -22 6.5 -34t29.5 -11q18 1 26 10t8 22.5t-1 30.5q-6 8 -2.5 20.5t-0.5 23.5t-20 10q-42 -1 -46 -72z" />
<glyph unicode="&#xf719;" d="M-424 -629q10 50 37 83.5t71 37.5q30 3 47.5 -12.5t22 -37t3.5 -51.5q0 -115 -9 -181q-10 -69 77 -88q14 -3 21.5 2.5t9 17.5t0.5 23t-3.5 23t-2.5 14q1 41 -4.5 119t-5.5 89q0 16 -0.5 32.5t9 28.5t29.5 11q14 -1 21 -9t7 -16.5t-1.5 -24.5t-1.5 -21v-41v-48.5v-40.5 q0 -38 7 -157q3 -49 -52 -82q-23 -11 -35.5 -4.5t-24.5 29.5q-4 8 -7.5 10.5t-7.5 1t-7 -4.5t-8 -8.5t-7 -7.5q-60 -56 -69 30q-4 58 -1 87q4 32 -5 47.5t-43 24.5q-42 9 -59 43.5t-8 80.5zM-371 -645q-2 -23 6 -37.5t27 -10.5q13 3 20.5 12t10 17.5t4.5 24.5t3 22 q-2 10 0 21.5t-3 19t-19 4.5q-43 -9 -49 -73z" />
<glyph unicode="&#xf71a;" d="M-284 -619q-1 18 2 32t7.5 23.5t14 17t17.5 11.5t21.5 7t22 4.5t23.5 3t21 2.5q44 8 65.5 -19.5t25.5 -72.5q-2 -56 -27 -85.5t-73 -28.5q-113 5 -120 105z" />
<glyph horiz-adv-x="1294" d="M59 544q0 156 77 288.5t209.5 209.5t288.5 77q155 0 288 -76t211 -209t78 -290q0 -156 -76.5 -288.5t-209.5 -210t-291 -77.5q-156 0 -288 76t-209.5 209t-77.5 291zM67 -315q0 9 7.5 12.5t17 3.5t18.5 7.5t11 25.5l21 100h-18q-7 0 -12 5t-5 12q0 5 5 9.5t12 4.5h24 l5 24q5 26 23.5 42t46.5 16q6 0 10.5 -4.5t4.5 -10.5q0 -11 -7 -14t-16 -1.5t-18.5 -6t-13.5 -26.5l-3 -19h17q16 0 16 -14q0 -17 -16 -17h-22l-23 -106q-11 -59 -68 -59q-7 0 -12 4.5t-5 11.5zM163 544q0 -128 63.5 -236t172 -171t235.5 -63q126 0 234.5 62.5t172.5 171 t64 236.5q0 140 -77 258l-75 -326q-12 -67 -73.5 -120.5t-136.5 -53.5q-71 0 -123 55q-68 -55 -139 -55t-115.5 47t-44.5 111q0 16 24 132q-20 -7 -39.5 11.5t-19.5 40.5q0 59 89 59q38 0 65.5 -17t21.5 -54l-34 -156q-4 -27 10 -47.5t43 -20.5q37 0 68 28t40 62l33 157 q4 19 18.5 30.5t33.5 11.5q21 0 36.5 -16t15.5 -37q0 -2 -35 -168q-5 -27 9 -47.5t43 -20.5q34 0 68 27.5t41 62.5l91 401q-132 114 -309 114q-127 0 -235.5 -62.5t-172 -171t-63.5 -235.5zM206 -228q0 51 27.5 74t58.5 23q28 0 44 -15.5t16 -41.5q0 -5 -2 -23 q-19 -75 -84 -75q-32 0 -46 17t-14 41zM237 -232q0 -23 29 -23q40 0 54 51q5 17 -2.5 29.5t-25.5 12.5q-25 0 -40 -20.5t-15 -49.5zM352 -266l27 123q3 12 14 12q6 0 11 -4t5 -8h1q24 11 34 12q37 0 45 -26q4 -8 4 -20q0 -2 -0.5 -5t-0.5 -6l-18 -84q-5 -14 -16 -14 q-6 0 -10.5 5t-4.5 11q0 3 1 4l17 85q0 8 -1.5 12t-5 6t-3.5 3q-25 0 -49 -23l-20 -89q-2 -14 -16 -14q-6 0 -10 5t-4 11v4zM506 -149q0 14 16 14h22l11 52q0 12 15 12q6 0 10.5 -6t4.5 -13l-8 -45h19q6 0 11 -4.5t5 -9.5q0 -17 -16 -17h-26l-15 -60v-17q0 -12 6 -12 q2 0 7 1.5t7 1.5q16 0 16 -14q0 -18 -27 -18q-19 0 -30 12t-11 33q0 3 1.5 9.5t1.5 10.5l12 53h-16q-16 0 -16 17zM630 -228q0 47 25 72t57 25q34 0 56 -29q0 -1 1 -4l1 -3q0 -6 -4 -11t-10 -5t-17 11.5t-27 11.5q-18 0 -34.5 -18.5t-16.5 -49.5q0 -27 30 -27q8 0 19.5 6 t16.5 6q15 0 15 -17q0 -12 -17.5 -19t-33.5 -7q-31 0 -46 17.5t-15 40.5zM768 -266l16 78q15 57 69 57q6 0 11.5 -4.5t5.5 -10.5t-5.5 -10t-11.5 -4q-32 0 -38 -34l-17 -79q-2 -13 -14 -13q-7 0 -11.5 5t-4.5 11v4zM864 -228q3 16 16.5 26.5t25 13t30.5 5.5q20 0 28 -1 q0 2 1 5t1 5q0 15 -23 15q-3 0 -19.5 -3.5t-25.5 -3.5q-13 0 -13 9q0 14 21 21t44 7q48 0 48 -41q0 -2 -2 -8t-2 -8l-15 -70q-25 -27 -64 -27q-23 0 -39 15t-12 40zM892 -238q0 -17 33 -17q11 0 25 6l9 35q-36 0 -51 -5t-16 -19zM973 -315q0 10 7.5 13.5t17 3t18 7 t10.5 25.5l22 100h-20q-14 0 -14 17q0 5 4.5 9.5t9.5 4.5h27l2 24q13 58 71 58q14 0 14 -15q0 -9 -7 -12.5t-15.5 -3.5t-17.5 -8t-13 -24l-5 -19h44l6 20q0 11 14 11q15 0 15 -14l-1 -2q0 -1 -0.5 -5t-1.5 -10h22q6 0 10 -4.5t4 -9.5q0 -17 -14 -17h-29l-12 -60 q-2 -9 -2 -17q0 -12 7 -12q3 0 7.5 1.5t6.5 1.5q16 0 16 -15q0 -17 -27 -17q-17 0 -29 12t-12 33q0 3 0.5 6t1.5 7.5t1 6.5l11 53h-43l-22 -106q-13 -59 -69 -59q-6 0 -10.5 4.5t-4.5 11.5z" />
<glyph horiz-adv-x="745" d="M26 687q0 40 24.5 78t66.5 65q14 7 28 7q26 0 59 -40t33 -76q0 -6 -2 -20q-15 -62 -19 -132.5t-4 -156t-3 -133.5q0 -26 7 -91q43 127 111 421q2 7 9 43t11 49q3 10 6 36t10.5 38.5t26.5 12.5q34 0 34 -33q0 -7 -2 -23v1q-1 -6 -1 -18q0 -8 1 -11q71 -314 153 -580 q2 -5 4.5 -11.5t3.5 -7.5q0 66 5.5 229.5t5.5 231.5v42q0 10 -0.5 28t-0.5 27t1 -1v-14l2 -19v3q0 33 -14 54t-54 33q-27 10 -42 35t-15 55q0 59 27.5 88t74.5 29q73 0 82 -62q5 -39 21 -39q12 0 40 26h-1q67 67 88 67q2 0 6 -2l-1 1q6 -3 6 -11q0 -19 -29 -59t-54 -60 q-29 -24 -46.5 -50.5t-24.5 -64.5t-8 -58.5t-2 -69.5l-7 -434q0 -20 -2.5 -40.5t-9 -44.5t-21.5 -39.5t-37 -15.5q-23 0 -30.5 12t-8 38.5t-4.5 38.5q-21 71 -63 241t-77 272q-28 -28 -38 -78q-14 -70 -32 -148.5t-41.5 -173t-35.5 -146.5q-1 -3 -3 -16.5t-4 -20t-9 -13 t-19 -6.5q-15 0 -23 6.5t-9.5 13.5t-1.5 22.5t-1 21.5q-19 124 -19 378v38q0 65 -55 106q-73 54 -73 131zM80 681q0 -29 14 -51.5t39 -22.5q24 0 31.5 16.5t7 43t3.5 35.5v-1q2 16 2 23q0 48 -37 48q-31 0 -45.5 -28.5t-14.5 -62.5zM526 820q0 -20 12.5 -34t29.5 -14 q18 0 31 14t13 34q0 19 -13 33t-31 14q-17 0 -29.5 -14t-12.5 -33z" />
<glyph horiz-adv-x="587" d="M-509 1147q0 62 36 99.5t95 39.5q84 0 117 -30t34 -110q1 -59 -33 -99t-85 -41q-73 0 -118 39t-46 102zM-451 1149q5 -78 94 -82q38 -1 57.5 22t20.5 66q-4 36 -20 57t-51 16q-4 -1 -22 -3t-25 -3.5t-20.5 -7t-19 -13t-10.5 -21t-4 -31.5zM76 642q0 70 62 121.5t130 51.5 q46 0 107 -28q78 -36 109 -89t31 -127q0 -35 -7 -121t-7 -130q0 -32 1 -96.5t1 -95.5q0 -16 -1 -51.5t-1 -50.5v-17v-11q0 -38 -29 -38q-30 0 -30 30q0 7 2 23q3 19 3 44t-1.5 57t-1.5 47v286q0 111 7 177q-3 34 -70 80t-114 46q-8 0 -12 -1q-70 -14 -108.5 -60t-48.5 -133 l-4 -1q-18 48 -18 87z" />
<glyph d="M-569.5 1190q18.5 39 80.5 78q7 4 12.5 10.5t7.5 10t5.5 14t4.5 12.5q18 47 41.5 72t69.5 20q42 -4 56 -5.5t33.5 5.5t29 17.5t35.5 40.5q10 -94 -15 -119.5t-105 -1.5q-28 11 -52 6t-36 -34q-4 -15 -5.5 -23t5.5 -14t13.5 -9t16.5 -7t16 -8q7 -5 21.5 -11.5t23.5 -11.5 t19.5 -13.5t10 -17.5t-5.5 -24q-6 -11 -14 -14.5t-20.5 0.5t-20.5 7.5t-23.5 13.5t-19.5 12q-31 18 -56 22q-43 7 -74 -42q-3 -5 -5.5 -10t-2.5 -10v-8.5t2.5 -8.5t3.5 -7.5t5.5 -7.5t5.5 -6.5t7 -7t7 -6.5q44 -45 124 -42q15 5 32.5 1t14.5 -30q-3 -44 -47 -49t-112.5 35.5 t-86.5 83.5q-21 48 -2.5 87z" />
<glyph />
<glyph d="M-632 322v29v12q0 8 1 12q17 103 60 132q22 13 42 22q25 16 87 41q25 5 38 13v12v3v5q-9 19 -9 21v2q3 0 5 -5q0 -3 1 -4q2 -5 5 -9.5t8.5 -9.5t8.5 -8t12 -9.5t11 -8.5q21 -8 36 -8q23 0 57 18.5t48 55.5q0 -10 -14 -33q-13 -13 -13 -28q0 -4 1 -6h2q20 0 27 -4 q89 -33 145 -90q35 -44 35 -115v-23v-8v-9h-594zM-468 783v21q2 3 7 11.5t9 14.5h4q2 0 2 1v7q25 8 29 54q4 2 10.5 4.5t10 4t6 4t2.5 5.5q8 0 12 4q8 -6 20 -6q0 6 13 13q7 -10 9 -13q6 15 8 17h5q3 0 9 8q20 0 76 -14q5 -8 16.5 -16.5t17.5 -10.5q2 -14 17 -55t16 -45 q0 -10 -3 -26.5t-7 -33.5t-5 -23l-3 5q-7 -5 -17.5 -28t-10.5 -27v79q-10 9 -18 50q-25 43 -83 43q-63 0 -80 -53l-25 -45v-89h-8q-7 78 -17 97q-3 -10 -4 -15l-3 15q-3 -6 -3 -12q0 -5 5 -22t5 -23q-22 29 -22 99zM-451 715v3q3 0 3 -1q0 -2 -3 -2zM-438 563q6 -62 88 -104 q43 0 62 12q15 11 27 20q2 9 24 24t22 33q-4 16 -24 16q-2 0 -2 -2q0 -10 5 -18q-14 -33 -39 -49q6 17 11 17q2 3 5 21.5t3 24.5q0 13 -4 18q-40 -25 -66 -25q-21 0 -71 38l1 -10v1q0 -2 -6 -4q1 -4 1.5 -13t0.5 -14q-4 4 -19 9zM-438 851v2q2 0 2 -1t-2 -1zM-420 642v2 q3 0 3 -2h-3zM-417 628v9q4 -1 4 -9h-4zM-417 863q4 0 4 2q0 4 -4 4v-6zM-401 745l1 1l2 2q7 5 18 5q18 0 36 -11q-3 -1 -8 -1q-34 0 -49 4zM-395 722q13 10 23 10q19 0 24 -4l4 -5l2 -5q0 -1 -3.5 -2.5t-9.5 -4t-12 -2.5l15 4l1 2l1 2h-2q-3 0 -11.5 2t-10.5 2q-18 0 -21 1 zM-384 724h3l7 -2q7 -1 9 -1q-6 1 -6 5q0 2 5 4h-7q-2 -1 -11 -6zM-374 642q2 0 13.5 1t15.5 1q5 0 14 -2.5t10 -2.5q2 0 11.5 1.5t13.5 1.5q19 -3 23 -5q0 -11 -21.5 -21.5t-28.5 -10.5q-1 0 -6.5 0.5t-10.5 0.5q-10 0 -22 13.5t-12 22.5zM-364 638q1 -2 8 -11q25 -5 31 -5 q2 0 12 0.5t15 0.5q2 0 8.5 5t6.5 7t-9 2l-11 -1q-11 -1 -15 -1q-3 0 -10.5 2t-21.5 2l-5 -1h-7h-2zM-363 721h15l-1 3q-1 0 -3 1.5t-4 2.5l-1 1q1 0 1 -3q0 -4 -7 -5zM-360 725q0 -2 2 -2t2 2t-2 2t-2 -2zM-342 669q0 1 2 1q7 0 7 -4h-2h-2l-1 1q-4 0 -4 2zM-337 614h1 l1 -1l2 -2h5v2v1l-6 1l-2 1zM-335 715v7q3 0 3 -4q0 -3 -3 -3zM-323 613h7l3 1v1v2h-4v-1h-4h-2v-3zM-306 664l8 2h2l2 -2h-12zM-294 923q0 -2 5 -4l1 2q1 2 3 4q-9 0 -9 -2zM-293 713l7 6q6 6 9 6q10 0 18 -2.5t11 -5t3 -3.5l4 -3h-28q-4 0 -11 1t-9 1h-4zM-288 714h11 q5 -1 8 -1l12 1h2q1 -1 8 -1q-3 0 -9 5t-20 5q-1 0 -2 -0.5t-2 -2t-3 -3t-5 -3.5zM-286 736q6 8 11 8q24 0 35 -5q1 0 2 -1q5 -2 10 -7q-2 -1 -9 -1q-10 0 -26 6l-14 2h-4zM-279 919q6 0 6 3t-6 3v-6zM-277 717q0 -1 2 -1q3 0 3 1q-2 2 -3 2q-2 0 -2 -2zM-277 717q0 5 8 5 t8 -5q0 -3 -8 -3t-8 3zM-276 704v2h6q-2 -2 -6 -2zM-221 895l11 -17q7 0 7 4t-6 8.5t-12 4.5zM-220 642q2 8 5 11v-4q0 -7 -5 -7zM-188 698v2q3 0 3 -1q-1 -1 -3 -1z" />
</font>
</defs>
</svg>
