<?xml version="1.0" standalone="no"?>
<!DOCTYPE svg PUBLIC "-//W3C//DTD SVG 1.1//EN" "http://www.w3.org/Graphics/SVG/1.1/DTD/svg11.dtd" >
<svg xmlns="http://www.w3.org/2000/svg" xmlns:xlink="http://www.w3.org/1999/xlink" version="1.1">
<metadata></metadata>
<defs>
<font id="waan_freeregular" horiz-adv-x="0" >
<font-face units-per-em="2048" ascent="1638" descent="-410" />
<missing-glyph horiz-adv-x="303" />
<glyph unicode="&#x3b;&#x3b;For&#x20;Education&#x20;Used&#x20;Only&#x3b;&#x3b;" horiz-adv-x="647" d="M37 510q25 193 131 270q84 49 186 33q104 -16 152.5 -81.5t64 -157t15.5 -177.5q6 -283 -113 -358q-70 -43 -153.5 -45t-147.5 29q-100 59 -125.5 191t-9.5 296zM104 399q-4 -125 27 -212t107 -117q78 -23 143 -4q96 43 120.5 131t14.5 262q-14 190 -94 254 q-66 53 -138.5 41.5t-121.5 -86.5q-59 -100 -58 -269zM169.5 397q2.5 74 29.5 135q29 57 70.5 79t82.5 14q80 -18 86 -115q0 -25 -26 -31q-18 -2 -35 17q-6 35 -21 53q-12 16 -43.5 10t-53 -48t-23.5 -134q0 -55 12 -84q20 -59 80 -53q29 4 47 22q8 39 39 39q43 -2 28 -53 q-29 -68 -106 -74q-47 -4 -86 14q-41 27 -60 74q-23 61 -20.5 135z" />
<glyph unicode="&#x3b;&#x3b;Registered&#x3b;&#x3b;" horiz-adv-x="647" d="M37 510q25 193 131 270q84 49 186 33q104 -16 152.5 -81.5t64 -157t15.5 -177.5q6 -283 -113 -358q-70 -43 -153.5 -45t-147.5 29q-100 59 -125.5 191t-9.5 296zM104 399q-4 -125 27 -212t107 -117q78 -23 143 -4q96 43 120.5 131t14.5 262q-14 190 -94 254 q-66 53 -138.5 41.5t-121.5 -86.5q-59 -100 -58 -269zM203 526v31q0 35 24.5 48t66.5 14.5t75.5 -12t54 -45.5t22.5 -85q0 -80 -43 -108q-27 -16 -59 -23q33 -59 70 -113q14 -23 10 -35t-23 -12q-39 0 -54 22.5t-40 92.5q-6 20 -10 35l-33 2q0 -16 1 -55t1 -54q0 -29 -9 -37 t-34 -6q-14 0 -16 19q-2 39 -3 166t-1 155zM264 518q2 -52 2 -115q53 -10 90 11q35 27 21 102q-16 43 -62.5 44t-50.5 -11v-31z" />
<glyph unicode="&#x3b;&#x3b;multiply&#x3b;&#x3b;" horiz-adv-x="481" d="M51 420q-16 20 0 41q10 16 34 19t38 -13q20 -23 38.5 -47.5t57.5 -69.5q14 16 25.5 31.5t25.5 32.5q10 14 52 53q12 14 28.5 14t26.5 -16q12 -20 2 -37q-4 -6 -24.5 -28.5t-40 -46t-38.5 -46.5q-10 -12 3 -26q25 -29 49 -60t51 -59q29 -37 -8 -62q-33 -20 -60 13 q-23 29 -45 56t-49 56q-10 -14 -63 -96q-14 -23 -45 -29q-16 -4 -28.5 9.5t-6.5 31.5q6 20 36.5 61.5t47.5 61.5q12 14 0 29l-92 110q-4 4 -7.5 8.5t-7.5 8.5z" />
<glyph unicode="&#x3b;&#x3b;Divide&#x3b;&#x3b;" horiz-adv-x="559" d="M74 301q-2 20 18 37q25 10 61 10h173h100q31 0 39 -22q8 -20 -16 -41q-18 -14 -52 -13q-43 4 -84 4q-119 -2 -202 -4q-33 4 -37 29zM205 131q-6 33 8 53.5t47 22.5q23 2 40 -14t17 -43q-4 -31 -32 -48q-35 -16 -64 7q-14 12 -16 22zM211 471q2 18 17.5 30.5t39.5 16.5 q25 6 42.5 -9t11.5 -46q-11 -45 -66 -49q-31 2 -40 22.5t-5 34.5z" />
<glyph unicode="&#x2018;&#x2018;" horiz-adv-x="311" d="M33 829q-6 51 30 58q43 10 48 -35q2 -20 2 -40.5t2 -41.5q2 -29 4 -55t4 -51q6 -29 -14 -41q-23 -14 -52 -5q-4 4 -6 23q-14 162 -18 188zM168 838q0 33 20 49q23 12 31 2q23 -12 23 -37v-121q0 -61 2 -92q2 -27 -16.5 -41t-32.5 -6q-20 10 -19 41q-2 51 -3 102t-5 103z " />
<glyph unicode="&#x2019;&#x2019;" horiz-adv-x="311" d="M49 639q2 31 2 92v121q0 25 23 37q8 10 30 -2q20 -16 21 -49q-4 -51 -5 -102.5t-3 -102.5q2 -31 -19 -41q-14 -8 -32.5 6t-16.5 41zM170 664q2 25 4 51t4 55q2 20 2 40.5t2 41.5q4 45 47 35q37 -6 31 -58q-4 -27 -18 -188q-2 -18 -6 -23q-29 -10 -52 5q-20 12 -14 41z " />
<glyph unicode="&#x3b;&#x3b;Trademark&#x3b;&#x3b;" horiz-adv-x="532" d="M-45 802.5q-6 10.5 2 26.5q12 23 45 17q25 -2 84 3t78 5q16 0 24.5 -4t11.5 -17.5t-7 -25.5q-16 -12 -43 -12q-31 -2 -39 -4q0 -6 1 -38t3 -73t6 -82q4 -23 -17 -35q-8 -6 -20 -6q-27 -2 -27 27q0 37 -1 72.5t-1 80.5v37q0 18 -16 14l-39 -2q-18 0 -29 2q-10 4 -16 14.5z M210 637.5q-1 26.5 1 52.5q4 80 6 107q2 31 21.5 46t46.5 -1q14 -10 26.5 -20.5t24.5 -20.5q14 14 37.5 29.5t44.5 21.5q29 6 33 -29q2 -18 3 -31.5t3 -33.5q4 -53 5 -91t1 -65q0 -39 -31 -41q-29 -4 -31 35v68l2 112q-29 -33 -59 -37q-39 -6 -74 45q-2 -100 0 -124.5 t2 -63.5q0 -29 -9 -35t-25 -6q-25 0 -25 27q-2 29 -3 55.5z" />
<glyph unicode=" "  horiz-adv-x="303" />
<glyph unicode="&#x09;" horiz-adv-x="303" />
<glyph unicode="&#xa0;" horiz-adv-x="303" />
<glyph unicode="!" horiz-adv-x="374" d="M133 31q0 27 19.5 46t40.5 19q63 0 63 -55q0 -29 -18.5 -45t-47.5 -16q-57 2 -57 51zM152 764q-6 43 41 47q41 4 40 -41v-133l-2 -158q0 -111 4.5 -218t-47.5 -107q-29 -4 -30 28q-2 35 -3 92.5t-1 92.5v184t-1 147.5t-1 65.5z" />
<glyph unicode="&#x22;" horiz-adv-x="311" d="M33 829q-6 51 30 58q43 10 48 -35q2 -20 2 -40.5t2 -41.5q2 -29 4 -55t4 -51q6 -29 -14 -41q-23 -14 -52 -5q-4 4 -6 23q-14 162 -18 188zM168 838q-2 35 20 49q20 10 33 2q20 -12 21 -37v-121q0 -61 2 -92q2 -27 -16.5 -41t-32.5 -6q-20 10 -19 41q-2 51 -3 102t-5 103z " />
<glyph unicode="#" horiz-adv-x="688" d="M31 227q-4 23 20 25q18 4 84 8h17q8 133 16 272q-25 -2 -49 -2q-25 0 -35 7.5t-16 46.5q-2 18 14 20q18 4 90 8h2q6 96 16 160q4 39 29 41q27 4 36 -3t7 -42q-6 -82 -12 -156q53 -2 84 -2q74 0 129 2q10 96 16 160q4 39 25 41q29 4 38 -3t7 -42q-6 -84 -12 -160h43 q37 4 43 -20q6 -31 -0.5 -41t-40.5 -12q-27 0 -52 -3q-6 -88 -14 -178q-2 -45 -6 -96q18 -2 33 -2q39 -2 43 -25q6 -25 0 -35t-41 -12q-20 0 -41 -2q-2 -68 -4 -137q-2 -25 -5 -34t-28 -9l-14 -2q-23 0 -25 16q-2 19 4 113q0 29 2 53h-133h-84q-2 -68 -4 -137 q-2 -25 -10 -34t-25 -9l-14 -2q-23 0 -25 16q-2 18 2 113q2 29 4 53q-33 -2 -63 -2q-25 0 -35 7.5t-16 39.5zM223 260h74h143q8 133 17 272h-119h-94q-7 -88 -15 -178q-2 -45 -6 -94z" />
<glyph unicode="$" horiz-adv-x="446" d="M23.5 149.5q9.5 47.5 49.5 60.5t31 -30q-18 -72 62 -102q55 -14 88 -4t57 47q18 45 0 96q-41 76 -112 148q-123 117 -154 194.5t0 155.5q31 76 117 96q0 18 1 33.5t1 29.5q6 35 33.5 34t38.5 -29l-3 -62q49 -4 95 -37q100 -78 47 -127q-43 -16 -74 41q-29 47 -88 51.5 t-94 -57.5q-23 -47 -2.5 -97t96.5 -134q143 -143 171 -218t7.5 -135.5t-94.5 -93.5q-23 -10 -43 -10v-27q-2 -18 -12.5 -28.5t-22.5 -10.5t-23.5 8.5t-13.5 26.5v29q-20 0 -39 4q-72 18 -100.5 59t-19 88.5z" />
<glyph unicode="%" horiz-adv-x="704" d="M59 557.5q-2 20.5 0 69.5q2 43 9 59q10 31 29.5 46.5t47.5 17.5q70 8 103 -29q14 -20 20 -58t0 -96q-12 -78 -90 -86q-41 -6 -67.5 5.5t-38 31t-13.5 40zM108.5 14.5q-6.5 18.5 12.5 63.5q35 74 53 104q37 78 80 159t84 159q66 125 111 196.5t67.5 96t32.5 28.5 q23 12 39 2q20 -14 2 -43q-4 -10 -38 -61t-56 -88q-57 -106 -113.5 -213t-120.5 -217q-45 -92 -82 -168q-16 -35 -47 -35q-18 -2 -24.5 16.5zM121 625q0 -16 2 -45t18.5 -34t32.5 -3q33 8 33 53q0 23 -5 60.5t-44 39.5q-18 0 -29 -16q-8 -25 -8 -55zM413 239.5q7 55.5 56 77 t98 -13.5q35 -30 35 -104q4 -88 -57 -119q-23 -12 -52.5 -8t-52.5 28q-18 20 -26 52t-1 87.5zM471 192.5q0 -57.5 45 -53.5q29 6 29 66.5t-45 54.5q-29 -10 -29 -67.5z" />
<glyph unicode="&#x26;" horiz-adv-x="579" d="M49 186q10 70 45 144q8 20 17.5 39.5t19.5 40.5q8 14 -4 36.5t-18 32.5q-18 35 -28.5 70t-8.5 74q4 84 73 114q55 25 100.5 10.5t64 -57.5t7.5 -100q-20 -80 -92 -164q33 -49 65 -90t64 -86q23 29 34 44t38 53t55 15q25 -18 4 -51q-8 -12 -73 -96q-10 -12 0 -25 q18 -23 33.5 -42t60.5 -72q49 -51 13 -64.5t-45 -12.5t-27.5 24.5t-37 45l-55.5 64.5q-8 -10 -30 -39q-37 -43 -80 -74q-72 -47 -144 11q-66 57 -51 155zM127 207q-16 -80 20.5 -106.5t68.5 -10.5t79 82q12 16 12 22.5t-14 22.5l-72 92q-8 10 -39 53q-31 -59 -55 -155z M147 623q-2 -35 8 -65.5t33 -59.5q14 8 34 44t22 85t-47 51q-23 0 -36.5 -14.5t-13.5 -40.5z" />
<glyph unicode="'" horiz-adv-x="196" d="M37 829q-6 51 37 58q31 10 35 -35q6 -61 8 -82q2 -29 4 -55t4 -51q2 -29 -14 -43q-14 -8 -43 -3q-10 4 -13 23q-14 162 -18 188z" />
<glyph unicode="(" horiz-adv-x="321" d="M53 446.5q8 106.5 45 179t64 105.5q16 18 38.5 30.5t45.5 0.5q14 -12 9 -22.5t-15 -20.5q-59 -80 -78 -125t-29 -94q-8 -63 -9 -126t11 -126q25 -131 80 -197q27 -29 57 -59q43 -50 -18 -62q-45 2 -78 50q-25 29 -45 66.5t-37 74.5q-25 55 -37 137t-4 188.5z" />
<glyph unicode=")" horiz-adv-x="321" d="M33 -8q31 31 57 59q55 66 80 197q12 63 11 125.5t-9 126.5q-10 49 -28.5 94t-77.5 125q-10 10 -15.5 20.5t8.5 22.5q23 12 45.5 0t38.5 -31q27 -33 64 -105.5t45 -179t-4 -188.5t-37 -137q-16 -37 -36.5 -75t-45.5 -66q-33 -48 -78 -50q-61 12 -18 62z" />
<glyph unicode="*" horiz-adv-x="507" d="M47 539q-16 23 2 43q10 10 53 40.5t97 65.5q-43 14 -109 49q-10 6 -18.5 15.5t-5.5 23.5q6 27 34 33q25 2 50 -14t67 -45l-6 79v19q4 51 53 35q18 -6 23 -29q2 -18 0 -74l-2 -35q63 51 116 78q33 8 45 -24q6 -20 -10 -33q-16 -14 -133 -72q20 -14 50 -35.5t50 -40.5 q14 -12 23.5 -24t-4.5 -29q-18 -20 -36.5 -12t-35.5 22q-10 8 -65 64q10 -63 14 -102t-8 -52q-18 -12 -45 -6q-16 6 -17 27l-2 86v49q-29 -33 -114 -102q-37 -23 -66 0z" />
<glyph unicode="+" horiz-adv-x="516" d="M59 301q-2 20 19 37q25 10 60.5 10h80.5q-2 29 -8 93.5t35 78.5q16 4 28.5 -4t16.5 -29q2 -117 2 -139h119q31 0 39 -22q8 -20 -17 -41q-18 -14 -51 -13q-43 4 -84 4q0 -20 -1 -66t1 -63q0 -23 -16.5 -40t-36.5 -13q-31 8 -29 43q4 113 4 125q0 20 -20 17q-20 -2 -105 -7 q-33 4 -37 29z" />
<glyph unicode="," horiz-adv-x="178" d="M10 -35q10 33 18.5 63.5t16.5 61.5q10 23 21 31q20 16 34 14q23 0 33 -11t6 -38q-12 -61 -43 -119q-14 -23 -24 -30t-33 -9q-41 0 -29 37z" />
<glyph unicode="-" horiz-adv-x="423" d="M39 276q0 23 5 44.5t37 18.5t77 -1q20 2 92 2t92 -2t29 -21q10 -35 -15 -49q-20 -10 -98.5 -8t-187.5 -4q-31 0 -31 20z" />
<glyph unicode="." horiz-adv-x="239" d="M27 59q-2 27 23.5 52.5t51.5 25.5q27 0 43.5 -22.5t16.5 -55.5q2 -23 -19.5 -38t-54.5 -15q-61 6 -61 53z" />
<glyph unicode="/" horiz-adv-x="522" d="M-1.5 -4q-6.5 18 11.5 63q35 74 53 105q37 78 80 158.5t84 158.5q66 125 111 197t67.5 96.5t32.5 28.5q23 12 39 2q20 -14 2 -43q-4 -10 -37.5 -61.5t-56.5 -88.5q-57 -106 -113.5 -212.5t-119.5 -217.5q-45 -92 -82 -168q-16 -34 -47 -34q-18 -2 -24.5 16z" />
<glyph unicode="0" horiz-adv-x="505" d="M41 339q-4 153 14 241q27 121 74 177t111.5 60t103.5 -29q29 -25 48.5 -62.5t27.5 -74.5q8 -31 16.5 -80t12.5 -217q-2 -53 -7.5 -103t-23.5 -104q-68 -166 -207 -145q-66 14 -109 84q-57 100 -61 253zM117 436q-10 -217 61 -313q33 -45 88 -41q68 18 86 115 q13 33 19 168q0 47 -2 71q-2 55 -8.5 122t-35 126t-92.5 49q-74 -16 -95 -124.5t-21 -172.5z" />
<glyph unicode="1" horiz-adv-x="399" d="M29 639q-14 31 12 55q59 51 158 115q74 47 77 -72q2 -55 1 -110.5t-1 -110.5q2 -82 1 -164t0.5 -155.5t-1.5 -108.5q8 -4 37 -4q27 -2 35 -27q6 -41 -18.5 -49t-53.5 -6q-37 0 -79.5 1t-118.5 -3q-35 0 -43 27q-4 10 2 24.5t20 22.5q16 8 33 10l90 -2q12 0 16.5 3 t4.5 118.5t2 276.5t3 199t-1 58q-31 -31 -61.5 -57.5t-45.5 -36.5q-45 -35 -69 -4z" />
<glyph unicode="2" horiz-adv-x="487" d="M47 72q6 31 74 131q180 266 215 350q25 57 20 123q-4 29 -27.5 52.5t-68.5 25.5q-94 -2 -110 -86q6 -16 6 -44t-12.5 -45.5t-30.5 -21.5q-35 2 -45 29q-14 70 6 116q47 123 190 119q150 -10 170 -129q6 -45 -4 -89t-40 -107.5t-74 -135t-101 -154.5t-84 -124 q16 -10 35 -6q209 16 229 16q39 -2 45 -33q10 -43 -28 -55q-10 -4 -52.5 -4t-139.5 1t-124 -1q-63 10 -49 72z" />
<glyph unicode="3" horiz-adv-x="493" d="M25 152q-4 41 10 81q29 68 98 39q-41 -74 -18 -151q68 -78 188 -23q59 74 45 226q-23 96 -112 87.5t-105 22.5q-16 33 12 68q70 80 207 235q-100 0 -158.5 -2t-101.5 2q-41 4 -39 39q0 49 84 41l146 -4q49 -2 83.5 -10t49.5 -45q8 -43 -29 -86q-76 -89 -170 -191 q150 10 191 -96q25 -84 11 -187.5t-71 -154.5t-178 -39q-127 27 -143 148z" />
<glyph unicode="4" horiz-adv-x="497" d="M41 369q4 164 6 225t6 168q0 25 10.5 40t32.5 15q16 0 25.5 -10t7.5 -35l-6 -104q-2 -57 -4 -113.5t-2 -120.5q-2 -33 4 -37t160 6q2 16 2 74q2 61 6 275q0 45 13 55t30 6q29 -6 30 -53q0 -82 -3 -163t-7 -167v-20l64 2q20 -8 21 -24.5t-9 -39.5q-25 -16 -78 -14 q-4 -72 -4 -268q0 -23 -5 -40.5t-24 -25.5q-23 -6 -38 1t-15 32q0 16 6 109.5t6 160.5q6 29 -22 25q-141 -6 -158 -6q-49 0 -55 47z" />
<glyph unicode="5" horiz-adv-x="495" d="M50.5 634q-11.5 130 23.5 146q18 14 135 33q106 12 178 6q45 -4 43 -45q-4 -39 -63 -35q-43 6 -135.5 -1t-110.5 -9q4 -66 9 -129t13 -133q35 14 68 20q86 18 147 -53q47 -68 56.5 -159t-18 -166.5t-115.5 -102.5q-78 -12 -128.5 2.5t-74 55t-19.5 94.5q33 37 53.5 28.5 t24.5 -32.5q6 -63 62 -76q61 -8 102 20q43 39 44 112t-9 105.5t-31 69.5q-16 27 -50 32t-69 -7q-29 -14 -53 -27q-53 -14 -63 55q-8 66 -19.5 196z" />
<glyph unicode="6" horiz-adv-x="481" d="M41 244q-2 158 3 257t21.5 166.5t68.5 114.5t147 31q123 -35 127 -170q-2 -47 -35 -57q-43 -4 -47 41q-6 106 -75 115.5t-101 -60.5q-16 -47 -21 -96q-10 -117 -12 -201l30 21q78 47 150 30q39 -10 65 -47q35 -47 48 -113q23 -154 -27.5 -217t-171.5 -59q-88 8 -135 86 q-33 63 -35 158zM115 252q-6 -109 57 -160q39 -27 99.5 -16.5t72.5 92.5q8 125 -51 197q-33 23 -79 5t-71 -51q-25 -31 -28 -67z" />
<glyph unicode="7" horiz-adv-x="458" d="M29 782q0 35 39 33q190 -2 224 -6t60 -16q92 -41 70 -131q-16 -63 -51 -162t-49 -125q-76 -186 -101 -252q-14 -33 -33.5 -75t-44.5 -50q-23 -6 -44 4t-5 51q55 109 90 184.5t70 153.5q33 76 96 275q6 41 -28 57q-68 28 -185 18q-25 -2 -31 -6t-2 -30q6 -90 7 -121 q0 -37 -39 -45q-37 -4 -37 26z" />
<glyph unicode="8" horiz-adv-x="448" d="M43 769q4 28 47 40q35 12 117 12t127 -10q61 -16 65 -84q2 -55 -21.5 -110.5t-48 -88t-50.5 -63.5q-10 -12 -12.5 -17.5t7.5 -21.5q27 -43 49.5 -89t46 -104.5t-0.5 -134.5q-29 -59 -68 -78.5t-83 -21.5t-73 6q-74 25 -94 93.5t6 144.5q27 72 66 126t45 62q10 16 2 29 q-23 41 -43.5 81t-48.5 91q-14 27 -8 42t34.5 21t40.5 -24q14 -27 31.5 -66t46.5 -98q35 41 55.5 70.5t43.5 80.5q16 43 0 84q-76 14 -122 11.5t-83 -13t-51 -8.5q-27 10 -23 38zM119 123q20 -55 73.5 -57.5t84 23.5t30.5 83q-18 121 -92 213q-53 -63 -84 -141 q-27 -61 -12 -121z" />
<glyph unicode="9" horiz-adv-x="458" d="M22 498.5q-12 72.5 7 138.5q51 141 186 178q74 16 119 -11.5t56 -93t3 -131t-26 -245.5l-11 -105q-4 -41 -16 -170q-8 -66 -49 -59q-41 -4 -31 56.5t19 138.5q16 141 22 215q-104 -66 -199 -23q-68 39 -80 111.5zM98 524q10 -51 56 -71q80 -20 126.5 28t38.5 193 q-10 61 -46.5 71.5t-88.5 -20.5q-100 -63 -86 -201z" />
<glyph unicode=":" horiz-adv-x="276" d="M63 135q-2 27 24 52.5t52 25.5q27 0 43.5 -22.5t16.5 -55.5q2 -23 -19.5 -38t-54.5 -15q-61 6 -62 53zM63 446q-2 27 24 46.5t52 19.5q27 0 43.5 -16.5t16.5 -49.5q2 -23 -19.5 -38t-54.5 -15q-61 6 -62 53z" />
<glyph unicode=";" horiz-adv-x="268" d="M51 59q10 33 18.5 64t16.5 61q10 23 20 31q20 16 35 14q23 0 33 -11t6 -38q-12 -61 -43 -119q-14 -23 -24 -29.5t-33 -8.5q-41 0 -29 36zM63 446q-2 27 24 52.5t52 25.5q27 0 43.5 -22.5t16.5 -55.5q2 -23 -19.5 -38t-54.5 -15q-61 6 -62 53z" />
<glyph unicode="&#x3c;" horiz-adv-x="440" d="M51 279.5q-2 9.5 6 27.5q4 8 56.5 87t99.5 136q29 29 55.5 20t24.5 -38q-4 -20 -12 -31q-31 -41 -66 -81t-63 -81q-10 -14 -9.5 -18t11.5 -16q37 -45 81 -92.5t70.5 -73t30.5 -33.5q17 -31 -53 -68q-14 12 -41 42t-41 46q-35 41 -68 78t-70 76q-10 10 -12 19.5z" />
<glyph unicode="=" horiz-adv-x="464" d="M39 182q-2 10 4 38t38 26t77 0q20 2 111 2t111.5 1t29.5 -20q8 -12 4 -31.5t-19 -23.5q-16 -4 -29.5 -5t-100 -1t-195.5 -6q-31 0 -31 20zM45 356q-4 33 2 47.5t37 15.5t154.5 1t141 -1t28.5 -13q10 -12 5 -33t-29 -26t-114 -4t-192 -3q-31 -4 -33 16z" />
<glyph unicode="&#x3e;" horiz-adv-x="434" d="M66 86q4 8 28.5 34.5t65.5 65.5t86 95q10 12 11 16t-11 25q-37 47 -66.5 85.5t-54.5 73.5q-8 10 -16 31q-2 29 24.5 38t54.5 -20q47 -57 98.5 -136t55.5 -87q8 -18 6 -27.5t-12 -19.5q-35 -39 -67.5 -76t-67.5 -78q-14 -16 -41 -46t-41 -42q-70 37 -53 68z" />
<glyph unicode="?" horiz-adv-x="475" d="M59 735q-14 29 25 51q41 20 83 30.5t87 14.5q61 4 111 -24q37 -25 51 -70q16 -66 -6 -123q-29 -61 -97 -96q-57 -29 -82 -39q-12 -6 -12 -20q0 -23 -1 -107t1 -102q4 -23 -13.5 -41.5t-39.5 -13.5q-23 4 -25 34v44.5t2 207.5q0 29 9.5 44.5t50.5 27.5q80 25 125 61 q41 76 4 131q-35 29 -92.5 19t-112.5 -39q-14 -8 -35 -8q-23 2 -33 18zM131 80q12 31 43 43q27 12 50.5 -3t23.5 -44q0 -31 -34 -50.5t-62 -7.5q-39 20 -21 62z" />
<glyph unicode="@" horiz-adv-x="647" d="M37 510q25 193 131 270q84 49 186 33q104 -16 152.5 -81.5t64 -157t15.5 -177.5q6 -283 -113 -358q-70 -43 -153.5 -45t-147.5 29q-100 59 -125.5 191t-9.5 296zM104 399q-4 -125 27 -212t107 -117q78 -23 143 -4q96 43 120.5 131t14.5 262q-14 190 -94 254 q-66 53 -138.5 41.5t-121.5 -86.5q-59 -100 -58 -269zM182 233q-27 82 18.5 153t166.5 52l22 -12q8 63 -20 115q-27 27 -76 18q-33 -6 -47.5 -31.5t-44.5 -15.5q-25 16 -15 43q14 27 46 49.5t81 22.5q66 0 103 -49.5t35 -161.5v-162q2 -92 -54 -76q-8 4 -18 0 q-47 -6 -119 -6q-53 4 -78 61zM240 262q14 -33 56 -29.5t77 9.5q12 4 15 37.5t-3 82.5q-43 33 -96 19q-37 -14 -48.5 -53t-0.5 -66z" />
<glyph unicode="A" horiz-adv-x="536" d="M46 445v29q0 29 1 58q6 115 52 188q45 73 107 90q36 10 70 10q24 0 46 -5q54 -12 100 -74q43 -76 43 -229v-27v-141t1 -180v-56q0 -48 -1 -65q-2 -45 -38 -47t-36 33q0 16 -1 64t-1 99.5t-1 107t-1 65.5h-39q-143 0 -221 -13v-18q2 -55 2 -121t1 -92.5t1 -52.5 q2 -25 -7 -43.5t-32 -22.5q-35 -10 -41 33q-2 23 -3 194.5t-2 215.5zM127 434q12 -2 56 1t202 7q0 35 -1 87.5t-5 84.5q-6 70 -41 104q-31 30 -67 30h-9q-63 -8 -106 -82q-23 -49 -28 -121q-3 -40 -3 -70q0 -24 2 -41z" />
<glyph unicode="B" horiz-adv-x="491" d="M44 770q1 27 28 39q69 11 122 11q78 0 122 -23q76 -39 92 -117q5 -25 5 -49q0 -93 -71 -168l-23 -12q84 -20 116 -84q30 -60 30 -128v-8q-6 -223 -240 -233q-42 -1 -73 -1q-78 0 -90 7q-16 10 -17 35v63q2 39 2 149q0 83 -1 205q-2 215 -2 284v30zM117 737q-1 -24 -1 -61 q0 -74 3 -199h88q27 0 57 15l45 45q28 59 28 102q1 51 -39 78q-45 32 -104 32q-36 0 -77 -12zM119 104q0 -16 7 -25t87 -9q98 8 138 54t40 120q-6 88 -48 118.5t-91 36.5q-12 1 -31 1q-38 0 -102 -5q4 -133 4 -189t-4 -102z" />
<glyph unicode="C" horiz-adv-x="452" d="M57 637q18 111 86 162q37 26 86 26q9 1 21 -1q62 -6 100 -51q35 -42 35 -92v-5q2 -29 -19.5 -39t-37.5 -2q-12 6 -17 20q-12 61 -47 82q-20 6 -36 6q-56 0 -78 -65q-26 -83 -26 -231v-31q3 -170 21 -256q16 -59 58 -78q14 -3 26 -3q61 0 90 66l21 74q4 12 10 23.5 t25 15.5q39 6 45 -25v-11q0 -41 -25 -105q-53 -109 -155 -117q-9 -1 -18 -1q-52 0 -99 40q-47 49 -64 137q-16 127 -16 246q0 111 14 215z" />
<glyph unicode="D" horiz-adv-x="503" d="M52 116.5q1 28.5 2 321.5t1 326q0 41 23 49q24 8 63 8q31 0 70 -5q90 -11 165 -108.5t83 -267.5v-13q0 -288 -176 -392q-77 -36 -152 -36q-20 0 -39 3q-37 12 -39 57q-2 29 -1 57.5zM133 78h19q129 4 202 158q29 97 29 184q0 131 -66 239q-66 86 -156 86q-13 0 -26 -2 q-2 -27 -2 -32q1 -64 1 -164v-109q-1 -176 -1 -248v-112z" />
<glyph unicode="E" horiz-adv-x="464" d="M43 548q-1 33 -1 60.5t1 48.5q2 121 141 156q41 5 78 5q24 0 46 -2q58 -4 92 -26q20 -12 20 -31q0 -15 -12 -34q-10 -10 -26 -10q-20 0 -48 16q-41 16 -81 16q-37 0 -71 -14q-63 -25 -67 -92q-1 -36 -1 -84.5t1 -110.5q134 7 200 9q48 -7 48 -34q0 -14 -13 -34 q-31 -4 -143 -4l-78 -2q-12 0 -12 -12q-1 -22 -1 -48q0 -65 7 -157q8 -82 96 -92h18q81 0 142 32q8 2 14 2q29 0 38 -28q2 -7 2 -15q0 -25 -32 -43q-74 -20 -145 -20q-45 0 -90 8q-109 20 -119 160q-3 92 -3 174v40v62q0 60 -1 104z" />
<glyph unicode="F" horiz-adv-x="403" d="M45 508q0 111 4 145q12 127 123 158q45 10 87 10q74 0 140 -30q6 -18 6 -31q0 -34 -40 -34q-11 0 -25 3q-35 8 -47 12q-26 8 -50 8q-32 0 -61 -14q-55 -33 -61 -104q-1 -45 -1 -80q0 -70 5 -100q2 -12 16 -13q98 4 135 4q47 4 51.5 -24.5t-16.5 -46.5q-36 -17 -89 -17h-9 q-59 2 -78 2q-14 0 -14 -12q0 -61 2 -285q0 -57 -31 -61q-16 -2 -28.5 1t-14.5 21q-4 25 -4 488z" />
<glyph unicode="G" horiz-adv-x="530" d="M49 487q10 213 107 288q59 46 126 46q40 0 84 -17q104 -42 104 -171q0 -11 -1 -23q-20 -23 -51 -20q-14 2 -21.5 11t-9.5 22q-2 127 -106 127q-57 0 -105 -70q-35 -61 -43 -139q-6 -65 -6 -140.5t6 -160.5q12 -170 98 -172l121 22q43 20 43 53q4 35 5 79v45v46 q-1 47 -17 48t-55 0t-43 -1q-39 2 -47 19q-4 10 -4 19q0 32 53 38q17 1 47.5 1t75.5 -1q29 2 41 -10t16 -37q5 -42 5 -97v-18q-1 -67 -3 -127q-2 -51 -30.5 -83.5t-69.5 -47.5q-60 -20 -132 -20q-24 0 -49 2q-68 10 -99.5 72.5t-38.5 215.5q-4 82 -4 134q0 44 3 67z" />
<glyph unicode="H" horiz-adv-x="526" d="M46 74v32q0 100 3 484q-1 47 -1 93.5t1 92.5q0 25 11.5 36t19.5 9h6q35 0 35 -41q1 -12 1 -48q0 -34 -1 -92q-1 -76 -1 -118v-32q1 -34 1 -41q14 0 59 2q152 6 203 10q0 20 -2 266q0 16 1 48t16.5 41t33.5 5q23 -6 23 -28q3 -85 3 -141q0 -28 -1 -48q-1 -31 -1 -116.5 t1 -223.5q2 -92 2 -219q2 -37 -14.5 -43t-45.5 2q-13 13 -13 106v38q1 55 1 106q0 68 -2 131q-12 1 -33 1q-42 0 -123 -3q-47 -4 -108 -6v-200t-2 -128q0 -20 -15.5 -36.5t-33.5 -12.5q-23 0 -23 25q0 12 -1 49z" />
<glyph unicode="I" horiz-adv-x="225" d="M70 29q0 20 1 107t1 138v186t-2 304q-4 49 18.5 54t50.5 -13q2 -16 2 -86v-103v-116q0 -41 1 -193.5t5 -228.5v-23q-2 -53 -32.5 -56t-44.5 30z" />
<glyph unicode="J" horiz-adv-x="438" d="M14 207q8 61 47 67q12 0 17 -14q4 -47 14 -88q23 -80 96 -100q9 -1 17 -1q52 0 69 35q21 39 21 150q0 74 -2 271.5t-2 248.5q0 16 10 28.5t29 16.5q8 4 20 -6t15 -31v-47l2 -485l-2 -70q-2 -119 -69 -158q-41 -23 -88 -23q-30 0 -61 9q-70 23 -103 82q-30 55 -30 108v7z " />
<glyph unicode="K" horiz-adv-x="503" d="M43 748q-2 29 3 48t28 21q37 2 41 -35q-2 -49 -2 -90q-2 -161 -2 -239l20 14q49 51 227 274q22 26 44 26q10 1 21 -5q32 -18 11 -51q-41 -51 -168 -203l-18 -25q8 -14 47 -84.5t164 -300.5q23 -39 26 -60.5t-26 -35.5q-7 -1 -13 -1q-28 0 -43 30l-202 407l-76 -73 q-6 -8 -7 -15.5t-1 -17.5q0 -55 4 -174q1 -52 1 -80v-22q-1 -24 -11 -40q-12 -14 -33 -14q-12 -2 -21.5 8t-9.5 35q0 231 -2 279z" />
<glyph unicode="L" horiz-adv-x="376" d="M44 140v29q0 110 5 482q-2 16 -2 107v11q0 48 33 51q37 3 39 -34q1 -94 1 -157t-1 -95.5t-1 -80t1 -111.5q-2 -231 -6 -268q31 6 34 6q39 5 80 5q31 0 64 -3q76 -6 94 -37q4 -31 -20.5 -38t-49.5 -5q-8 1 -36 1q-56 0 -191 -3q-43 0 -43 43q0 27 -1 97z" />
<glyph unicode="M" horiz-adv-x="548" d="M43 760v6q0 48 32 54q34 7 52 -23q108 -183 135 -230q23 37 111 217q18 35 57 35t43 -33q2 -195 8 -708v-13q0 -46 -26 -61q-23 -8 -35 -2t-14 37v174q-1 37 -1 117v90q1 152 1 186.5t2 87.5l-27 -49q-70 -156 -98 -160q-10 -3 -20 -3q-24 0 -42 22q-57 80 -108 180 l8 -115q0 -53 -1 -163v-49q0 -110 3 -308q0 -43 -21.5 -48t-36 4t-16.5 28q-3 11 -3 66v30v75q0 95 -1 272q-2 265 -2 284z" />
<glyph unicode="N" horiz-adv-x="528" d="M45 616q-1 42 -1 75q0 66 5 95q8 34 53 34h2q48 -1 64 -54q37 -102 62.5 -178t38 -115t91.5 -287l29 -116q-8 381 -8 524v162v6q0 55 33 57q23 2 32 -9t9 -54q4 -504 4 -719q-4 -39 -60 -39h-5q-36 0 -56 29q-27 68 -61.5 177t-137.5 423l-28 102q4 -84 5 -165t1 -111 q0 -66 6 -396q-2 -47 -21 -53q-15 -4 -26 -4q-29 0 -27 31l-2 217v73.5t-2 294.5z" />
<glyph unicode="O" horiz-adv-x="514" d="M33 510q10 193 100 272q55 43 123 43q15 0 31 -2q70 -14 108.5 -80.5t48 -152.5t9.5 -172q0 -276 -80 -371q-39 -45 -101 -50q-9 -1 -19 -1q-52 0 -97 24q-84 58 -108 192q-18 100 -17 217q0 39 2 81zM106 410q2 -137 27 -217t76 -109q27 -13 52 -13q26 0 48 15 q57 78 67 188q6 68 5 132q0 40 -2 79q-8 145 -55 224q-31 40 -78 40q-6 -1 -12 -1q-54 -6 -91 -82q-37 -91 -37 -241v-15z" />
<glyph unicode="P" horiz-adv-x="452" d="M43 694v45q0 51 35 67q33 16 97 16h7q70 -1 126.5 -23.5t96 -73.5t41.5 -141q-2 -57 -25.5 -103.5t-75.5 -74.5q-48 -26 -137 -25h-13l-76 4q4 -190 5 -247.5t1 -78.5q0 -41 -14.5 -52t-36.5 -9q-23 0 -25 29q-2 55 -3 341.5t-3 325.5zM119 680q3 -89 3 -156 q0 -34 -1 -63q42 -7 97 -7h14q64 1 108 42q31 39 31 90q0 37 -17 80q-51 86 -142 88h-17q-75 0 -76 -17v-57z" />
<glyph unicode="Q" horiz-adv-x="514" d="M33 510q10 193 100 272q55 43 123 43q15 0 31 -2q70 -14 108.5 -80.5t48 -152.5t9.5 -172q0 -276 -80 -371q-6 -6 -11 -12l3 -4q12 -22 24 -45q12 -25 4 -45q-10 -12 -39 -19q-10 -2 -20 15q-20 37 -35 63q-14 -2 -29 -2q-11 -1 -21 -1q-49 0 -93 23q-84 59 -108 192 q-17 100 -17 217q0 39 2 81zM106 410q4 -137 30 -217t73 -109q25 -14 51 -12q-14 23 -18 30q-11 18 -11 33q0 21 21 35q25 20 45 -18q14 -25 25 -48q39 72 51 170q8 74 8 143q0 35 -2 68q-8 145 -55 224q-29 38 -73 38q-8 0 -17 -1q-54 -9 -91 -80q-37 -91 -37 -241v-15z " />
<glyph unicode="R" horiz-adv-x="468" d="M43 731q2 78 74 86q21 1 46 2q13 0 27 -1q42 -1 94 -11t97 -47q58 -56 58 -135q-1 -73 -37 -122q-38 -50 -103 -83l-20 -10q70 -147 172 -375q1 -4 1 -8q0 -29 -51 -29q-16 2 -30 18q-14 27 -60 134q-10 23 -50 114.5t-50 116.5q-35 -8 -90 -16v-113q2 -94 4 -148.5 t2 -64.5q0 -31 -16.5 -37t-36.5 0q-12 4 -18.5 14.5t-6.5 34.5q0 72 -3 364t-3 316zM115 731q0 -231 4 -295l67 8q94 31 146 84q35 37 35 88q0 23 -7 50q-34 74 -110 80q-45 4 -80 4q-23 0 -41 -2q-14 -2 -14 -17z" />
<glyph unicode="S" horiz-adv-x="440" d="M22 150q10 48 49 60.5t31 -30.5q-3 -13 -3 -25q0 -52 65 -77q32 -8 57 -8q18 0 31 4q33 10 57 47q9 22 9 46.5t-9 49.5q-41 76 -112 148q-123 117 -154 195q-15 38 -15 76q0 39 16 79q32 79 121 99q24 6 48 5q61 0 113 -39q65 -51 65 -90q0 -20 -18 -37q-9 -4 -18 -4 q-32 0 -56 45q-29 48 -88 52h-8q-53 0 -86 -58q-12 -25 -12 -51q-1 -23 9 -46q20 -50 97 -134q143 -143 171 -218q16 -43 16 -82q0 -27 -8 -53q-20 -60 -95 -94q-48 -15 -93 -15q-30 -1 -60 7q-72 18 -101 59q-22 31 -22 65q1 12 3 24z" />
<glyph unicode="T" horiz-adv-x="415" d="M-6 760q-6 18 14 35q20 14 69.5 15t270.5 13h12q56 0 56 -37q0 -35 -64 -36q-72 -2 -96 -5q-16 0 -20 -18q0 -49 2 -134t5 -279.5t3 -254.5v-6q0 -52 -36 -53q-38 -2 -42 20.5t-4 34.5v66q1 250 1 403.5t-1 210.5l-47 -2q-33 -3 -66 -3q-17 0 -33 1q-18 8 -24 29z" />
<glyph unicode="U" horiz-adv-x="512" d="M43 184q4 401 4 582q0 39 16 51q18 6 37 -2q16 -12 18.5 -30.5t2.5 -34.5l-6 -281q-2 -59 -2 -272v-7q0 -77 45 -104q37 -19 83 -19h5q49 1 84 27q41 35 43 99q1 50 1 116q0 166 -7 436q0 29 2 45.5t20 24.5q10 3 18 3q27 0 29 -36q2 -170 3 -251.5t1 -178.5 q0 -26 2 -144v-6q0 -113 -65 -165q-51 -39 -139 -39h-8q-94 2 -140 43q-47 41 -47 135v8z" />
<glyph unicode="V" horiz-adv-x="495" d="M3 803q9 14 32 12q14 0 25.5 -7t21.5 -40q18 -84 41.5 -178t50.5 -210t49 -212l6 -82l15 78q131 432 137 473q41 164 72 174q20 6 26 -6q18 -12 13 -37l-35 -123q-10 -35 -66.5 -223.5t-103.5 -374.5q-14 -49 -51 -49h-3q-42 0 -57 49q-33 127 -43 178 q-102 432 -110.5 466t-18.5 69q-10 29 -1 43z" />
<glyph unicode="W" horiz-adv-x="598" d="M-2 761q-2 13 14 30q27 23 43.5 12.5t22.5 -39.5q8 -39 26 -178l37 -236l27 -139l-6 -84l31 98l71 224q18 35 44 33.5t40 -33.5q37 -98 66 -199l14 -115q10 184 17.5 246.5t28 220.5t22.5 168q6 35 16 44t33 3q31 -10 24 -49q-6 -33 -23.5 -138.5t-31.5 -237.5 t-19.5 -190.5t-11.5 -142.5q-2 -37 -12 -49t-35 -12q-25 -2 -37 29q-51 197 -82 327l-4 39l-39 -117q-10 -31 -59 -208q-8 -45 -37 -60q-13 -4 -23 -4q-32 0 -42 41q-14 117 -22.5 176.5t-36 209t-41 233.5t-15.5 97z" />
<glyph unicode="X" horiz-adv-x="526" d="M6 711q-16 35 8 57q18 12 36 6t30 -29q33 -59 64.5 -122.5t82.5 -169.5q115 229 183 346q14 22 34 22q16 0 35 -14q18 -18 6 -41q-27 -45 -104 -176l-92 -164q-20 -35 -8 -53q31 -49 63.5 -100.5t122.5 -194.5q8 -10 13 -25.5t-5 -34.5q-12 -20 -37.5 -18t-36.5 23 q-61 109 -91.5 163t-80.5 138q-27 -82 -58.5 -166t-41.5 -107q-16 -41 -53 -45q-23 0 -35 16.5t-2 45.5q16 33 65 127q23 45 76 161q12 31 -4 54q-37 66 -73.5 128t-96.5 173z" />
<glyph unicode="Y" horiz-adv-x="425" d="M18 786q8 35 44 34t34 -38q-4 -172 -4 -223q0 -100 74 -100q96 4 121 114q10 96 18 199q2 50 39 50h4q41 -3 37 -38q-2 -23 -11 -105.5t-20.5 -188t-23.5 -211.5q-6 -57 -12.5 -113.5t-12.5 -114.5q-4 -51 -59 -53q-29 2 -31 35q12 104 18 135q25 192 33 260 q-59 -33 -110 -37q-6 -1 -13 -1q-42 0 -77 22q-39 26 -46 110q-4 42 -4 129q0 57 2 135z" />
<glyph unicode="Z" horiz-adv-x="509" d="M37 45q0 20 20 51l172 240l31 43q6 6 6 12q0 8 -8 17l-65 73q-14 12 -15 31q0 23 13.5 34t29.5 11t37 -27l53 -73q51 76 90 170q6 17 6 31q1 32 -27 56q-34 30 -121 30q-13 0 -26 -1q-84 -8 -131 -26q-37 0 -36 22q0 23 15 38.5t38.5 24.5t52.5 13t57 4q37 0 80 -7 t80 -25.5t61.5 -49t24.5 -78.5q0 -27 -7 -50t-32 -70l-67 -125q-4 -8 -4 -13q0 -10 8 -17t23.5 -22.5t28.5 -30t13 -26.5q0 -23 -15 -35t-32 -12q-25 4 -42 25.5t-36 56.5q-12 -20 -59 -88.5t-121 -181.5l45 10l242 6q31 2 40 -12.5t9 -30.5q0 -43 -51 -43q-14 0 -30.5 1 t-45.5 -1q-111 1 -159 1h-33q-26 -1 -33 -1q-16 -2 -29 -2q-26 0 -36 9q-14 13 -15 38z" />
<glyph unicode="[" horiz-adv-x="380" d="M79 52.5q1 62.5 1 117.5q2 164 3 369.5t-1 228.5q-4 72 15.5 78t39.5 6q25 0 146 2q51 0 49 -31q0 -27 -27 -35q-23 -4 -43 -4q-27 -2 -55 -1t-57 -1v-41q0 -49 1 -98t0 -230.5t-1 -222.5l2 -225q66 0 86 2h37.5t43.5 -8q27 -31 9.5 -48t-54.5 -15q-33 -2 -90 -2h-67 q-37 2 -38 49t0 109.5z" />
<glyph unicode="\" horiz-adv-x="522" d="M35 762q-18 29 2 43q16 10 39 -2q10 -4 32.5 -28.5t67.5 -96.5t111 -197q41 -78 84 -158.5t80 -158.5q18 -31 53 -105q18 -45 12 -63t-24 -16q-31 0 -48 34q-37 76 -82 168q-63 111 -119.5 217.5t-113.5 212.5q-23 37 -56.5 88.5t-37.5 61.5z" />
<glyph unicode="]" horiz-adv-x="372" d="M25 823q-2 31 49 31q121 -2 145 -2q20 0 40 -6t15 -78q-2 -23 -1 -228.5t3 -369.5q0 -55 1.5 -117.5t0 -109.5t-37.5 -49h-67.5t-90.5 2q-37 -2 -54.5 15t9.5 48q20 8 43.5 8h38.5q20 -2 86 -2l2 225q0 41 -1 222.5t0 230.5t1 98v41q-29 2 -57.5 1t-55.5 1q-20 0 -43 4 q-27 8 -26 35z" />
<glyph unicode="^" horiz-adv-x="483" d="M45 535q2 14 12 30q27 47 49.5 93.5t47.5 93.5q43 90 82 86q27 4 40 -23q18 -35 36 -67.5t36 -67.5q14 -23 34.5 -66t27.5 -57q16 -39 -27 -57q-29 -16 -45 24q-23 47 -46 96.5t-56 137.5q-27 -57 -33 -68q-51 -117 -55.5 -129t-20.5 -42t-51 -23q-14 2 -23.5 12t-7.5 27 z" />
<glyph unicode="_" horiz-adv-x="352" d="M2 23q-2 10 2 36.5t38 26.5t79 2q20 2 91 1t91.5 0t28.5 -19q8 -12 4 -32t-19 -24q-16 -4 -29.5 -5t-79.5 -1t-175 -6q-31 0 -31 21z" />
<glyph unicode="`" horiz-adv-x="282" d="M37 787.5q6 19.5 47 27.5q18 -2 33 -20q16 -23 60 -81.5t59 -76.5q23 -29 6 -53q-6 -10 -24.5 -17.5t-30 -4.5t-21.5 18q-29 41 -58.5 83t-60.5 82q-16 23 -10 42.5z" />
<glyph unicode="a" horiz-adv-x="464" d="M41 78q-13 41 -13 78q0 64 38 118q47 66 153 65q30 0 64 -5l41 -17q2 20 2 40q0 75 -31 132q-35 41 -83 41q-11 0 -24 -2q-46 -8 -68 -44q-19 -30 -43 -30q-4 0 -9 1q-35 12 -23 49q18 35 61.5 64.5t106.5 29.5q88 0 136 -66q46 -63 46 -199v-11v-216v-7q0 -97 -50 -96 q-9 0 -19 3q-10 6 -27 2q-61 -8 -156 -8q-70 4 -102 78zM106 106q18 -40 71 -40h9q60 4 117 12q18 6 19 39q2 27 2 53q0 41 -5 80q-48 29 -97 29q-20 0 -40 -5q-56 -20 -74 -70q-9 -26 -10 -52q0 -23 8 -46z" />
<glyph unicode="b" horiz-adv-x="458" d="M43 715q-2 37 6 52t31 21q39 4 41 -36l-4 -131q2 -44 0 -62q40 29 113 29h10q63 -4 107 -58.5t48 -234.5v-22q0 -159 -55 -228q-44 -47 -113 -47q-51 0 -116 27q-39 -26 -55 -26q-11 0 -11 13l1 167q0 199 -3 536zM115 96l39 -22q27 -5 50 -5q31 0 54 9q41 16 57 78 q12 57 12 120q0 90 -24 193q-33 48 -87 48q-23 0 -50 -9q-37 -16 -51 -51v-361z" />
<glyph unicode="c" horiz-adv-x="423" d="M14 295q2 98 37 178q39 73 93 101q43 22 85 22q12 0 23 -2q109 -23 113 -152q0 -31 -35 -39q-25 -4 -37 25q-4 53 -25 78q-23 20 -51.5 17t-54.5 -25q-26 -23 -50 -74q-22 -47 -22 -148v-18q6 -74 23 -111q29 -78 98 -77h12q45 4 70 39q12 53 46 53h3q35 -3 35 -35 q0 -13 -6 -31q-37 -90 -142 -96q-12 -1 -24 -1q-47 0 -88 19q-55 35 -78 99q-25 74 -25 165v13z" />
<glyph unicode="d" horiz-adv-x="442" d="M20 338q10 127 53.5 185.5t106.5 62.5q13 1 25 1q62 0 96 -26q4 18 2 62l-2 127q0 41 37 38q23 -6 31 -21t6 -52q-5 -380 -5 -578q0 -66 1 -112q-4 -27 -40 -29h-3q-27 0 -26 32q0 8 1 17q-37 -25 -70 -35q-36 -10 -66 -10q-63 0 -97 45q-51 66 -51 238q0 26 1 55z M98 160q24 -84 84 -92q8 -1 16 0q52 0 107 43q2 42 2 107q0 96 -4 241q-14 37 -49 51q-28 10 -52 10q-58 0 -89 -61q-24 -79 -24 -174q0 -59 9 -125z" />
<glyph unicode="e" horiz-adv-x="434" d="M18 274v15q0 88 21 168q41 133 164 139q162 -2 180 -170v-10q0 -98 -74 -140q-45 -24 -94 -24q-25 0 -51 6q-41 13 -72 33q-1 -13 -1 -26q0 -85 24 -136q25 -57 82 -61q63 0 116 47q25 18 45.5 9t20.5 -34q-2 -29 -43 -55q-55 -35 -137 -38h-7q-77 0 -122 60 q-51 72 -52 217zM96 356q51 -37 125 -37q63 7 86 48q7 25 7 48q0 36 -17 68q-34 45 -82 45q-11 0 -21 -2q-62 -12 -88 -82q-10 -32 -10 -74v-14z" />
<glyph unicode="f" horiz-adv-x="352" d="M43 330q0 188 4 252q2 63 25.5 111t61.5 66.5t81 18.5q115 -6 137 -98q2 -37 -37 -40t-51 26q-16 41 -50 45h-8q-30 0 -56 -25q-25 -37 -28 -104.5t-4 -99t4 -34t25 -2.5l86 5q33 4 55.5 -9.5t16.5 -46.5q-16 -18 -47 -18l-141 -2q2 -125 2 -162t6 -172q0 -43 -29 -43 q-7 -1 -13 -1q-34 0 -36 28z" />
<glyph unicode="g" horiz-adv-x="423" d="M20 312v17q0 105 52 185q61 82 149 84q74 -2 107 -30q28 -24 28 -50v-6q-4 -37 -4 -71.5v-67.5q-1 -48 -1 -101v-55v-65q0 -73 -1 -181q-2 -134 -169 -134q-14 0 -29 1q-111 8 -111 75v7q7 34 35 34q18 0 43 -13q62 -37 102 -37q44 0 58 47q8 37 8 81q0 32 -4 68l-37 -14 q-34 -10 -63 -10q-70 0 -113 59q-45 61 -50 177zM98 354v-21q0 -86 29 -140q27 -42 70 -42q7 0 14 1l74 16v61v267q0 35 -53 35q-8 0 -19 -1q-41 -8 -68 -34q-41 -45 -47 -142z" />
<glyph unicode="h" horiz-adv-x="442" d="M45 735q-2 33 25 43q9 2 16 2q32 0 31 -43q2 -72 2 -119.5t-2 -72.5q37 33 96 41q8 1 16 1q70 0 109 -48q31 -43 33 -112t4 -203t4 -181q0 -35 -35 -43h-6q-35 0 -35 41q1 98 1 176v73q-1 102 -3 138q-4 94 -88 94q-61 -10 -90 -59q-4 -119 -4 -250q0 -87 2 -178 q0 -25 -20.5 -32t-36 2t-15.5 28q-2 53 -4 702z" />
<glyph unicode="i" horiz-adv-x="215" d="M43 588q-2 23 19.5 43t41.5 20q23 0 36.5 -18.5t13.5 -44.5q2 -18 -15.5 -31.5t-44.5 -13.5q-51 6 -51 45zM59 51v391q0 52 36 52q6 0 14 -2q25 -4 24 -50v-104l2 -288q0 -50 -37 -50h-6q-33 2 -33 51z" />
<glyph unicode="j" horiz-adv-x="239" d="M-113 -102q12 37 36 37q16 0 38 -17q26 -17 68 -17h5q46 1 50 66q1 23 1 72t-1 125q-2 153 -2 274v9q0 37 31 42q4 1 7 1q36 0 36 -58q2 -20 2 -66t-2 -116v-146v-98t-13 -96q-20 -59 -83 -81q-30 -11 -62 -11q-34 0 -70 12q-42 24 -42 59q0 4 1 9zM63 588q-2 23 19.5 43 t42.5 20q23 0 36 -18.5t13 -44.5q2 -18 -15 -31.5t-44 -13.5q-51 6 -52 45z" />
<glyph unicode="k" horiz-adv-x="399" d="M45 27q-1 30 -1 127.5t1 263.5v317q0 39 23 43q41 8 49 -24q1 -19 1 -60v-45v-56q0 -61 1 -144l-2 -56l39 35q25 27 98 96q16 14 35 27q25 2 36 -11.5t7 -31.5q-6 -20 -27 -39l-92 -78q-10 -10 2 -33q70 -139 84 -168q63 -127 63 -149v-6q0 -33 -40 -37q-29 -2 -43 35 q-16 41 -57.5 145.5t-74.5 159.5q-18 -18 -34 -43l4 -182q0 -14 2 -82q0 -35 -39 -33q-35 0 -35 29z" />
<glyph unicode="l" horiz-adv-x="212" d="M53 51v674q0 51 36 51q7 0 15 -2q23 -4 23 -49v-245l2 -430q0 -50 -37 -50h-6q-33 2 -33 51z" />
<glyph unicode="m" horiz-adv-x="634" d="M43 553q0 41 37 43t37 -31l-2 -110q27 63 58.5 99t74.5 40q27 2 50.5 -13.5t37.5 -58.5l2 -37q12 35 37 64q33 43 86 45q27 2 54.5 -15.5t37.5 -60.5q8 -39 10 -79t2 -81q2 -178 2 -233q1 -23 1 -42q0 -75 -19 -81q-20 -10 -37 0q-20 12 -18 51q0 88 -1 178.5t-6 235.5 q-4 52 -38 52h-1q-36 -1 -57 -42q-20 -35 -35 -88q0 -203 1 -222.5t1 -135.5q-5 -31 -44 -31h-9q-25 4 -24 45q4 121 4 211q1 51 1 93q0 85 -5 138q-8 37 -33 39q-23 0 -43 -26q-37 -39 -86 -135q0 -272 2 -336q-10 -25 -37 -29q-25 0 -32 15.5t-7 41.5v156q-2 59 -2 340z " />
<glyph unicode="n" horiz-adv-x="454" d="M37 545q-2 33 8 41t37 8q31 -2 27 -47q-3 -39 -3 -82q37 51 68 84q39 43 86 45q6 1 12 1q41 -1 67 -25q30 -28 38 -93q6 -111 6 -233v-87v-89q-2 -53 -21 -64q-14 -6 -32.5 -5t-20.5 28v137l-2 205q0 86 -12 127q-10 31 -33.5 32.5t-44.5 -18.5q-63 -61 -106 -123v-106 l4 -244q2 -37 -35 -37h-12q-29 0 -29 39q0 176 2 297q0 98 -4 209z" />
<glyph unicode="o" horiz-adv-x="417" d="M18 295q2 47 8.5 97t30.5 102q18 43 50 70.5t79 31.5q8 1 16 1q39 0 74 -17q33 -16 54 -50q16 -22 16 -44q0 -10 -4 -21q-2 -12 6 -25q12 -23 19 -104q5 -39 5 -82t-5 -90q-12 -66 -47 -110t-105 -56q-11 -1 -22 -1q-77 0 -123 64q-34 53 -44 111q-8 48 -8 100v23z M90 275.5q0 -68.5 21 -121.5q14 -43 39 -68q24 -22 53 -22q15 0 30 6q43 27 62 94q9 47 9 90q0 14 -1 28q-4 54 -14 119q-6 12 -12.5 26.5t2.5 31.5q-4 39 -26.5 58.5t-49.5 19.5h-5q-37 0 -59 -29q-20 -27 -35 -82q-14 -82 -14 -150.5z" />
<glyph unicode="p" horiz-adv-x="440" d="M43 -98q3 325 3 484q0 80 -1 118q0 78 88 90q31 3 58 3q117 0 157 -50q47 -63 47 -226v-26q-6 -111 -50 -164t-107 -57h-13q-71 0 -112 30l4 -131v-96q-2 -41 -37 -41h-4q-33 0 -33 59v7zM115 510q0 -129 2 -305q10 -35 47 -51q26 -8 48 -8q56 0 91 51q23 64 23 143 q0 49 -9 104q-16 61 -54 76q-29 11 -74 11q-16 0 -33 -1z" />
<glyph unicode="q" horiz-adv-x="442" d="M23 295v26q0 163 47 226q40 50 157 50q27 0 58 -3q88 -12 88 -90q-1 -38 -1 -118q0 -159 3 -484v-7q0 -59 -33 -59h-4q-35 0 -37 41v96l4 131q-41 -30 -112 -30h-13q-63 4 -107 57t-50 164zM100 444q-8 -53 -8 -101q0 -81 23 -146q35 -51 91 -51q22 0 48 8q37 16 47 51 q2 176 2 305l-41 20q-16 1 -30 1q-48 0 -78 -11q-37 -14 -54 -76z" />
<glyph unicode="r" horiz-adv-x="311" d="M39 362.5q0 40.5 6 92.5q10 43 35 73q24 30 66 50q35 16 92 17q12 0 24 -1q33 -4 41 -29q2 -35 -20 -41q-29 -10 -56 4q-63 -6 -94 -47q-16 -27 -18 -61q-2 -33 -2 -45q2 -245 5 -303v-12q0 -47 -22 -58l-22 -2q-33 -2 -33 39v242q-2 41 -2 81.5z" />
<glyph unicode="s" horiz-adv-x="360" d="M8 139q-2 23 12.5 35t34.5 8q25 -2 27 -39q0 -31 22 -55q27 -25 68 -25h12q53 8 64 58q1 8 1 15q0 37 -32 71q-43 37 -83 68.5t-75 70.5q-32 47 -32 96q0 39 20 80q43 72 127 74q72 0 102 -31q18 -23 9 -41q-14 -23 -43 -22l-31 8q-18 16 -46 14t-48 -26q-18 -23 -18 -50 q0 -30 22 -65q49 -51 96 -89t80 -81q22 -34 22 -74q-1 -8 -1 -16q-6 -49 -37 -86q-37 -37 -101 -37q-30 0 -67 8q-88 31 -105 131z" />
<glyph unicode="t" horiz-adv-x="319" d="M39 176q2 225 2 309q0 83 -1 103v26q0 38 1 125q2 33 39 39q33 4 33 -30v-25q-1 -93 -1 -133v-28q1 -22 1 -97q0 -25 4 -24t20 -1h45q17 1 31 1q28 0 45 -5q23 -14 8 -47q-14 -16 -49 -14q-12 -1 -38 -1t-66 1v-43q-1 -25 -1 -74v-56q1 -93 7 -116q9 -18 33 -22h4 q25 0 75 30q13 6 25 6q20 0 33 -18q8 -14 8 -25q0 -22 -29 -34q-51 -23 -123 -23h-12q-90 10 -92 88q-2 23 -2 88z" />
<glyph unicode="u" horiz-adv-x="462" d="M43 240q0 127 1 209.5t1 95.5q0 39 25 47q9 2 17 2q32 0 32 -38v-7v-60.5t-1 -83t-1 -83v-50.5q0 -121 28 -170q23 -35 60 -41q9 -1 18 -1q36 0 62 20q33 27 34 90q3 63 3 92q0 170 -3 305q2 20 33 27q41 2 41 -23q2 -47 2 -67q0 -76 2 -218v-31q0 -117 -14 -159 q-27 -76 -113 -92q-29 -5 -55 -5q-39 -1 -69 11q-50 18 -76 74q-27 59 -27 156z" />
<glyph unicode="v" horiz-adv-x="430" d="M18 518q-5 17 -5 30q0 24 16 36q20 14 37.5 8t29.5 -55q43 -195 70 -355l10 -98l31 98q10 27 54 168.5t67 204.5q15 40 50 40q6 0 13 -1q25 -5 25 -28q0 -11 -6 -27q-29 -68 -82 -217q-20 -51 -95 -277q-10 -33 -33.5 -41t-47.5 0q-18 12 -25 33q-10 33 -33 147 q-8 49 -36.5 174t-39.5 160z" />
<glyph unicode="w" horiz-adv-x="534" d="M29 537q-2 35 10 51q31 12 49 -2q14 -12 14 -35v-136v-136q0 -33 7 -170q0 -39 32 -48q25 0 41.5 16.5t26.5 57.5q10 74 10 139q-2 39 31 39q18 0 25.5 -8t9.5 -31q0 -27 -1 -47t-10 -80q13 -71 62 -79q3 0 6 -1q36 0 47 46q4 37 6 173t3 174t3 99q0 37 43 37 q31 0 29 -41l-2 -72q0 -23 -3 -148.5t-3 -146.5q0 -117 -41 -159q-29 -29 -64 -29q-7 -1 -13 -1q-39 1 -61 21q-26 24 -36 60q-18 -35 -49 -57q-34 -25 -72 -25h-6q-41 2 -60 29q-25 31 -26 110q-6 246 -8 400z" />
<glyph unicode="x" horiz-adv-x="436" d="M-4 59q55 88 156 232q10 18 -7 41q-63 100 -104 170q-14 27 -8 46t30 23q25 4 41 -22q53 -102 78 -150l21 -30q39 61 123 206q20 31 51 17q31 -20 16 -51q-61 -102 -78 -123l-63 -96q-8 -16 2 -29q27 -49 54.5 -95t68.5 -114q6 -10 16 -29q7 -16 7 -28q0 -23 -27 -27 q-33 -4 -49 27q-53 94 -123 219q-106 -184 -142 -232q-18 -18 -45 -14q-25 10 -25 32q0 12 7 27z" />
<glyph unicode="y" horiz-adv-x="421" d="M39 496q-1 14 -1 25q0 35 5 50q12 33 51 17q18 -10 19 -35v-109q-1 -73 -1 -122v-43q1 -56 5 -82q9 -63 65 -63q8 0 17 1q66 18 80 74q-6 266 -7 280v68q10 41 41 41q31 -2 37 -27v-98v-90t-1 -170t-1 -135q0 -35 1 -117t1 -94q-6 -37 -41 -35q-25 0 -28 39v190 q0 15 2 66q-29 -37 -76 -53q-21 -6 -41 -6q-30 0 -57 14q-63 39 -68 145q-2 111 -2 269z" />
<glyph unicode="z" horiz-adv-x="421" d="M31 92q63 92 136 197.5t132 216.5q16 25 -6 26q-12 0 -79 -4t-146 -8q-27 2 -31 27q-2 25 14.5 37t44.5 10q125 2 170 2t64 -4q46 -20 46 -59q0 -15 -7 -33q-53 -102 -101 -174q-33 -49 -166 -265l205 7q-6 39 -6 47q2 27 39 26q23 2 31 -28q12 -43 14 -60q1 -8 1 -14 q0 -39 -46 -39h-8q-61 4 -116.5 4t-107.5 -2q-26 -1 -43 -1t-26 1q-35 7 -35 32q0 22 27 58z" />
<glyph unicode="{" horiz-adv-x="301" d="M48 424.5q5 19.5 38 32.5q12 4 16 14t-7 44t-14 97.5t15 137.5q12 43 34 59t64 7t60 -25q14 -16 6 -31q-14 -39 -55 -31q-37 25 -45 0q-10 -53 -7 -96t8 -67.5t15 -49.5q10 -27 3.5 -50.5t-29.5 -43.5q23 -37 28.5 -74t3.5 -76q-2 -53 -3 -103t1 -103q-2 -41 5.5 -81 t2.5 -65q-4 -14 -33.5 -21.5t-41.5 3.5q-6 6 -7 20q-10 88 -2.5 193.5t5.5 183.5q0 53 -46 90q-20 16 -15 35.5z" />
<glyph unicode="|" horiz-adv-x="241" d="M76 523q-2 218 0 306q-2 39 26 41q33 2 42.5 -5t9.5 -42q0 -268 -1 -362t-1 -191q2 -78 2 -185.5t4 -184.5q0 -25 -8.5 -34t-26.5 -11h-14q-23 0 -27 18t-4 72v41v184q0 135 -2 353z" />
<glyph unicode="}" horiz-adv-x="333" d="M18 761.5q2 12.5 11 20.5q41 37 96 31q31 -6 44 -37t9 -98q-2 -45 -3 -89t-3 -89q0 -10 1 -21.5t3 -23.5q10 4 18.5 8t16.5 6q39 6 35 -29q-10 -55 -17.5 -111.5t-13.5 -113.5q-8 -68 -14 -127t-8 -127q0 -45 -54 -49q-33 -4 -28 29q4 88 16 166.5t25 160.5q4 29 20 117 l-20 2q-66 4 -50 98q2 41 4.5 83t2.5 83q0 59 -13 84q-16 -10 -39 -12q-25 0 -37 18q-4 8 -2 20.5z" />
<glyph unicode="~" horiz-adv-x="634" d="M55 264q2 49 20.5 90t55.5 64.5t81 29t87 -13.5q53 -31 80 -78q12 -23 22.5 -50t34.5 -25q8 0 11.5 6t11.5 26.5t24 77.5q10 43 32 45t37 -4t9 -39q-20 -94 -37 -125q-25 -57 -86 -69q-78 -6 -112 67l-27 60q-16 35 -48 47t-63 -6q-31 -16 -40 -47t-9 -50q-8 -35 -26 -49 q-12 -10 -27 -12q-35 -4 -31 55z" />
<glyph unicode="&#xa2;" horiz-adv-x="364" d="M30 296.5q1 63.5 12 117t26 82.5q25 53 82 77l-5 80q2 45 43 49q31 -4 33 -34l-6 -76v-19q37 -6 55 -30q10 -14 9.5 -35t-17.5 -31q-33 -18 -55 8q-31 29 -57 4q-25 -16 -35.5 -74.5t-10.5 -132t25 -96.5q23 -18 61.5 -16t71.5 35q23 25 47.5 19.5t24.5 -36.5 q-2 -25 -20.5 -41t-57.5 -32q-23 -8 -27 -13.5t-4 -19.5q2 -55 2 -78q-4 -41 -37 -39q-37 0 -36 25v92q2 18 -8.5 21t-32.5 8q-57 16 -76 79q-8 43 -7 106.5z" />
<glyph unicode="&#xa3;" horiz-adv-x="589" d="M-26.5 54.5q6.5 23.5 38.5 31.5q70 12 138 4q35 43 53 101.5t24 127.5q2 27 2 60q-39 -17 -84 -35q-43 -6 -56 15.5t13 48.5q49 31 129 41v24q-6 102 2.5 178t58.5 127t161 39q27 -4 35 -21.5t3.5 -34t-18.5 -27.5t-39 1q-51 18 -78.5 3t-44.5 -70q-12 -47 -10 -170v-37 q94 6 180 6q43 -12 42 -36.5t-46 -33.5h-106q-37 0 -72 -6v-22q-4 -92 -20.5 -161t-49.5 -114q156 35 277 35q39 0 55 -29q4 -33 -15.5 -46t-47.5 -3l-9 4q-121 -4 -200.5 -13t-110.5 -15l-6 -7q-45 -31 -102.5 -32.5t-80 21t-16 46z" />
<glyph unicode="&#xa4;" horiz-adv-x="610" d="M49 565q-18 27 0 47q33 35 66 -2q8 -10 16 -19t19 -20q14 -23 40 -6q43 27 105 29q47 2 76 -14q20 -12 30.5 -9.5t24.5 21.5q20 29 31 39q18 23 45 20q45 -27 16 -65q-10 -16 -39 -64q-6 -8 -2 -30q20 -55 24.5 -110.5t-20.5 -113.5q-14 -31 -8 -47q16 -20 29.5 -34.5 t27.5 -32.5q12 -16 12.5 -32t-16.5 -26q-16 -12 -32.5 -10t-34.5 27q-25 37 -35 49q-14 20 -20.5 18t-22.5 -12q-39 -20 -88 -25q-68 -2 -105 27q-10 -23 -32 -61q-20 -37 -52 -43q-23 0 -34 13t-9 34q6 27 29 43q16 10 17.5 26.5t15.5 26.5q-10 10 -19 24q-70 111 -14 230 q12 27 10 34t-21.5 31.5t-29.5 36.5zM141 387q-4 -51 9 -80q27 -74 114 -90q63 -8 108.5 26.5t55.5 108.5q12 92 -39 131q-16 12 -18 27q-6 10 -12.5 13t-16.5 3q-74 16 -131 -20.5t-70 -118.5z" />
<glyph unicode="&#xa5;" horiz-adv-x="464" d="M37 786q8 35 44 34t34 -38q-4 -172 -4 -223q0 -100 73 -100q96 4 121 114q10 96 19 199q2 53 43 50t36 -38q-2 -23 -11 -105.5t-21 -189.5q-8 -82 -19 -165q18 -2 36 -3.5t36 -5.5q18 -6 25.5 -18t4.5 -23.5t-14.5 -19.5t-29.5 -6l-64 6q-4 -31 -8 -64q10 0 21.5 -1 t21.5 -3q18 -6 25.5 -17t4.5 -22.5t-14.5 -18.5t-29.5 -5h-35q-4 -35 -8 -72q-4 -51 -60 -53q-29 2 -31 35q6 55 11 90q-41 -2 -83 -3t-75 -1q-18 2 -26.5 12t-8.5 21.5t10.5 20.5t28.5 11q41 0 82 3l82 6q4 33 8 61q-53 -2 -97 -5t-54 -5q-18 -2 -29.5 5t-16 19.5t1 24.5 t23.5 18q12 2 23.5 2h23.5q33 4 67 6.5t68 4.5q8 70 13 104q-59 -33 -109.5 -37t-90.5 21.5t-46 109.5q-6 70 -2 264z" />
<glyph unicode="&#xab;" horiz-adv-x="643" d="M51 279.5q-2 9.5 6 27.5q4 8 56.5 87t99.5 136q29 29 55.5 20t24.5 -38q-4 -20 -12 -31q-31 -41 -66 -81t-63 -81q-10 -14 -9.5 -18t11.5 -16q37 -45 81 -92.5t70.5 -73t30.5 -33.5q17 -31 -53 -68q-14 12 -41 42t-41 46q-35 41 -68 78t-70 76q-10 10 -12 19.5z M266.5 279.5q-2.5 9.5 5.5 27.5q4 8 56.5 87t99.5 136q29 29 55.5 20t24.5 -38q-4 -20 -12 -31q-31 -41 -66 -81t-63 -81q-10 -14 -9.5 -18t11.5 -16q37 -45 81 -92.5t70.5 -73t30.5 -33.5q17 -31 -53 -68q-14 12 -41 42t-41 46q-35 41 -68 78t-69 76q-10 10 -12.5 19.5z " />
<glyph unicode="&#xad;" horiz-adv-x="423" d="M39 276q0 23 5 44.5t37 18.5t77 -1q20 2 92 2t92 -2t29 -21q10 -35 -15 -49q-20 -10 -98.5 -8t-187.5 -4q-31 0 -31 20z" />
<glyph unicode="&#xb0;" horiz-adv-x="313" d="M33 745.5q-4 40.5 22.5 81.5t79.5 66q49 18 94 4q49 -18 71 -60t15.5 -86t-40 -78t-93.5 -32q-74 2 -109.5 33t-39.5 71.5zM102 757.5q-2 -20.5 17.5 -33.5t60.5 -9q33 2 49.5 20.5t16.5 39t-16.5 38.5t-47.5 21q-39 -10 -58.5 -33t-21.5 -43.5z" />
<glyph unicode="&#xb1;" horiz-adv-x="483" d="M47 182q0 23 5 42.5t37 16.5t77 -1q20 2 112.5 2t113 -2t28.5 -21q10 -31 -14 -45q-20 -10 -119.5 -8t-208.5 -4q-31 0 -31 20zM53 438q-2 20 19 37q25 10 52.5 9t72.5 -1q-2 29 -8.5 68t34.5 53q16 4 28.5 -4t16.5 -29q2 -66 2 -88q18 0 103 2q31 0 39 -22 q8 -20 -17 -41q-18 -14 -51 -12q-29 0 -68 2v-78q0 -23 -16 -40.5t-37 -12.5q-31 8 -28 43q4 61 4 73q0 20 -21 17q-20 -2 -88 -4q-33 4 -37 28z" />
<glyph unicode="&#xbb;" horiz-adv-x="679" d="M66 86q4 8 28.5 34.5t65.5 65.5t86 95q10 12 11 16t-11 25q-37 47 -66.5 85.5t-54.5 73.5q-8 10 -16 31q-2 29 24.5 38t54.5 -20q47 -57 98.5 -136t55.5 -87q8 -18 6 -27.5t-12 -19.5q-35 -39 -67.5 -76t-67.5 -78q-14 -16 -41 -46t-41 -42q-70 37 -53 68zM285 86 q4 8 28.5 34.5t65.5 65.5t86 95q10 12 11 16t-11 25q-37 47 -66.5 85.5t-54.5 73.5q-8 10 -16 31q-2 29 24.5 38t55.5 -20q47 -57 98 -136t55 -87q8 -18 6 -27.5t-12 -19.5q-35 -39 -67.5 -76t-67.5 -78q-14 -16 -41 -46t-41 -42q-70 37 -53 68z" />
<glyph unicode="&#xbc;" horiz-adv-x="708" d="M94 694q-12 16 4 39q25 31 58 41q66 18 67 -47v-36.5v-37.5v-55.5v-40.5v-27h21q12 -2 12 -32q0 -18 -12.5 -18.5t-20.5 -0.5h-48h-60q-12 0 -17 10q0 2 -1 19.5t22 21.5h33q6 -2 6 28v84v66.5v18.5q-25 -31 -37 -37q-16 -6 -27 4zM106.5 8.5q-6.5 18.5 12.5 63.5 q35 74 53 104q37 78 80 159t84 159q66 125 111 196.5t67.5 96t32.5 28.5q23 12 39 2q20 -14 2 -43q-4 -10 -38 -61t-56 -88q-57 -106 -113.5 -213t-120.5 -217q-45 -92 -82 -168q-16 -35 -47 -35q-18 -2 -24.5 16.5zM424 115q4 131 6 168q0 10 3 15t11 5q39 0 42 -3t3 -13 l-6 -123q0 -12 2 -14t43 2v26q0 25 2 101q0 18 20.5 21t27.5 1q10 -2 12 -18q0 -31 -2 -59.5t-2 -61.5v-8h22q8 -2 8 -19.5t-4 -28.5q-8 -4 -16 -4h-12q-2 -27 -2 -77q0 -8 -1 -15.5t-10 -9.5q-8 -2 -28.5 0t-20.5 12q0 6 2 30t2 48q2 10 -8 8q-68 -2 -74 -2q-18 0 -20 19z " />
<glyph unicode="&#xbd;" horiz-adv-x="698" d="M94 694q-12 16 4 39q25 31 58 41q66 18 67 -47v-36.5v-37.5v-55.5v-40.5v-27h21q12 -2 12 -32q0 -18 -12.5 -18.5t-20.5 -0.5h-48h-60q-12 0 -17 10q0 2 -1 19.5t22 21.5h33q6 -2 6 28v84v66.5v18.5q-25 -31 -37 -37q-16 -6 -27 4zM106.5 8.5q-6.5 18.5 12.5 63.5 q35 74 53 104q37 78 80 159t84 159q66 125 111 196.5t67.5 96t32.5 28.5q23 12 39 2q20 -14 2 -43q-4 -10 -38 -61t-56 -88q-57 -106 -113.5 -213t-120.5 -217q-45 -92 -82 -168q-16 -35 -47 -35q-18 -2 -24.5 16.5zM406.5 23.5q3.5 25.5 37.5 60.5q63 68 84 106 q14 25 17 50q0 25 -31 24q-31 -4 -39 -28q8 -20 2 -33t-31 -13q-27 6 -26.5 34t20.5 55q35 33 92 28q57 -6 66 -49q2 -18 -1 -35.5t-13.5 -40t-27.5 -49.5t-36 -47.5t-33 -34.5l13 2q74 8 82 8q14 0 16 -12q4 -43 -10 -47q-4 -2 -19.5 -2t-69 -1t-63.5 -1q-33 0 -29.5 25.5z " />
<glyph unicode="&#xbe;" horiz-adv-x="708" d="M61 532q-2 16 5 33q14 25 36 19q-2 -20 7 -43q39 -29 88 -2q14 18 10 59q-12 23 -44 24t-38 17q-4 18 8 35q18 23 55 63q-43 -14 -82 -10q-20 6 -20 33q4 23 41 20h63q31 0 46.5 -2t23.5 -18q4 -23 -16 -41q-21 -25 -72 -64q57 10 90 -32q12 -33 5 -71t-39.5 -65.5 t-102.5 -15.5q-59 16 -64 61zM106.5 8.5q-6.5 18.5 12.5 63.5q35 74 53 104q37 78 80 159t84 159q66 125 111 196.5t67.5 96t32.5 28.5q23 12 39 2q20 -14 2 -43q-4 -10 -38 -61t-56 -88q-57 -106 -113.5 -213t-120.5 -217q-45 -92 -82 -168q-16 -35 -47 -35 q-18 -2 -24.5 16.5zM424 115q4 131 6 168q0 10 3 15t11 5q39 0 42 -3t3 -13l-6 -123q0 -12 2 -14t41 2v26q0 25 2 101q0 18 21.5 21t28.5 1q10 -2 12 -18q0 -31 -2 -59.5t-2 -61.5v-8h22q8 -2 8 -19.5t-4 -28.5q-8 -4 -16 -4h-12q-2 -27 -2 -77q0 -8 -1 -15.5t-10 -9.5 q-8 -2 -29.5 0t-21.5 12q0 6 2 30t2 48q2 10 -8 8q-66 -2 -72 -2q-18 0 -20 19z" />
<glyph unicode="&#xbf;" horiz-adv-x="475" d="M59 102q-16 66 7 123q27 63 96 97q57 29 82 38q12 6 12 21q0 23 1 106.5t-1 102.5q-4 23 13.5 41t39.5 14q23 -4 25 -35v-44.5t-2 -207.5q0 -33 -9.5 -48t-50.5 -23q-80 -25 -125 -62q-41 -76 -4 -131q35 -29 92.5 -18.5t112.5 39.5q14 8 35 8q23 -2 33 -19 q14 -29 -25 -51q-41 -20 -83 -30.5t-87 -14.5q-61 -4 -110 25q-39 25 -52 69zM227 764q0 31 34 50.5t63 6.5q39 -20 20 -61q-12 -31 -43 -43q-27 -12 -50.5 3t-23.5 44z" />
<glyph unicode="&#xff;" horiz-adv-x="1572" d="M102 0v68v24v16.5t2 14.5q41 240 140 303q29 16 52 29.5t44 21.5q31 16 81 41t120 53q8 2 30.5 5.5t57.5 25.5v27v8q0 8 -2 10q-20 39 -21 49v2q8 0 12 -10q2 -2 3 -10q10 -27 39.5 -51.5t64.5 -51.5q45 -18 82 -18q18 0 51 8t70 27.5t69.5 52.5t51.5 82q0 -25 -31 -76 q-10 -8 -20.5 -18t-10.5 -47q0 -8 2 -13h4q43 0 62 -8q211 -78 336 -209q80 -98 79 -264l-2 -53v-16q0 -16 2 -23h-1368zM479 1061v49l39 59h8q4 0 4 2v17q55 18 68 123q27 12 46.5 19t21.5 24q14 0 24 10q16 -14 49 -14q0 12 29 30q8 -16 20 -30q6 12 9.5 21t9.5 18h12 q4 0 21 18q53 0 176 -33q12 -20 39.5 -37.5t36.5 -25.5q4 -20 15 -54t24.5 -70t24.5 -66t13 -40q0 -18 -4 -44.5t-10 -53.5t-12 -51.5t-8 -40.5l-9 12q-8 -8 -19 -28.5t-20.5 -41t-16.5 -38t-7 -19.5v182q-23 23 -43 115q-55 98 -189 98q-150 0 -186 -120l-57 -103v-207h-19 q-2 27 -5 58.5t-7 62.5t-11 57.5t-16 43.5q-2 -4 -4 -13.5t-4 -19.5l-8 33q-4 -16 -4 -25q0 -16 10 -51t10 -53q-51 70 -51 227zM520 905v8q6 0 6 -4t-6 -4zM549 555q14 -145 203 -240q10 0 26.5 -1t37 1t41 8.5t38.5 20.5q25 18 40 28.5t23 16.5q4 20 54 55q51 33 51 76 q-12 37 -55 37q-6 0 -7 -6q0 -6 4.5 -18.5t10.5 -20.5q-35 -78 -90 -113q4 12 8 25.5t16 13.5q2 4 5 17.5t6.5 31t5.5 34t2 24.5q0 29 -8 39q-92 -55 -154 -56q-37 0 -71 19.5t-93 66.5q2 -20 4 -20q0 -8 -14 -10q2 -10 2 -25.5t2 -36.5q-10 10 -43 21zM549 1217v6q6 0 6 -4 q0 -2 -6 -2zM590 735v6q8 0 8 -4q0 -2 -8 -2zM598 705v20q8 -2 8 -20h-8zM598 1245q8 0 8 6q0 8 -8 9v-15zM635 975q2 2 4 2l2 4q12 12 41 12q23 0 42 -6t42 -20q-8 -2 -18 -2h-49t-64 10zM649 922q6 4 17.5 13t35.5 9q39 0 54 -10l10 -10l4 -11q0 -4 -17.5 -11t-39.5 -11 l35 10l4 10h-4q-8 0 -25.5 3.5t-26.5 3.5q-31 0 -47 4zM674 926h6q4 0 16.5 -3t20.5 -3q-12 2 -12 10q0 6 10 10h-17q-4 -2 -10 -6t-14 -8zM696 737q8 0 32 2t36 2t30.5 -5t22.5 -5q8 0 28.5 2t31.5 2q10 0 28.5 -5t22.5 -5h2q0 -14 -16.5 -27.5t-37 -23.5t-39 -16.5 t-22.5 -6.5q-6 0 -15 1t-26 3q-12 0 -25.5 8.5t-24.5 20.5t-19.5 26.5t-8.5 26.5zM721 727q2 -10 18 -25q10 -2 31 -7t41 -5q8 0 27.5 2t31.5 2q6 0 20.5 11.5t14.5 15.5t-18 4q-4 0 -27.5 -2t-34.5 -2q-16 0 -24 5t-49 5q-2 0 -12.5 -2t-14.5 -2h-4zM723 920q12 -2 20.5 -2 h12.5h2l-4 8q-2 4 -15 8l-4 4l4 -8q0 -6 -16 -10zM729 930q0 -6 4 -6q6 0 6 6q0 2 -6 2q-4 0 -4 -2zM770 799q0 2 6 2q14 0 15 -8h-5h-6l-2 2q-8 0 -8 4zM780 672h4l2 -2l5 -4h10l2 4l-2 2l-13 2l-6 2zM786 905v17q9 -1 9 -9t-9 -8zM815 670h16l5 2l2 2v4h-9l-2 -2h-8h-4v-6 zM854 788l16 5q4 0 7 -2l4 -3h-27zM881 1384q0 -4 12 -10q2 2 3 6.5t5 8.5q-20 0 -20 -5zM883 901l16 14q12 12 23 13q39 0 54 -12.5t19 -12.5l9 -8h-64q-16 0 -27.5 2t-19.5 4h-10zM895 903h25q2 0 8 -1t12 -1q8 0 16.5 1t10.5 1h4q2 -2 18 -2q-8 0 -12 3t-9 8.5t-15.5 8.5 t-28.5 3q-6 0 -11.5 -6.5t-17.5 -14.5zM899 952q14 18 27 19h34.5t45.5 -10q2 0 4 -3q12 -6 15 -8t7 -8q-4 -2 -20 -2q-10 0 -16.5 2t-43.5 10q-23 6 -30 6h-13zM915 1374q15 0 15 8q0 6 -15 7v-15zM920 911q0 11 18 11t18 -11q0 -8 -18 -8t-18 8zM922 911q0 -4 4 -4 q6 0 6 4q-4 4 -6 4q-4 0 -4 -4zM924 879v6q12 0 12 -2q-4 -4 -12 -4zM1049 1319l24 -39q17 0 17 10q0 8 -13.5 18.5t-25.5 10.5h-2zM1053 735q4 23 10 27v-10q0 -12 -10 -17zM1124 864v6q7 0 9 -2q-4 -4 -9 -4z" />
<glyph unicode="&#xe01;" horiz-adv-x="544" d="M49 45l4 660q-2 102 88 115.5t195 -13.5q139 -39 139 -199v-370v-83v-85q2 -27 -2 -46.5t-23.5 -24.5t-37 2t-17.5 40l6 506q6 150 -61.5 180.5t-140 25.5t-70.5 -67q2 -68 1 -203t-1 -438q-2 -35 -26.5 -44t-39 0t-14.5 44z" />
<glyph unicode="&#xe02;" horiz-adv-x="503" d="M-1 661.5q-1 18.5 11.5 57.5t44.5 65q47 35 99.5 35t83.5 -45q23 -45 24 -112q0 -106 -2 -187.5t-4 -163.5t-5 -139t0 -85t49 -28t49 38t4 90.5t-1 118t-2 141v178t4 151.5t46 47t36 -44t-9 -96t-3 -91v-92.5t1 -197.5t1 -163v-31.5t-3 -47t-54.5 -49t-91 -17.5t-63.5 12 t-30 33.5t-8 62.5t0 137.5t4 185.5t4 147.5t0 84t-8 47t-18 37.5t-30.5 15.5t-29 -19t-12.5 -43t-3 -35t-11.5 -17.5t-24.5 -9t-31 4q-16 6 -17 24.5z" />
<glyph unicode="&#xe03;" horiz-adv-x="544" d="M-6 650.5q0 21.5 13 85t60.5 77.5t76 -4.5t28.5 -63.5q51 41 82 49.5t44 -8t15 -41.5q4 -33 4 -133q-2 -59 -10 -419q0 -35 1 -65t13.5 -52.5t44 -13t33.5 84.5q6 172 4 221.5t-2 88.5t-1 93t-1 79.5t1 57.5t3.5 64.5t19.5 48t34.5 12.5t19.5 -39t0 -117t-3 -118.5 t-1 -136.5q4 -213 3 -245.5t-11 -71.5t-32.5 -56.5t-53.5 -25.5t-57.5 -8t-50 15.5t-32 58.5t-4 209.5t6.5 291.5l4 152q-45 -70 -84 -76q-20 0 -29.5 17.5t-12.5 50t-18.5 29.5t-16.5 -17t-5 -63q0 -29 -21 -41q-27 -14 -53 0q-12 8 -12 29.5z" />
<glyph unicode="&#xe04;" horiz-adv-x="567" d="M49 174q2 133 2 184v85.5t2 114.5t10.5 106.5t54.5 102.5t139 57.5t162 -40t77 -194.5q-4 -473 -4 -529q0 -66 -38 -64.5t-42 50.5q0 68 2 141.5t4 149.5q4 190 -5.5 280.5t-54.5 117t-104 20.5t-96 -66q-23 -49 -27 -105.5t-3 -91t1 -75.5h61.5h49t32 -8.5t10.5 -31 t-14.5 -32.5t-56.5 -10q-66 2 -90 2q0 -20 2 -70.5t3 -95.5t0 -92t-12.5 -63.5t-32 -17.5t-27.5 20.5t-5 154.5z" />
<glyph unicode="&#xe05;" horiz-adv-x="573" d="M49 320.5v232.5t11.5 170t48 78.5t77.5 5.5t72 -51q55 47 107.5 57t89.5 -23.5t43 -142t5 -246t0 -210t1 -121.5q2 -43 -14.5 -59.5t-42 -11.5t-23.5 44q4 436 4 482t-5 117t-28.5 90.5t-72 -24.5t-73 -30t-46 32.5t-34.5 23.5t-28.5 -9t-17.5 -44t-3 -147.5t5 -122.5 t33 -1q41 6 69.5 4t41 -19.5t12.5 -32.5q-4 -33 -39 -32q-51 -2 -117 2q0 -33 2 -151t2 -134t-6 -30.5t-23.5 -17.5t-32 8t-14.5 38q-2 51 -3 103.5t-1 172z" />
<glyph unicode="&#xe06;" horiz-adv-x="548" d="M15.5 730q-27.5 58 11.5 77q45 25 77.5 -34.5t82 -3.5t85.5 44q35 -10 25 -61q-27 -111 -74 -285t-59 -236q20 -66 75.5 -112.5t109.5 -44.5t58.5 76.5t2.5 143t-2 205t-2.5 218.5t14 95t36 6t21.5 -36q4 -33 2 -212t-1 -297.5t-6 -174t-52 -80t-117 -16.5t-172 133 q-8 -57 -15 -100t-46 -37t-38 33.5t183 662.5q-72 -51 -122 -36.5t-77.5 72.5z" />
<glyph unicode="&#xe07;" horiz-adv-x="471" d="M16 251q2 85 47 81q39 -2 35 -41q-2 -88 5.5 -140.5t48.5 -68.5q35 -14 85 -10t67.5 23.5t18.5 51t4 121.5t1 193.5t-4 159.5q2 78 -15.5 104.5t-44 29.5t-57.5 -16q-25 -16 -44.5 -11t-29.5 28q-8 20 14.5 39.5t85 25.5t109.5 -26.5t53 -97t5 -221.5t-1 -231.5 t-2 -107.5q0 -37 -19.5 -69.5t-56 -50t-82.5 -18.5t-89.5 4t-77 35t-46 79t-10.5 134z" />
<glyph unicode="&#xe08;" horiz-adv-x="497" d="M2 577.5q-4 26.5 2 65.5t39 90q63 86 169.5 89t158 -43t55.5 -126t2 -171t-4 -431q-4 -57 -47 -53t-37 74q14 229 8 268l-170 -6q-53 0 -53 38t36 47t79 5t108 -14q10 168 3 220t-34.5 83.5t-78 37t-92.5 -26.5t-55 -85t-3 -88q-37 -25 -59.5 -12.5t-26.5 39z" />
<glyph unicode="&#xe09;" horiz-adv-x="518" d="M35 709q-29 43 18 76.5t193 33.5q80 -2 132 -44t60 -132t8 -162.5t-2 -206t-2 -168.5q2 -51 0 -78.5t-37.5 -28.5t-39.5 30q-4 53 6 106q-70 -94 -114 -115.5t-103 -19.5q-115 10 -115 130v185q0 104 6 123q12 20 39 22.5t31 -22.5q6 -29 3 -139.5t-1 -167.5 q4 -49 33.5 -58.5t69.5 5t89 68t60 110.5q6 68 4 246q-2 154 -39 201t-110.5 41.5t-135.5 -42.5q-33 -14 -53 7z" />
<glyph unicode="&#xe0a;" horiz-adv-x="489" d="M-5.5 772q-2.5 25 15 35t42 11t62.5 -5t64.5 -28.5t38.5 -71.5q31 31 70 64.5t64.5 54t50 39t43 23.5t31.5 -13.5t-13.5 -43t-74.5 -64.5t-71 -62q70 -31 74 -86v-82q0 -41 -1 -235.5t-3 -223.5q-10 -80 -106.5 -87t-133 18.5t-26.5 103.5q14 197 20 351.5t3 185t-12 46 t-25.5 25.5t-46 13t-40.5 5q-23 2 -25.5 27zM201 88q0 -33 49 -35t57 39q2 37 3 81t4 188.5t1 256.5q-6 31 -36.5 40.5t-55.5 5.5q2 -33 -2 -127.5t-6 -149.5t-4 -104.5t-10 -194.5z" />
<glyph unicode="&#xe0b;" horiz-adv-x="571" d="M-7 660q-7 42 10 88.5t54 61.5t67 2t50 -38q45 33 78 39q41 4 55 -41q4 -12 7 -24.5t8 -32.5q49 45 72.5 61.5t60.5 42t76.5 43t54.5 -5.5q8 -23 -6 -35q-10 -8 -42 -31.5t-120 -84.5q33 -25 52 -65t19 -99q2 -207 -4 -465q-8 -68 -78.5 -73t-117.5 -1q-45 2 -47 35 t-1 70.5t4 108.5t5 201t2 180t-5 85t-14 51q-18 -25 -34.5 -43t-39 -18t-36.5 41t-31.5 36.5t-18.5 -44t-1 -50.5q0 -31 -41 -37q-31 0 -38 42zM317 100q-2 -37 39.5 -39t49.5 33q4 27 5 52.5t1 54.5v256t-2 97t-25 76t-66 40q2 -123 2.5 -220.5t-2.5 -189.5 q-2 -119 -2 -160z" />
<glyph unicode="&#xe0c;" horiz-adv-x="847" d="M49 74q0 76 1 151.5t1 151.5v221.5t2 171.5q0 12 9.5 27.5t41.5 17.5q156 6 234 -20.5t102 -89.5q8 -29 10.5 -60t4.5 -61q4 -63 5 -131t3 -131q0 -23 4 -42.5t24.5 -48t44 -61.5t58.5 -68q33 -29 61.5 -20.5t36.5 119.5q2 51 1 176t-2 248t1 153q2 37 37 41q39 2 39 -45 l6 -338q0 -51 1 -121.5t-1 -125t-14 -101.5q-18 -45 -50 -68.5t-80 -15.5t-84 43t-83 107q10 -43 6 -105q-6 -51 -46 -50t-40 54v95v77q2 90 1 184.5t-7 184.5q-4 39 -10 72q-6 25 -22.5 39t-48.5 26t-74 15.5t-79 1.5q-14 2 -14 -23v-48.5t2 -246.5v-330l-2 -22q23 2 41 2 t36.5 -3t20.5 -30q0 -23 -16 -36t-77.5 -14t-73 14.5t-11.5 62.5z" />
<glyph unicode="&#xe0d;" horiz-adv-x="839" d="M49 110.5q0 47.5 2 227.5v389q0 49 48 70.5t175 17.5q74 -4 128.5 -42t66.5 -104.5t10 -154.5q-2 -84 -4 -159.5t-4 -172t84 -106.5q61 0 91 25.5t38 73.5t6 116q0 63 -1 138t-5 182.5t-6 142t12 51.5q20 18 44 10t27 -58t5 -164t2 -302q0 -88 -10 -141.5t-41 -85 t-76 -46.5q-100 -25 -172 5q-41 20 -57.5 53t-16.5 99.5t3 150.5t3 176q0 113 -11 152.5t-48 61t-90 25.5q-63 4 -90 -2t-32 -19t-3 -73q2 -72 2 -195.5t-2 -230.5v-135q63 2 81.5 -1t20.5 -36q0 -23 -16 -36t-78 -13h-43q-41 6 -42 34.5t-1 76zM414 -135q-4 20 20 39 q37 29 256 35q14 0 38 -1t42 -10q31 -16 8 -47q-14 -16 -28.5 -21t-61.5 -2t-129 -3.5t-110 -8.5q-29 -2 -35 19z" />
<glyph unicode="&#xe0e;" horiz-adv-x="538" d="M51 614v136q0 47 25.5 55t117 10t155 -19.5t93.5 -70.5q16 -33 20.5 -73t8.5 -521q0 -29 1 -120t-1 -165q-2 -29 -11 -40t-40 -11q-49 6 -93 14.5t-86 8.5t-68 -7.5t-59.5 -18.5t-50.5 5q-16 35 25 60q18 12 63.5 23t90.5 11t84 -4t55 -8q14 -2 16 0t0 71.5t-2 125.5 q0 43 1 203.5t0 219t-7 152.5q-18 57 -65.5 77t-99.5 20t-87 -5q-12 -2 -12 -14q0 -416 2 -450v-85t1 -84t1 -57q-4 -45 -39 -53t-37 23q0 127 -1 344t-1 247z" />
<glyph unicode="&#xe0f;" horiz-adv-x="520" d="M-22.5 -150.5q-0.5 7.5 2.5 13.5q4 18 19 33.5t48 7.5q20 -6 57 -25q16 -10 40 36t42.5 58.5t38.5 12.5q25 2 58.5 -14.5t87.5 -59.5q14 18 11 243.5t-9 506.5q-14 96 -162 96q-35 0 -72 -13q-10 -8 -10 -20v-63q0 -29 -2 -453q-2 -90 -4 -174q-2 -29 -23.5 -34t-38.5 -1 q-10 2 -10 20t1 122t1 157q0 45 1 242.5t-1 203.5q-2 14 6.5 27.5t18.5 22.5q51 27 145 24.5t156 -39.5q47 -33 59 -80q4 -18 6 -82.5t5 -193.5q0 -16 2 -212t-5 -366q0 -35 -29.5 -43t-45.5 9q-37 35 -62.5 58.5t-66.5 45.5q-14 10 -23.5 5t-26 -40t-26.5 -51 q-31 -55 -72 -35q-29 12 -53.5 22.5t-52.5 20.5q-10 4 -10.5 11.5z" />
<glyph unicode="&#xe10;" horiz-adv-x="456" d="M-3.5 -160.5q15.5 19.5 37 29.5t48.5 0q47 -23 86 -57l12 24q31 76 123 43q0 57 19 60q25 6 49 4q14 -57 6 -156q-6 -37 -41 -43t-39 41q-6 37 -53 35q-8 -20 -20.5 -42t-33.5 -30q-25 -6 -44 -4t-35 20q-33 39 -53.5 46.5t-51.5 7.5q-25 2 -9.5 21.5zM13 612 q5 45 27.5 95.5t63.5 79t94.5 31.5t104.5 -4t80 -26q27 -23 6.5 -49t-82.5 -10q-68 20 -116 15t-74 -52q-27 -45 -31 -88q158 -6 226.5 -45t72.5 -139q0 -379 -16 -410q-49 -16 -62 2q-8 14 -1 97.5t5 146.5q-18 -2 -133 -6q-39 -2 -41 20q0 51 44 52.5t132 -9.5q4 41 4 78 q-4 117 -94 129t-147 17q-43 4 -55.5 17t-7.5 58z" />
<glyph unicode="&#xe11;" horiz-adv-x="622" d="M2 770q2 43 35 45t35 -10t2 -56t1 -62.5t8 -18.5t15 8q16 20 31.5 48t30.5 54q16 35 43 35q29 0 28 -31q-2 -29 -4 -178q117 193 187.5 210t103.5 -37t33 -335.5t2 -339.5l-2 -45q2 -39 -15.5 -49t-37 -9t-19.5 15v152.5t-4 470.5q-2 86 -27.5 97t-82 -49t-78.5 -87 q-41 -49 -49.5 -60.5t-8.5 -37.5q0 -35 1 -125t1 -140.5t-2 -183.5q0 -33 -11 -41t-34 -10q-33 0 -32 23q0 14 4 356v131t4 145q-16 -23 -37 -38t-60 -15q-35 4 -48 34t-13 134z" />
<glyph unicode="&#xe12;" horiz-adv-x="903" d="M51 559l2 193q2 53 45 57q39 6 84 -82q29 -49 42.5 -50t35.5 19q82 74 124 107t79 6t35 -217q0 -176 2 -316q27 -51 54.5 -88.5t60 -72.5t62.5 -44.5t54 15.5q23 25 26 89.5t0 314t-3 286.5q-4 39 24 41q49 10 51 -29v-90q0 -74 3.5 -306t-7.5 -286q-16 -82 -82 -100 q-80 -27 -137 27q-65 66 -106 127q2 -43 2 -119q6 -41 -58 -43q-29 0 -28 31q2 25 6 172q2 117 0 536q-109 -96 -156 -123q-51 -31 -104 27q-39 43 -37 8v-248.5t2 -255t39 -73.5q29 -10 57 14q-14 72 10.5 95.5t57.5 -3.5q27 -33 8 -94q-16 -68 -77.5 -80t-100.5 6.5 t-57.5 76.5t-12.5 472z" />
<glyph unicode="&#xe13;" horiz-adv-x="815" d="M51 94v637q-4 78 64 82q160 12 245 -65q35 -35 46.5 -79t9.5 -110v-203q-2 -166 2 -236.5t68.5 -44t106.5 66.5t73 85q6 137 3 327.5t-5 209.5q-2 33 26 49q57 16 53 -76q2 -295 0 -388t1.5 -156.5t3.5 -126.5q0 -35 -5.5 -50.5t-40 -17.5t-34.5 43q0 78 2 109 q-51 -90 -116 -124t-130 -24q-59 10 -74.5 63.5t-11.5 177.5t2 355q-2 84 -61 117q-63 35 -127 28q-33 -6 -29 -61q2 -35 1 -187.5t3 -281.5t6 -152q0 -31 -13.5 -47t-39.5 -14q-31 -2 -29 94z" />
<glyph unicode="&#xe14;" horiz-adv-x="577" d="M36 326.5q1 185.5 30 308.5q33 127 114.5 165t162.5 14.5t116 -89.5t41 -135.5t8 -283.5t2 -259q2 -35 -12 -41q-41 -12 -53.5 -3t-12.5 34v125v135.5v136.5q0 162 -27.5 226.5t-80.5 82.5q-115 31 -170 -79q-29 -66 -40 -201t3 -266q18 -121 71 -136q37 -8 57.5 15.5 t23.5 55.5t3 110q-6 37 52 32q25 0 26 -18q2 -76 -2 -104q-10 -82 -49 -119t-104.5 -37t-104.5 57q-55 88 -54 273.5z" />
<glyph unicode="&#xe15;" horiz-adv-x="575" d="M51 559l2 193q2 53 45 57q39 6 84 -82q29 -49 42.5 -50t35.5 19q82 74 124 107t79 6t39 -216.5t2 -273v-156.5v-93q0 -51 -33 -68q-14 -6 -30.5 2t-16.5 27q-2 55 -1 170.5t-1 535.5q-109 -96 -156 -123q-51 -31 -104 27q-33 43 -31 8q0 -51 -3 -248.5t0 -254t38 -74.5 q29 -8 57 14q-14 72 10.5 95.5t57.5 -3.5q25 -33 8 -94q-16 -68 -77.5 -80t-102.5 8.5t-59.5 76.5t-8.5 470z" />
<glyph unicode="&#xe16;" horiz-adv-x="536" d="M51 463q0 285 7.5 312.5t133 39.5t205.5 -57q66 -72 66 -199q2 -47 2 -239.5t2 -270.5q0 -23 -6 -36t-33 -15q-37 0 -39 33q0 102 3 330.5t-25 326.5q-68 76 -157 64.5t-87 -37.5l2 -150l2 -166v-315q86 -2 121 -12q12 -76 -90.5 -75t-100.5 64q-6 117 -6 402z" />
<glyph unicode="&#xe17;" horiz-adv-x="561" d="M39 770q0 45 30.5 50t47 -21.5t8.5 -159.5q86 150 182 172q86 12 129 -50.5t49 -180.5q6 -74 2 -508q2 -68 -35.5 -73t-39.5 56q0 49 3 204t1 265.5t-24.5 164.5t-78 43t-108.5 -74.5t-84 -131.5q4 -203 4 -428q0 -10 -1 -55t-38 -43q-31 -2 -34 25.5t-2 234.5t1 266 q0 29 -4 120t-8 124z" />
<glyph unicode="&#xe18;" horiz-adv-x="538" d="M45 662q2 78 55.5 118.5t132 40.5t123.5 -26.5t65.5 -61.5t24.5 -69q6 -43 -33.5 -51.5t-56.5 34.5q-20 63 -63 87t-94.5 10.5t-66.5 -57.5t18.5 -83t120.5 -103.5t138.5 -132t57.5 -137.5q6 -82 -23.5 -134t-81 -76.5t-119 -23.5t-108.5 6t-62.5 13.5t-21.5 38.5 q-4 211 2 279q0 25 13.5 40t35.5 13q25 -6 23 -31v-112q0 -23 2 -156q10 -12 67.5 -17t103.5 9t74.5 53t12.5 111q-25 74 -86 129t-123.5 100t-96.5 85t-34 104z" />
<glyph unicode="&#xe19;" horiz-adv-x="544" d="M47 158q2 43 4 190.5t6 427.5q-2 37 34 39t40 -39q-6 -336 -8 -598q4 -94 68.5 -91t116.5 40t70.5 66.5t20.5 97.5v194.5v187t-1 106.5t36 33t35 -28q2 -25 3 -95.5t0 -183t1 -262t6 -180.5q2 -45 -14 -54t-41 -3q-20 6 -21 33q3 71 3 94q-57 -72 -154 -113 q-88 -35 -147.5 -1t-57.5 139z" />
<glyph unicode="&#xe1a;" horiz-adv-x="550" d="M50 127q-5 82 1 553l2 80q6 53 40 52t34 -28q-4 -446 -2 -563t35 -137q39 -23 153 -14q84 25 85 87t5.5 283.5t-1 274.5t-2.5 77.5t55 20.5q27 -12 22 -104q4 -465 -7 -573.5t-157 -131.5q-131 -20 -217 23q-41 18 -46 100z" />
<glyph unicode="&#xe1b;" horiz-adv-x="555" d="M51 360v269l2 147q0 31 19.5 37t37 -3t13.5 -60q0 -86 2 -176.5t0 -259.5t2 -203.5t57 -38.5q158 2 185.5 12t28.5 67.5t3 421.5q-2 211 -2 283q-2 84 4.5 114.5t38 29.5t31.5 -56v-82v-315v-379q0 -158 -106.5 -165t-201.5 -3t-106.5 47t-7.5 313z" />
<glyph unicode="&#xe1c;" horiz-adv-x="534" d="M37 715q-6 59 33 82q37 20 84 13t57 -30.5t-7.5 -39t-53.5 -11.5l-41 4l18 -387q6 -80 2 -250q45 190 73.5 247.5t55.5 59.5q37 6 72 -92l51 -217q2 215 12 410.5t12.5 250t28.5 64.5q51 12 47 -61q-6 -98 -23.5 -392t-21.5 -321t-20.5 -36t-38 -9t-33.5 33 q-37 86 -78 248q-12 40 -71 -175q-31 -90 -66 -104q-18 -6 -36.5 5t-25 127t-30.5 581z" />
<glyph unicode="&#xe1d;" horiz-adv-x="544" d="M37 715q-6 59 33 82q37 20 84 13t57 -30.5t-7.5 -39t-53.5 -11.5l-41 4l18 -387q6 -80 4 -242q43 182 71.5 239.5t55.5 59.5q37 6 72 -92l53 -219q0 217 20.5 511t22.5 348.5t29 64.5q51 12 47 -62q-6 -98 -34 -490t-32 -419t-20.5 -36t-38 -9t-33.5 33q-37 86 -78 248 q-12 40 -71 -175q-31 -90 -66 -104q-18 -6 -36.5 5t-25 127t-30.5 581z" />
<glyph unicode="&#xe1e;" horiz-adv-x="581" d="M51 176v88q2 207 2 259v89v72q0 23 1 43.5t3 46.5q2 41 34 42t34 -32l2 -30l-2 -195q0 -86 -1 -170t-1 -170q-4 -121 19.5 -140.5t43.5 -2.5q20 16 32.5 43.5t18 64.5t4.5 81t-1 87v74q0 47 36.5 49t38.5 -37v-116v-75t8.5 -112.5t61.5 -71.5q39 12 45 56.5t8 104t1 139 t-2 159.5t-5 244q-6 57 32 51t40 -57q12 -535 5 -605.5t-27.5 -108.5t-59.5 -46t-85 8.5t-63 61.5q-57 -59 -102 -65.5t-75.5 15t-38 64.5t-7.5 92z" />
<glyph unicode="&#xe1f;" horiz-adv-x="591" d="M51 176v88q2 207 2 259v89v72q0 23 1 43.5t3 46.5q2 41 34 42t34 -32l2 -30l-2 -195q0 -86 -1 -170t-1 -170q-4 -121 19.5 -140.5t43.5 -2.5q20 16 32.5 43.5t18 64.5t4.5 81t-1 87v74q0 47 36.5 49t38.5 -37v-116v-75t8.5 -112.5t61.5 -71.5q39 12 45 56.5t8 104t1 139 t-2 160t-5 438.5q-6 57 32 51t40 -58q12 -729 5 -799.5t-27.5 -108.5t-59.5 -46t-85 8.5t-63 61.5q-57 -59 -102 -65.5t-75.5 15t-38 64.5t-7.5 92z" />
<glyph unicode="&#xe20;" horiz-adv-x="522" d="M-18 29q-8 14 6 28.5t57 14.5q10 0 10 10q6 109 7 307.5t1 240.5t-5 69.5t-19 45.5q-18 23 2 39q27 20 69 26.5t87 6.5q98 -2 155.5 -41t78 -91t20.5 -161q4 -182 5 -229t1 -141.5v-116.5q0 -37 -47 -37q-25 2 -27 27l2 61q-4 432 -6 457q-2 76 -11.5 108.5t-37 58 t-64.5 38.5q-70 14 -127 0q-14 -6 -10 -17q8 -70 5 -307.5t-3 -275.5l-2 -101q0 -23 -9 -35t-40 -12q-88 0 -98 27z" />
<glyph unicode="&#xe21;" horiz-adv-x="542" d="M49 202.5q4 190.5 2 303t-1 183.5t3 95q-2 25 35 28t36 -33t-1 -106.5v-187v-194.5q-2 -68 21.5 -97.5t75.5 -66.5t114.5 -40t62.5 99q2 254 0 594q4 41 40 39t34 -39q0 -285 1 -428t-1 -186q0 -104 -53 -138t-142 -8q-96 41 -153 109q0 -18 2 -96q0 -27 -21 -33 q-31 -6 -45 3t-10 199.5z" />
<glyph unicode="&#xe22;" horiz-adv-x="534" d="M25.5 620.5q-0.5 51.5 32 99.5t102.5 79q63 27 101 14.5t22 -45.5q-14 -14 -49 -21.5t-82.5 -31t-50.5 -79.5t37 -96t106 -36q29 2 37 -16.5t-5 -38.5q-10 -16 -22 -22.5t-31 -8.5q-20 -6 -37 -19q-53 -47 -74.5 -160.5t24.5 -141t112.5 -27.5t134.5 24l12 72 q-2 324 -2 364q-2 137 -2 246q4 18 21.5 31.5t31.5 5.5q12 -6 19 -27q4 -12 2 -147t0 -539q0 -96 -182 -100q-158 -6 -220 53q-43 39 -32.5 155t102.5 243q-51 35 -80 75q-27 43 -27.5 94.5z" />
<glyph unicode="&#xe23;" horiz-adv-x="442" d="M21.5 149.5q9.5 47.5 49 60.5t31.5 -30q-27 -72 62 -106q63 -12 97 1t58 46q25 45 3 96q-43 72 -119 141q-129 121 -159 200t0 153.5t120 97t162 -24.5q98 -80 47 -131q-51 -12 -72 45q-29 47 -86 49.5t-96 -53.5q-29 -57 -4.5 -114.5t100.5 -128.5q152 -139 176.5 -213 t1 -134.5t-97.5 -93.5q-82 -25 -153.5 -7.5t-100.5 58.5t-19.5 88.5z" />
<glyph unicode="&#xe24;" horiz-adv-x="538" d="M52 463q1 285 7.5 312.5t134.5 39.5t207 -57q66 -72 66 -199q2 -47 1 -336t1 -356q0 -23 -10 -39t-29 -23q-31 0 -39 33q6 102 7 428t-27 420q-66 57 -157 49t-89 -35l-2 -135l2 -166q2 -53 -2 -315q96 -2 131 -12q12 -76 -95.5 -75t-105.5 64q-2 117 -1 402z" />
<glyph unicode="&#xe25;" horiz-adv-x="520" d="M41 721q-12 27 10 47q70 51 195 55q104 -2 153 -73q47 -72 48.5 -160t1.5 -153.5t2 -385.5q-6 -55 -50 -49q-23 4 -22 33q-4 260 0 334q-10 10 -29 20q-80 27 -136 -3t-76.5 -87t-12.5 -131q6 -61 37 -111q23 -53 -19.5 -59t-66.5 47q-39 106 -28 206.5t71 158.5 q59 53 133 61.5t125 -14.5v2q2 53 -1 107.5t-20 107.5q-25 55 -84 71q-76 20 -161 -28q-47 -25 -70 4z" />
<glyph unicode="&#xe26;" horiz-adv-x="516" d="M-4 29q-8 14 6 28.5t37 14.5q10 0 10 10q6 109 7 307.5t1 240.5t-5 69.5t-19 45.5q-18 23 2 39q27 20 68.5 26.5t86.5 6.5q98 -2 155.5 -41t78 -91t20.5 -161q2 -182 3.5 -229t-1 -237.5t-2.5 -213.5q0 -37 -47 -37q-25 2 -24 27v62q2 625 0 649q-2 76 -11.5 108.5 t-37 58t-64.5 36.5q-70 16 -125 2q-14 -6 -10 -17q8 -70 6 -307.5t-2 -275.5l-4 -101q0 -23 -12.5 -35t-40.5 -14q-66 2 -76 29z" />
<glyph unicode="&#xe27;" horiz-adv-x="471" d="M-8 618q2 117 96 170q55 35 137 25q66 -6 111 -45t59 -102q4 -39 4 -80v-172v-91v-81q0 -47 -2 -140q-2 -76 -62.5 -91t-122.5 1.5t-50 63.5q14 39 65.5 27.5t94.5 -11.5q4 53 5 206t1 196q4 135 -15 178q-35 74 -137 65q-92 -6 -106 -112q-6 -45 -47 -45q-31 4 -31 38z " />
<glyph unicode="&#xe28;" horiz-adv-x="555" d="M51 174v184v85.5t3 114.5t13.5 105.5t45 94.5t80 54t107.5 6t101 -50q27 18 84.5 67.5t79 51.5t33.5 -17q10 -16 0 -30.5t-54 -55.5t-93 -77q-10 -8 -5 -21q20 -51 22.5 -104.5t2.5 -100.5v-313q-2 -51 0 -107q-2 -66 -38 -64.5t-36 50.5q2 68 3 141.5t1 149.5 q0 190 -5 270t-62 125q-53 29 -99.5 19.5t-76.5 -58.5q-27 -53 -30 -109.5t-3 -94v-78.5h63.5h51t31 -8.5t9.5 -28t-13.5 -29.5t-55.5 -10q-63 2 -88 2q0 -20 -1 -70.5t0 -95.5t2 -92t-12.5 -63.5t-29.5 -17.5t-23.5 20.5t-7.5 154.5z" />
<glyph unicode="&#xe29;" horiz-adv-x="583" d="M51 229v514q0 66 36 65t40 -50q0 -55 -2 -128t-2 -149q0 -190 6 -274t53 -116t106.5 -26.5t100.5 62.5q31 49 25 199l-2 55h-111q-20 0 -31.5 8t-10.5 30.5t14.5 33t56.5 10.5q66 -2 90 -2q0 20 -1 80.5t-2 104.5t0 91t13 63.5t32.5 17.5t27 -20.5t2.5 -154.5 q-2 -113 -3 -180h19q35 0 35 -39q-4 -33 -23 -45q-12 -6 -26 -2l2 -23q0 -43 -2 -95t-12.5 -107.5t-57.5 -103.5t-138 -55t-160 42t-75 194z" />
<glyph unicode="&#xe2a;" horiz-adv-x="544" d="M29.5 676q-23.5 29 13.5 67.5t107.5 61t131 8.5t93.5 -55q18 20 94 114q12 16 28.5 23.5t32.5 -2.5q23 -20 0 -49q-86 -113 -98 -133q-8 -8 2 -27q23 -70 26 -137.5t3 -158.5v-341q-4 -45 -44 -48t-34 62l4 101v120.5t-3 83t-46 10.5t-95 -19.5t-92 -79t-36 -127 t28 -103.5q6 -33 -30.5 -44t-55 22.5t-22.5 97t17.5 132.5t73.5 116t120.5 64.5t140.5 13.5v53q0 125 -37 182q-29 45 -72.5 55.5t-92 -3t-93.5 -52.5q-41 -37 -64.5 -8z" />
<glyph unicode="&#xe2b;" horiz-adv-x="538" d="M52 591q-3 200 2 215t36 14t35 -30.5t1 -129t1 -189.5q72 10 123 35l-2 24l-2 58q-2 133 49 191.5t125 41t80 -98.5t-42 -144.5t-85 -93t-34 -41t18.5 -79t44 -142.5t71.5 -144q33 -49 -7 -73.5t-82 62.5t-63.5 161.5t-33 129t-13.5 70.5q-37 -10 -75.5 -20.5 t-75.5 -20.5q2 -70 4 -211t-4 -158.5t-28.5 -19.5t-31 12.5t-8.5 42.5v181.5t-3 356.5zM324 535q96 86 106 150.5t-30 71.5t-65 -50t-11 -172z" />
<glyph unicode="&#xe2c;" horiz-adv-x="591" d="M51 176v88q2 207 2 259v89v72q2 63 2 90q4 41 36 42t36 -32v-30l-2 -195q0 -86 -1 -170t-1 -170q-4 -121 19.5 -140.5t43.5 -2.5q20 16 32.5 43.5t18 64.5t4.5 81t-1 87v74q0 47 36.5 49t38.5 -37v-116v-75t8.5 -112.5t61.5 -71.5q39 4 45 52.5t9 108t4 139t-1 159.5 t-8 109q-74 -16 -119 1t-53 77q-2 55 32 88.5t94.5 30.5t87 -41.5t26.5 -81.5q20 10 38.5 22t32.5 -4q16 -31 -3 -54.5t-60 -29.5q6 -29 6 -221.5t-7 -263t-27.5 -108.5t-59.5 -46t-85 8.5t-65 57.5q-55 -55 -100 -61.5t-75.5 15t-38 64.5t-7.5 92zM332 727q4 -29 22.5 -36 t73.5 1q-6 59 -32.5 74.5t-44 3.5t-19.5 -43z" />
<glyph unicode="&#xe2d;" horiz-adv-x="509" d="M37 688q10 51 61.5 90t121 43t126.5 -30q18 -14 35 -35q37 -51 49 -135q8 -42 8 -355q0 -51 -4 -100t-33 -92q-33 -59 -119.5 -73.5t-150.5 15.5q-74 31 -80 103q-2 31 0 293q-2 55 51 57q68 4 117 -2q33 -4 37 -28.5t-14.5 -39t-98.5 -0.5q-18 0 -20 -43q0 -33 4 -221 q8 -43 47 -59q33 -12 79 -5t79 45t33 128q2 66 2 131t-2 131q-2 111 -19 151q-14 43 -43 72t-78 23q-86 -14 -100 -70q-4 -63 -33 -73.5t-47 9t-8 70.5z" />
<glyph unicode="&#xe2e;" horiz-adv-x="522" d="M45 623q0 57 4 75q12 76 88 111q98 31 191 -10q18 -8 34 4q47 39 74 61.5t41 34.5q29 18 47.5 10t22.5 -22.5t-10 -32.5q-20 -20 -131 -113q-14 -10 -7 -22q16 -25 28.5 -80t17 -106.5t6.5 -148.5t0 -143t-7.5 -96.5t-33 -91.5t-88 -50t-132 -5t-102.5 28.5t-35 64.5 t-5 183.5t12.5 169t70.5 26.5t91 -6t46 -32q2 -33 -17.5 -40t-55.5 -5q-54 0 -70 2q0 -39 1 -145.5t5 -149.5q18 -25 100 -29t123 39q18 72 19.5 133.5t-2.5 254.5q-4 131 -26.5 182t-80.5 69q-47 14 -94 5q-45 -16 -45 -68q2 -33 2 -45q0 -39 -47 -43q-35 0 -35 31z" />
<glyph unicode="&#xe2f;" horiz-adv-x="452" d="M25 772q-2 41 38.5 43t42.5 -39q2 -39 4.5 -76.5t6.5 -76.5q14 -98 76 -113q27 -6 40 18q18 33 29.5 67t17 82t7.5 71q8 66 51 68.5t43 -30.5q0 -23 1 -105.5t0 -188t-1 -211.5q0 -57 1 -113.5t3 -114.5q2 -49 -53 -51q-27 0 -29 31v24v55.5v55.5l2 223q0 23 1 46.5 t1 68.5q-57 -49 -107 -51t-91 28.5t-60 89.5q-8 37 -13 75t-9 75z" />
<glyph unicode="&#xe30;" horiz-adv-x="342" d="M35 264q-2 10 4 42t38 24t77 -6q20 2 52 5t52.5 4t28.5 -20q8 -12 4 -31.5t-19 -23.5q-16 -4 -29.5 -5t-40.5 -2t-136 -7q-31 0 -31 20zM41 512q-4 33 2 47t37 15t85 5.5t71.5 3.5t27.5 -14q10 -12 5 -32.5t-28.5 -25.5t-44 -8t-122.5 -7q-31 -4 -33 16z" />
<glyph unicode="&#xe31;" d="M-313 965v55q0 33 32 41q45 6 45 -37v-25q0 -23 23 -26q57 -4 114.5 -3t94.5 7q35 6 41 -25t-25 -47q-20 -8 -78 -10h-36q-37 0 -70 1t-68 5q-8 0 -28 4q-43 14 -45 60z" />
<glyph unicode="&#xe32;" horiz-adv-x="387" d="M0 666q4 63 53 109t119 43t104 -52q33 -45 37 -131q2 -16 2 -99t-1 -127t-1 -67v-145q2 -147 -6 -171t-24.5 -27t-30.5 0t-19 32v123q0 35 1.5 211t2.5 213.5t-1.5 74.5t-14.5 66q-31 47 -80 34.5t-63 -98.5q-2 -20 -22.5 -27t-40 1t-15.5 37z" />
<glyph unicode="&#xe33;" horiz-adv-x="387" d="M-269 1015.5q-1 28.5 11 49t41 35.5q63 27 108.5 -1t45.5 -89q2 -33 -7.5 -55.5t-35.5 -41.5q-39 -20 -81 -13t-69 56q-12 31 -13 59.5zM-193 1049q-27 -35 3 -76q8 -12 22 -17q18 -4 31 11q33 78 -35 92zM0 666q4 63 53 109t119 43t104 -52q33 -45 37 -131q2 -16 2 -99 t-1 -127t-1 -67v-145q2 -147 -6 -171t-24.5 -27t-30.5 0t-19 32v123q0 35 1.5 211t2.5 213.5t-1.5 74.5t-14.5 66q-31 47 -80 34.5t-63 -98.5q-2 -20 -22.5 -27t-40 1t-15.5 37z" />
<glyph unicode="&#xe34;" d="M-425 910.5q-7 15.5 1 33.5q12 33 64 35q74 -2 140 -3t111 -1q23 0 32 -14.5t-1 -30.5q-14 -23 -47 -27q-25 2 -50.5 2h-49.5h-59.5t-86.5 -8q-47 -2 -54 13.5z" />
<glyph unicode="&#xe35;" d="M-442 938q6 47 73 47q55 2 106.5 -1t96.5 -7q6 -2 8 2v68q-4 47 33 51q37 0 41 -35q2 -76 2 -98q2 -33 -14.5 -49.5t-50.5 -10.5q-16 4 -70.5 5t-85.5 -1q-23 -2 -46.5 -3t-60.5 -1q-33 4 -32 33z" />
<glyph unicode="&#xe36;" d="M-434 942q-6 25 11 40t58 11q76 -6 127 -8q-12 45 7 78q20 31 58 37t69 -15q33 -20 37 -68t-35 -93q-55 -14 -161 -12.5t-120 1.5q-47 2 -51 29zM-186 1032q-6 -20 1 -35.5t33 -13.5q23 4 31 27q6 37 -29 43q-27 0 -36 -21z" />
<glyph unicode="&#xe37;" d="M-432 952q12 20 42.5 27.5t143.5 -2.5q-2 25 -6 59q-4 25 6 41.5t29 16.5q33 4 37 -29l4 -104q2 -35 -16.5 -47.5t-53.5 -10.5q-27 2 -162 -2q-39 10 -24 51zM-147 934q-2 94 0 104q-4 59 34.5 59.5t38.5 -73.5v-68q4 -29 -10 -44t-43 -9q-20 6 -20 31z" />
<glyph unicode="&#xe38;" d="M-219 -94q0 31 35 39q16 4 44.5 6t42 -10.5t15.5 -34.5v-125q0 -25 -5 -34t-32 -9q-16 0 -26.5 3t-10.5 44v84q0 16 -9 16t-28 -4q-25 4 -26 25z" />
<glyph unicode="&#xe39;" d="M-301 -113q-10 20 5 41t65 21q31 0 39 -16.5t8 -38.5q2 -23 3 -44.5t0 -38t1 -28.5q6 -8 24 -4q6 2 6 10v57.5v65.5q0 39 37 38t37 -34v-125q-2 -33 -28.5 -49t-98.5 -8q-41 12 -47 57q-4 37 -2 72q0 16 -18.5 12t-30.5 12z" />
<glyph unicode="&#xe3a;" d="M-253 -118q3 24 26 42q18 14 45 15q43 3 43 -54q0 -20 -19 -37q-33 -25 -73 -4q-25 14 -22 38z" />
<glyph unicode="&#xe3f;" horiz-adv-x="503" d="M44 770q1 27 28 39q47 6 88 10q0 14 1 27.5t1 27.5q6 35 33.5 34t37.5 -29q0 -16 -1 -29.5t-1 -30.5v-2q51 -4 84 -20q76 -39 93 -117q23 -123 -66 -217l-23 -12q84 -20 116 -84t30 -136q-6 -211 -213 -231v-27q-2 -18 -12.5 -28.5t-22.5 -10.5t-23.5 8.5t-13.5 26.5v29 q-106 -2 -119 6q-16 10 -16 35v63q4 68 1 354.5t-2 313.5zM117 737q-2 -72 2 -260h88q27 0 57 15l45 45q61 129 -11.5 180t-180.5 20zM119 104q0 -16 7 -25t87 -9q98 8 138 54t40 120q-6 88 -48 118.5t-91 36.5q-37 4 -133 -4q4 -133 4 -189t-4 -102z" />
<glyph unicode="&#xe40;" horiz-adv-x="239" d="M72 535.5q-2 148.5 0 236.5q-2 39 26 41q33 2 42.5 -5t9.5 -42q0 -129 -1.5 -223t-1.5 -191q2 -78 2.5 -154.5t4.5 -154.5q0 -25 -8.5 -34t-26.5 -11h-15q-23 0 -26 18q-4 18 -4 72v41v123q0 135 -2 283.5z" />
<glyph unicode="&#xe41;" horiz-adv-x="436" d="M66 776q-2 14 2 24.5t29.5 11.5t35.5 -5t10 -31q6 -123 7 -209q0 -53 -1 -108t1 -346l2 -84q0 -20 -19 -27q-10 -2 -18.5 -3t-18.5 1q-23 0 -24 27q2 59 1 115.5t-1 113.5v111.5v109.5q0 39 -1 155t-5 144zM268 535.5q-2 148.5 0 236.5q-2 39 27 41q33 2 42 -5t9 -42 q0 -129 -1 -223t-1 -191q2 -78 2 -154.5t4 -154.5q0 -25 -8 -34t-27 -11h-14q-23 0 -27 18t-4 72v41v123q0 135 -2 283.5z" />
<glyph unicode="&#xe42;" horiz-adv-x="288" d="M76 967.5q-4 62.5 10 76.5q23 23 53 17q10 -4 22.5 -6t26.5 -2q23 0 80.5 4t75.5 -2q31 -8 21 -49q-8 -16 -27 -19q-51 -8 -88 -9t-100 -9q6 -41 12 -252q0 -72 2 -258.5t3 -262t3 -169.5q-14 -33 -48 -26t-34 40q0 74 1 315.5t-1 356t-5 153.5t-7 101.5z" />
<glyph unicode="&#xe43;" horiz-adv-x="354" d="M-14 962.5q6 63.5 53 100.5q37 23 82 17.5t75.5 -34t32.5 -94.5l-2 -28q23 6 43 8q23 -4 23 -38t-25 -40q-31 -8 -34 -11t-5 -16q2 -35 0 -323q0 -49 1 -152.5t1 -161t2 -116.5q0 -25 -6 -45q-6 -35 -39 -31t-38 39q4 125 6 633q0 102 -4 157q-25 -8 -59 -8t-70 33 q-43 47 -37 110.5zM55 922q20 -47 82 -29q21 4 23 29q2 70 -32 85t-59.5 -7.5t-13.5 -77.5z" />
<glyph unicode="&#xe44;" horiz-adv-x="292" d="M-49 1010q-4 41 33 49q18 6 86 0q14 0 47 4q31 6 49 -16q14 -14 11 -75t-3 -100q0 -41 -2 -151q0 -80 -2 -244v-153q0 -121 2 -293q-2 -31 -35 -31q-51 2 -49 53q0 29 2 97.5t4 171.5q6 182 6 341.5t-4 317.5q-63 4 -102 3t-43 26z" />
<glyph unicode="&#xe45;" horiz-adv-x="385" d="M0 666q4 63 53 109t119 43t104 -52q33 -45 37 -131q2 -16 2 -99t-1 -127t-1 -67q0 -25 -2 -317q2 -156 -6 -179.5t-24.5 -26.5t-30.5 0t-19 31v132q0 35 2.5 297t3.5 299.5t-1.5 74.5t-14.5 66q-31 47 -80 34.5t-63 -98.5q-2 -20 -22.5 -27t-40 1t-15.5 37z" />
<glyph unicode="&#xe46;" horiz-adv-x="548" d="M82 569.5q0 36.5 4 73.5q10 68 57 92q61 20 107 -24q10 -10 18 -21.5t17 -21.5q37 37 69 53q14 8 33 8q29 2 48.5 -20.5t23.5 -51.5t4 -57.5v-56.5q2 -182 2 -224q0 -88 2 -319q0 -76 2 -102q2 -18 -11.5 -26.5t-37 -7.5t-27.5 6t-4 58.5t1 170t1 161.5v96.5v94.5l-2 155 q2 35 -16 53q-16 -10 -24.5 -22t-12.5 -30.5t-10.5 -35t-30 -22.5t-47.5 12q-4 2 -8 23.5t-16.5 48t-45.5 45.5q-10 -14 -18 -57q-8 -61 10 -121q12 -29 -23 -39q-47 -12 -57 35q-8 37 -8 73.5z" />
<glyph unicode="&#xe47;" d="M-414 963q-12 37 0.5 92t65.5 83.5t139 35.5q61 2 70 -27q6 -23 -13 -33q-12 -8 -122 -10q-35 -2 -56.5 -20.5t-24 -60.5t20.5 -60q41 78 123 26q-6 39 -6 51q0 25 24 29q29 4 37 -25q4 -14 4 -38v-66q-2 -23 -12 -31t-39 -8q-18 0 -20 17q-2 18 -19 30q-20 12 -32 -2 q-12 -23 -31 -35t-51 -10q-41 8 -58 62z" />
<glyph unicode="&#xe48;" d="M-164 1231v37q0 29 21 41q27 10 42 5t17 -24q2 -20 2 -28v-66q0 -23 -12 -39t-51 -12q-18 2 -17 24z" />
<glyph unicode="&#xe49;" d="M-275.5 1249q-5.5 8 1.5 23q16 25 59 37t72 6q16 -4 24 -18.5t4 -34t-28 -52.5l28 15q37 16 56 24q12 6 32 13q20 0 31 -15q16 -33 -16 -45q-10 -6 -65.5 -26.5t-84.5 -32.5q-33 -14 -55 -15q-23 2 -26 20.5t16 41.5q33 39 39 53q8 27 -29 13.5t-43 -13.5q-10 -2 -15.5 6 z" />
<glyph unicode="&#xe4a;" d="M-296.5 1176.5q-4.5 29.5 1.5 78.5q6 35 26.5 46.5t45.5 -3.5q31 -27 80 0q55 27 62 -10t-1 -82l51 56q25 16 41 0q16 -27 -11.5 -55.5t-92.5 -59.5q-39 -12 -41 22q0 29 1 50.5t-7 33.5q-53 -47 -99 -2q8 -35 10.5 -62.5t-10 -38.5t-32.5 -7t-24.5 33.5z" />
<glyph unicode="&#xe4b;" d="M-244 1241q0 12 9.5 19.5t21.5 11.5t55 8l-4 23q-4 25 7.5 41t33.5 20q33 0 33 -29q2 -12 2 -25.5v-25.5q25 8 63 8q27 -6 27 -26q2 -18 -14 -29q-18 -8 -70 -14l-2 -27q0 -43 -35 -47q-37 -2 -35 31v39q-16 2 -40.5 1t-38.5 5q-12 8 -13 16z" />
<glyph unicode="&#xe4c;" d="M-244 1083q0 19 4 54q8 66 70 77q41 8 81 12.5t70.5 7.5t38.5 -17q14 -41 -16 -52q-16 -4 -67.5 -9t-73.5 -9q-23 -2 -25 -19q-4 -16 -2 -32.5t0 -28.5q-4 -14 -29.5 -17t-38 4t-12.5 29z" />
<glyph unicode="&#xe4d;" d="M-269 1015.5q-1 28.5 11 49t41 35.5q63 27 108.5 -1t45.5 -89q0 -33 -8.5 -54.5t-34.5 -42.5q-39 -18 -79 -15t-71 58q-12 31 -13 59.5zM-199 1038q-10 -35 23 -67q8 -8 14 -10q12 -8 25 6q25 76 -43 86l-13 -4q-6 -6 -6 -11z" />
<glyph unicode="&#xe4e;" d="M-289 934q-12 59 20.5 94t86.5 31l18 -6q27 82 158 80q20 -6 22 -20.5t-12 -29.5q-16 -12 -47 -12q-33 0 -53 -12q8 -31 -8 -47q-27 -23 -56 -6l-16 -9q-25 6 -41 -8q-14 -18 -2 -43q57 -6 43 -49q-29 -25 -64.5 -12.5t-48.5 49.5z" />
<glyph unicode="&#xe4f;" horiz-adv-x="536" d="M2 319q6 72 38 132.5t93 101.5q25 16 52.5 22.5t56.5 4.5q8 0 26.5 -3.5t22.5 -7.5q12 -14 26.5 -14t30.5 -2q51 0 78 -51q43 -84 40 -181.5t-60 -148.5q-49 -47 -143.5 -57.5t-155 20.5t-83 78t-22.5 106zM74 340q-4 -90 63 -133q82 -39 174 -6q66 31 80 108 q8 94 -29 154q-10 23 -32 22q-12 0 -25.5 1t-25.5 3q-16 2 -31 8.5t-21 24.5q-33 -4 -59 -22q-82 -55 -94 -160zM168 340q0 59 61 74q49 8 70 -39q12 -27 -1 -63t-47 -39t-48 3q-35 11 -35 64z" />
<glyph unicode="&#xe50;" horiz-adv-x="565" d="M46.5 239.5q-5.5 106.5 12.5 172.5q29 88 83.5 130t130 45t116.5 -22q35 -16 56.5 -46t31.5 -54q37 -96 33 -207q-2 -39 -7 -76t-28 -78q-76 -123 -235 -106q-76 10 -125 61q-63 74 -68.5 180.5zM119 303q-8 -145 80 -217q41 -33 102 -31q76 14 111 86q54 147 -9 303 q-53 90 -139 78q-82 -16 -112.5 -94t-32.5 -125z" />
<glyph unicode="&#xe51;" horiz-adv-x="598" d="M33 299q6 113 94 201q84 74 190 78q100 6 161 -60.5t67 -177.5q2 -162 -109 -260q-90 -80 -176 -109q-55 -18 -74 21q-8 25 15 37q154 53 225.5 154.5t24.5 240.5q-23 57 -73 76.5t-112 1.5q-135 -53 -155 -197q-2 -45 15 -67.5t56 -22.5q39 2 71 16.5t77 67.5 q12 16 32.5 14t30.5 -20q6 -20 -4 -41q-47 -59 -124 -92t-150 -4q-84 41 -82 143z" />
<glyph unicode="&#xe52;" horiz-adv-x="583" d="M41 325.5q0 98.5 12 276.5q2 27 12.5 43.5t32.5 16.5q43 2 35 -66q-27 -190 -14 -408q-2 -92 90 -122q72 -16 134.5 7t82.5 122q25 202 2 288q-35 -39 -63 -55q-35 -23 -58 14q-25 43 -45 41q-18 -2 -24 -22q-10 -33 2 -64q14 -33 7 -49t-26 -22q-35 -8 -51 26 q-10 33 -9 66t13 65q16 39 52 57.5t77 8.5q31 -6 57 -51q35 27 48 34q68 41 94 -26q31 -254 -33 -414q-53 -82 -140 -94t-155 6q-96 31 -123 129q-10 94 -10 192.5z" />
<glyph unicode="&#xe53;" horiz-adv-x="516" d="M42 239.5q-1 157.5 17 219.5q12 37 38 58.5t63 25.5q35 4 65 -23l21 -16q51 49 88 55q31 6 52.5 -7t31.5 -30q18 -25 29.5 -65.5t14.5 -176t-7 -241.5q-2 -33 -21.5 -42t-40.5 -3q-16 10 -14 37q2 31 4 62.5t5 169.5t-23 204q-25 37 -58 12q-20 -23 -20 -49 q0 -23 -16.5 -34t-37.5 -7q-18 2 -24 23q-12 45 -41 57q-39 14 -49 -76q-4 -92 0 -206.5t37 -123.5q27 -6 45 13q27 29 55 18q33 -25 -2 -59q-23 -23 -47.5 -31t-61 -6t-69.5 43t-34 198.5z" />
<glyph unicode="&#xe54;" horiz-adv-x="544" d="M51 125q-10 86 14.5 208t166 190.5t233.5 119.5q35 0 39 -22.5t-14.5 -40t-175 -87t-177 -173t-10.5 -197.5q10 -37 31.5 -52.5t58.5 -13.5q68 6 119 45q-72 123 -66 217q2 37 34 53.5t97 8.5q31 -2 35 -25q2 -18 -7 -30.5t-44 -6.5q-43 6 -47 -18q-4 -51 37 -131 q37 -72 121 -117q18 -10 16 -33q-6 -23 -23.5 -26.5t-42.5 10.5q-53 37 -65 47q-35 -23 -76 -43q-59 -18 -110.5 -16t-85.5 24q-52 37 -58 109z" />
<glyph unicode="&#xe55;" horiz-adv-x="544" d="M51 125q-10 86 15 207q14 72 67 125q-14 23 -16 55q-2 43 23.5 79t75.5 43t79 -13q27 -18 37 -50q76 39 133 72q35 0 39 -22.5t-14.5 -40t-175 -87t-177 -173t-10.5 -197.5q8 -37 30.5 -52.5t59.5 -13.5q68 6 119 45q-72 123 -66 217q2 37 34 53.5t97 8.5q31 -2 35 -25 q2 -18 -7 -30.5t-44 -6.5q-43 6 -47 -18q-4 -51 37 -131q37 -72 121 -117q18 -10 16 -33q-6 -23 -23.5 -26.5t-42.5 10.5q-53 37 -65 47q-35 -23 -76 -43q-59 -18 -110.5 -16t-85.5 24q-52 37 -58 109zM182 494q23 16 72 41l22 10l-2 12q-16 27 -47 25q-61 -16 -45 -88z" />
<glyph unicode="&#xe56;" horiz-adv-x="499" d="M0 625q-10 39 6 53q35 23 66 -4l32 -156q39 31 99 43q47 8 96 -7t88 -71q39 -61 50.5 -145t-5.5 -211q-14 -72 -65 -98q-41 -23 -93.5 -28t-99.5 -1q-43 6 -65 49q-8 16 -21 66q-12 59 18 71q43 16 58 -26l4 -72q16 -18 41 -22q49 0 110 16q18 8 33 39q25 113 9.5 205 t-46.5 133q-66 59 -137 30q-25 -10 -41 -34q-14 -23 -29.5 -30t-41.5 -1q-41 117 -66 201z" />
<glyph unicode="&#xe57;" horiz-adv-x="622" d="M53 381q6 66 29.5 103.5t54.5 56t68 16.5q53 -2 90 -61q23 23 49 43q63 41 100 -7q25 -39 25 -108.5t-27 -357.5l19 84l84 491q8 33 35 35q16 2 29.5 -8.5t11.5 -34.5q-6 -70 -132 -588q-14 -35 -30.5 -43t-34.5 -4q-35 6 -35 43q0 74 4 154.5t7.5 183t-19.5 106.5 q-43 -29 -80 -71q-18 -18 -33 -17q-20 2 -31.5 30t-21.5 44q-31 35 -63 -6q-18 -25 -23 -80q-12 -84 -7 -170t17 -111q23 -37 66 -41q31 -2 45 27q10 55 57 43q25 -12 21 -41q-6 -37 -34 -64.5t-83 -29.5t-91 20.5t-57 79.5q-23 92 -10 283z" />
<glyph unicode="&#xe58;" horiz-adv-x="514" d="M44 185.5q-13 109.5 9.5 192.5t152.5 148.5t234 116.5q35 0 39 -22.5t-14.5 -40t-177.5 -86.5q-174 -70 -179.5 -189t29.5 -219q25 -37 58 -12q20 23 20 49q0 23 16.5 34t36.5 7q18 -2 25 -23q12 -45 41 -57q39 -14 49 76q8 92 2 122.5t-39 39.5q-27 6 -45 -13 q-27 -29 -55 -18q-33 25 2 59q23 23 50.5 33t60 5t67.5 -44q33 -41 34 -114.5t-18 -135.5q-12 -37 -37.5 -58.5t-62.5 -25.5q-35 -4 -66 23l-20 16q-51 -49 -88 -55q-31 -6 -50.5 7t-33.5 34q-27 41 -40 150.5z" />
<glyph unicode="&#xe59;" horiz-adv-x="608" d="M35 111q-4 74 8 158.5t41 129.5q29 35 70 43t86 -8q10 72 48 101.5t79 23.5t61 -43q12 -23 23 -70q66 145 73 162q16 31 47 25q37 -10 27 -47q-47 -86 -78 -143.5t-44 -72t-34 -14.5q-20 2 -26 27q-10 72 -41 104q-29 20 -56 -8q-23 -37 -18 -80q25 -23 47.5 -63.5 t43 -86.5t69.5 -167q25 -59 -19 -80q-41 -12 -51 25q-8 23 -18.5 56.5t-22.5 71.5t-27.5 76.5t-29.5 69.5q-20 37 -48 62.5t-64 25.5t-51 -27.5t-22.5 -114.5t-7.5 -138q29 -59 86 -37q31 18 37 63q12 27 38 17.5t28 -33.5q-6 -35 -25 -62q-29 -39 -76 -53q-47 -8 -82.5 8.5 t-56.5 50.5q-12 23 -14 48z" />
<glyph unicode="&#xe5a;" horiz-adv-x="604" d="M40 671.5q1 96.5 11 123t40 22.5t32 -43l-6 -94q4 -104 26.5 -132t71.5 -18q74 25 90 78q0 43 -1 80t-1 72q0 53 39 54t41 -26q2 -14 1 -58t-1 -87t-1 -93t-2 -106.5t-1 -115.5q2 -244 4 -265q2 -51 -25.5 -58t-43 5.5t-13.5 30.5l2 270q2 53 2 119t1 73t1 11 q-37 -41 -100 -51q-47 -4 -83 10t-58 55q-27 47 -26 143.5zM456 723q-3 59 14 77.5t38 16.5q25 -2 27 -31q4 -70 1 -203.5t-1 -498.5v-29q8 -45 -30 -56t-46 36q2 80 2 202.5v186t-2 127.5q0 113 -3 172z" />
<glyph unicode="&#xe5b;" horiz-adv-x="899" d="M20 369q-2 84 16.5 130t39.5 62q14 12 35 14q41 -2 34 -43q-43 -37 -53 -124q-4 -104 47 -153.5t129 -2.5q37 109 64 205q14 43 36.5 44t39.5 -40q16 -56 47 -156q29 147 65 148q39 4 43 -91q35 37 60 48q20 10 51 4q63 -6 123 6q37 6 49 -19q2 -37 -16.5 -52t-49.5 -17 q-49 0 -135 20q-43 -23 -78 -73q-14 -10 -27.5 -5t-25.5 37l-16 -53q-12 -43 -41 -49q-35 -4 -51.5 43t-32.5 127l-35 -139q-35 -68 -125 -77t-138 50t-55 156z" />
<glyph unicode="&#x2000;" horiz-adv-x="703" />
<glyph unicode="&#x2001;" horiz-adv-x="1407" />
<glyph unicode="&#x2002;" horiz-adv-x="703" />
<glyph unicode="&#x2003;" horiz-adv-x="1407" />
<glyph unicode="&#x2004;" horiz-adv-x="469" />
<glyph unicode="&#x2005;" horiz-adv-x="351" />
<glyph unicode="&#x2006;" horiz-adv-x="234" />
<glyph unicode="&#x2007;" horiz-adv-x="234" />
<glyph unicode="&#x2008;" horiz-adv-x="175" />
<glyph unicode="&#x2009;" horiz-adv-x="281" />
<glyph unicode="&#x200a;" horiz-adv-x="78" />
<glyph unicode="&#x2010;" horiz-adv-x="423" d="M39 276q0 23 5 44.5t37 18.5t77 -1q20 2 92 2t92 -2t29 -21q10 -35 -15 -49q-20 -10 -98.5 -8t-187.5 -4q-31 0 -31 20z" />
<glyph unicode="&#x2011;" horiz-adv-x="423" d="M39 276q0 23 5 44.5t37 18.5t77 -1q20 2 92 2t92 -2t29 -21q10 -35 -15 -49q-20 -10 -98.5 -8t-187.5 -4q-31 0 -31 20z" />
<glyph unicode="&#x2012;" horiz-adv-x="423" d="M39 276q0 23 5 44.5t37 18.5t77 -1q20 2 92 2t92 -2t29 -21q10 -35 -15 -49q-20 -10 -98.5 -8t-187.5 -4q-31 0 -31 20z" />
<glyph unicode="&#x2013;" horiz-adv-x="305" d="M2 371q-2 10 2 36.5t38 23.5t79 -1q20 2 66 4t66.5 3t29.5 -19q8 -12 4 -31.5t-19 -24.5q-16 -4 -29.5 -5t-55 -1t-150.5 -6q-31 0 -31 21z" />
<glyph unicode="&#x2014;" horiz-adv-x="610" d="M2 371q-2 10 2 36.5t58.5 26.5h160.5q20 2 159.5 3t160 2t28.5 -19q8 -12 4 -31.5t-18 -23.5q-16 -4 -29.5 -5.5t-174 -2.5t-320.5 -7q-31 0 -31 21z" />
<glyph unicode="&#x2018;" horiz-adv-x="196" d="M37 829q-6 51 37 58q31 10 35 -35q6 -61 8 -82q2 -29 4 -55t4 -51q2 -29 -14 -43q-14 -8 -43 -3q-10 4 -13 23q-14 162 -18 188z" />
<glyph unicode="&#x2019;" horiz-adv-x="196" d="M57 664q2 25 4 51t5 55q2 20 8 82q4 45 35 35q43 -6 36 -58q-4 -27 -18 -188q-2 -18 -12 -23q-29 -6 -43 3q-17 14 -15 43z" />
<glyph unicode="&#x2022;" horiz-adv-x="503" d="M90 332q0 127 129 155q100 16 143 -81q27 -53 -0.5 -128t-98 -82.5t-101.5 7.5q-72 20 -72 129z" />
<glyph unicode="&#x2026;" horiz-adv-x="690" d="M27 59q-2 27 23.5 52.5t51.5 25.5q27 0 43.5 -22.5t16.5 -55.5q2 -23 -19.5 -38t-54.5 -15q-61 6 -61 53zM244 59q-2 27 23.5 52.5t51.5 25.5q27 0 43.5 -22.5t16.5 -55.5q2 -23 -19.5 -38t-54.5 -15q-61 6 -61 53zM463 59q-2 27 23.5 52.5t52.5 25.5t43 -22.5t16 -55.5 q2 -23 -19.5 -38t-54.5 -15q-61 6 -61 53z" />
<glyph unicode="&#x202f;" horiz-adv-x="281" />
<glyph unicode="&#x2030;" horiz-adv-x="948" d="M59 627q4 43 11 59q8 31 27.5 46.5t47.5 17.5q70 8 103 -29q14 -20 20 -58t0 -96q-12 -78 -90 -86q-41 -6 -67.5 5.5t-37 31t-13.5 40t-1 69.5zM98 37q14 41 36 79t38 68q43 78 85 159t83 159q66 125 109 196.5t65.5 96t32.5 28.5q27 12 49 -4q8 -10 10 -17t-4 -20 q-4 -10 -41 -62t-53 -81q-68 -113 -124 -219.5t-116 -216.5q-14 -31 -28.5 -61.5t-57.5 -106.5q-18 -35 -47 -35q-27 -6 -34 7t-3 30zM123 625q0 -16 1 -43t18.5 -32t33.5 -3q31 4 29 49q2 23 -4 55.5t-33 40.5l-10 4q-18 -4 -23 -12q-12 -29 -12 -59zM412 239.5 q6 55.5 56 77t99 -13.5q35 -30 35 -104q4 -88 -57 -119q-23 -14 -52.5 -9t-52.5 29q-18 20 -26 52t-2 87.5zM471 192.5q0 -57.5 45 -53.5q29 6 29 66.5t-45 54.5q-29 -10 -29 -67.5zM659.5 239.5q6.5 55.5 56.5 77t99 -13.5q35 -30 35 -104q4 -88 -57 -119q-23 -14 -52.5 -9 t-52.5 29q-18 20 -26.5 52t-2 87.5zM719 192.5q0 -57.5 45 -53.5q29 6 29 66.5t-45 54.5q-29 -10 -29 -67.5z" />
<glyph unicode="&#x2031;" horiz-adv-x="1196" d="M59 627q4 43 11 59q8 31 27.5 46.5t47.5 17.5q70 8 103 -29q14 -20 20 -58t0 -96q-12 -78 -90 -86q-41 -6 -67.5 5.5t-37 31t-13.5 40t-1 69.5zM98 37q14 41 36 79t38 68q43 78 85 159t83 159q66 125 109 196.5t65.5 96t32.5 28.5q27 12 49 -4q8 -10 10 -17t-4 -20 q-4 -10 -41 -62t-53 -81q-68 -113 -124 -219.5t-116 -216.5q-14 -31 -28.5 -61.5t-57.5 -106.5q-18 -35 -47 -35q-27 -6 -34 7t-3 30zM123 625q0 -16 1 -43t18.5 -32t33.5 -3q31 4 29 49q2 23 -4 55.5t-33 40.5l-10 4q-18 -4 -23 -12q-12 -29 -12 -59zM412 239.5 q6 55.5 56 77t99 -13.5q35 -30 35 -104q4 -88 -57 -119q-23 -14 -52.5 -9t-52.5 29q-18 20 -26 52t-2 87.5zM471 192.5q0 -57.5 45 -53.5q29 6 29 66.5t-45 54.5q-29 -10 -29 -67.5zM659.5 239.5q6.5 55.5 56.5 77t99 -13.5q35 -30 35 -104q4 -88 -57 -119q-23 -14 -52.5 -9 t-52.5 29q-18 20 -26.5 52t-2 87.5zM719 192.5q0 -57.5 45 -53.5q29 6 29 66.5t-45 54.5q-29 -10 -29 -67.5zM903 203q4 41 10 55q6 29 24.5 43t45.5 16q66 8 96 -26q12 -18 18.5 -54t0.5 -90q-10 -72 -84 -79q-39 -6 -63.5 4t-34 28.5t-12.5 38t-1 64.5zM963 201 q0 -14 1 -40t17 -30t31 -2q28 4 26 45q2 20 -3 51t-31 39l-9 4q-18 -4 -22 -12q-10 -27 -10 -55z" />
<glyph unicode="&#x205f;" horiz-adv-x="351" />
<glyph unicode="&#x20ac;" horiz-adv-x="575" d="M25 225q-2 29 45 54q23 14 28.5 38.5t-2.5 44.5q-16 43 -34.5 67t14.5 42q39 16 57 59q25 72 51.5 133.5t69.5 110.5q68 57 166 49q68 -6 104 -51q16 -29 12 -48t-22 -32q-41 -12 -86 41q-35 31 -65.5 24t-59.5 -38q-39 -49 -62.5 -106.5t-41.5 -131.5q88 31 163 39 q29 4 44.5 -4t19.5 -29q4 -31 -25 -36q-104 -23 -219 -45q-16 -51 -8 -93q66 14 110 23.5t74 13.5q27 -2 33 -24q-2 -39 -61 -58q-72 -20 -152 -30q0 -162 137 -170q100 2 162 75q20 31 48 25t22 -45q-18 -45 -70 -84q-127 -78 -264 -21q-78 41 -96 140q-4 35 -45 35 q-41 6 -47 32z" />
<glyph unicode="&#x2116;" horiz-adv-x="915" d="M49 616q-4 127 4 170q8 35 55.5 34t63.5 -54q37 -102 62.5 -178t38 -115t92.5 -287l28 -116q-8 381 -8 524v162q-2 61 33 63q23 2 32 -9t9 -54q4 -504 4 -719q-4 -39 -60 -39q-39 -2 -61 29q-27 68 -61.5 177t-137.5 423l-28 102q4 -84 5 -165t1 -111q0 -66 6 -396 q-2 -47 -21 -53q-55 -16 -53 27l-2 217v73.5t-2 294.5zM525 527.5q1 127.5 28 195.5q23 49 61 74q37 23 77 21.5t81 -23.5q59 -47 72.5 -126t9.5 -165q-4 -92 -31 -150q-27 -55 -65.5 -77.5t-89.5 -16.5q-63 12 -97 64q-47 76 -46 203.5zM539 92q-6 37 22 49q37 10 86 9 q92 4 154 6q55 0 63 -39q2 -23 -18 -35q-20 -10 -41 -12.5t-123 -6.5q-57 -2 -90 -2q-41 -4 -53 31zM596.5 495q11.5 -133 69.5 -159q29 -14 59.5 3t44.5 89q14 59 8 188q-2 102 -51 127q-76 29 -111 -45q-31 -70 -19.5 -203z" />
<glyph unicode="&#x2264;" horiz-adv-x="481" d="M36 343.5q-3 18.5 7 37.5q20 31 127 113q23 16 73 46.5t73.5 41t43.5 -8.5q20 -33 -20.5 -60.5t-138.5 -86.5l-68 -43q76 4 134.5 5t94.5 1q47 0 52 -24q2 -29 -17 -39q-23 -8 -47 -9q-240 -6 -291 0q-20 8 -23 26.5zM39 184q0 23 5 42.5t37 16.5t77 -1q20 2 112 2 t112.5 -2t29.5 -21q10 -31 -15 -45q-20 -10 -119 -8t-208 -4q-31 0 -31 20z" />
<glyph unicode="&#x2265;" horiz-adv-x="481" d="M47 356q4 25 51 25q37 0 95.5 1t134.5 1l-68 43q-98 59 -139 87t-21 60q20 18 44 12.5t74 -40.5t73 -51q106 -82 127 -113q10 -18 7 -36.5t-24 -27.5q-51 -6 -290 -8q-29 0 -48 8q-18 10 -16 39zM49 217q8 18 28.5 20.5t113 3.5t112.5 1q45 0 77 3t37 -16.5t5 -42.5 q0 -20 -31 -20q-109 4 -208 0t-120 6q-25 14 -14 45z" />
<glyph unicode="&#x25cc;" horiz-adv-x="901" d="M82 412l94 45q-2 -25 -2 -51q0 -24 2 -44zM184 145l37 103q27 -39 66 -68zM199 674l98 -35q-41 -25 -70 -66zM401 684l48 94l49 -94q-23 2 -45 2q-27 0 -52 -2zM406 131q23 -2 47 -2q23 0 41 2l-45 -88zM610 639l105 35l-35 -101q-29 39 -70 66zM614 176q35 27 64 60 l22 -91zM727 457l92 -49l-90 -43q2 20 2 41q0 26 -4 51z" />
<glyph unicode="&#x25fc;" horiz-adv-x="593" d="M0 0v594h594v-594h-594z" />
<glyph unicode="&#xf700;" horiz-adv-x="456" d="M13 612q5 45 27.5 95.5t63.5 79t94.5 31.5t104.5 -4t80 -26q27 -23 6.5 -49t-82.5 -10q-68 20 -116 15t-74 -52q-27 -45 -31 -88q158 -6 226.5 -45t72.5 -139q0 -379 -16 -410q-49 -16 -62 2q-8 14 -1 97.5t5 146.5q-18 -2 -133 -6q-39 -2 -41 20q0 51 44 52.5t132 -9.5 q4 41 4 78q-4 117 -94 129t-147 17q-43 4 -55.5 17t-7.5 58z" />
<glyph unicode="&#xf701;" d="M-492.5 906.5q-7.5 15.5 0.5 37.5q12 33 64 35q74 -2 109.5 -3t80.5 -1q23 0 32 -14.5t-1 -30.5q-14 -27 -47 -31q-25 2 -50.5 1t-49.5 -1q-29 0 -84 -6q-47 -2 -54.5 13.5z" />
<glyph unicode="&#xf702;" d="M-485 938q6 47 73 47q53 2 80 1t72 -11v72q-4 47 33 51q37 0 41 -35q2 -76 2 -98q2 -33 -14.5 -49.5t-51.5 -10.5q-16 4 -40.5 5t-55.5 -1q-23 -2 -46.5 -3t-60.5 -1q-33 4 -32 33z" />
<glyph unicode="&#xf703;" d="M-516 942q-6 25 11.5 37t58.5 8q35 -2 94 -6q-14 49 4 82q20 31 55 37t66 -15q33 -20 37 -68t-35 -93q-55 -14 -140.5 -12.5t-99.5 1.5q-47 2 -51 29zM-309 1032q-6 -20 1 -35.5t34 -13.5q22 4 30 27q6 37 -28 43q-27 0 -37 -21z" />
<glyph unicode="&#xf704;" d="M-483 952q12 20 42.5 27.5t102.5 -2.5q-2 25 -6 59q-4 25 6 41.5t29 16.5q33 4 37 -29l4 -104q2 -35 -16.5 -47.5t-53.5 -10.5q-27 2 -121 -2q-39 10 -24 51zM-240 934q-2 94 0 104q-4 59 30 59.5t34 -73.5v-68q4 -29 -10.5 -44t-32.5 -9q-20 6 -21 31z" />
<glyph unicode="&#xf705;" d="M-307 985v78q0 29 20 41q16 10 31.5 5t17.5 -24q2 -20 2 -28v-107q0 -23 -12 -39t-41 -12q-18 2 -16 25z" />
<glyph unicode="&#xf706;" d="M-443.5 1041.5q-5.5 9.5 1.5 21.5q16 25 59 37t72 6q16 -4 24 -18.5t4 -37t-28 -55.5l28 15q37 16 56 24q16 8 41 13q20 0 30 -15q14 -33 -16 -45q-10 -6 -69.5 -33.5t-88.5 -42.5q-33 -14 -55 -14q-23 2 -24 18.5t14 40.5q31 57 39 78q8 27 -29 13.5t-43 -13.5 q-10 -2 -15.5 7.5z" />
<glyph unicode="&#xf707;" d="M-497.5 953q-4.5 48 1.5 98q8 33 38 47t65 4q16 -10 24.5 -12.5t53.5 16.5q51 18 60 -23t-5 -102l51 49q25 16 41 0q16 -27 -22 -59q-18 -16 -45 -36t-50 -30q-35 -12 -34 27v79.5t-5 37.5q-23 -29 -44 -39.5t-72 37.5q16 -35 17 -79t-14.5 -57.5t-35.5 -9.5t-24.5 52z " />
<glyph unicode="&#xf708;" d="M-428 1012q0 12 9 23.5t22 15.5q12 4 55 8l-4 22q-4 25 7 41.5t34 20.5q33 0 33 -29q2 -12 2 -25.5v-25.5q25 8 63 8q27 -6 27 -27q2 -27 -15 -36q-18 -8 -69 -15l-2 -26q0 -51 -35 -56q-37 -2 -35 31v47q-16 2 -40.5 1t-39.5 5q-12 8 -12 17z" />
<glyph unicode="&#xf709;" d="M-344 930q-2 28 2 63q8 66 70 78q41 8 80.5 12t70.5 7.5t39 -17.5q14 -41 -16 -51q-16 -4 -67.5 -9t-74.5 -9q-23 -2 -24 -19q-4 -16 -1 -37.5t1 -34.5q-4 -14 -29.5 -17t-38 4t-12.5 30z" />
<glyph unicode="&#xf70a;" d="M-147 985v78q0 29 24 41q16 10 31.5 5t17.5 -24q2 -20 2 -28v-107q0 -23 -12 -39t-41 -12q-23 2 -20 25z" />
<glyph unicode="&#xf70b;" d="M-320.5 1040.5q-5.5 8.5 1.5 22.5q16 25 59 37t72 6q16 -4 24 -18.5t4 -37t-28 -55.5l28 15q37 16 56 24q12 6 41 13q20 0 30 -15q16 -33 -16 -45q-10 -6 -69.5 -33.5t-88.5 -42.5q-35 -16 -55 -14q-23 2 -23 21.5t13 37.5q33 57 39 78q8 27 -29 13.5t-43 -13.5 q-10 -2 -15.5 6.5z" />
<glyph unicode="&#xf70c;" d="M-374.5 953q-4.5 48 1.5 98q8 33 38 47t65 4q16 -10 24 -12.5t53 16.5q51 18 60.5 -23t-4.5 -102l51 49q25 16 41 0q16 -27 -23 -59q-18 -16 -44.5 -36t-49.5 -30q-35 -12 -35 27v79.5t-4 37.5q-23 -29 -44 -39.5t-72 37.5q16 -35 17 -79t-14.5 -57.5t-35.5 -9.5 t-24.5 52z" />
<glyph unicode="&#xf70d;" d="M-305 1012q0 12 9 23.5t22 15.5q12 4 55 8l-4 22q-4 25 7 41.5t34 20.5q33 0 32 -29q2 -12 2.5 -25.5t0.5 -25.5q25 8 63 8q27 -6 27 -27q2 -27 -15 -36q-18 -8 -69 -15l-2 -26q0 -51 -35 -56q-37 -2 -35 31v47q-16 2 -41 1t-39 5q-12 8 -12 17z" />
<glyph unicode="&#xf70e;" d="M-242 930q-2 28 2 63q8 66 70 78q41 8 81 12t70.5 7.5t38.5 -17.5q14 -41 -16 -51q-16 -4 -67.5 -9t-73.5 -9q-23 -2 -25 -19q-4 -16 -1 -37.5t1 -34.5q-4 -14 -29.5 -17t-38 4t-12.5 30z" />
<glyph unicode="&#xf70f;" horiz-adv-x="825" d="M35 110.5q0 47.5 2 227.5v389q0 49 48 70.5t175 17.5q74 -4 128 -42t66.5 -104.5t10.5 -154.5q-2 -84 -4 -159.5t-4 -172t84 -106.5q61 0 91 25.5t38 73.5t6 116q0 63 -1 138t-5 182.5t-6 142t12 51.5q20 18 43.5 10t27 -58t5.5 -164t2 -302q0 -88 -10.5 -141.5t-41 -85 t-75.5 -46.5q-100 -25 -172 5q-41 20 -57.5 53t-16.5 99.5t3 150.5t3 176q0 113 -11 152.5t-48 61t-90 25.5q-63 4 -90 -2t-32 -19t-3 -73q2 -72 2 -195.5t-2 -230.5v-135q63 2 81.5 -1t20.5 -36q0 -23 -16.5 -36t-77.5 -13h-43q-41 6 -42 34.5t-1 76z" />
<glyph unicode="&#xf710;" d="M-457 965v55q0 33 33 41q45 6 45 -37v-25q0 -23 23 -26q111 -2 147 4q35 6 41 -25t-25 -47q-20 -8 -77 -10h-37q-41 2 -76 6q-8 0 -29 4q-43 14 -45 60z" />
<glyph unicode="&#xf711;" d="M-404.5 1015.5q-1.5 28.5 11 49t41.5 35.5q63 27 108 -1t45 -89q0 -33 -8 -54.5t-35 -42.5q-39 -18 -78.5 -15t-70.5 58q-12 31 -13.5 59.5zM-334 1038q-10 -35 23 -67q8 -8 14 -10q12 -8 25 6q25 76 -43 86l-13 -4q-6 -6 -6 -11z" />
<glyph unicode="&#xf712;" d="M-463 963q-12 37 0 92t65.5 83.5t139.5 35.5q61 2 70 -27q6 -23 -13 -33q-12 -8 -123 -10q-35 -2 -56 -20.5t-23.5 -60.5t20.5 -60q41 78 123 26q-6 39 -6 51q0 25 24 29q29 4 37 -25q4 -14 4 -38v-66q-2 -23 -12 -31t-39 -8q-18 0 -20 17q-2 18 -19 30q-20 12 -33 -2 q-12 -23 -30.5 -35t-51.5 -10q-41 8 -57 62z" />
<glyph unicode="&#xf713;" d="M-260 1210v58q0 29 20 41q16 10 31.5 5t18.5 -24q2 -20 2 -28v-86q0 -23 -12.5 -39.5t-41.5 -12.5q-18 2 -16 25z" />
<glyph unicode="&#xf714;" d="M-416.5 1249q-5.5 8 0.5 23q16 25 59.5 37t71.5 6q16 -4 24.5 -18.5t4.5 -34t-29 -52.5l29 15q37 16 55 24q12 6 33 13q20 0 31 -15q16 -33 -17 -45q-10 -6 -65 -26.5t-84 -32.5q-33 -14 -55 -15q-23 2 -26 20.5t15 41.5q33 39 39 53q8 27 -28.5 13.5t-42.5 -13.5 q-10 -2 -15.5 6z" />
<glyph unicode="&#xf715;" d="M-419.5 1170.5q-4.5 29.5 1.5 78.5q6 35 26.5 46.5t45.5 -3.5q31 -27 80 0q55 27 62 -10t-1 -82l51 55q25 16 41 0q16 -27 -11.5 -55.5t-92.5 -58.5q-39 -12 -41 22q0 29 1 50.5t-7 33.5q-53 -47 -98 -2q8 -35 10 -62.5t-10.5 -38.5t-32.5 -7t-24.5 33.5z" />
<glyph unicode="&#xf716;" d="M-346 1221q0 12 9 19t22 11q12 4 55 9l-4 22q-4 25 7 41t34 20q33 0 33 -28q2 -12 2 -25.5v-25.5q25 8 63 8q27 -6 27 -27q2 -18 -15 -28q-18 -8 -69 -15l-2 -26q0 -43 -35 -48q-37 -2 -35 31v39q-16 2 -40.5 1t-39.5 5q-12 8 -12 17z" />
<glyph unicode="&#xf717;" d="M-346 1083q0 19 4 54q8 66 70 77q41 8 80.5 12.5t70.5 7.5t39 -17q14 -41 -16 -52q-16 -4 -67.5 -9t-74.5 -9q-23 -2 -24 -19q-4 -16 -2 -32.5t0 -28.5q-4 -14 -30 -17t-38 4t-12 29z" />
<glyph unicode="&#xf718;" d="M-219 -289q0 31 35 39q16 4 44.5 6t42 -10t15.5 -35v-104q0 -25 -5 -34t-32 -9q-16 0 -26.5 3t-10.5 44v63q0 16 -9 16.5t-28 -3.5q-25 4 -26 24z" />
<glyph unicode="&#xf719;" d="M-301 -307q-10 20 5 40.5t65 20.5q31 0 39 -16.5t8 -38.5q2 -23 3 -34t0 -27.5t1 -28.5q6 -8 24 -4q6 2 6 10v47.5v54.5q0 39 37 38t37 -34v-104q-2 -33 -28.5 -49.5t-98.5 -7.5q-41 12 -47 57q-4 37 -2 51q0 16 -18.5 12t-30.5 13z" />
<glyph unicode="&#xf71a;" d="M-187.5 -302.5q3.5 23.5 25.5 42.5q18 14 45 14q43 4 43 -53q0 -20 -18 -37q-33 -25 -74 -4q-25 14 -21.5 37.5z" />
<glyph unicode="&#xf71d;" horiz-adv-x="581" d="M41 176v88q2 207 2 259v89v72q0 23 1 43.5t3 46.5q2 41 34 42t34 -32l2 -30l-2 -195q0 -86 -1 -170t-1 -170q-4 -121 19.5 -140.5t43.5 -2.5q20 16 32.5 43.5t17.5 64.5t4 81t-1 87v74q0 47 37 49t39 -37v-116v-75t8.5 -112.5t61.5 -71.5q39 12 45 56.5t8 104t1 139 t-4 159.5t-7 109q-68 -6 -114 6t-52 72q-2 55 31.5 88.5t94 30.5t87.5 -41.5t29 -84.5q18 12 36.5 24.5t32.5 -3.5q16 -31 -3 -54.5t-58 -29.5q4 -29 4 -221.5t-7 -263t-27.5 -108.5t-59.5 -46t-85 8.5t-65 52.5q-55 -51 -100 -57t-76 15.5t-38 64.5t-7 92zM326 731 q4 -29 22.5 -36t69.5 -3q-4 47 -16.5 64.5t-29 20.5t-31.5 -6t-15 -40z" />
<glyph unicode="&#xf881;" horiz-adv-x="802" d="M42 463q1 285 7 312.5t134 39.5t208 -57q18 -20 31 -45q12 35 43 61q49 47 121.5 44t107.5 -52q33 -45 37 -131q2 -16 2 -99t-1 -127t-1 -67q0 -25 -2 -317q2 -160 -6 -183.5t-24.5 -26.5t-31 0t-18.5 31v136q0 35 2 297t3 299.5t-1 74.5t-14 66q-31 47 -83 34.5 t-76.5 -65.5t-24.5 -88q2 -47 2 -356.5t2 -376.5q0 -23 -10.5 -39t-28.5 -23q-31 0 -39 33q0 102 4 427t-18 421q-72 68 -161 62.5t-87 -31.5v-152l2 -166q2 -53 2 -315q86 -2 121 -12q12 -76 -95.5 -75t-105.5 64q-2 117 -1 402z" />
<glyph unicode="&#xf882;" horiz-adv-x="806" d="M-18 29q-8 14 6 28.5t57 14.5q10 0 10 10q6 109 7 307.5t1 240.5t-5 69.5t-19 45.5q-18 23 2 39q27 20 69 26.5t87 6.5q98 -2 155 -41q45 -33 68 -71q12 39 47 69q49 47 123 44t108 -52q33 -45 37 -131q2 -16 2 -99t-1 -127t-1 -67q0 -25 -2 -317q2 -160 -6 -183.5 t-24.5 -26.5t-31 0t-18.5 31v136q0 35 2 297t3 299.5t-1 74.5t-14 66q-31 47 -84 34.5t-80.5 -69.5t-27.5 -115q2 -227 4 -274t-1 -237.5t-3 -213.5q0 -37 -48 -37q-25 2 -24 27v62q2 625 0 649q-2 76 -11.5 108.5t-37 58t-64.5 38.5q-70 14 -121 0q-14 -6 -10 -17 q4 -70 3 -307.5t-1 -275.5l-2 -101q0 -23 -12 -35t-43 -12q-88 0 -98 27z" />
<glyph horiz-adv-x="387" d="M-404.5 1015.5q-1.5 28.5 11 49t41.5 35.5q63 27 108 -1t45 -89q2 -33 -7 -55.5t-36 -41.5q-39 -20 -81 -13t-68 56q-12 31 -13.5 59.5zM-328 1049q-27 -35 2 -76q8 -12 23 -17q18 -4 31 11q33 78 -35 92zM0 666q4 63 53 109t119 43t104 -52q33 -45 37 -131q2 -16 2 -99 t-1 -127t-1 -67v-145q2 -147 -6 -171t-24.5 -27t-30.5 0t-19 32v123q0 35 1.5 211t2.5 213.5t-1.5 74.5t-14.5 66q-31 47 -80 34.5t-63 -98.5q-2 -20 -22.5 -27t-40 1t-15.5 37z" />
<glyph d="M-391 934q-12 59 20.5 94t85.5 31l19 -6q27 82 157 80q20 -6 22.5 -20.5t-11.5 -29.5q-16 -12 -47 -12q-34 0 -54 -12q8 -31 -8 -47q-27 -23 -55 -6l-17 -9q-25 6 -40 -8q-14 -18 -3 -43q57 -6 43 -49q-29 -25 -64.5 -12.5t-47.5 49.5z" />
<glyph horiz-adv-x="1257" d="M113 514q0 109 41 203t110.5 164.5t163 111.5t199.5 41q109 0 203 -41t164.5 -111.5t111.5 -164.5t41 -203q0 -106 -41 -199.5t-111.5 -163t-165 -110.5t-202.5 -41q-106 0 -199.5 41t-163 110.5t-110.5 163t-41 199.5zM348 373q0 -86 58.5 -137.5t150.5 -51.5 q23 0 45.5 1t42.5 5v111l-12 8q-14 -6 -24.5 -7t-22.5 -1q-33 0 -62.5 18.5t-29.5 65.5q0 16 7 27.5t31.5 19.5t70.5 16.5t122 20.5v-145q0 -74 20.5 -107t81.5 -33h19q29 0 47 11.5t18 44.5q0 35 -11 48t-38 13v272q0 53 -19.5 88t-45.5 58q10 4 19 4h20h19t19 -4h23v133 q-63 -8 -125.5 -23.5t-109.5 -42.5q-18 4 -35 4.5t-41 0.5q-47 0 -90 -6.5t-90 -22.5v-129h12q39 12 81 22.5t74 10.5q18 0 44 -1t50.5 -9.5t41 -27t16.5 -50.5l-168 -17q-37 -4 -74 -12t-67.5 -28.5t-49 -55.5t-18.5 -92z" />
<glyph horiz-adv-x="536" d="M2 319q6 72 38 132.5t93 101.5q25 16 52.5 22.5t56.5 4.5q8 0 26.5 -3.5t22.5 -7.5q12 -14 26.5 -14t30.5 -2q51 0 78 -51q43 -84 40 -181.5t-60 -148.5q-49 -47 -143.5 -57.5t-155 20.5t-83 78t-22.5 106zM74 340q-4 -90 63 -133q82 -39 174 -6q66 31 80 108 q8 94 -29 154q-10 23 -32 22q-12 0 -25.5 1t-25.5 3q-16 2 -31 8.5t-21 24.5q-33 -4 -59 -22q-82 -55 -94 -160zM111 827q-2 51 34 60q45 10 45 -35q0 -20 -2 -40.5t-2 -41.5v-45v-41q4 -29 -16 -41q-25 -14 -53 -6q-2 4 -4 22q0 141 -2 168zM168 340q0 59 61 74 q49 8 70 -39q12 -27 -1 -63t-47 -39t-48 3q-35 11 -35 64zM297 827q-2 51 35 60q45 10 45 -35q0 -20 -2 -40.5t-2 -41.5v-45v-41q4 -29 -17 -41q-25 -14 -53 -6q-2 4 -4 22q0 141 -2 168z" />
<glyph horiz-adv-x="448" d="M32 220q-1 44 1 87q6 119 43 187.5t87 89t104.5 9.5t90.5 -73q41 -76 43 -260q2 -57 2 -124.5t-2 -92.5q-2 -45 -36.5 -46t-36.5 32v54v84v56q-82 2 -119 1t-103 -11v-18q0 -14 7 -127q2 -25 -5.5 -43.5t-29.5 -22.5q-35 -10 -41 33q-2 23 -3 82t-2 103zM106 287 q14 -2 46 1t34 3t138 4q-2 66 -7 98q-8 70 -33.5 104.5t-74.5 30.5q-49 -6 -80 -84q-23 -75 -23 -157z" />
<glyph horiz-adv-x="442" d="M44 528.5q1 36.5 28 46.5q156 41 227.5 1.5t81.5 -119.5q10 -123 -82 -150q63 -20 91 -63t28 -94q0 -141 -193 -152q-147 -4 -163.5 6t-16.5 35v63q4 47 1 218.5t-2 208zM115 516q0 -73 2 -188h90q53 0 88 41q47 80 -2 134t-178 13zM117 252q4 -51 2 -148q0 -27 7 -30.5 t87 -7.5q137 10 131 96q-12 80 -92 94q-37 4 -135 -4z" />
<glyph horiz-adv-x="423" d="M14 295q2 98 37 178q39 72 93.5 100.5t107.5 20.5q109 -23 113 -152q0 -31 -35 -39q-25 -4 -37 25q-4 53 -25 78q-23 20 -51.5 17t-55 -25.5t-50 -73.5t-21.5 -166q6 -74 23 -111q31 -84 110 -77q45 4 70 39q12 55 49 53q49 -4 29 -66q-37 -90 -142 -96q-61 -6 -112 18 q-55 35 -78 99q-27 80 -25 178z" />
<glyph horiz-adv-x="432" d="M42 116.5q1 28.5 2 206t1 209.5q0 41 23 52q43 18 132 9t145.5 -81t60.5 -213q0 -211 -132 -276q-82 -37 -192 -21q-37 12 -39 57q-2 29 -1 57.5zM119 70l18 -2q127 -10 182 112q43 188 -38 291q-55 63 -160 53q2 -27 2 -37q-2 -96 -2 -160.5v-136.5q-2 -85 -2 -120z" />
<glyph horiz-adv-x="399" d="M31 283.5q0 76.5 6 148.5q14 123 129 156q96 18 155.5 -12.5t34.5 -73.5q-23 -23 -73 6q-49 31 -113 2q-51 -27 -57 -94q-4 -72 -2 -88q133 6 178 8q72 -14 30 -72q-31 -4 -122 -4l-78 -2q-12 0 -13 -12q-2 -55 5 -84q10 -80 98 -90q51 -4 119 32q41 8 52 -26.5 t-30 -57.5q-100 -35 -194 -16q-109 25 -121 164q-4 39 -4 115.5z" />
<glyph horiz-adv-x="380" d="M43 387l4 43q12 127 123 158q102 27 207 -21q25 -78 -60 -61l-47 14q-41 12 -90 -8q-55 -33 -61 -104q-4 -33 -2 -89l16 3q102 4 139 4q47 4 51.5 -21.5t-16.5 -44.5q-39 -14 -98 -12t-78 2q-14 0 -14 -12q10 -57 12 -179q0 -57 -31 -61q-16 -2 -28.5 1t-18.5 21 q-10 25 -8 367z" />
<glyph horiz-adv-x="448" d="M29 344q18 150 88.5 211t178 31.5t116.5 -170.5q-18 -25 -50 -23q-33 8 -36 58q-8 68 -84 75q-63 2 -99 -55q-35 -68 -41 -156q-6 -160 46.5 -216t142.5 -25q45 20 49 69q8 74 -10.5 75t-57.5 -1q-43 2 -51 19q-16 57 53 63h70q35 0 47 -14.5t17 -38.5q6 -41 4 -99 q-8 -90 -72 -125.5t-170 -19.5q-68 16 -110.5 105.5t-30.5 236.5z" />
<glyph horiz-adv-x="454" d="M46 74q-1 37 3 315q-2 68 0 160q0 25 11.5 36t19.5 9q41 4 41 -41q2 -25 0 -85t-1 -96t1 -42q14 0 59 2q107 6 150 10q0 20 -2 158q0 16 1 48t16 41t34 5q23 -6 22 -29q0 -141 5 -350v-170q2 -37 -14.5 -43t-45.5 2q-16 16 -13 105.5t-1 156.5q-35 2 -103 -2 q-47 -4 -108 -6v-120t-2 -89q0 -20 -15.5 -36.5t-33.5 -12.5q-23 0 -23 25q0 12 -1 49z" />
<glyph horiz-adv-x="225" d="M70 29q0 20 1 107t1 138v80.5t-2 186.5q-4 49 18.5 54t54.5 -13q2 -41 2 -92.5v-83.5v-117q0 -41 1 -88t1 -146q-2 -53 -32.5 -56t-44.5 30z" />
<glyph horiz-adv-x="352" d="M0 152q0 72 47 67q12 0 21 -20q-10 -43 6 -84q27 -45 65 -52q53 -4 73.5 38t20.5 153q0 74 -2 161t-2 138q0 18 10.5 30.5t28.5 14.5q35 0 35 -37v-47v-264v-70q-2 -119 -62.5 -157.5t-142.5 -16.5q-55 20 -77.5 62.5t-20.5 83.5z" />
<glyph horiz-adv-x="385" d="M41 543q0 23 7 37t24 16q33 0 39 -23q2 -39 2 -69q-2 -117 -2 -158l14 14q27 29 137 181q31 41 58.5 23.5t15.5 -46.5q-31 -53 -119 -151l-22 -25q16 -18 40.5 -61t108.5 -199q20 -33 24.5 -52.5t-16.5 -29.5q-45 -14 -61 23l-141 276l-35 -33q-8 -6 -4 -24q2 -41 4 -129 q0 -57 -1 -73.5t-10 -29.5q-8 -12 -30 -10q-8 -2 -15.5 6t-13.5 27q-2 168 -2 203z" />
<glyph horiz-adv-x="321" d="M44 153.5q-1 90.5 1 223.5v155q-2 59 35 62.5t39 -33.5q-2 -188 -3 -252.5t-1 -99.5q0 -98 -2 -135q31 6 34 6q68 8 113 3t64 -38q4 -31 -20.5 -38t-49.5 -5t-166 -2q-45 0 -43 47q0 16 -1 106.5z" />
<glyph horiz-adv-x="493" d="M43 532q-2 53 32 60.5t54 -23.5q72 -135 119 -231q37 100 86 221q14 39 55 37t45 -35q2 -193 8 -483q4 -57 -26 -76q-23 -6 -34 0t-13 37v174q2 184 6 301l-31 -92q-51 -152 -86 -164q-23 -8 -47 23q-53 84 -107 215l7 -121q4 -82 8 -326q0 -43 -19.5 -48t-34 4t-16.5 28 q-4 14 -3 96t-1 233.5t-2 169.5z" />
<glyph horiz-adv-x="450" d="M37 451q0 63 4 102q10 39 55 43t68 -53q53 -174 125 -391q16 -45 39 -103q-4 276 -5 381t-1 119q0 45 22 47q18 2 32.5 -7t14.5 -40q6 -369 2 -498q2 -45 -51 -51q-43 -6 -70 14q-63 147 -170 508l-6 4q2 -82 4 -129t2 -69q2 -49 13 -287q-2 -35 -21 -39q-55 -12 -53 18 q-2 238 -4 431z" />
<glyph horiz-adv-x="432" d="M27 369q12 125 71 186q51 49 117 45q82 -2 133 -72.5t53 -226.5q4 -213 -90 -281q-49 -29 -101 -26.5t-89 22.5q-63 43 -82.5 138.5t-11.5 214.5zM96 295q4 -98 17.5 -147.5t50.5 -73.5q53 -29 104 2q49 37 57.5 119.5t2.5 154.5q-10 115 -62 162q-39 25 -77.5 13.5 t-65.5 -60.5q-29 -66 -27 -170z" />
<glyph horiz-adv-x="413" d="M43 463v45q0 51 35 69.5t96.5 17.5t105.5 -23.5t75.5 -64.5t33.5 -112q-2 -96 -59.5 -134t-134.5 -38l-76 4q2 -27 3 -87t1 -81q0 -41 -13.5 -52t-35.5 -9q-23 0 -25 29q-2 55 -3 226t-3 210zM117 453q0 -74 2 -156q90 -20 160 8q63 41 30 146q-35 74 -111.5 75.5 t-80.5 -16.5v-57z" />
<glyph horiz-adv-x="438" d="M23 301q2 156 54 226.5t134 72.5q66 4 117 -43q59 -61 71 -188q8 -119 -11 -216.5t-83 -140.5l-4 -2q14 -8 27 -14q16 -8 21 -22.5t0 -24.5t-18.5 -17.5t-29.5 0.5q-16 6 -37 18.5t-35 18.5q-14 10 -18 21q-49 0 -96 26q-96 68 -92 285zM98 350q-6 -72 2.5 -156.5 t57.5 -121.5q51 -31 104 -2q37 25 49.5 76t16.5 149q4 104 -25 170q-27 49 -65.5 60.5t-77.5 -13.5q-52 -47 -62 -162z" />
<glyph horiz-adv-x="413" d="M43 463v45q0 51 35 69.5t96.5 17.5t105.5 -23.5t75.5 -64.5t33.5 -112q-2 -96 -59 -135q-37 -25 -84 -33q45 -86 98 -161q20 -31 15 -49.5t-33 -18.5q-33 0 -55.5 32.5t-67.5 137.5q-12 29 -25 55l-59 4q2 -29 3 -88t1 -80q0 -41 -13.5 -52t-35.5 -9q-23 0 -25 29 q-2 55 -3 226t-3 210zM117 453q0 -74 2 -156q90 -20 160 8q63 41 30 146q-35 74 -111.5 75.5t-80.5 -16.5v-57z" />
<glyph horiz-adv-x="337" d="M8 139q-2 23 12.5 35t34.5 8q25 -2 27 -39q0 -31 22 -55q31 -29 80 -25q51 8 62 58q8 45 -31 86q-41 37 -81 68.5t-75 70.5q-57 84 -12 176q43 72 127 74q72 0 102 -31q18 -23 9 -41q-14 -23 -43 -22l-31 8q-18 16 -46 14t-48 -26q-39 -49 4 -109q49 -57 96 -95t80 -81 q27 -41 21.5 -90t-37.5 -86q-55 -55 -168 -29q-88 31 -105 131z" />
<glyph horiz-adv-x="399" d="M-2 537q-6 18 10 34q20 14 69.5 15.5t258.5 9.5q68 4 67 -37q0 -29 -63 -37q-59 0 -84 -2q-23 -2 -20 -20q0 -49 1 -104.5t5 -336.5q2 -59 -34 -61t-38 17.5t-2 39.5v66q2 274 0 395h-51q-49 -4 -99 -2q-18 6 -20 23z" />
<glyph horiz-adv-x="462" d="M43 240q0 127 1 209.5t1 95.5q0 39 25 47q53 12 49 -43v-63t-1 -83t-1 -80.5v-50.5q0 -121 28 -170q23 -35 60 -41q47 -6 80 19q33 27 34 90q3 63 3 92q0 170 -3 305q2 20 33 27q41 2 41 -23q2 -47 2 -67q0 -76 2 -218.5t-14 -189.5q-27 -76 -113 -92q-74 -12 -124 6.5 t-76 73.5q-27 59 -27 156z" />
<glyph horiz-adv-x="430" d="M18 518q-14 47 11 66q20 14 37.5 8t29.5 -55q43 -195 70 -355l10 -98l31 98q10 27 54 168.5t67 204.5q18 47 63 39q37 -8 19 -55q-29 -68 -82 -217q-20 -51 -95 -277q-10 -33 -33.5 -41t-47.5 0q-18 12 -25 33q-10 33 -33 147q-8 49 -36.5 174t-39.5 160z" />
<glyph horiz-adv-x="534" d="M29 537q-2 35 10 51q31 12 49 -2q14 -12 14 -35v-136v-136q0 -33 7 -170q0 -39 32 -48q25 0 41.5 16.5t26.5 57.5q10 74 10 139q-2 39 31 39q18 0 25.5 -8t9.5 -31q0 -27 -1 -47t-10 -80q13 -71 62 -79q41 -4 53 45q4 37 6 173t3 174t3 99q0 37 43 37q31 0 29 -41l-2 -72 q0 -23 -3 -148.5t-3 -146.5q0 -117 -41 -159q-29 -29 -64 -29q-47 -4 -73.5 19.5t-36.5 60.5q-18 -35 -49 -57q-37 -27 -78 -25t-60 29q-25 31 -26 110q-6 246 -8 400z" />
<glyph horiz-adv-x="436" d="M-4 59q55 88 154 232q12 18 -5 41q-63 106 -104 170q-14 27 -8 46t30 23q25 4 41 -22q53 -96 78 -150l21 -30q39 68 123 206q20 31 51 17q31 -20 16 -51q-61 -96 -78 -117l-63 -102q-8 -16 2 -29q27 -49 54.5 -95t68.5 -114q6 -10 16 -29q20 -49 -20 -55q-33 -4 -49 27 q-53 94 -123 219q-106 -184 -142 -232q-18 -18 -45 -14q-39 16 -18 59z" />
<glyph horiz-adv-x="421" d="M39 494q-2 55 4 75q12 33 51 17q18 -10 19 -35v-109q-2 -106 -1 -162.5t5 -82.5q10 -72 82 -62q66 18 80 74q-6 264 -7 278v68q10 41 41 41q31 -2 37 -27v-98v-89t-1 -169t-1 -135q0 -35 1 -117t1 -94q-6 -37 -41 -35q-25 0 -28 39v190q0 15 2 66q-29 -37 -76 -53 q-53 -16 -98 8q-63 39 -68 145q-2 111 -2 267z" />
<glyph horiz-adv-x="421" d="M31 92q63 92 136 199.5t132 212.5q16 25 -6 26q-12 0 -79 -4t-146 -8q-27 2 -31 27q-2 25 14.5 37t44.5 10q125 2 170 2t64 -4q63 -27 39 -92q-53 -96 -101 -172q-33 -49 -166 -265l205 7q-6 39 -6 47q2 27 39 26q23 2 31 -28q12 -43 14 -60q10 -57 -53 -53 q-61 4 -116.5 4t-107 -2t-69.5 0q-66 14 -8 90z" />
<glyph horiz-adv-x="1241" d="M66 561q-10 57 9 126t54 114l104 141q35 45 97.5 83t120.5 44l172 25q59 10 127.5 -9.5t113.5 -54.5l142 -104q45 -35 82.5 -97.5t44.5 -119.5l24 -172q10 -59 -9.5 -128t-53.5 -114l-105 -141q-35 -45 -97.5 -83t-119.5 -44l-174 -25q-57 -10 -126 9.5t-114 54.5 l-141 104q-45 35 -83 97.5t-44 119.5zM286.5 764.5q-18.5 -62.5 24.5 -131.5q23 -41 53.5 -77t65.5 -71q-55 -35 -96 -75.5t-45 -85.5q-2 -39 15.5 -67t47 -43t67.5 -17t77 10q41 8 63.5 29.5t29.5 46t3 48t-17 40.5q-10 16 -30.5 40.5t-44.5 53.5l63 51q35 29 73 51.5 t73 46.5q29 -39 60.5 -72.5t59.5 -62.5q61 -59 69.5 -96t-26.5 -53q-37 -20 -75.5 -13t-38.5 43q0 18 1 38t-4 34t-19.5 22.5t-45.5 4.5q-31 -2 -47 -20.5t-18 -43t8 -53.5t33 -53q20 -23 58 -34t78 -9t78 18.5t62 48.5q18 27 19.5 51.5t-9 47t-29 42t-36.5 35.5 q-29 29 -66 68t-63 86q25 16 48 33.5t44 38.5q29 27 40 57.5t7 57t-23.5 47t-50.5 28.5q-33 8 -67.5 3t-61 -21.5t-42 -46t-9.5 -70.5q2 -31 14.5 -63.5t32.5 -65.5l-102 -59q-29 -16 -60.5 -34l-66.5 -38q-23 27 -43.5 52.5t-30.5 47.5q-33 49 -37 84t12 62q8 12 22.5 21 t30 9t28 -12t18.5 -45q10 -35 20.5 -57.5t50.5 -7.5q20 6 29.5 19t11.5 29.5t0 32t-6 25.5t-15 27.5t-31.5 33t-51.5 23.5t-76 -4q-88 -23 -106.5 -85.5zM382 338q3 21 15 35q16 18 31.5 33.5t42.5 35.5q10 -10 17.5 -19t15.5 -22q25 -25 35 -51t6 -47.5t-22.5 -36 t-51.5 -14.5t-53.5 14.5t-29.5 32.5t-6 39zM729 790.5q19 51.5 70 57.5q49 4 53 -28t-18 -66q-8 -20 -34 -40t-61 -42q0 4 -2 6q-27 61 -8 112.5z" />
</font>
</defs>
</svg>
